<?xml version="1.0" encoding="UTF-8" standalone="no"?>
<!DOCTYPE svg PUBLIC "-//W3C//DTD SVG 1.1//EN"
 "http://www.w3.org/Graphics/SVG/1.1/DTD/svg11.dtd">
<!-- Generated by graphviz version 2.43.0 (0)
 -->
<!-- Title: cpp/include/hdtree/Atomic.h Pages: 1 -->
<svg width="197pt" height="307pt"
 viewBox="0.00 0.00 197.00 307.00" xmlns="http://www.w3.org/2000/svg" xmlns:xlink="http://www.w3.org/1999/xlink">
<g id="graph0" class="graph" transform="scale(1 1) rotate(0) translate(4 303)">
<title>cpp/include/hdtree/Atomic.h</title>
<!-- Node1 -->
<g id="node1" class="node">
<title>Node1</title>
<g id="a_node1"><a xlink:title=" ">
<polygon fill="#bfbfbf" stroke="black" points="41,-268.5 41,-298.5 148,-298.5 148,-268.5 41,-268.5"/>
<text text-anchor="start" x="49" y="-286.5" font-family="Helvetica,sans-Serif" font-size="10.00">cpp/include/hdtree</text>
<text text-anchor="middle" x="94.5" y="-275.5" font-family="Helvetica,sans-Serif" font-size="10.00">/Atomic.h</text>
</a>
</g>
</g>
<!-- Node2 -->
<g id="node2" class="node">
<title>Node2</title>
<g id="a_node2"><a xlink:href="Reader_8h_source.html" target="_top" xlink:title=" ">
<polygon fill="none" stroke="black" points="0,-134.5 0,-164.5 107,-164.5 107,-134.5 0,-134.5"/>
<text text-anchor="start" x="8" y="-152.5" font-family="Helvetica,sans-Serif" font-size="10.00">cpp/include/hdtree</text>
<text text-anchor="middle" x="53.5" y="-141.5" font-family="Helvetica,sans-Serif" font-size="10.00">/Reader.h</text>
</a>
</g>
</g>
<!-- Node1&#45;&gt;Node2 -->
<g id="edge1" class="edge">
<title>Node1&#45;&gt;Node2</title>
<path fill="none" stroke="midnightblue" d="M83.82,-258.94C80.25,-250.54 76.44,-240.95 73.5,-232 65.86,-208.75 59.64,-180.91 56.26,-164.53"/>
<polygon fill="midnightblue" stroke="midnightblue" points="80.63,-260.37 87.83,-268.14 87.04,-257.57 80.63,-260.37"/>
</g>
<!-- Node5 -->
<g id="node5" class="node">
<title>Node5</title>
<g id="a_node5"><a xlink:href="Writer_8h_source.html" target="_top" xlink:title=" ">
<polygon fill="none" stroke="black" points="82,-201.5 82,-231.5 189,-231.5 189,-201.5 82,-201.5"/>
<text text-anchor="start" x="90" y="-219.5" font-family="Helvetica,sans-Serif" font-size="10.00">cpp/include/hdtree</text>
<text text-anchor="middle" x="135.5" y="-208.5" font-family="Helvetica,sans-Serif" font-size="10.00">/Writer.h</text>
</a>
</g>
</g>
<!-- Node1&#45;&gt;Node5 -->
<g id="edge4" class="edge">
<title>Node1&#45;&gt;Node5</title>
<path fill="none" stroke="midnightblue" d="M108.78,-259.87C114.71,-250.46 121.41,-239.83 126.62,-231.58"/>
<polygon fill="midnightblue" stroke="midnightblue" points="105.77,-258.07 103.4,-268.4 111.69,-261.81 105.77,-258.07"/>
</g>
<!-- Node3 -->
<g id="node3" class="node">
<title>Node3</title>
<g id="a_node3"><a xlink:href="Branch_8h.html" target="_top" xlink:title="Common include for users interacting with Branches.">
<polygon fill="none" stroke="black" points="41,-67.5 41,-97.5 148,-97.5 148,-67.5 41,-67.5"/>
<text text-anchor="start" x="49" y="-85.5" font-family="Helvetica,sans-Serif" font-size="10.00">cpp/include/hdtree</text>
<text text-anchor="middle" x="94.5" y="-74.5" font-family="Helvetica,sans-Serif" font-size="10.00">/Branch.h</text>
</a>
</g>
</g>
<!-- Node2&#45;&gt;Node3 -->
<g id="edge2" class="edge">
<title>Node2&#45;&gt;Node3</title>
<path fill="none" stroke="midnightblue" d="M67.78,-125.87C73.71,-116.46 80.41,-105.83 85.62,-97.58"/>
<polygon fill="midnightblue" stroke="midnightblue" points="64.77,-124.07 62.4,-134.4 70.69,-127.81 64.77,-124.07"/>
</g>
<!-- Node4 -->
<g id="node4" class="node">
<title>Node4</title>
<g id="a_node4"><a xlink:href="Tree_8h_source.html" target="_top" xlink:title=" ">
<polygon fill="none" stroke="black" points="41,-0.5 41,-30.5 148,-30.5 148,-0.5 41,-0.5"/>
<text text-anchor="start" x="49" y="-18.5" font-family="Helvetica,sans-Serif" font-size="10.00">cpp/include/hdtree</text>
<text text-anchor="middle" x="94.5" y="-7.5" font-family="Helvetica,sans-Serif" font-size="10.00">/Tree.h</text>
</a>
</g>
</g>
<!-- Node3&#45;&gt;Node4 -->
<g id="edge3" class="edge">
<title>Node3&#45;&gt;Node4</title>
<path fill="none" stroke="midnightblue" d="M94.5,-57.11C94.5,-48.15 94.5,-38.32 94.5,-30.58"/>
<polygon fill="midnightblue" stroke="midnightblue" points="91,-57.4 94.5,-67.4 98,-57.4 91,-57.4"/>
</g>
<!-- Node5&#45;&gt;Node2 -->
<g id="edge6" class="edge">
<title>Node5&#45;&gt;Node2</title>
<path fill="none" stroke="midnightblue" d="M109.85,-195.17C97.31,-185.23 82.53,-173.51 71.26,-164.58"/>
<polygon fill="midnightblue" stroke="midnightblue" points="107.7,-197.93 117.71,-201.4 112.04,-192.44 107.7,-197.93"/>
</g>
<!-- Node5&#45;&gt;Node3 -->
<g id="edge5" class="edge">
<title>Node5&#45;&gt;Node3</title>
<path fill="none" stroke="midnightblue" d="M130.65,-191.62C127.08,-175.23 121.77,-153.08 115.5,-134 111.41,-121.55 105.63,-107.85 101.17,-97.86"/>
<polygon fill="midnightblue" stroke="midnightblue" points="127.24,-192.42 132.74,-201.47 134.09,-190.96 127.24,-192.42"/>
</g>
</g>
</svg>
