<?xml version="1.0" encoding="UTF-8" standalone="no"?>
<!DOCTYPE svg PUBLIC "-//W3C//DTD SVG 1.1//EN"
 "http://www.w3.org/Graphics/SVG/1.1/DTD/svg11.dtd">
<!-- Generated by graphviz version 2.43.0 (0)
 -->
<!-- Title: cpp/include/hdtree/Branch.h Pages: 1 -->
<svg width="1383pt" height="263pt"
 viewBox="0.00 0.00 1383.00 263.00" xmlns="http://www.w3.org/2000/svg" xmlns:xlink="http://www.w3.org/1999/xlink">
<g id="graph0" class="graph" transform="scale(1 1) rotate(0) translate(4 259)">
<title>cpp/include/hdtree/Branch.h</title>
<!-- Node1 -->
<g id="node1" class="node">
<title>Node1</title>
<g id="a_node1"><a xlink:title="Common include for users interacting with Branches.">
<polygon fill="#bfbfbf" stroke="black" points="473,-224.5 473,-254.5 580,-254.5 580,-224.5 473,-224.5"/>
<text text-anchor="start" x="481" y="-242.5" font-family="Helvetica,sans-Serif" font-size="10.00">cpp/include/hdtree</text>
<text text-anchor="middle" x="526.5" y="-231.5" font-family="Helvetica,sans-Serif" font-size="10.00">/Branch.h</text>
</a>
</g>
</g>
<!-- Node2 -->
<g id="node2" class="node">
<title>Node2</title>
<g id="a_node2"><a xlink:title=" ">
<polygon fill="none" stroke="#bfbfbf" points="0,-168.5 0,-187.5 65,-187.5 65,-168.5 0,-168.5"/>
<text text-anchor="middle" x="32.5" y="-175.5" font-family="Helvetica,sans-Serif" font-size="10.00">exception</text>
</a>
</g>
</g>
<!-- Node1&#45;&gt;Node2 -->
<g id="edge1" class="edge">
<title>Node1&#45;&gt;Node2</title>
<path fill="none" stroke="midnightblue" d="M472.69,-234.24C389.65,-227.28 225.12,-211.96 75.73,-188.05"/>
<polygon fill="midnightblue" stroke="midnightblue" points="75.89,-184.53 65.46,-186.39 74.77,-191.44 75.89,-184.53"/>
</g>
<!-- Node3 -->
<g id="node3" class="node">
<title>Node3</title>
<g id="a_node3"><a xlink:title=" ">
<polygon fill="none" stroke="#bfbfbf" points="83.5,-168.5 83.5,-187.5 121.5,-187.5 121.5,-168.5 83.5,-168.5"/>
<text text-anchor="middle" x="102.5" y="-175.5" font-family="Helvetica,sans-Serif" font-size="10.00">map</text>
</a>
</g>
</g>
<!-- Node1&#45;&gt;Node3 -->
<g id="edge2" class="edge">
<title>Node1&#45;&gt;Node3</title>
<path fill="none" stroke="midnightblue" d="M472.8,-234.8C398.09,-228.97 258.57,-215.57 131.55,-187.86"/>
<polygon fill="midnightblue" stroke="midnightblue" points="132.17,-184.42 121.65,-185.67 130.66,-191.25 132.17,-184.42"/>
</g>
<!-- Node4 -->
<g id="node4" class="node">
<title>Node4</title>
<g id="a_node4"><a xlink:title=" ">
<polygon fill="none" stroke="#bfbfbf" points="139.5,-168.5 139.5,-187.5 197.5,-187.5 197.5,-168.5 139.5,-168.5"/>
<text text-anchor="middle" x="168.5" y="-175.5" font-family="Helvetica,sans-Serif" font-size="10.00">memory</text>
</a>
</g>
</g>
<!-- Node1&#45;&gt;Node4 -->
<g id="edge3" class="edge">
<title>Node1&#45;&gt;Node4</title>
<path fill="none" stroke="midnightblue" d="M472.86,-230.69C410.07,-221.37 303,-204.9 211.5,-188 210.23,-187.77 208.95,-187.52 207.65,-187.28"/>
<polygon fill="midnightblue" stroke="midnightblue" points="208.1,-183.8 197.61,-185.29 206.74,-190.66 208.1,-183.8"/>
</g>
<!-- Node5 -->
<g id="node5" class="node">
<title>Node5</title>
<g id="a_node5"><a xlink:title=" ">
<polygon fill="none" stroke="#bfbfbf" points="214,-0.5 214,-19.5 283,-19.5 283,-0.5 214,-0.5"/>
<text text-anchor="middle" x="248.5" y="-7.5" font-family="Helvetica,sans-Serif" font-size="10.00">type_traits</text>
</a>
</g>
</g>
<!-- Node1&#45;&gt;Node5 -->
<g id="edge4" class="edge">
<title>Node1&#45;&gt;Node5</title>
<path fill="none" stroke="midnightblue" d="M472.84,-233.44C428.27,-227.47 364.34,-214.74 314.5,-188 250.21,-153.51 223.58,-142.91 194.5,-76 185.76,-55.88 205.65,-37.09 223.71,-24.94"/>
<polygon fill="midnightblue" stroke="midnightblue" points="225.7,-27.82 232.3,-19.53 221.97,-21.9 225.7,-27.82"/>
</g>
<!-- Node6 -->
<g id="node6" class="node">
<title>Node6</title>
<g id="a_node6"><a xlink:title=" ">
<polygon fill="none" stroke="#bfbfbf" points="612,-168.5 612,-187.5 659,-187.5 659,-168.5 612,-168.5"/>
<text text-anchor="middle" x="635.5" y="-175.5" font-family="Helvetica,sans-Serif" font-size="10.00">vector</text>
</a>
</g>
</g>
<!-- Node1&#45;&gt;Node6 -->
<g id="edge5" class="edge">
<title>Node1&#45;&gt;Node6</title>
<path fill="none" stroke="midnightblue" d="M552.33,-224.4C569.97,-214.77 593.2,-202.09 610.63,-192.58"/>
<polygon fill="midnightblue" stroke="midnightblue" points="612.54,-195.52 619.64,-187.66 609.19,-189.38 612.54,-195.52"/>
</g>
<!-- Node7 -->
<g id="node7" class="node">
<title>Node7</title>
<g id="a_node7"><a xlink:href="AbstractBranch_8h_source.html" target="_top" xlink:title=" ">
<polygon fill="none" stroke="black" points="805.5,-112.5 805.5,-131.5 939.5,-131.5 939.5,-112.5 805.5,-112.5"/>
<text text-anchor="middle" x="872.5" y="-119.5" font-family="Helvetica,sans-Serif" font-size="10.00">hdtree/AbstractBranch.h</text>
</a>
</g>
</g>
<!-- Node1&#45;&gt;Node7 -->
<g id="edge6" class="edge">
<title>Node1&#45;&gt;Node7</title>
<path fill="none" stroke="midnightblue" d="M531.03,-224.24C537.03,-207.82 549.3,-181.38 569.5,-168 605.51,-144.14 717.84,-132.44 795.12,-127.08"/>
<polygon fill="midnightblue" stroke="midnightblue" points="795.56,-130.55 805.31,-126.39 795.09,-123.57 795.56,-130.55"/>
</g>
<!-- Node14 -->
<g id="node14" class="node">
<title>Node14</title>
<g id="a_node14"><a xlink:href="Access_8h_source.html" target="_top" xlink:title=" ">
<polygon fill="none" stroke="black" points="1058.5,-112.5 1058.5,-131.5 1152.5,-131.5 1152.5,-112.5 1058.5,-112.5"/>
<text text-anchor="middle" x="1105.5" y="-119.5" font-family="Helvetica,sans-Serif" font-size="10.00">hdtree/Access.h</text>
</a>
</g>
</g>
<!-- Node1&#45;&gt;Node14 -->
<g id="edge14" class="edge">
<title>Node1&#45;&gt;Node14</title>
<path fill="none" stroke="midnightblue" d="M536.95,-224.48C550.31,-207.76 575.14,-180.51 603.5,-168 643.36,-150.42 925.01,-132.96 1048.13,-126.07"/>
<polygon fill="midnightblue" stroke="midnightblue" points="1048.33,-129.56 1058.13,-125.52 1047.95,-122.58 1048.33,-129.56"/>
</g>
<!-- Node15 -->
<g id="node15" class="node">
<title>Node15</title>
<g id="a_node15"><a xlink:href="Constants_8h.html" target="_top" xlink:title="Definitions for names of structures required by serialization methods.">
<polygon fill="none" stroke="black" points="509,-56.5 509,-75.5 618,-75.5 618,-56.5 509,-56.5"/>
<text text-anchor="middle" x="563.5" y="-63.5" font-family="Helvetica,sans-Serif" font-size="10.00">hdtree/Constants.h</text>
</a>
</g>
</g>
<!-- Node1&#45;&gt;Node15 -->
<g id="edge16" class="edge">
<title>Node1&#45;&gt;Node15</title>
<path fill="none" stroke="midnightblue" d="M529.53,-224.47C536.16,-193.7 551.99,-120.33 559.47,-85.7"/>
<polygon fill="midnightblue" stroke="midnightblue" points="562.97,-86.07 561.65,-75.56 556.12,-84.6 562.97,-86.07"/>
</g>
<!-- Node16 -->
<g id="node16" class="node">
<title>Node16</title>
<g id="a_node16"><a xlink:href="Reader_8h_source.html" target="_top" xlink:title=" ">
<polygon fill="none" stroke="black" points="323.5,-168.5 323.5,-187.5 417.5,-187.5 417.5,-168.5 323.5,-168.5"/>
<text text-anchor="middle" x="370.5" y="-175.5" font-family="Helvetica,sans-Serif" font-size="10.00">hdtree/Reader.h</text>
</a>
</g>
</g>
<!-- Node1&#45;&gt;Node16 -->
<g id="edge18" class="edge">
<title>Node1&#45;&gt;Node16</title>
<path fill="none" stroke="midnightblue" d="M489.53,-224.4C463.12,-214.33 427.94,-200.91 402.69,-191.28"/>
<polygon fill="midnightblue" stroke="midnightblue" points="403.79,-187.95 393.2,-187.66 401.3,-194.49 403.79,-187.95"/>
</g>
<!-- Node21 -->
<g id="node21" class="node">
<title>Node21</title>
<g id="a_node21"><a xlink:href="Writer_8h_source.html" target="_top" xlink:title=" ">
<polygon fill="none" stroke="black" points="394,-112.5 394,-131.5 483,-131.5 483,-112.5 394,-112.5"/>
<text text-anchor="middle" x="438.5" y="-119.5" font-family="Helvetica,sans-Serif" font-size="10.00">hdtree/Writer.h</text>
</a>
</g>
</g>
<!-- Node1&#45;&gt;Node21 -->
<g id="edge31" class="edge">
<title>Node1&#45;&gt;Node21</title>
<path fill="none" stroke="midnightblue" d="M515.71,-224.34C499.42,-202.96 468.62,-162.53 451.25,-139.73"/>
<polygon fill="midnightblue" stroke="midnightblue" points="453.95,-137.5 445.11,-131.67 448.38,-141.74 453.95,-137.5"/>
</g>
<!-- Node22 -->
<g id="node22" class="node">
<title>Node22</title>
<g id="a_node22"><a xlink:href="GeneralBranch_8h_source.html" target="_top" xlink:title=" ">
<polygon fill="none" stroke="black" points="676.5,-168.5 676.5,-187.5 844.5,-187.5 844.5,-168.5 676.5,-168.5"/>
<text text-anchor="middle" x="760.5" y="-175.5" font-family="Helvetica,sans-Serif" font-size="10.00">hdtree/branch/GeneralBranch.h</text>
</a>
</g>
</g>
<!-- Node1&#45;&gt;Node22 -->
<g id="edge32" class="edge">
<title>Node1&#45;&gt;Node22</title>
<path fill="none" stroke="midnightblue" d="M580.18,-224.85C621.68,-214.3 678.38,-199.88 717.05,-190.05"/>
<polygon fill="midnightblue" stroke="midnightblue" points="718.13,-193.39 726.96,-187.53 716.4,-186.6 718.13,-193.39"/>
</g>
<!-- Node23 -->
<g id="node23" class="node">
<title>Node23</title>
<g id="a_node23"><a xlink:href="AtomicBranch_8h_source.html" target="_top" xlink:title=" ">
<polygon fill="none" stroke="black" points="862.5,-168.5 862.5,-187.5 1026.5,-187.5 1026.5,-168.5 862.5,-168.5"/>
<text text-anchor="middle" x="944.5" y="-175.5" font-family="Helvetica,sans-Serif" font-size="10.00">hdtree/branch/AtomicBranch.h</text>
</a>
</g>
</g>
<!-- Node1&#45;&gt;Node23 -->
<g id="edge33" class="edge">
<title>Node1&#45;&gt;Node23</title>
<path fill="none" stroke="midnightblue" d="M580.29,-230.84C655.33,-220.16 791.51,-200.78 874.41,-188.98"/>
<polygon fill="midnightblue" stroke="midnightblue" points="875.09,-192.41 884.5,-187.54 874.11,-185.48 875.09,-192.41"/>
</g>
<!-- Node24 -->
<g id="node24" class="node">
<title>Node24</title>
<g id="a_node24"><a xlink:href="MapBranch_8h_source.html" target="_top" xlink:title=" ">
<polygon fill="none" stroke="black" points="1045,-168.5 1045,-187.5 1196,-187.5 1196,-168.5 1045,-168.5"/>
<text text-anchor="middle" x="1120.5" y="-175.5" font-family="Helvetica,sans-Serif" font-size="10.00">hdtree/branch/MapBranch.h</text>
</a>
</g>
</g>
<!-- Node1&#45;&gt;Node24 -->
<g id="edge34" class="edge">
<title>Node1&#45;&gt;Node24</title>
<path fill="none" stroke="midnightblue" d="M580.01,-233.31C671,-224.45 861.97,-205.76 1034.91,-188.05"/>
<polygon fill="midnightblue" stroke="midnightblue" points="1035.37,-191.53 1044.96,-187.02 1034.65,-184.56 1035.37,-191.53"/>
</g>
<!-- Node25 -->
<g id="node25" class="node">
<title>Node25</title>
<g id="a_node25"><a xlink:href="VectorBranch_8h_source.html" target="_top" xlink:title=" ">
<polygon fill="none" stroke="black" points="1214,-168.5 1214,-187.5 1375,-187.5 1375,-168.5 1214,-168.5"/>
<text text-anchor="middle" x="1294.5" y="-175.5" font-family="Helvetica,sans-Serif" font-size="10.00">hdtree/branch/VectorBranch.h</text>
</a>
</g>
</g>
<!-- Node1&#45;&gt;Node25 -->
<g id="edge35" class="edge">
<title>Node1&#45;&gt;Node25</title>
<path fill="none" stroke="midnightblue" d="M580.23,-234.99C693.45,-227.49 965.1,-208.94 1203.72,-188.14"/>
<polygon fill="midnightblue" stroke="midnightblue" points="1204.32,-191.6 1213.98,-187.24 1203.71,-184.62 1204.32,-191.6"/>
</g>
<!-- Node8 -->
<g id="node8" class="node">
<title>Node8</title>
<g id="a_node8"><a xlink:title=" ">
<polygon fill="none" stroke="#bfbfbf" points="636.5,-56.5 636.5,-75.5 776.5,-75.5 776.5,-56.5 636.5,-56.5"/>
<text text-anchor="middle" x="706.5" y="-63.5" font-family="Helvetica,sans-Serif" font-size="10.00">boost/core/demangle.hpp</text>
</a>
</g>
</g>
<!-- Node7&#45;&gt;Node8 -->
<g id="edge7" class="edge">
<title>Node7&#45;&gt;Node8</title>
<path fill="none" stroke="midnightblue" d="M846.2,-112.44C818.15,-103.32 773.56,-88.81 742.32,-78.65"/>
<polygon fill="midnightblue" stroke="midnightblue" points="743.27,-75.28 732.68,-75.52 741.11,-81.94 743.27,-75.28"/>
</g>
<!-- Node9 -->
<g id="node9" class="node">
<title>Node9</title>
<g id="a_node9"><a xlink:title=" ">
<polygon fill="none" stroke="#bfbfbf" points="1008.5,-56.5 1008.5,-75.5 1052.5,-75.5 1052.5,-56.5 1008.5,-56.5"/>
<text text-anchor="middle" x="1030.5" y="-63.5" font-family="Helvetica,sans-Serif" font-size="10.00">limits</text>
</a>
</g>
</g>
<!-- Node7&#45;&gt;Node9 -->
<g id="edge8" class="edge">
<title>Node7&#45;&gt;Node9</title>
<path fill="none" stroke="midnightblue" d="M897.54,-112.44C924.98,-103.07 969.06,-88 998.87,-77.81"/>
<polygon fill="midnightblue" stroke="midnightblue" points="1000.06,-81.1 1008.39,-74.56 997.79,-74.48 1000.06,-81.1"/>
</g>
<!-- Node10 -->
<g id="node10" class="node">
<title>Node10</title>
<g id="a_node10"><a xlink:title=" ">
<polygon fill="none" stroke="#bfbfbf" points="794.5,-56.5 794.5,-75.5 850.5,-75.5 850.5,-56.5 794.5,-56.5"/>
<text text-anchor="middle" x="822.5" y="-63.5" font-family="Helvetica,sans-Serif" font-size="10.00">optional</text>
</a>
</g>
</g>
<!-- Node7&#45;&gt;Node10 -->
<g id="edge9" class="edge">
<title>Node7&#45;&gt;Node10</title>
<path fill="none" stroke="midnightblue" d="M864.24,-112.08C857.04,-104.3 846.39,-92.8 837.65,-83.37"/>
<polygon fill="midnightblue" stroke="midnightblue" points="839.97,-80.71 830.6,-75.75 834.83,-85.47 839.97,-80.71"/>
</g>
<!-- Node11 -->
<g id="node11" class="node">
<title>Node11</title>
<g id="a_node11"><a xlink:title=" ">
<polygon fill="none" stroke="#bfbfbf" points="1058.5,-0.5 1058.5,-19.5 1102.5,-19.5 1102.5,-0.5 1058.5,-0.5"/>
<text text-anchor="middle" x="1080.5" y="-7.5" font-family="Helvetica,sans-Serif" font-size="10.00">string</text>
</a>
</g>
</g>
<!-- Node7&#45;&gt;Node11 -->
<g id="edge10" class="edge">
<title>Node7&#45;&gt;Node11</title>
<path fill="none" stroke="midnightblue" d="M938.29,-112.46C985.5,-105.05 1043.78,-92.85 1061.5,-76 1074.01,-64.11 1078.42,-44.49 1079.91,-29.91"/>
<polygon fill="midnightblue" stroke="midnightblue" points="1083.42,-29.75 1080.57,-19.54 1076.44,-29.3 1083.42,-29.75"/>
</g>
<!-- Node12 -->
<g id="node12" class="node">
<title>Node12</title>
<g id="a_node12"><a xlink:href="ClassVersion_8h.html" target="_top" xlink:title="Serialization class version deduction.">
<polygon fill="none" stroke="black" points="868.5,-56.5 868.5,-75.5 990.5,-75.5 990.5,-56.5 868.5,-56.5"/>
<text text-anchor="middle" x="929.5" y="-63.5" font-family="Helvetica,sans-Serif" font-size="10.00">hdtree/ClassVersion.h</text>
</a>
</g>
</g>
<!-- Node7&#45;&gt;Node12 -->
<g id="edge11" class="edge">
<title>Node7&#45;&gt;Node12</title>
<path fill="none" stroke="midnightblue" d="M881.66,-112.32C890,-104.42 902.53,-92.55 912.68,-82.94"/>
<polygon fill="midnightblue" stroke="midnightblue" points="915.32,-85.25 920.18,-75.83 910.51,-80.17 915.32,-85.25"/>
</g>
<!-- Node13 -->
<g id="node13" class="node">
<title>Node13</title>
<g id="a_node13"><a xlink:href="Version_8h.html" target="_top" xlink:title=" ">
<polygon fill="none" stroke="black" points="1108.5,-56.5 1108.5,-75.5 1204.5,-75.5 1204.5,-56.5 1108.5,-56.5"/>
<text text-anchor="middle" x="1156.5" y="-63.5" font-family="Helvetica,sans-Serif" font-size="10.00">hdtree/Version.h</text>
</a>
</g>
</g>
<!-- Node7&#45;&gt;Node13 -->
<g id="edge12" class="edge">
<title>Node7&#45;&gt;Node13</title>
<path fill="none" stroke="midnightblue" d="M917.5,-112.44C967.46,-102.94 1048.1,-87.61 1101.7,-77.42"/>
<polygon fill="midnightblue" stroke="midnightblue" points="1102.54,-80.82 1111.71,-75.52 1101.23,-73.95 1102.54,-80.82"/>
</g>
<!-- Node13&#45;&gt;Node11 -->
<g id="edge13" class="edge">
<title>Node13&#45;&gt;Node11</title>
<path fill="none" stroke="midnightblue" d="M1144.29,-56.32C1132.72,-48.11 1115.12,-35.6 1101.34,-25.81"/>
<polygon fill="midnightblue" stroke="midnightblue" points="1103.11,-22.77 1092.93,-19.83 1099.06,-28.48 1103.11,-22.77"/>
</g>
<!-- Node14&#45;&gt;Node13 -->
<g id="edge15" class="edge">
<title>Node14&#45;&gt;Node13</title>
<path fill="none" stroke="midnightblue" d="M1113.92,-112.08C1121.35,-104.22 1132.35,-92.57 1141.31,-83.08"/>
<polygon fill="midnightblue" stroke="midnightblue" points="1143.91,-85.42 1148.24,-75.75 1138.82,-80.62 1143.91,-85.42"/>
</g>
<!-- Node15&#45;&gt;Node11 -->
<g id="edge17" class="edge">
<title>Node15&#45;&gt;Node11</title>
<path fill="none" stroke="midnightblue" d="M618.29,-57.15C621.41,-56.75 624.49,-56.36 627.5,-56 784.94,-37.12 973.84,-20.19 1048.19,-13.75"/>
<polygon fill="midnightblue" stroke="midnightblue" points="1048.65,-17.23 1058.31,-12.88 1048.05,-10.25 1048.65,-17.23"/>
</g>
<!-- Node16&#45;&gt;Node7 -->
<g id="edge21" class="edge">
<title>Node16&#45;&gt;Node7</title>
<path fill="none" stroke="midnightblue" d="M417.73,-171.92C504.42,-162.59 689.68,-142.67 795.04,-131.33"/>
<polygon fill="midnightblue" stroke="midnightblue" points="795.72,-134.78 805.29,-130.23 794.97,-127.82 795.72,-134.78"/>
</g>
<!-- Node17 -->
<g id="node17" class="node">
<title>Node17</title>
<g id="a_node17"><a xlink:title=" ">
<polygon fill="none" stroke="#bfbfbf" points="204,-56.5 204,-75.5 249,-75.5 249,-56.5 204,-56.5"/>
<text text-anchor="middle" x="226.5" y="-63.5" font-family="Helvetica,sans-Serif" font-size="10.00">utility</text>
</a>
</g>
</g>
<!-- Node16&#45;&gt;Node17 -->
<g id="edge19" class="edge">
<title>Node16&#45;&gt;Node17</title>
<path fill="none" stroke="midnightblue" d="M359.2,-168.37C334.7,-149.65 276.44,-105.15 245.92,-81.83"/>
<polygon fill="midnightblue" stroke="midnightblue" points="247.82,-78.88 237.75,-75.59 243.57,-84.44 247.82,-78.88"/>
</g>
<!-- Node18 -->
<g id="node18" class="node">
<title>Node18</title>
<g id="a_node18"><a xlink:title=" ">
<polygon fill="none" stroke="#bfbfbf" points="267.5,-56.5 267.5,-75.5 377.5,-75.5 377.5,-56.5 267.5,-56.5"/>
<text text-anchor="middle" x="322.5" y="-63.5" font-family="Helvetica,sans-Serif" font-size="10.00">highfive/H5File.hpp</text>
</a>
</g>
</g>
<!-- Node16&#45;&gt;Node18 -->
<g id="edge20" class="edge">
<title>Node16&#45;&gt;Node18</title>
<path fill="none" stroke="midnightblue" d="M366.73,-168.37C358.92,-150.46 340.79,-108.92 330.33,-84.95"/>
<polygon fill="midnightblue" stroke="midnightblue" points="333.46,-83.36 326.25,-75.59 327.04,-86.16 333.46,-83.36"/>
</g>
<!-- Node19 -->
<g id="node19" class="node">
<title>Node19</title>
<g id="a_node19"><a xlink:href="Atomic_8h.html" target="_top" xlink:title=" ">
<polygon fill="none" stroke="black" points="396,-56.5 396,-75.5 491,-75.5 491,-56.5 396,-56.5"/>
<text text-anchor="middle" x="443.5" y="-63.5" font-family="Helvetica,sans-Serif" font-size="10.00">hdtree/Atomic.h</text>
</a>
</g>
</g>
<!-- Node16&#45;&gt;Node19 -->
<g id="edge22" class="edge">
<title>Node16&#45;&gt;Node19</title>
<path fill="none" stroke="midnightblue" d="M370.69,-168.3C371.35,-155.12 374.15,-129.76 385.5,-112 393.65,-99.25 406.72,-88.65 418.39,-80.94"/>
<polygon fill="midnightblue" stroke="midnightblue" points="420.29,-83.88 426.93,-75.63 416.59,-77.94 420.29,-83.88"/>
</g>
<!-- Node16&#45;&gt;Node21 -->
<g id="edge25" class="edge">
<title>Node16&#45;&gt;Node21</title>
<path fill="none" stroke="midnightblue" d="M381.43,-168.32C391.67,-160.18 407.22,-147.84 419.5,-138.09"/>
<polygon fill="midnightblue" stroke="midnightblue" points="421.72,-140.79 427.38,-131.83 417.37,-135.31 421.72,-140.79"/>
</g>
<!-- Node19&#45;&gt;Node5 -->
<g id="edge24" class="edge">
<title>Node19&#45;&gt;Node5</title>
<path fill="none" stroke="midnightblue" d="M412.6,-56.44C379.23,-47.2 325.91,-32.44 289.15,-22.26"/>
<polygon fill="midnightblue" stroke="midnightblue" points="289.83,-18.81 279.25,-19.52 287.96,-25.56 289.83,-18.81"/>
</g>
<!-- Node20 -->
<g id="node20" class="node">
<title>Node20</title>
<g id="a_node20"><a xlink:title=" ">
<polygon fill="none" stroke="#bfbfbf" points="374,-0.5 374,-19.5 513,-19.5 513,-0.5 374,-0.5"/>
<text text-anchor="middle" x="443.5" y="-7.5" font-family="Helvetica,sans-Serif" font-size="10.00">highfive/H5DataType.hpp</text>
</a>
</g>
</g>
<!-- Node19&#45;&gt;Node20 -->
<g id="edge23" class="edge">
<title>Node19&#45;&gt;Node20</title>
<path fill="none" stroke="midnightblue" d="M443.5,-56.08C443.5,-49.01 443.5,-38.86 443.5,-29.99"/>
<polygon fill="midnightblue" stroke="midnightblue" points="447,-29.75 443.5,-19.75 440,-29.75 447,-29.75"/>
</g>
<!-- Node21&#45;&gt;Node8 -->
<g id="edge26" class="edge">
<title>Node21&#45;&gt;Node8</title>
<path fill="none" stroke="midnightblue" d="M480.97,-112.44C527.91,-102.98 603.58,-87.74 654.15,-77.55"/>
<polygon fill="midnightblue" stroke="midnightblue" points="655.12,-80.92 664.23,-75.52 653.74,-74.06 655.12,-80.92"/>
</g>
<!-- Node21&#45;&gt;Node15 -->
<g id="edge30" class="edge">
<title>Node21&#45;&gt;Node15</title>
<path fill="none" stroke="midnightblue" d="M458.31,-112.44C478.79,-103.6 510.98,-89.69 534.36,-79.59"/>
<polygon fill="midnightblue" stroke="midnightblue" points="535.99,-82.7 543.79,-75.52 533.22,-76.27 535.99,-82.7"/>
</g>
<!-- Node21&#45;&gt;Node17 -->
<g id="edge27" class="edge">
<title>Node21&#45;&gt;Node17</title>
<path fill="none" stroke="midnightblue" d="M402.9,-112.43C368.52,-104.07 314.75,-90.82 258.91,-76.05"/>
<polygon fill="midnightblue" stroke="midnightblue" points="259.77,-72.66 249.2,-73.47 257.97,-79.42 259.77,-72.66"/>
</g>
<!-- Node21&#45;&gt;Node18 -->
<g id="edge28" class="edge">
<title>Node21&#45;&gt;Node18</title>
<path fill="none" stroke="midnightblue" d="M420.12,-112.44C401.28,-103.68 371.77,-89.94 350.12,-79.86"/>
<polygon fill="midnightblue" stroke="midnightblue" points="351.34,-76.56 340.79,-75.52 348.38,-82.91 351.34,-76.56"/>
</g>
<!-- Node21&#45;&gt;Node19 -->
<g id="edge29" class="edge">
<title>Node21&#45;&gt;Node19</title>
<path fill="none" stroke="midnightblue" d="M439.33,-112.08C439.98,-105.01 440.92,-94.86 441.74,-85.99"/>
<polygon fill="midnightblue" stroke="midnightblue" points="445.25,-86.03 442.69,-75.75 438.28,-85.39 445.25,-86.03"/>
</g>
</g>
</svg>
