<?xml version="1.0" encoding="UTF-8" standalone="no"?>
<!DOCTYPE svg PUBLIC "-//W3C//DTD SVG 1.1//EN"
 "http://www.w3.org/Graphics/SVG/1.1/DTD/svg11.dtd">
<!-- Generated by graphviz version 2.43.0 (0)
 -->
<!-- Title: cpp/include/hdtree/Branch.h Pages: 1 -->
<svg width="1793pt" height="263pt"
 viewBox="0.00 0.00 1793.00 263.00" xmlns="http://www.w3.org/2000/svg" xmlns:xlink="http://www.w3.org/1999/xlink">
<g id="graph0" class="graph" transform="scale(1 1) rotate(0) translate(4 259)">
<title>cpp/include/hdtree/Branch.h</title>
<!-- Node1 -->
<g id="node1" class="node">
<title>Node1</title>
<g id="a_node1"><a xlink:title="Common include for users interacting with Branches.">
<polygon fill="#bfbfbf" stroke="black" points="955,-224.5 955,-254.5 1062,-254.5 1062,-224.5 955,-224.5"/>
<text text-anchor="start" x="963" y="-242.5" font-family="Helvetica,sans-Serif" font-size="10.00">cpp/include/hdtree</text>
<text text-anchor="middle" x="1008.5" y="-231.5" font-family="Helvetica,sans-Serif" font-size="10.00">/Branch.h</text>
</a>
</g>
</g>
<!-- Node2 -->
<g id="node2" class="node">
<title>Node2</title>
<g id="a_node2"><a xlink:title=" ">
<polygon fill="none" stroke="#bfbfbf" points="0,-0.5 0,-19.5 65,-19.5 65,-0.5 0,-0.5"/>
<text text-anchor="middle" x="32.5" y="-7.5" font-family="Helvetica,sans-Serif" font-size="10.00">exception</text>
</a>
</g>
</g>
<!-- Node1&#45;&gt;Node2 -->
<g id="edge1" class="edge">
<title>Node1&#45;&gt;Node2</title>
<path fill="none" stroke="midnightblue" d="M954.72,-236.14C763.66,-227.28 125.53,-193.3 59.5,-132 31.07,-105.61 29.29,-56.39 30.72,-29.58"/>
<polygon fill="midnightblue" stroke="midnightblue" points="34.22,-29.82 31.47,-19.59 27.24,-29.3 34.22,-29.82"/>
</g>
<!-- Node3 -->
<g id="node3" class="node">
<title>Node3</title>
<g id="a_node3"><a xlink:title=" ">
<polygon fill="none" stroke="#bfbfbf" points="1074.5,-168.5 1074.5,-187.5 1112.5,-187.5 1112.5,-168.5 1074.5,-168.5"/>
<text text-anchor="middle" x="1093.5" y="-175.5" font-family="Helvetica,sans-Serif" font-size="10.00">map</text>
</a>
</g>
</g>
<!-- Node1&#45;&gt;Node3 -->
<g id="edge2" class="edge">
<title>Node1&#45;&gt;Node3</title>
<path fill="none" stroke="midnightblue" d="M1028.64,-224.4C1041.89,-215.13 1059.18,-203.03 1072.58,-193.65"/>
<polygon fill="midnightblue" stroke="midnightblue" points="1074.95,-196.26 1081.13,-187.66 1070.93,-190.53 1074.95,-196.26"/>
</g>
<!-- Node4 -->
<g id="node4" class="node">
<title>Node4</title>
<g id="a_node4"><a xlink:title=" ">
<polygon fill="none" stroke="#bfbfbf" points="1130.5,-168.5 1130.5,-187.5 1188.5,-187.5 1188.5,-168.5 1130.5,-168.5"/>
<text text-anchor="middle" x="1159.5" y="-175.5" font-family="Helvetica,sans-Serif" font-size="10.00">memory</text>
</a>
</g>
</g>
<!-- Node1&#45;&gt;Node4 -->
<g id="edge3" class="edge">
<title>Node1&#45;&gt;Node4</title>
<path fill="none" stroke="midnightblue" d="M1044.28,-224.4C1069.73,-214.37 1103.6,-201.03 1128.02,-191.4"/>
<polygon fill="midnightblue" stroke="midnightblue" points="1129.51,-194.58 1137.53,-187.66 1126.94,-188.07 1129.51,-194.58"/>
</g>
<!-- Node5 -->
<g id="node5" class="node">
<title>Node5</title>
<g id="a_node5"><a xlink:title=" ">
<polygon fill="none" stroke="#bfbfbf" points="1179,-0.5 1179,-19.5 1248,-19.5 1248,-0.5 1179,-0.5"/>
<text text-anchor="middle" x="1213.5" y="-7.5" font-family="Helvetica,sans-Serif" font-size="10.00">type_traits</text>
</a>
</g>
</g>
<!-- Node1&#45;&gt;Node5 -->
<g id="edge4" class="edge">
<title>Node1&#45;&gt;Node5</title>
<path fill="none" stroke="midnightblue" d="M1018.21,-224.31C1028.82,-209.36 1046.82,-185.59 1065.5,-168 1116.78,-119.73 1153.71,-133.4 1194.5,-76 1204.18,-62.37 1208.97,-43.83 1211.31,-30.04"/>
<polygon fill="midnightblue" stroke="midnightblue" points="1214.83,-30.17 1212.76,-19.78 1207.9,-29.19 1214.83,-30.17"/>
</g>
<!-- Node6 -->
<g id="node6" class="node">
<title>Node6</title>
<g id="a_node6"><a xlink:title=" ">
<polygon fill="none" stroke="#bfbfbf" points="1207,-168.5 1207,-187.5 1254,-187.5 1254,-168.5 1207,-168.5"/>
<text text-anchor="middle" x="1230.5" y="-175.5" font-family="Helvetica,sans-Serif" font-size="10.00">vector</text>
</a>
</g>
</g>
<!-- Node1&#45;&gt;Node6 -->
<g id="edge5" class="edge">
<title>Node1&#45;&gt;Node6</title>
<path fill="none" stroke="midnightblue" d="M1061.47,-224.42C1097.15,-214.93 1145.52,-202.01 1197.05,-188.11"/>
<polygon fill="midnightblue" stroke="midnightblue" points="1197.97,-191.49 1206.71,-185.5 1196.14,-184.73 1197.97,-191.49"/>
</g>
<!-- Node7 -->
<g id="node7" class="node">
<title>Node7</title>
<g id="a_node7"><a xlink:href="AbstractBranch_8h_source.html" target="_top" xlink:title=" ">
<polygon fill="none" stroke="black" points="421.5,-112.5 421.5,-131.5 555.5,-131.5 555.5,-112.5 421.5,-112.5"/>
<text text-anchor="middle" x="488.5" y="-119.5" font-family="Helvetica,sans-Serif" font-size="10.00">hdtree/AbstractBranch.h</text>
</a>
</g>
</g>
<!-- Node1&#45;&gt;Node7 -->
<g id="edge6" class="edge">
<title>Node1&#45;&gt;Node7</title>
<path fill="none" stroke="midnightblue" d="M954.81,-226.57C853.18,-204 634.19,-155.36 536.84,-133.74"/>
<polygon fill="midnightblue" stroke="midnightblue" points="537.5,-130.3 526.98,-131.55 535.98,-137.13 537.5,-130.3"/>
</g>
<!-- Node14 -->
<g id="node14" class="node">
<title>Node14</title>
<g id="a_node14"><a xlink:href="Access_8h_source.html" target="_top" xlink:title=" ">
<polygon fill="none" stroke="black" points="259.5,-112.5 259.5,-131.5 353.5,-131.5 353.5,-112.5 259.5,-112.5"/>
<text text-anchor="middle" x="306.5" y="-119.5" font-family="Helvetica,sans-Serif" font-size="10.00">hdtree/Access.h</text>
</a>
</g>
</g>
<!-- Node1&#45;&gt;Node14 -->
<g id="edge14" class="edge">
<title>Node1&#45;&gt;Node14</title>
<path fill="none" stroke="midnightblue" d="M954.83,-229.85C892.84,-219.84 787.78,-202.83 697.5,-188 578.74,-168.49 439.75,-145.3 363.61,-132.56"/>
<polygon fill="midnightblue" stroke="midnightblue" points="364.18,-129.11 353.74,-130.91 363.02,-136.01 364.18,-129.11"/>
</g>
<!-- Node15 -->
<g id="node15" class="node">
<title>Node15</title>
<g id="a_node15"><a xlink:href="Constants_8h.html" target="_top" xlink:title="Definitions for names of structures required by serialization methods.">
<polygon fill="none" stroke="black" points="771,-56.5 771,-75.5 880,-75.5 880,-56.5 771,-56.5"/>
<text text-anchor="middle" x="825.5" y="-63.5" font-family="Helvetica,sans-Serif" font-size="10.00">hdtree/Constants.h</text>
</a>
</g>
</g>
<!-- Node1&#45;&gt;Node15 -->
<g id="edge16" class="edge">
<title>Node1&#45;&gt;Node15</title>
<path fill="none" stroke="midnightblue" d="M969.96,-224.42C948.49,-215.63 921.87,-203.13 900.5,-188 872.02,-167.85 863.36,-161.97 845.5,-132 836.91,-117.58 831.69,-99.13 828.75,-85.57"/>
<polygon fill="midnightblue" stroke="midnightblue" points="832.14,-84.67 826.79,-75.53 825.27,-86.01 832.14,-84.67"/>
</g>
<!-- Node16 -->
<g id="node16" class="node">
<title>Node16</title>
<g id="a_node16"><a xlink:href="Reader_8h_source.html" target="_top" xlink:title=" ">
<polygon fill="none" stroke="black" points="924.5,-168.5 924.5,-187.5 1018.5,-187.5 1018.5,-168.5 924.5,-168.5"/>
<text text-anchor="middle" x="971.5" y="-175.5" font-family="Helvetica,sans-Serif" font-size="10.00">hdtree/Reader.h</text>
</a>
</g>
</g>
<!-- Node1&#45;&gt;Node16 -->
<g id="edge18" class="edge">
<title>Node1&#45;&gt;Node16</title>
<path fill="none" stroke="midnightblue" d="M999.73,-224.4C994.52,-216.02 987.87,-205.33 982.33,-196.42"/>
<polygon fill="midnightblue" stroke="midnightblue" points="985.14,-194.3 976.88,-187.66 979.19,-198 985.14,-194.3"/>
</g>
<!-- Node21 -->
<g id="node21" class="node">
<title>Node21</title>
<g id="a_node21"><a xlink:href="Writer_8h_source.html" target="_top" xlink:title=" ">
<polygon fill="none" stroke="black" points="854,-112.5 854,-131.5 943,-131.5 943,-112.5 854,-112.5"/>
<text text-anchor="middle" x="898.5" y="-119.5" font-family="Helvetica,sans-Serif" font-size="10.00">hdtree/Writer.h</text>
</a>
</g>
</g>
<!-- Node1&#45;&gt;Node21 -->
<g id="edge35" class="edge">
<title>Node1&#45;&gt;Node21</title>
<path fill="none" stroke="midnightblue" d="M966.32,-224.34C948.27,-216.3 928.42,-204.49 915.5,-188 905.06,-174.67 900.99,-155.55 899.43,-141.5"/>
<polygon fill="midnightblue" stroke="midnightblue" points="902.92,-141.22 898.64,-131.52 895.94,-141.77 902.92,-141.22"/>
</g>
<!-- Node24 -->
<g id="node24" class="node">
<title>Node24</title>
<g id="a_node24"><a xlink:href="GeneralBranch_8h_source.html" target="_top" xlink:title=" ">
<polygon fill="none" stroke="black" points="68.5,-112.5 68.5,-131.5 236.5,-131.5 236.5,-112.5 68.5,-112.5"/>
<text text-anchor="middle" x="152.5" y="-119.5" font-family="Helvetica,sans-Serif" font-size="10.00">hdtree/branch/GeneralBranch.h</text>
</a>
</g>
</g>
<!-- Node1&#45;&gt;Node24 -->
<g id="edge36" class="edge">
<title>Node1&#45;&gt;Node24</title>
<path fill="none" stroke="midnightblue" d="M954.97,-232.92C872.95,-224.21 711.31,-206.49 574.5,-188 445.8,-170.61 295.62,-146.58 213.63,-133.14"/>
<polygon fill="midnightblue" stroke="midnightblue" points="214.17,-129.68 203.73,-131.52 213.03,-136.59 214.17,-129.68"/>
</g>
<!-- Node25 -->
<g id="node25" class="node">
<title>Node25</title>
<g id="a_node25"><a xlink:href="AtomicBranch_8h_source.html" target="_top" xlink:title=" ">
<polygon fill="none" stroke="black" points="1272.5,-168.5 1272.5,-187.5 1436.5,-187.5 1436.5,-168.5 1272.5,-168.5"/>
<text text-anchor="middle" x="1354.5" y="-175.5" font-family="Helvetica,sans-Serif" font-size="10.00">hdtree/branch/AtomicBranch.h</text>
</a>
</g>
</g>
<!-- Node1&#45;&gt;Node25 -->
<g id="edge38" class="edge">
<title>Node1&#45;&gt;Node25</title>
<path fill="none" stroke="midnightblue" d="M1062.18,-229.27C1125.15,-218.44 1229.25,-200.54 1294.74,-189.28"/>
<polygon fill="midnightblue" stroke="midnightblue" points="1295.64,-192.67 1304.9,-187.53 1294.45,-185.77 1295.64,-192.67"/>
</g>
<!-- Node26 -->
<g id="node26" class="node">
<title>Node26</title>
<g id="a_node26"><a xlink:href="MapBranch_8h_source.html" target="_top" xlink:title=" ">
<polygon fill="none" stroke="black" points="1455,-168.5 1455,-187.5 1606,-187.5 1606,-168.5 1455,-168.5"/>
<text text-anchor="middle" x="1530.5" y="-175.5" font-family="Helvetica,sans-Serif" font-size="10.00">hdtree/branch/MapBranch.h</text>
</a>
</g>
</g>
<!-- Node1&#45;&gt;Node26 -->
<g id="edge39" class="edge">
<title>Node1&#45;&gt;Node26</title>
<path fill="none" stroke="midnightblue" d="M1062.4,-232.36C1153.12,-222.02 1337,-201.06 1445.34,-188.71"/>
<polygon fill="midnightblue" stroke="midnightblue" points="1446.04,-192.15 1455.58,-187.54 1445.25,-185.2 1446.04,-192.15"/>
</g>
<!-- Node27 -->
<g id="node27" class="node">
<title>Node27</title>
<g id="a_node27"><a xlink:href="VectorBranch_8h_source.html" target="_top" xlink:title=" ">
<polygon fill="none" stroke="black" points="1624,-168.5 1624,-187.5 1785,-187.5 1785,-168.5 1624,-168.5"/>
<text text-anchor="middle" x="1704.5" y="-175.5" font-family="Helvetica,sans-Serif" font-size="10.00">hdtree/branch/VectorBranch.h</text>
</a>
</g>
</g>
<!-- Node1&#45;&gt;Node27 -->
<g id="edge40" class="edge">
<title>Node1&#45;&gt;Node27</title>
<path fill="none" stroke="midnightblue" d="M1062.12,-234.36C1166.31,-226.25 1403.65,-207.43 1613.98,-188.13"/>
<polygon fill="midnightblue" stroke="midnightblue" points="1614.34,-191.61 1623.98,-187.21 1613.7,-184.64 1614.34,-191.61"/>
</g>
<!-- Node8 -->
<g id="node8" class="node">
<title>Node8</title>
<g id="a_node8"><a xlink:title=" ">
<polygon fill="none" stroke="#bfbfbf" points="612.5,-56.5 612.5,-75.5 752.5,-75.5 752.5,-56.5 612.5,-56.5"/>
<text text-anchor="middle" x="682.5" y="-63.5" font-family="Helvetica,sans-Serif" font-size="10.00">boost/core/demangle.hpp</text>
</a>
</g>
</g>
<!-- Node7&#45;&gt;Node8 -->
<g id="edge7" class="edge">
<title>Node7&#45;&gt;Node8</title>
<path fill="none" stroke="midnightblue" d="M519.24,-112.44C552.44,-103.2 605.49,-88.44 642.06,-78.26"/>
<polygon fill="midnightblue" stroke="midnightblue" points="643.21,-81.57 651.9,-75.52 641.33,-74.83 643.21,-81.57"/>
</g>
<!-- Node9 -->
<g id="node9" class="node">
<title>Node9</title>
<g id="a_node9"><a xlink:title=" ">
<polygon fill="none" stroke="#bfbfbf" points="298.5,-56.5 298.5,-75.5 342.5,-75.5 342.5,-56.5 298.5,-56.5"/>
<text text-anchor="middle" x="320.5" y="-63.5" font-family="Helvetica,sans-Serif" font-size="10.00">limits</text>
</a>
</g>
</g>
<!-- Node7&#45;&gt;Node9 -->
<g id="edge8" class="edge">
<title>Node7&#45;&gt;Node9</title>
<path fill="none" stroke="midnightblue" d="M461.88,-112.44C432.16,-102.89 384.08,-87.44 352.38,-77.25"/>
<polygon fill="midnightblue" stroke="midnightblue" points="353.29,-73.86 342.7,-74.14 351.15,-80.53 353.29,-73.86"/>
</g>
<!-- Node10 -->
<g id="node10" class="node">
<title>Node10</title>
<g id="a_node10"><a xlink:title=" ">
<polygon fill="none" stroke="#bfbfbf" points="360.5,-56.5 360.5,-75.5 416.5,-75.5 416.5,-56.5 360.5,-56.5"/>
<text text-anchor="middle" x="388.5" y="-63.5" font-family="Helvetica,sans-Serif" font-size="10.00">optional</text>
</a>
</g>
</g>
<!-- Node7&#45;&gt;Node10 -->
<g id="edge9" class="edge">
<title>Node7&#45;&gt;Node10</title>
<path fill="none" stroke="midnightblue" d="M472.43,-112.32C456.54,-103.74 431.99,-90.49 413.54,-80.52"/>
<polygon fill="midnightblue" stroke="midnightblue" points="414.99,-77.33 404.53,-75.65 411.66,-83.49 414.99,-77.33"/>
</g>
<!-- Node11 -->
<g id="node11" class="node">
<title>Node11</title>
<g id="a_node11"><a xlink:title=" ">
<polygon fill="none" stroke="#bfbfbf" points="316.5,-0.5 316.5,-19.5 360.5,-19.5 360.5,-0.5 316.5,-0.5"/>
<text text-anchor="middle" x="338.5" y="-7.5" font-family="Helvetica,sans-Serif" font-size="10.00">string</text>
</a>
</g>
</g>
<!-- Node7&#45;&gt;Node11 -->
<g id="edge10" class="edge">
<title>Node7&#45;&gt;Node11</title>
<path fill="none" stroke="midnightblue" d="M481.51,-112.12C470.61,-98.72 448.46,-73.06 425.5,-56 408,-42.99 386.2,-31.72 368.8,-23.71"/>
<polygon fill="midnightblue" stroke="midnightblue" points="370.19,-20.51 359.64,-19.61 367.33,-26.89 370.19,-20.51"/>
</g>
<!-- Node12 -->
<g id="node12" class="node">
<title>Node12</title>
<g id="a_node12"><a xlink:href="ClassVersion_8h.html" target="_top" xlink:title="Serialization class version deduction.">
<polygon fill="none" stroke="black" points="472.5,-56.5 472.5,-75.5 594.5,-75.5 594.5,-56.5 472.5,-56.5"/>
<text text-anchor="middle" x="533.5" y="-63.5" font-family="Helvetica,sans-Serif" font-size="10.00">hdtree/ClassVersion.h</text>
</a>
</g>
</g>
<!-- Node7&#45;&gt;Node12 -->
<g id="edge11" class="edge">
<title>Node7&#45;&gt;Node12</title>
<path fill="none" stroke="midnightblue" d="M495.93,-112.08C502.35,-104.38 511.81,-93.03 519.62,-83.65"/>
<polygon fill="midnightblue" stroke="midnightblue" points="522.49,-85.67 526.21,-75.75 517.12,-81.19 522.49,-85.67"/>
</g>
<!-- Node13 -->
<g id="node13" class="node">
<title>Node13</title>
<g id="a_node13"><a xlink:href="Version_8h.html" target="_top" xlink:title=" ">
<polygon fill="none" stroke="black" points="184.5,-56.5 184.5,-75.5 280.5,-75.5 280.5,-56.5 184.5,-56.5"/>
<text text-anchor="middle" x="232.5" y="-63.5" font-family="Helvetica,sans-Serif" font-size="10.00">hdtree/Version.h</text>
</a>
</g>
</g>
<!-- Node7&#45;&gt;Node13 -->
<g id="edge12" class="edge">
<title>Node7&#45;&gt;Node13</title>
<path fill="none" stroke="midnightblue" d="M447.94,-112.44C403.18,-103 331.12,-87.8 282.8,-77.61"/>
<polygon fill="midnightblue" stroke="midnightblue" points="283.38,-74.16 272.87,-75.52 281.94,-81.01 283.38,-74.16"/>
</g>
<!-- Node13&#45;&gt;Node11 -->
<g id="edge13" class="edge">
<title>Node13&#45;&gt;Node11</title>
<path fill="none" stroke="midnightblue" d="M249.53,-56.32C266.53,-47.66 292.88,-34.24 312.49,-24.25"/>
<polygon fill="midnightblue" stroke="midnightblue" points="314.19,-27.31 321.51,-19.65 311.01,-21.08 314.19,-27.31"/>
</g>
<!-- Node14&#45;&gt;Node13 -->
<g id="edge15" class="edge">
<title>Node14&#45;&gt;Node13</title>
<path fill="none" stroke="midnightblue" d="M294.61,-112.32C283.35,-104.11 266.21,-91.6 252.79,-81.81"/>
<polygon fill="midnightblue" stroke="midnightblue" points="254.75,-78.9 244.61,-75.83 250.62,-84.56 254.75,-78.9"/>
</g>
<!-- Node15&#45;&gt;Node11 -->
<g id="edge17" class="edge">
<title>Node15&#45;&gt;Node11</title>
<path fill="none" stroke="midnightblue" d="M770.7,-57.17C767.59,-56.76 764.51,-56.37 761.5,-56 615.79,-38.01 441.3,-20.82 370.6,-14.04"/>
<polygon fill="midnightblue" stroke="midnightblue" points="370.84,-10.55 360.55,-13.08 370.17,-17.52 370.84,-10.55"/>
</g>
<!-- Node16&#45;&gt;Node7 -->
<g id="edge21" class="edge">
<title>Node16&#45;&gt;Node7</title>
<path fill="none" stroke="midnightblue" d="M924.31,-171.72C841,-162.41 667.14,-142.97 566.01,-131.67"/>
<polygon fill="midnightblue" stroke="midnightblue" points="566.18,-128.16 555.85,-130.53 565.4,-135.12 566.18,-128.16"/>
</g>
<!-- Node17 -->
<g id="node17" class="node">
<title>Node17</title>
<g id="a_node17"><a xlink:title=" ">
<polygon fill="none" stroke="#bfbfbf" points="1027,-56.5 1027,-75.5 1072,-75.5 1072,-56.5 1027,-56.5"/>
<text text-anchor="middle" x="1049.5" y="-63.5" font-family="Helvetica,sans-Serif" font-size="10.00">utility</text>
</a>
</g>
</g>
<!-- Node16&#45;&gt;Node17 -->
<g id="edge19" class="edge">
<title>Node16&#45;&gt;Node17</title>
<path fill="none" stroke="midnightblue" d="M977.62,-168.37C990.49,-150.22 1020.57,-107.8 1037.45,-83.99"/>
<polygon fill="midnightblue" stroke="midnightblue" points="1040.48,-85.77 1043.41,-75.59 1034.77,-81.72 1040.48,-85.77"/>
</g>
<!-- Node18 -->
<g id="node18" class="node">
<title>Node18</title>
<g id="a_node18"><a xlink:title=" ">
<polygon fill="none" stroke="#bfbfbf" points="898.5,-56.5 898.5,-75.5 1008.5,-75.5 1008.5,-56.5 898.5,-56.5"/>
<text text-anchor="middle" x="953.5" y="-63.5" font-family="Helvetica,sans-Serif" font-size="10.00">highfive/H5File.hpp</text>
</a>
</g>
</g>
<!-- Node16&#45;&gt;Node18 -->
<g id="edge20" class="edge">
<title>Node16&#45;&gt;Node18</title>
<path fill="none" stroke="midnightblue" d="M970.09,-168.37C967.18,-150.62 960.48,-109.67 956.54,-85.6"/>
<polygon fill="midnightblue" stroke="midnightblue" points="959.97,-84.89 954.91,-75.59 953.07,-86.03 959.97,-84.89"/>
</g>
<!-- Node19 -->
<g id="node19" class="node">
<title>Node19</title>
<g id="a_node19"><a xlink:href="Atomic_8h.html" target="_top" xlink:title=" ">
<polygon fill="none" stroke="black" points="1090,-56.5 1090,-75.5 1185,-75.5 1185,-56.5 1090,-56.5"/>
<text text-anchor="middle" x="1137.5" y="-63.5" font-family="Helvetica,sans-Serif" font-size="10.00">hdtree/Atomic.h</text>
</a>
</g>
</g>
<!-- Node16&#45;&gt;Node19 -->
<g id="edge22" class="edge">
<title>Node16&#45;&gt;Node19</title>
<path fill="none" stroke="midnightblue" d="M984.53,-168.37C1013.01,-149.49 1081.08,-104.38 1116.02,-81.24"/>
<polygon fill="midnightblue" stroke="midnightblue" points="1118.13,-84.03 1124.53,-75.59 1114.27,-78.2 1118.13,-84.03"/>
</g>
<!-- Node16&#45;&gt;Node21 -->
<g id="edge25" class="edge">
<title>Node16&#45;&gt;Node21</title>
<path fill="none" stroke="midnightblue" d="M959.77,-168.32C948.66,-160.11 931.76,-147.6 918.52,-137.81"/>
<polygon fill="midnightblue" stroke="midnightblue" points="920.56,-134.97 910.44,-131.83 916.4,-140.59 920.56,-134.97"/>
</g>
<!-- Node19&#45;&gt;Node5 -->
<g id="edge24" class="edge">
<title>Node19&#45;&gt;Node5</title>
<path fill="none" stroke="midnightblue" d="M1149.71,-56.32C1161.28,-48.11 1178.88,-35.6 1192.66,-25.81"/>
<polygon fill="midnightblue" stroke="midnightblue" points="1194.94,-28.48 1201.07,-19.83 1190.89,-22.77 1194.94,-28.48"/>
</g>
<!-- Node20 -->
<g id="node20" class="node">
<title>Node20</title>
<g id="a_node20"><a xlink:title=" ">
<polygon fill="none" stroke="#bfbfbf" points="1022,-0.5 1022,-19.5 1161,-19.5 1161,-0.5 1022,-0.5"/>
<text text-anchor="middle" x="1091.5" y="-7.5" font-family="Helvetica,sans-Serif" font-size="10.00">highfive/H5DataType.hpp</text>
</a>
</g>
</g>
<!-- Node19&#45;&gt;Node20 -->
<g id="edge23" class="edge">
<title>Node19&#45;&gt;Node20</title>
<path fill="none" stroke="midnightblue" d="M1129.9,-56.08C1123.27,-48.3 1113.48,-36.8 1105.44,-27.37"/>
<polygon fill="midnightblue" stroke="midnightblue" points="1108.1,-25.09 1098.95,-19.75 1102.77,-29.63 1108.1,-25.09"/>
</g>
<!-- Node21&#45;&gt;Node8 -->
<g id="edge26" class="edge">
<title>Node21&#45;&gt;Node8</title>
<path fill="none" stroke="midnightblue" d="M864.27,-112.44C826.99,-103.12 767.23,-88.18 726.49,-78"/>
<polygon fill="midnightblue" stroke="midnightblue" points="727.12,-74.55 716.57,-75.52 725.42,-81.34 727.12,-74.55"/>
</g>
<!-- Node21&#45;&gt;Node15 -->
<g id="edge30" class="edge">
<title>Node21&#45;&gt;Node15</title>
<path fill="none" stroke="midnightblue" d="M886.77,-112.32C875.66,-104.11 858.76,-91.6 845.52,-81.81"/>
<polygon fill="midnightblue" stroke="midnightblue" points="847.56,-78.97 837.44,-75.83 843.4,-84.59 847.56,-78.97"/>
</g>
<!-- Node21&#45;&gt;Node17 -->
<g id="edge27" class="edge">
<title>Node21&#45;&gt;Node17</title>
<path fill="none" stroke="midnightblue" d="M922.43,-112.44C948.02,-103.29 988.75,-88.73 1017.18,-78.56"/>
<polygon fill="midnightblue" stroke="midnightblue" points="1018.44,-81.83 1026.67,-75.16 1016.08,-75.23 1018.44,-81.83"/>
</g>
<!-- Node21&#45;&gt;Node18 -->
<g id="edge28" class="edge">
<title>Node21&#45;&gt;Node18</title>
<path fill="none" stroke="midnightblue" d="M907.58,-112.08C915.67,-104.14 927.7,-92.34 937.41,-82.8"/>
<polygon fill="midnightblue" stroke="midnightblue" points="939.9,-85.25 944.59,-75.75 935,-80.26 939.9,-85.25"/>
</g>
<!-- Node21&#45;&gt;Node19 -->
<g id="edge29" class="edge">
<title>Node21&#45;&gt;Node19</title>
<path fill="none" stroke="midnightblue" d="M936.37,-112.44C977.98,-103.04 1044.87,-87.93 1089.97,-77.74"/>
<polygon fill="midnightblue" stroke="midnightblue" points="1090.82,-81.13 1099.81,-75.52 1089.28,-74.31 1090.82,-81.13"/>
</g>
<!-- Node22 -->
<g id="node22" class="node">
<title>Node22</title>
<g id="a_node22"><a xlink:href="Exception_8h_source.html" target="_top" xlink:title=" ">
<polygon fill="none" stroke="black" points="58.5,-56.5 58.5,-75.5 166.5,-75.5 166.5,-56.5 58.5,-56.5"/>
<text text-anchor="middle" x="112.5" y="-63.5" font-family="Helvetica,sans-Serif" font-size="10.00">hdtree/Exception.h</text>
</a>
</g>
</g>
<!-- Node21&#45;&gt;Node22 -->
<g id="edge31" class="edge">
<title>Node21&#45;&gt;Node22</title>
<path fill="none" stroke="midnightblue" d="M853.97,-119.46C742,-115.34 439.47,-102.56 176.87,-76.06"/>
<polygon fill="midnightblue" stroke="midnightblue" points="177.07,-72.56 166.76,-75.03 176.36,-79.53 177.07,-72.56"/>
</g>
<!-- Node22&#45;&gt;Node2 -->
<g id="edge33" class="edge">
<title>Node22&#45;&gt;Node2</title>
<path fill="none" stroke="midnightblue" d="M99.65,-56.32C87.28,-47.98 68.37,-35.21 53.76,-25.35"/>
<polygon fill="midnightblue" stroke="midnightblue" points="55.57,-22.35 45.32,-19.65 51.65,-28.15 55.57,-22.35"/>
</g>
<!-- Node22&#45;&gt;Node11 -->
<g id="edge32" class="edge">
<title>Node22&#45;&gt;Node11</title>
<path fill="none" stroke="midnightblue" d="M148.31,-56.44C191.8,-46.05 264.5,-28.68 306.29,-18.7"/>
<polygon fill="midnightblue" stroke="midnightblue" points="307.3,-22.05 316.22,-16.32 305.68,-15.24 307.3,-22.05"/>
</g>
<!-- Node23 -->
<g id="node23" class="node">
<title>Node23</title>
<g id="a_node23"><a xlink:title=" ">
<polygon fill="none" stroke="#bfbfbf" points="84,-0.5 84,-19.5 141,-19.5 141,-0.5 84,-0.5"/>
<text text-anchor="middle" x="112.5" y="-7.5" font-family="Helvetica,sans-Serif" font-size="10.00">ostream</text>
</a>
</g>
</g>
<!-- Node22&#45;&gt;Node23 -->
<g id="edge34" class="edge">
<title>Node22&#45;&gt;Node23</title>
<path fill="none" stroke="midnightblue" d="M112.5,-56.08C112.5,-49.01 112.5,-38.86 112.5,-29.99"/>
<polygon fill="midnightblue" stroke="midnightblue" points="116,-29.75 112.5,-19.75 109,-29.75 116,-29.75"/>
</g>
<!-- Node24&#45;&gt;Node22 -->
<g id="edge37" class="edge">
<title>Node24&#45;&gt;Node22</title>
<path fill="none" stroke="midnightblue" d="M145.89,-112.08C140.24,-104.46 131.96,-93.26 125.05,-83.94"/>
<polygon fill="midnightblue" stroke="midnightblue" points="127.75,-81.7 118.98,-75.75 122.12,-85.87 127.75,-81.7"/>
</g>
</g>
</svg>
