<?xml version="1.0" encoding="UTF-8" standalone="no"?>
<!DOCTYPE svg PUBLIC "-//W3C//DTD SVG 1.1//EN"
 "http://www.w3.org/Graphics/SVG/1.1/DTD/svg11.dtd">
<!-- Generated by graphviz version 2.43.0 (0)
 -->
<!-- Title: cpp/include/hdtree/Branch.h Pages: 1 -->
<svg width="314pt" height="162pt"
 viewBox="0.00 0.00 313.50 162.00" xmlns="http://www.w3.org/2000/svg" xmlns:xlink="http://www.w3.org/1999/xlink">
<g id="graph0" class="graph" transform="scale(1 1) rotate(0) translate(4 158)">
<title>cpp/include/hdtree/Branch.h</title>
<!-- Node1 -->
<g id="node1" class="node">
<title>Node1</title>
<g id="a_node1"><a xlink:title="Common include for users interacting with Branches.">
<polygon fill="#bfbfbf" stroke="black" points="93,-123.5 93,-153.5 200,-153.5 200,-123.5 93,-123.5"/>
<text text-anchor="start" x="101" y="-141.5" font-family="Helvetica,sans-Serif" font-size="10.00">cpp/include/hdtree</text>
<text text-anchor="middle" x="146.5" y="-130.5" font-family="Helvetica,sans-Serif" font-size="10.00">/Branch.h</text>
</a>
</g>
</g>
<!-- Node2 -->
<g id="node2" class="node">
<title>Node2</title>
<g id="a_node2"><a xlink:href="Tree_8h_source.html" target="_top" xlink:title=" ">
<polygon fill="none" stroke="black" points="93,-56.5 93,-86.5 200,-86.5 200,-56.5 93,-56.5"/>
<text text-anchor="start" x="101" y="-74.5" font-family="Helvetica,sans-Serif" font-size="10.00">cpp/include/hdtree</text>
<text text-anchor="middle" x="146.5" y="-63.5" font-family="Helvetica,sans-Serif" font-size="10.00">/Tree.h</text>
</a>
</g>
</g>
<!-- Node1&#45;&gt;Node2 -->
<g id="edge1" class="edge">
<title>Node1&#45;&gt;Node2</title>
<path fill="none" stroke="midnightblue" d="M146.5,-113.11C146.5,-104.15 146.5,-94.32 146.5,-86.58"/>
<polygon fill="midnightblue" stroke="midnightblue" points="143,-113.4 146.5,-123.4 150,-113.4 143,-113.4"/>
</g>
<!-- Node3 -->
<g id="node3" class="node">
<title>Node3</title>
<g id="a_node3"><a xlink:href="save_8cxx.html" target="_top" xlink:title="Example of saving a new HDTree into a file.">
<polygon fill="none" stroke="black" points="0,-0.5 0,-19.5 131,-19.5 131,-0.5 0,-0.5"/>
<text text-anchor="middle" x="65.5" y="-7.5" font-family="Helvetica,sans-Serif" font-size="10.00">cpp/examples/save.cxx</text>
</a>
</g>
</g>
<!-- Node2&#45;&gt;Node3 -->
<g id="edge2" class="edge">
<title>Node2&#45;&gt;Node3</title>
<path fill="none" stroke="midnightblue" d="M118.85,-50.19C104.67,-39.77 88.14,-27.63 77.29,-19.66"/>
<polygon fill="midnightblue" stroke="midnightblue" points="117.17,-53.3 127.3,-56.4 121.32,-47.66 117.17,-53.3"/>
</g>
<!-- Node4 -->
<g id="node4" class="node">
<title>Node4</title>
<g id="a_node4"><a xlink:href="transform_8cxx.html" target="_top" xlink:title="Example of transforming an HDTree by adding more branches.">
<polygon fill="none" stroke="black" points="149.5,-0.5 149.5,-19.5 305.5,-19.5 305.5,-0.5 149.5,-0.5"/>
<text text-anchor="middle" x="227.5" y="-7.5" font-family="Helvetica,sans-Serif" font-size="10.00">cpp/examples/transform.cxx</text>
</a>
</g>
</g>
<!-- Node2&#45;&gt;Node4 -->
<g id="edge3" class="edge">
<title>Node2&#45;&gt;Node4</title>
<path fill="none" stroke="midnightblue" d="M174.15,-50.19C188.33,-39.77 204.86,-27.63 215.71,-19.66"/>
<polygon fill="midnightblue" stroke="midnightblue" points="171.68,-47.66 165.7,-56.4 175.83,-53.3 171.68,-47.66"/>
</g>
</g>
</svg>
