<?xml version="1.0" encoding="UTF-8" standalone="no"?>
<!DOCTYPE svg PUBLIC "-//W3C//DTD SVG 1.1//EN"
 "http://www.w3.org/Graphics/SVG/1.1/DTD/svg11.dtd">
<!-- Generated by graphviz version 2.43.0 (0)
 -->
<!-- Title: hdtree::Branch&lt; std::map&lt; KeyType, ValType &gt; &gt; Pages: 1 -->
<svg width="1168pt" height="155pt"
 viewBox="0.00 0.00 1168.00 155.00" xmlns="http://www.w3.org/2000/svg" xmlns:xlink="http://www.w3.org/1999/xlink">
<g id="graph0" class="graph" transform="scale(1 1) rotate(0) translate(4 151)">
<title>hdtree::Branch&lt; std::map&lt; KeyType, ValType &gt; &gt;</title>
<!-- Node1 -->
<g id="node1" class="node">
<title>Node1</title>
<g id="a_node1"><a xlink:title="Our wrapper around std::map.">
<polygon fill="#bfbfbf" stroke="black" points="998,-64.5 998,-94.5 1160,-94.5 1160,-64.5 998,-64.5"/>
<text text-anchor="start" x="1006" y="-82.5" font-family="Helvetica,sans-Serif" font-size="10.00">hdtree::Branch&lt; std</text>
<text text-anchor="middle" x="1079" y="-71.5" font-family="Helvetica,sans-Serif" font-size="10.00">::map&lt; KeyType, ValType &gt; &gt;</text>
</a>
</g>
</g>
<!-- Node2 -->
<g id="node2" class="node">
<title>Node2</title>
<g id="a_node2"><a xlink:href="classhdtree_1_1AbstractBranch.html" target="_top" xlink:title=" ">
<polygon fill="none" stroke="black" points="574,-116.5 574,-146.5 762,-146.5 762,-116.5 574,-116.5"/>
<text text-anchor="start" x="582" y="-134.5" font-family="Helvetica,sans-Serif" font-size="10.00">hdtree::AbstractBranch</text>
<text text-anchor="middle" x="668" y="-123.5" font-family="Helvetica,sans-Serif" font-size="10.00">&lt; std::map&lt; KeyType, ValType &gt; &gt;</text>
</a>
</g>
</g>
<!-- Node2&#45;&gt;Node1 -->
<g id="edge1" class="edge">
<title>Node2&#45;&gt;Node1</title>
<path fill="none" stroke="midnightblue" d="M772.29,-129.48C820.67,-127.54 878.98,-123.78 931,-116.5 953.1,-113.41 958.32,-110.81 980,-105.5 993.93,-102.09 1008.93,-98.21 1022.9,-94.52"/>
<polygon fill="midnightblue" stroke="midnightblue" points="771.98,-125.99 762.12,-129.87 772.25,-132.99 771.98,-125.99"/>
</g>
<!-- Node3 -->
<g id="node3" class="node">
<title>Node3</title>
<g id="a_node3"><a xlink:href="classhdtree_1_1BaseBranch.html" target="_top" xlink:title="Empty data base allowing recursion.">
<polygon fill="none" stroke="black" points="279,-85 279,-104 391,-104 391,-85 279,-85"/>
<text text-anchor="middle" x="335" y="-92" font-family="Helvetica,sans-Serif" font-size="10.00">hdtree::BaseBranch</text>
</a>
</g>
</g>
<!-- Node3&#45;&gt;Node2 -->
<g id="edge2" class="edge">
<title>Node3&#45;&gt;Node2</title>
<path fill="none" stroke="midnightblue" d="M401.25,-101.79C450.54,-107.3 518.88,-114.94 573.92,-121.09"/>
<polygon fill="midnightblue" stroke="midnightblue" points="401.36,-98.28 391.03,-100.65 400.58,-105.24 401.36,-98.28"/>
</g>
<!-- Node7 -->
<g id="node7" class="node">
<title>Node7</title>
<g id="a_node7"><a xlink:href="classhdtree_1_1AbstractBranch.html" target="_top" xlink:title="Type&#45;specific base class to hold common data methods.">
<polygon fill="none" stroke="black" points="428,-53.5 428,-83.5 556,-83.5 556,-53.5 428,-53.5"/>
<text text-anchor="start" x="436" y="-71.5" font-family="Helvetica,sans-Serif" font-size="10.00">hdtree::AbstractBranch</text>
<text text-anchor="middle" x="492" y="-60.5" font-family="Helvetica,sans-Serif" font-size="10.00">&lt; DataType &gt;</text>
</a>
</g>
</g>
<!-- Node3&#45;&gt;Node7 -->
<g id="edge7" class="edge">
<title>Node3&#45;&gt;Node7</title>
<path fill="none" stroke="midnightblue" d="M401.01,-83.6C409.91,-82.1 419.04,-80.57 427.9,-79.08"/>
<polygon fill="midnightblue" stroke="midnightblue" points="400.37,-80.15 391.08,-85.26 401.52,-87.06 400.37,-80.15"/>
</g>
<!-- Node4 -->
<g id="node4" class="node">
<title>Node4</title>
<g id="a_node4"><a xlink:title=" ">
<polygon fill="none" stroke="#bfbfbf" points="141,-85 141,-104 206,-104 206,-85 141,-85"/>
<text text-anchor="middle" x="173.5" y="-92" font-family="Helvetica,sans-Serif" font-size="10.00">std::string</text>
</a>
</g>
</g>
<!-- Node4&#45;&gt;Node3 -->
<g id="edge3" class="edge">
<title>Node4&#45;&gt;Node3</title>
<path fill="none" stroke="#9a32cd" stroke-dasharray="5,2" d="M216.23,-94.5C235.41,-94.5 258.41,-94.5 278.97,-94.5"/>
<polygon fill="#9a32cd" stroke="#9a32cd" points="216.01,-91 206.01,-94.5 216.01,-98 216.01,-91"/>
<text text-anchor="middle" x="242.5" y="-97.5" font-family="Helvetica,sans-Serif" font-size="10.00"> name_</text>
</g>
<!-- Node5 -->
<g id="node5" class="node">
<title>Node5</title>
<g id="a_node5"><a xlink:title=" ">
<polygon fill="none" stroke="#bfbfbf" points="0,-79.5 0,-109.5 104,-109.5 104,-79.5 0,-79.5"/>
<text text-anchor="start" x="8" y="-97.5" font-family="Helvetica,sans-Serif" font-size="10.00">std::basic_string&lt;</text>
<text text-anchor="middle" x="52" y="-86.5" font-family="Helvetica,sans-Serif" font-size="10.00"> Char &gt;</text>
</a>
</g>
</g>
<!-- Node5&#45;&gt;Node4 -->
<g id="edge4" class="edge">
<title>Node5&#45;&gt;Node4</title>
<path fill="none" stroke="midnightblue" d="M114.1,-94.5C123.41,-94.5 132.68,-94.5 141,-94.5"/>
<polygon fill="midnightblue" stroke="midnightblue" points="114.03,-91 104.03,-94.5 114.03,-98 114.03,-91"/>
</g>
<!-- Node6 -->
<g id="node6" class="node">
<title>Node6</title>
<g id="a_node6"><a xlink:href="classhdtree_1_1Branch.html" target="_top" xlink:title=" ">
<polygon fill="none" stroke="black" points="781.5,-88 781.5,-107 929.5,-107 929.5,-88 781.5,-88"/>
<text text-anchor="middle" x="855.5" y="-95" font-family="Helvetica,sans-Serif" font-size="10.00">hdtree::Branch&lt; ValType &gt;</text>
</a>
</g>
</g>
<!-- Node6&#45;&gt;Node1 -->
<g id="edge5" class="edge">
<title>Node6&#45;&gt;Node1</title>
<path fill="none" stroke="#9a32cd" stroke-dasharray="5,2" d="M939.74,-90.74C958.71,-89.19 978.83,-87.56 997.68,-86.03"/>
<polygon fill="#9a32cd" stroke="#9a32cd" points="939.32,-87.26 929.64,-91.56 939.89,-94.23 939.32,-87.26"/>
<text text-anchor="middle" x="964.5" y="-93.5" font-family="Helvetica,sans-Serif" font-size="10.00"> vals_</text>
</g>
<!-- Node7&#45;&gt;Node6 -->
<g id="edge6" class="edge">
<title>Node7&#45;&gt;Node6</title>
<path fill="none" stroke="midnightblue" d="M566.3,-77.73C568.9,-78 571.47,-78.26 574,-78.5 644.33,-85.22 724.81,-90.41 781.47,-93.66"/>
<polygon fill="midnightblue" stroke="midnightblue" points="566.51,-74.24 556.2,-76.64 565.76,-81.2 566.51,-74.24"/>
</g>
<!-- Node8 -->
<g id="node8" class="node">
<title>Node8</title>
<g id="a_node8"><a xlink:href="classhdtree_1_1Branch.html" target="_top" xlink:title=" ">
<polygon fill="none" stroke="black" points="780,-50 780,-69 931,-69 931,-50 780,-50"/>
<text text-anchor="middle" x="855.5" y="-57" font-family="Helvetica,sans-Serif" font-size="10.00">hdtree::Branch&lt; KeyType &gt;</text>
</a>
</g>
</g>
<!-- Node7&#45;&gt;Node8 -->
<g id="edge9" class="edge">
<title>Node7&#45;&gt;Node8</title>
<path fill="none" stroke="midnightblue" d="M566.51,-66.67C628.71,-65.12 717.44,-62.91 779.94,-61.36"/>
<polygon fill="midnightblue" stroke="midnightblue" points="566.29,-63.17 556.38,-66.92 566.47,-70.17 566.29,-63.17"/>
</g>
<!-- Node9 -->
<g id="node9" class="node">
<title>Node9</title>
<g id="a_node9"><a xlink:href="classhdtree_1_1Branch.html" target="_top" xlink:title=" ">
<polygon fill="none" stroke="black" points="798.5,-0.5 798.5,-30.5 912.5,-30.5 912.5,-0.5 798.5,-0.5"/>
<text text-anchor="start" x="806.5" y="-18.5" font-family="Helvetica,sans-Serif" font-size="10.00">hdtree::Branch&lt; std</text>
<text text-anchor="middle" x="855.5" y="-7.5" font-family="Helvetica,sans-Serif" font-size="10.00">::size_t &gt;</text>
</a>
</g>
</g>
<!-- Node7&#45;&gt;Node9 -->
<g id="edge11" class="edge">
<title>Node7&#45;&gt;Node9</title>
<path fill="none" stroke="midnightblue" d="M566.68,-57.7C635.27,-47.64 736.02,-32.87 798.32,-23.74"/>
<polygon fill="midnightblue" stroke="midnightblue" points="565.77,-54.29 556.38,-59.21 566.78,-61.22 565.77,-54.29"/>
</g>
<!-- Node8&#45;&gt;Node1 -->
<g id="edge8" class="edge">
<title>Node8&#45;&gt;Node1</title>
<path fill="none" stroke="#9a32cd" stroke-dasharray="5,2" d="M941.38,-67.16C959.96,-68.84 979.57,-70.61 997.95,-72.27"/>
<polygon fill="#9a32cd" stroke="#9a32cd" points="941.46,-63.66 931.18,-66.24 940.83,-70.63 941.46,-63.66"/>
<text text-anchor="middle" x="964.5" y="-73.5" font-family="Helvetica,sans-Serif" font-size="10.00"> keys_</text>
</g>
<!-- Node9&#45;&gt;Node1 -->
<g id="edge10" class="edge">
<title>Node9&#45;&gt;Node1</title>
<path fill="none" stroke="#9a32cd" stroke-dasharray="5,2" d="M918.24,-33.34C952.16,-43.14 993.76,-55.16 1026.01,-64.48"/>
<polygon fill="#9a32cd" stroke="#9a32cd" points="919.01,-29.92 908.43,-30.51 917.07,-36.64 919.01,-29.92"/>
<text text-anchor="middle" x="964.5" y="-52.5" font-family="Helvetica,sans-Serif" font-size="10.00"> size_</text>
</g>
</g>
</svg>
