<?xml version="1.0" encoding="UTF-8" standalone="no"?>
<!DOCTYPE svg PUBLIC "-//W3C//DTD SVG 1.1//EN"
 "http://www.w3.org/Graphics/SVG/1.1/DTD/svg11.dtd">
<!-- Generated by graphviz version 2.43.0 (0)
 -->
<!-- Title: cpp/include/hdtree/ClassVersion.h Pages: 1 -->
<svg width="314pt" height="363pt"
 viewBox="0.00 0.00 313.50 363.00" xmlns="http://www.w3.org/2000/svg" xmlns:xlink="http://www.w3.org/1999/xlink">
<g id="graph0" class="graph" transform="scale(1 1) rotate(0) translate(4 359)">
<title>cpp/include/hdtree/ClassVersion.h</title>
<!-- Node1 -->
<g id="node1" class="node">
<title>Node1</title>
<g id="a_node1"><a xlink:title="Serialization class version deduction.">
<polygon fill="#bfbfbf" stroke="black" points="93,-324.5 93,-354.5 200,-354.5 200,-324.5 93,-324.5"/>
<text text-anchor="start" x="101" y="-342.5" font-family="Helvetica,sans-Serif" font-size="10.00">cpp/include/hdtree</text>
<text text-anchor="middle" x="146.5" y="-331.5" font-family="Helvetica,sans-Serif" font-size="10.00">/ClassVersion.h</text>
</a>
</g>
</g>
<!-- Node2 -->
<g id="node2" class="node">
<title>Node2</title>
<g id="a_node2"><a xlink:href="AbstractBranch_8h_source.html" target="_top" xlink:title=" ">
<polygon fill="none" stroke="black" points="93,-257.5 93,-287.5 200,-287.5 200,-257.5 93,-257.5"/>
<text text-anchor="start" x="101" y="-275.5" font-family="Helvetica,sans-Serif" font-size="10.00">cpp/include/hdtree</text>
<text text-anchor="middle" x="146.5" y="-264.5" font-family="Helvetica,sans-Serif" font-size="10.00">/AbstractBranch.h</text>
</a>
</g>
</g>
<!-- Node1&#45;&gt;Node2 -->
<g id="edge1" class="edge">
<title>Node1&#45;&gt;Node2</title>
<path fill="none" stroke="midnightblue" d="M146.5,-314.11C146.5,-305.15 146.5,-295.32 146.5,-287.58"/>
<polygon fill="midnightblue" stroke="midnightblue" points="143,-314.4 146.5,-324.4 150,-314.4 143,-314.4"/>
</g>
<!-- Node3 -->
<g id="node3" class="node">
<title>Node3</title>
<g id="a_node3"><a xlink:href="Branch_8h.html" target="_top" xlink:title="Common include for users interacting with Branches.">
<polygon fill="none" stroke="black" points="93,-123.5 93,-153.5 200,-153.5 200,-123.5 93,-123.5"/>
<text text-anchor="start" x="101" y="-141.5" font-family="Helvetica,sans-Serif" font-size="10.00">cpp/include/hdtree</text>
<text text-anchor="middle" x="146.5" y="-130.5" font-family="Helvetica,sans-Serif" font-size="10.00">/Branch.h</text>
</a>
</g>
</g>
<!-- Node2&#45;&gt;Node3 -->
<g id="edge2" class="edge">
<title>Node2&#45;&gt;Node3</title>
<path fill="none" stroke="midnightblue" d="M134.59,-248.26C130.91,-239.9 127.34,-230.24 125.5,-221 122.8,-207.49 122.8,-203.51 125.5,-190 128.07,-177.15 133.97,-163.48 138.86,-153.61"/>
<polygon fill="midnightblue" stroke="midnightblue" points="131.45,-249.82 138.86,-257.39 137.79,-246.85 131.45,-249.82"/>
</g>
<!-- Node7 -->
<g id="node7" class="node">
<title>Node7</title>
<g id="a_node7"><a xlink:href="Reader_8h_source.html" target="_top" xlink:title=" ">
<polygon fill="none" stroke="black" points="134,-190.5 134,-220.5 241,-220.5 241,-190.5 134,-190.5"/>
<text text-anchor="start" x="142" y="-208.5" font-family="Helvetica,sans-Serif" font-size="10.00">cpp/include/hdtree</text>
<text text-anchor="middle" x="187.5" y="-197.5" font-family="Helvetica,sans-Serif" font-size="10.00">/Reader.h</text>
</a>
</g>
</g>
<!-- Node2&#45;&gt;Node7 -->
<g id="edge6" class="edge">
<title>Node2&#45;&gt;Node7</title>
<path fill="none" stroke="midnightblue" d="M160.78,-248.87C166.71,-239.46 173.41,-228.83 178.62,-220.58"/>
<polygon fill="midnightblue" stroke="midnightblue" points="157.77,-247.07 155.4,-257.4 163.69,-250.81 157.77,-247.07"/>
</g>
<!-- Node4 -->
<g id="node4" class="node">
<title>Node4</title>
<g id="a_node4"><a xlink:href="Tree_8h_source.html" target="_top" xlink:title=" ">
<polygon fill="none" stroke="black" points="93,-56.5 93,-86.5 200,-86.5 200,-56.5 93,-56.5"/>
<text text-anchor="start" x="101" y="-74.5" font-family="Helvetica,sans-Serif" font-size="10.00">cpp/include/hdtree</text>
<text text-anchor="middle" x="146.5" y="-63.5" font-family="Helvetica,sans-Serif" font-size="10.00">/Tree.h</text>
</a>
</g>
</g>
<!-- Node3&#45;&gt;Node4 -->
<g id="edge3" class="edge">
<title>Node3&#45;&gt;Node4</title>
<path fill="none" stroke="midnightblue" d="M146.5,-113.11C146.5,-104.15 146.5,-94.32 146.5,-86.58"/>
<polygon fill="midnightblue" stroke="midnightblue" points="143,-113.4 146.5,-123.4 150,-113.4 143,-113.4"/>
</g>
<!-- Node5 -->
<g id="node5" class="node">
<title>Node5</title>
<g id="a_node5"><a xlink:href="save_8cxx.html" target="_top" xlink:title="Example of saving a new HDTree into a file.">
<polygon fill="none" stroke="black" points="0,-0.5 0,-19.5 131,-19.5 131,-0.5 0,-0.5"/>
<text text-anchor="middle" x="65.5" y="-7.5" font-family="Helvetica,sans-Serif" font-size="10.00">cpp/examples/save.cxx</text>
</a>
</g>
</g>
<!-- Node4&#45;&gt;Node5 -->
<g id="edge4" class="edge">
<title>Node4&#45;&gt;Node5</title>
<path fill="none" stroke="midnightblue" d="M118.85,-50.19C104.67,-39.77 88.14,-27.63 77.29,-19.66"/>
<polygon fill="midnightblue" stroke="midnightblue" points="117.17,-53.3 127.3,-56.4 121.32,-47.66 117.17,-53.3"/>
</g>
<!-- Node6 -->
<g id="node6" class="node">
<title>Node6</title>
<g id="a_node6"><a xlink:href="transform_8cxx.html" target="_top" xlink:title="Example of transforming an HDTree by adding more branches.">
<polygon fill="none" stroke="black" points="149.5,-0.5 149.5,-19.5 305.5,-19.5 305.5,-0.5 149.5,-0.5"/>
<text text-anchor="middle" x="227.5" y="-7.5" font-family="Helvetica,sans-Serif" font-size="10.00">cpp/examples/transform.cxx</text>
</a>
</g>
</g>
<!-- Node4&#45;&gt;Node6 -->
<g id="edge5" class="edge">
<title>Node4&#45;&gt;Node6</title>
<path fill="none" stroke="midnightblue" d="M174.15,-50.19C188.33,-39.77 204.86,-27.63 215.71,-19.66"/>
<polygon fill="midnightblue" stroke="midnightblue" points="171.68,-47.66 165.7,-56.4 175.83,-53.3 171.68,-47.66"/>
</g>
<!-- Node7&#45;&gt;Node3 -->
<g id="edge7" class="edge">
<title>Node7&#45;&gt;Node3</title>
<path fill="none" stroke="midnightblue" d="M173.22,-181.87C167.29,-172.46 160.59,-161.83 155.38,-153.58"/>
<polygon fill="midnightblue" stroke="midnightblue" points="170.31,-183.81 178.6,-190.4 176.23,-180.07 170.31,-183.81"/>
</g>
</g>
</svg>
