<?xml version="1.0" encoding="UTF-8" standalone="no"?>
<!DOCTYPE svg PUBLIC "-//W3C//DTD SVG 1.1//EN"
 "http://www.w3.org/Graphics/SVG/1.1/DTD/svg11.dtd">
<!-- Generated by graphviz version 2.43.0 (0)
 -->
<!-- Title: hdtree::Branch&lt; std::vector&lt; ContentType &gt; &gt; Pages: 1 -->
<svg width="182pt" height="162pt"
 viewBox="0.00 0.00 182.00 162.00" xmlns="http://www.w3.org/2000/svg" xmlns:xlink="http://www.w3.org/1999/xlink">
<g id="graph0" class="graph" transform="scale(1 1) rotate(0) translate(4 158)">
<title>hdtree::Branch&lt; std::vector&lt; ContentType &gt; &gt;</title>
<!-- Node1 -->
<g id="node1" class="node">
<title>Node1</title>
<g id="a_node1"><a xlink:title="Our wrapper around std::vector.">
<polygon fill="#bfbfbf" stroke="black" points="13,-0.5 13,-30.5 161,-30.5 161,-0.5 13,-0.5"/>
<text text-anchor="start" x="21" y="-18.5" font-family="Helvetica,sans-Serif" font-size="10.00">hdtree::Branch&lt; std</text>
<text text-anchor="middle" x="87" y="-7.5" font-family="Helvetica,sans-Serif" font-size="10.00">::vector&lt; ContentType &gt; &gt;</text>
</a>
</g>
</g>
<!-- Node2 -->
<g id="node2" class="node">
<title>Node2</title>
<g id="a_node2"><a xlink:href="classhdtree_1_1AbstractBranch.html" target="_top" xlink:title=" ">
<polygon fill="none" stroke="black" points="0,-67.5 0,-97.5 174,-97.5 174,-67.5 0,-67.5"/>
<text text-anchor="start" x="8" y="-85.5" font-family="Helvetica,sans-Serif" font-size="10.00">hdtree::AbstractBranch</text>
<text text-anchor="middle" x="87" y="-74.5" font-family="Helvetica,sans-Serif" font-size="10.00">&lt; std::vector&lt; ContentType &gt; &gt;</text>
</a>
</g>
</g>
<!-- Node2&#45;&gt;Node1 -->
<g id="edge1" class="edge">
<title>Node2&#45;&gt;Node1</title>
<path fill="none" stroke="midnightblue" d="M87,-57.11C87,-48.15 87,-38.32 87,-30.58"/>
<polygon fill="midnightblue" stroke="midnightblue" points="83.5,-57.4 87,-67.4 90.5,-57.4 83.5,-57.4"/>
</g>
<!-- Node3 -->
<g id="node3" class="node">
<title>Node3</title>
<g id="a_node3"><a xlink:href="classhdtree_1_1BaseBranch.html" target="_top" xlink:title="Empty data base allowing recursion.">
<polygon fill="none" stroke="black" points="31,-134.5 31,-153.5 143,-153.5 143,-134.5 31,-134.5"/>
<text text-anchor="middle" x="87" y="-141.5" font-family="Helvetica,sans-Serif" font-size="10.00">hdtree::BaseBranch</text>
</a>
</g>
</g>
<!-- Node3&#45;&gt;Node2 -->
<g id="edge2" class="edge">
<title>Node3&#45;&gt;Node2</title>
<path fill="none" stroke="midnightblue" d="M87,-124.23C87,-115.59 87,-105.5 87,-97.52"/>
<polygon fill="midnightblue" stroke="midnightblue" points="83.5,-124.48 87,-134.48 90.5,-124.48 83.5,-124.48"/>
</g>
</g>
</svg>
