<?xml version="1.0" encoding="UTF-8" standalone="no"?>
<!DOCTYPE svg PUBLIC "-//W3C//DTD SVG 1.1//EN"
 "http://www.w3.org/Graphics/SVG/1.1/DTD/svg11.dtd">
<!-- Generated by graphviz version 2.43.0 (0)
 -->
<!-- Title: hdtree::Reader Pages: 1 -->
<svg width="725pt" height="83pt"
 viewBox="0.00 0.00 725.00 83.00" xmlns="http://www.w3.org/2000/svg" xmlns:xlink="http://www.w3.org/1999/xlink">
<g id="graph0" class="graph" transform="scale(1 1) rotate(0) translate(4 79)">
<title>hdtree::Reader</title>
<!-- Node1 -->
<g id="node1" class="node">
<title>Node1</title>
<g id="a_node1"><a xlink:title="Reading a file generated by fire.">
<polygon fill="#bfbfbf" stroke="black" points="628,-28 628,-47 717,-47 717,-28 628,-28"/>
<text text-anchor="middle" x="672.5" y="-35" font-family="Helvetica,sans-Serif" font-size="10.00">hdtree::Reader</text>
</a>
</g>
</g>
<!-- Node2 -->
<g id="node2" class="node">
<title>Node2</title>
<g id="a_node2"><a xlink:title=" ">
<polygon fill="none" stroke="#bfbfbf" points="361,-11.5 361,-63.5 513,-63.5 513,-11.5 361,-11.5"/>
<text text-anchor="start" x="369" y="-51.5" font-family="Helvetica,sans-Serif" font-size="10.00">std::unordered_map</text>
<text text-anchor="start" x="369" y="-40.5" font-family="Helvetica,sans-Serif" font-size="10.00">&lt; std::string, std::</text>
<text text-anchor="start" x="369" y="-29.5" font-family="Helvetica,sans-Serif" font-size="10.00">unique_ptr&lt; hdtree::Reader</text>
<text text-anchor="middle" x="437" y="-18.5" font-family="Helvetica,sans-Serif" font-size="10.00">::MirrorObject &gt; &gt;</text>
</a>
</g>
</g>
<!-- Node2&#45;&gt;Node1 -->
<g id="edge1" class="edge">
<title>Node2&#45;&gt;Node1</title>
<path fill="none" stroke="#9a32cd" stroke-dasharray="5,2" d="M523.52,-37.5C558.94,-37.5 598.5,-37.5 627.79,-37.5"/>
<polygon fill="#9a32cd" stroke="#9a32cd" points="523.17,-34 513.17,-37.5 523.17,-41 523.17,-34"/>
<text text-anchor="middle" x="570.5" y="-40.5" font-family="Helvetica,sans-Serif" font-size="10.00"> mirror_objects_</text>
</g>
<!-- Node3 -->
<g id="node3" class="node">
<title>Node3</title>
<g id="a_node3"><a xlink:title=" ">
<polygon fill="none" stroke="#bfbfbf" points="141,-44.5 141,-74.5 276,-74.5 276,-44.5 141,-44.5"/>
<text text-anchor="start" x="149" y="-62.5" font-family="Helvetica,sans-Serif" font-size="10.00">std::unique_ptr&lt; hdtree</text>
<text text-anchor="middle" x="208.5" y="-51.5" font-family="Helvetica,sans-Serif" font-size="10.00">::Reader::MirrorObject &gt;</text>
</a>
</g>
</g>
<!-- Node3&#45;&gt;Node2 -->
<g id="edge2" class="edge">
<title>Node3&#45;&gt;Node2</title>
<path fill="none" stroke="#9a32cd" stroke-dasharray="5,2" d="M286.34,-52.04C310.32,-49.71 336.73,-47.14 360.61,-44.82"/>
<polygon fill="#9a32cd" stroke="#9a32cd" points="285.85,-48.57 276.23,-53.02 286.52,-55.54 285.85,-48.57"/>
<text text-anchor="middle" x="318.5" y="-53.5" font-family="Helvetica,sans-Serif" font-size="10.00"> elements</text>
</g>
<!-- Node4 -->
<g id="node4" class="node">
<title>Node4</title>
<g id="a_node4"><a xlink:title=" ">
<polygon fill="none" stroke="#bfbfbf" points="176,-6 176,-25 241,-25 241,-6 176,-6"/>
<text text-anchor="middle" x="208.5" y="-13" font-family="Helvetica,sans-Serif" font-size="10.00">std::string</text>
</a>
</g>
</g>
<!-- Node4&#45;&gt;Node2 -->
<g id="edge3" class="edge">
<title>Node4&#45;&gt;Node2</title>
<path fill="none" stroke="#9a32cd" stroke-dasharray="5,2" d="M251.77,-19.61C282.34,-22.57 324.46,-26.67 360.71,-30.19"/>
<polygon fill="#9a32cd" stroke="#9a32cd" points="251.76,-16.09 241.47,-18.61 251.09,-23.06 251.76,-16.09"/>
<text text-anchor="middle" x="318.5" y="-31.5" font-family="Helvetica,sans-Serif" font-size="10.00"> keys</text>
</g>
<!-- Node5 -->
<g id="node5" class="node">
<title>Node5</title>
<g id="a_node5"><a xlink:title=" ">
<polygon fill="none" stroke="#bfbfbf" points="0,-0.5 0,-30.5 104,-30.5 104,-0.5 0,-0.5"/>
<text text-anchor="start" x="8" y="-18.5" font-family="Helvetica,sans-Serif" font-size="10.00">std::basic_string&lt;</text>
<text text-anchor="middle" x="52" y="-7.5" font-family="Helvetica,sans-Serif" font-size="10.00"> Char &gt;</text>
</a>
</g>
</g>
<!-- Node5&#45;&gt;Node4 -->
<g id="edge4" class="edge">
<title>Node5&#45;&gt;Node4</title>
<path fill="none" stroke="midnightblue" d="M114.22,-15.5C135.34,-15.5 158.14,-15.5 175.9,-15.5"/>
<polygon fill="midnightblue" stroke="midnightblue" points="114.02,-12 104.02,-15.5 114.02,-19 114.02,-12"/>
</g>
</g>
</svg>
