<?xml version="1.0" encoding="UTF-8" standalone="no"?>
<!DOCTYPE svg PUBLIC "-//W3C//DTD SVG 1.1//EN"
 "http://www.w3.org/Graphics/SVG/1.1/DTD/svg11.dtd">
<!-- Generated by graphviz version 2.43.0 (0)
 -->
<!-- Title: hdtree::Branch&lt; std::vector&lt; ContentType &gt; &gt; Pages: 1 -->
<svg width="1067pt" height="121pt"
 viewBox="0.00 0.00 1067.00 121.00" xmlns="http://www.w3.org/2000/svg" xmlns:xlink="http://www.w3.org/1999/xlink">
<g id="graph0" class="graph" transform="scale(1 1) rotate(0) translate(4 117)">
<title>hdtree::Branch&lt; std::vector&lt; ContentType &gt; &gt;</title>
<!-- Node1 -->
<g id="node1" class="node">
<title>Node1</title>
<g id="a_node1"><a xlink:title="Our wrapper around std::vector.">
<polygon fill="#bfbfbf" stroke="black" points="927,-44.5 927,-74.5 1059,-74.5 1059,-44.5 927,-44.5"/>
<text text-anchor="start" x="935" y="-62.5" font-family="Helvetica,sans-Serif" font-size="10.00">hdtree::Branch&lt; std</text>
<text text-anchor="middle" x="993" y="-51.5" font-family="Helvetica,sans-Serif" font-size="10.00">::vector&lt; ContentType &gt; &gt;</text>
</a>
</g>
</g>
<!-- Node2 -->
<g id="node2" class="node">
<title>Node2</title>
<g id="a_node2"><a xlink:href="classhdtree_1_1AbstractBranch.html" target="_top" xlink:title=" ">
<polygon fill="none" stroke="black" points="536,-82.5 536,-112.5 691,-112.5 691,-82.5 536,-82.5"/>
<text text-anchor="start" x="544" y="-100.5" font-family="Helvetica,sans-Serif" font-size="10.00">hdtree::AbstractBranch</text>
<text text-anchor="middle" x="613.5" y="-89.5" font-family="Helvetica,sans-Serif" font-size="10.00">&lt; std::vector&lt; ContentType &gt; &gt;</text>
</a>
</g>
</g>
<!-- Node2&#45;&gt;Node1 -->
<g id="edge1" class="edge">
<title>Node2&#45;&gt;Node1</title>
<path fill="none" stroke="midnightblue" d="M701.01,-93.25C759.83,-89.74 839.32,-83.81 909,-74.5 914.81,-73.72 920.82,-72.83 926.85,-71.86"/>
<polygon fill="midnightblue" stroke="midnightblue" points="700.79,-89.75 691.02,-93.83 701.2,-96.74 700.79,-89.75"/>
</g>
<!-- Node3 -->
<g id="node3" class="node">
<title>Node3</title>
<g id="a_node3"><a xlink:href="classhdtree_1_1BaseBranch.html" target="_top" xlink:title="Empty data base allowing recursion.">
<polygon fill="none" stroke="black" points="261,-66 261,-85 364,-85 364,-66 261,-66"/>
<text text-anchor="middle" x="312.5" y="-73" font-family="Helvetica,sans-Serif" font-size="10.00">hdtree::BaseBranch</text>
</a>
</g>
</g>
<!-- Node3&#45;&gt;Node2 -->
<g id="edge2" class="edge">
<title>Node3&#45;&gt;Node2</title>
<path fill="none" stroke="midnightblue" d="M374.49,-79.99C421.15,-83.42 485.79,-88.18 535.94,-91.87"/>
<polygon fill="midnightblue" stroke="midnightblue" points="374.45,-76.48 364.22,-79.23 373.94,-83.46 374.45,-76.48"/>
</g>
<!-- Node7 -->
<g id="node7" class="node">
<title>Node7</title>
<g id="a_node7"><a xlink:href="classhdtree_1_1AbstractBranch.html" target="_top" xlink:title="Type&#45;specific base class to hold common data methods.">
<polygon fill="none" stroke="black" points="401,-38.5 401,-68.5 518,-68.5 518,-38.5 401,-38.5"/>
<text text-anchor="start" x="409" y="-56.5" font-family="Helvetica,sans-Serif" font-size="10.00">hdtree::AbstractBranch</text>
<text text-anchor="middle" x="459.5" y="-45.5" font-family="Helvetica,sans-Serif" font-size="10.00">&lt; DataType &gt;</text>
</a>
</g>
</g>
<!-- Node3&#45;&gt;Node7 -->
<g id="edge7" class="edge">
<title>Node3&#45;&gt;Node7</title>
<path fill="none" stroke="midnightblue" d="M374.38,-66.26C383.15,-64.93 392.16,-63.57 400.87,-62.24"/>
<polygon fill="midnightblue" stroke="midnightblue" points="373.58,-62.84 364.21,-67.81 374.63,-69.77 373.58,-62.84"/>
</g>
<!-- Node4 -->
<g id="node4" class="node">
<title>Node4</title>
<g id="a_node4"><a xlink:title=" ">
<polygon fill="none" stroke="#bfbfbf" points="132,-66 132,-85 192,-85 192,-66 132,-66"/>
<text text-anchor="middle" x="162" y="-73" font-family="Helvetica,sans-Serif" font-size="10.00">std::string</text>
</a>
</g>
</g>
<!-- Node4&#45;&gt;Node3 -->
<g id="edge3" class="edge">
<title>Node4&#45;&gt;Node3</title>
<path fill="none" stroke="#9a32cd" stroke-dasharray="5,2" d="M202.44,-75.5C220.36,-75.5 241.77,-75.5 260.86,-75.5"/>
<polygon fill="#9a32cd" stroke="#9a32cd" points="202.34,-72 192.34,-75.5 202.34,-79 202.34,-72"/>
<text text-anchor="middle" x="226.5" y="-78.5" font-family="Helvetica,sans-Serif" font-size="10.00"> name_</text>
</g>
<!-- Node5 -->
<g id="node5" class="node">
<title>Node5</title>
<g id="a_node5"><a xlink:title=" ">
<polygon fill="none" stroke="#bfbfbf" points="0,-60.5 0,-90.5 95,-90.5 95,-60.5 0,-60.5"/>
<text text-anchor="start" x="8" y="-78.5" font-family="Helvetica,sans-Serif" font-size="10.00">std::basic_string&lt;</text>
<text text-anchor="middle" x="47.5" y="-67.5" font-family="Helvetica,sans-Serif" font-size="10.00"> Char &gt;</text>
</a>
</g>
</g>
<!-- Node5&#45;&gt;Node4 -->
<g id="edge4" class="edge">
<title>Node5&#45;&gt;Node4</title>
<path fill="none" stroke="midnightblue" d="M105.53,-75.5C114.68,-75.5 123.8,-75.5 131.93,-75.5"/>
<polygon fill="midnightblue" stroke="midnightblue" points="105.23,-72 95.23,-75.5 105.23,-79 105.23,-72"/>
</g>
<!-- Node6 -->
<g id="node6" class="node">
<title>Node6</title>
<g id="a_node6"><a xlink:href="classhdtree_1_1Branch.html" target="_top" xlink:title=" ">
<polygon fill="none" stroke="black" points="709,-50 709,-69 863,-69 863,-50 709,-50"/>
<text text-anchor="middle" x="786" y="-57" font-family="Helvetica,sans-Serif" font-size="10.00">hdtree::Branch&lt; ContentType &gt;</text>
</a>
</g>
</g>
<!-- Node6&#45;&gt;Node1 -->
<g id="edge5" class="edge">
<title>Node6&#45;&gt;Node1</title>
<path fill="none" stroke="#9a32cd" stroke-dasharray="5,2" d="M873.22,-59.5C891.17,-59.5 909.81,-59.5 926.85,-59.5"/>
<polygon fill="#9a32cd" stroke="#9a32cd" points="873.04,-56 863.04,-59.5 873.04,-63 873.04,-56"/>
<text text-anchor="middle" x="895" y="-62.5" font-family="Helvetica,sans-Serif" font-size="10.00"> data_</text>
</g>
<!-- Node7&#45;&gt;Node6 -->
<g id="edge6" class="edge">
<title>Node7&#45;&gt;Node6</title>
<path fill="none" stroke="midnightblue" d="M528.41,-54.76C581.15,-55.73 654.29,-57.08 708.99,-58.09"/>
<polygon fill="midnightblue" stroke="midnightblue" points="528.2,-51.25 518.14,-54.57 528.07,-58.25 528.2,-51.25"/>
</g>
<!-- Node8 -->
<g id="node8" class="node">
<title>Node8</title>
<g id="a_node8"><a xlink:href="classhdtree_1_1Branch.html" target="_top" xlink:title=" ">
<polygon fill="none" stroke="black" points="734.5,-0.5 734.5,-30.5 837.5,-30.5 837.5,-0.5 734.5,-0.5"/>
<text text-anchor="start" x="742.5" y="-18.5" font-family="Helvetica,sans-Serif" font-size="10.00">hdtree::Branch&lt; std</text>
<text text-anchor="middle" x="786" y="-7.5" font-family="Helvetica,sans-Serif" font-size="10.00">::size_t &gt;</text>
</a>
</g>
</g>
<!-- Node7&#45;&gt;Node8 -->
<g id="edge9" class="edge">
<title>Node7&#45;&gt;Node8</title>
<path fill="none" stroke="midnightblue" d="M528.13,-45.58C589.56,-38.39 678.8,-27.94 734.29,-21.44"/>
<polygon fill="midnightblue" stroke="midnightblue" points="527.67,-42.11 518.14,-46.75 528.48,-49.06 527.67,-42.11"/>
</g>
<!-- Node8&#45;&gt;Node1 -->
<g id="edge8" class="edge">
<title>Node8&#45;&gt;Node1</title>
<path fill="none" stroke="#9a32cd" stroke-dasharray="5,2" d="M847.72,-28.53C872.61,-33.87 901.46,-40.07 926.8,-45.51"/>
<polygon fill="#9a32cd" stroke="#9a32cd" points="848.19,-25.05 837.67,-26.38 846.72,-31.9 848.19,-25.05"/>
<text text-anchor="middle" x="895" y="-44.5" font-family="Helvetica,sans-Serif" font-size="10.00"> size_</text>
</g>
</g>
</svg>
