<?xml version="1.0" encoding="UTF-8" standalone="no"?>
<!DOCTYPE svg PUBLIC "-//W3C//DTD SVG 1.1//EN"
 "http://www.w3.org/Graphics/SVG/1.1/DTD/svg11.dtd">
<!-- Generated by graphviz version 2.43.0 (0)
 -->
<!-- Title: hdtree::Reader::MirrorObject Pages: 1 -->
<svg width="703pt" height="88pt"
 viewBox="0.00 0.00 703.00 88.00" xmlns="http://www.w3.org/2000/svg" xmlns:xlink="http://www.w3.org/1999/xlink">
<g id="graph0" class="graph" transform="scale(1 1) rotate(0) translate(4 84)">
<title>hdtree::Reader::MirrorObject</title>
<!-- Node1 -->
<g id="node1" class="node">
<title>Node1</title>
<g id="a_node1"><a xlink:title="A mirror event object.">
<polygon fill="#bfbfbf" stroke="black" points="540,-31 540,-50 695,-50 695,-31 540,-31"/>
<text text-anchor="middle" x="617.5" y="-38" font-family="Helvetica,sans-Serif" font-size="10.00">hdtree::Reader::MirrorObject</text>
</a>
</g>
</g>
<!-- Node2 -->
<g id="node2" class="node">
<title>Node2</title>
<g id="a_node2"><a xlink:title=" ">
<polygon fill="none" stroke="#bfbfbf" points="258,-49.5 258,-79.5 390,-79.5 390,-49.5 258,-49.5"/>
<text text-anchor="start" x="266" y="-67.5" font-family="Helvetica,sans-Serif" font-size="10.00">std::unique_ptr&lt; hdtree</text>
<text text-anchor="middle" x="324" y="-56.5" font-family="Helvetica,sans-Serif" font-size="10.00">::BaseBranch &gt;</text>
</a>
</g>
</g>
<!-- Node2&#45;&gt;Node1 -->
<g id="edge1" class="edge">
<title>Node2&#45;&gt;Node1</title>
<path fill="none" stroke="#9a32cd" stroke-dasharray="5,2" d="M400.15,-58.31C443.02,-54.78 496.63,-50.37 539.76,-46.82"/>
<polygon fill="#9a32cd" stroke="#9a32cd" points="399.73,-54.83 390.06,-59.14 400.31,-61.81 399.73,-54.83"/>
<text text-anchor="middle" x="484" y="-67.5" font-family="Helvetica,sans-Serif" font-size="10.00"> data_</text>
<text text-anchor="middle" x="484" y="-56.5" font-family="Helvetica,sans-Serif" font-size="10.00">size_member_</text>
</g>
<!-- Node3 -->
<g id="node3" class="node">
<title>Node3</title>
<g id="a_node3"><a xlink:title=" ">
<polygon fill="none" stroke="#bfbfbf" points="220,-0.5 220,-30.5 428,-30.5 428,-0.5 220,-0.5"/>
<text text-anchor="start" x="228" y="-18.5" font-family="Helvetica,sans-Serif" font-size="10.00">std::vector&lt; std::unique</text>
<text text-anchor="middle" x="324" y="-7.5" font-family="Helvetica,sans-Serif" font-size="10.00">_ptr&lt; hdtree::Reader::MirrorObject &gt; &gt;</text>
</a>
</g>
</g>
<!-- Node3&#45;&gt;Node1 -->
<g id="edge2" class="edge">
<title>Node3&#45;&gt;Node1</title>
<path fill="none" stroke="#9a32cd" stroke-dasharray="5,2" d="M438.16,-25.2C472.12,-28.12 508.56,-31.24 539.6,-33.9"/>
<polygon fill="#9a32cd" stroke="#9a32cd" points="438.44,-21.72 428.18,-24.35 437.85,-28.69 438.44,-21.72"/>
<text text-anchor="middle" x="484" y="-34.5" font-family="Helvetica,sans-Serif" font-size="10.00"> obj_members_</text>
</g>
<!-- Node4 -->
<g id="node4" class="node">
<title>Node4</title>
<g id="a_node4"><a xlink:title=" ">
<polygon fill="none" stroke="#bfbfbf" points="0,-0.5 0,-30.5 135,-30.5 135,-0.5 0,-0.5"/>
<text text-anchor="start" x="8" y="-18.5" font-family="Helvetica,sans-Serif" font-size="10.00">std::unique_ptr&lt; hdtree</text>
<text text-anchor="middle" x="67.5" y="-7.5" font-family="Helvetica,sans-Serif" font-size="10.00">::Reader::MirrorObject &gt;</text>
</a>
</g>
</g>
<!-- Node4&#45;&gt;Node3 -->
<g id="edge3" class="edge">
<title>Node4&#45;&gt;Node3</title>
<path fill="none" stroke="#9a32cd" stroke-dasharray="5,2" d="M145.26,-15.5C168.74,-15.5 194.96,-15.5 219.89,-15.5"/>
<polygon fill="#9a32cd" stroke="#9a32cd" points="145.03,-12 135.03,-15.5 145.03,-19 145.03,-12"/>
<text text-anchor="middle" x="177.5" y="-18.5" font-family="Helvetica,sans-Serif" font-size="10.00"> elements</text>
</g>
</g>
</svg>
