<?xml version="1.0" encoding="UTF-8" standalone="no"?>
<!DOCTYPE svg PUBLIC "-//W3C//DTD SVG 1.1//EN"
 "http://www.w3.org/Graphics/SVG/1.1/DTD/svg11.dtd">
<!-- Generated by graphviz version 2.43.0 (0)
 -->
<!-- Title: hdtree::Branch&lt; AtomicType, std::enable_if_t&lt; is_atomic_v&lt; AtomicType &gt; &gt; &gt; Pages: 1 -->
<svg width="865pt" height="116pt"
 viewBox="0.00 0.00 865.00 115.50" xmlns="http://www.w3.org/2000/svg" xmlns:xlink="http://www.w3.org/1999/xlink">
<g id="graph0" class="graph" transform="scale(1 1) rotate(0) translate(4 111.5)">
<title>hdtree::Branch&lt; AtomicType, std::enable_if_t&lt; is_atomic_v&lt; AtomicType &gt; &gt; &gt;</title>
<!-- Node1 -->
<g id="node1" class="node">
<title>Node1</title>
<g id="a_node1"><a xlink:title="Branch wrapper for atomic types.">
<polygon fill="#bfbfbf" stroke="black" points="698,-27.5 698,-68.5 857,-68.5 857,-27.5 698,-27.5"/>
<text text-anchor="start" x="706" y="-56.5" font-family="Helvetica,sans-Serif" font-size="10.00">hdtree::Branch&lt; AtomicType,</text>
<text text-anchor="start" x="706" y="-45.5" font-family="Helvetica,sans-Serif" font-size="10.00"> std::enable_if_t&lt; is_atomic</text>
<text text-anchor="middle" x="777.5" y="-34.5" font-family="Helvetica,sans-Serif" font-size="10.00">_v&lt; AtomicType &gt; &gt; &gt;</text>
</a>
</g>
</g>
<!-- Node2 -->
<g id="node2" class="node">
<title>Node2</title>
<g id="a_node2"><a xlink:href="classhdtree_1_1AbstractBranch.html" target="_top" xlink:title=" ">
<polygon fill="none" stroke="black" points="447.5,-77 447.5,-107 575.5,-107 575.5,-77 447.5,-77"/>
<text text-anchor="start" x="455.5" y="-95" font-family="Helvetica,sans-Serif" font-size="10.00">hdtree::AbstractBranch</text>
<text text-anchor="middle" x="511.5" y="-84" font-family="Helvetica,sans-Serif" font-size="10.00">&lt; AtomicType &gt;</text>
</a>
</g>
</g>
<!-- Node2&#45;&gt;Node1 -->
<g id="edge1" class="edge">
<title>Node2&#45;&gt;Node1</title>
<path fill="none" stroke="midnightblue" d="M585.83,-79.78C620.62,-73.98 662.25,-67.04 697.72,-61.13"/>
<polygon fill="midnightblue" stroke="midnightblue" points="585.02,-76.36 575.73,-81.46 586.17,-83.27 585.02,-76.36"/>
</g>
<!-- Node3 -->
<g id="node3" class="node">
<title>Node3</title>
<g id="a_node3"><a xlink:href="classhdtree_1_1BaseBranch.html" target="_top" xlink:title="Empty data base allowing recursion.">
<polygon fill="none" stroke="black" points="279,-82.5 279,-101.5 391,-101.5 391,-82.5 279,-82.5"/>
<text text-anchor="middle" x="335" y="-89.5" font-family="Helvetica,sans-Serif" font-size="10.00">hdtree::BaseBranch</text>
</a>
</g>
</g>
<!-- Node3&#45;&gt;Node2 -->
<g id="edge2" class="edge">
<title>Node3&#45;&gt;Node2</title>
<path fill="none" stroke="midnightblue" d="M401.46,-92C416.51,-92 432.49,-92 447.44,-92"/>
<polygon fill="midnightblue" stroke="midnightblue" points="401.21,-88.5 391.21,-92 401.21,-95.5 401.21,-88.5"/>
</g>
<!-- Node4 -->
<g id="node4" class="node">
<title>Node4</title>
<g id="a_node4"><a xlink:title=" ">
<polygon fill="none" stroke="#bfbfbf" points="141,-82.5 141,-101.5 206,-101.5 206,-82.5 141,-82.5"/>
<text text-anchor="middle" x="173.5" y="-89.5" font-family="Helvetica,sans-Serif" font-size="10.00">std::string</text>
</a>
</g>
</g>
<!-- Node4&#45;&gt;Node3 -->
<g id="edge3" class="edge">
<title>Node4&#45;&gt;Node3</title>
<path fill="none" stroke="#9a32cd" stroke-dasharray="5,2" d="M216.23,-92C235.41,-92 258.41,-92 278.97,-92"/>
<polygon fill="#9a32cd" stroke="#9a32cd" points="216.01,-88.5 206.01,-92 216.01,-95.5 216.01,-88.5"/>
<text text-anchor="middle" x="242.5" y="-95" font-family="Helvetica,sans-Serif" font-size="10.00"> name_</text>
</g>
<!-- Node5 -->
<g id="node5" class="node">
<title>Node5</title>
<g id="a_node5"><a xlink:title=" ">
<polygon fill="none" stroke="#bfbfbf" points="0,-77 0,-107 104,-107 104,-77 0,-77"/>
<text text-anchor="start" x="8" y="-95" font-family="Helvetica,sans-Serif" font-size="10.00">std::basic_string&lt;</text>
<text text-anchor="middle" x="52" y="-84" font-family="Helvetica,sans-Serif" font-size="10.00"> Char &gt;</text>
</a>
</g>
</g>
<!-- Node5&#45;&gt;Node4 -->
<g id="edge4" class="edge">
<title>Node5&#45;&gt;Node4</title>
<path fill="none" stroke="midnightblue" d="M114.1,-92C123.41,-92 132.68,-92 141,-92"/>
<polygon fill="midnightblue" stroke="midnightblue" points="114.03,-88.5 104.03,-92 114.03,-95.5 114.03,-88.5"/>
</g>
<!-- Node6 -->
<g id="node6" class="node">
<title>Node6</title>
<g id="a_node6"><a xlink:title=" ">
<polygon fill="none" stroke="#bfbfbf" points="428,-38.5 428,-57.5 595,-57.5 595,-38.5 428,-38.5"/>
<text text-anchor="middle" x="511.5" y="-45.5" font-family="Helvetica,sans-Serif" font-size="10.00">std::unique_ptr&lt; WriteBuffer &gt;</text>
</a>
</g>
</g>
<!-- Node6&#45;&gt;Node1 -->
<g id="edge5" class="edge">
<title>Node6&#45;&gt;Node1</title>
<path fill="none" stroke="#9a32cd" stroke-dasharray="5,2" d="M605.39,-48C635.5,-48 668.6,-48 697.59,-48"/>
<polygon fill="#9a32cd" stroke="#9a32cd" points="605.31,-44.5 595.31,-48 605.31,-51.5 605.31,-44.5"/>
<text text-anchor="middle" x="646.5" y="-51" font-family="Helvetica,sans-Serif" font-size="10.00"> write_buffer_</text>
</g>
<!-- Node7 -->
<g id="node7" class="node">
<title>Node7</title>
<g id="a_node7"><a xlink:title=" ">
<polygon fill="none" stroke="#bfbfbf" points="428.5,-0.5 428.5,-19.5 594.5,-19.5 594.5,-0.5 428.5,-0.5"/>
<text text-anchor="middle" x="511.5" y="-7.5" font-family="Helvetica,sans-Serif" font-size="10.00">std::unique_ptr&lt; ReadBuffer &gt;</text>
</a>
</g>
</g>
<!-- Node7&#45;&gt;Node1 -->
<g id="edge6" class="edge">
<title>Node7&#45;&gt;Node1</title>
<path fill="none" stroke="#9a32cd" stroke-dasharray="5,2" d="M593.79,-20.87C621.19,-24.61 651.93,-28.89 680,-33 685.79,-33.85 691.77,-34.74 697.78,-35.65"/>
<polygon fill="#9a32cd" stroke="#9a32cd" points="594.24,-17.4 583.86,-19.51 593.29,-24.33 594.24,-17.4"/>
<text text-anchor="middle" x="646.5" y="-36" font-family="Helvetica,sans-Serif" font-size="10.00"> read_buffer_</text>
</g>
</g>
</svg>
