<?xml version="1.0" encoding="UTF-8" standalone="no"?>
<!DOCTYPE svg PUBLIC "-//W3C//DTD SVG 1.1//EN"
 "http://www.w3.org/Graphics/SVG/1.1/DTD/svg11.dtd">
<!-- Generated by graphviz version 2.43.0 (0)
 -->
<!-- Title: hdtree::Branch&lt; DataType, Enable &gt; Pages: 1 -->
<svg width="1051pt" height="164pt"
 viewBox="0.00 0.00 1051.00 163.50" xmlns="http://www.w3.org/2000/svg" xmlns:xlink="http://www.w3.org/1999/xlink">
<g id="graph0" class="graph" transform="scale(1 1) rotate(0) translate(4 159.5)">
<title>hdtree::Branch&lt; DataType, Enable &gt;</title>
<!-- Node1 -->
<g id="node1" class="node">
<title>Node1</title>
<g id="a_node1"><a xlink:title="General data set.">
<polygon fill="#bfbfbf" stroke="black" points="895,-61 895,-91 1043,-91 1043,-61 895,-61"/>
<text text-anchor="start" x="903" y="-79" font-family="Helvetica,sans-Serif" font-size="10.00">hdtree::Branch&lt; DataType,</text>
<text text-anchor="middle" x="969" y="-68" font-family="Helvetica,sans-Serif" font-size="10.00"> Enable &gt;</text>
</a>
</g>
</g>
<!-- Node2 -->
<g id="node2" class="node">
<title>Node2</title>
<g id="a_node2"><a xlink:href="classhdtree_1_1AbstractBranch.html" target="_top" xlink:title="Type&#45;specific base class to hold common data methods.">
<polygon fill="none" stroke="black" points="652,-61 652,-91 780,-91 780,-61 652,-61"/>
<text text-anchor="start" x="660" y="-79" font-family="Helvetica,sans-Serif" font-size="10.00">hdtree::AbstractBranch</text>
<text text-anchor="middle" x="716" y="-68" font-family="Helvetica,sans-Serif" font-size="10.00">&lt; DataType &gt;</text>
</a>
</g>
</g>
<!-- Node2&#45;&gt;Node1 -->
<g id="edge1" class="edge">
<title>Node2&#45;&gt;Node1</title>
<path fill="none" stroke="midnightblue" d="M790.03,-76C822.96,-76 861.76,-76 894.72,-76"/>
<polygon fill="midnightblue" stroke="midnightblue" points="790.01,-72.5 780.01,-76 790.01,-79.5 790.01,-72.5"/>
</g>
<!-- Node3 -->
<g id="node3" class="node">
<title>Node3</title>
<g id="a_node3"><a xlink:href="classhdtree_1_1BaseBranch.html" target="_top" xlink:title="Empty data base allowing recursion.">
<polygon fill="none" stroke="black" points="381,-62.5 381,-81.5 493,-81.5 493,-62.5 381,-62.5"/>
<text text-anchor="middle" x="437" y="-69.5" font-family="Helvetica,sans-Serif" font-size="10.00">hdtree::BaseBranch</text>
</a>
</g>
</g>
<!-- Node3&#45;&gt;Node2 -->
<g id="edge2" class="edge">
<title>Node3&#45;&gt;Node2</title>
<path fill="none" stroke="midnightblue" d="M503.27,-72.94C548.14,-73.59 607.4,-74.45 651.81,-75.09"/>
<polygon fill="midnightblue" stroke="midnightblue" points="503.11,-69.44 493.06,-72.8 503.01,-76.44 503.11,-69.44"/>
</g>
<!-- Node4 -->
<g id="node4" class="node">
<title>Node4</title>
<g id="a_node4"><a xlink:title=" ">
<polygon fill="none" stroke="#bfbfbf" points="176,-74.5 176,-93.5 241,-93.5 241,-74.5 176,-74.5"/>
<text text-anchor="middle" x="208.5" y="-81.5" font-family="Helvetica,sans-Serif" font-size="10.00">std::string</text>
</a>
</g>
</g>
<!-- Node4&#45;&gt;Node3 -->
<g id="edge3" class="edge">
<title>Node4&#45;&gt;Node3</title>
<path fill="none" stroke="#9a32cd" stroke-dasharray="5,2" d="M251.16,-77.55C264.78,-75.71 280,-73.96 294,-73 322.65,-71.04 354.64,-70.66 380.98,-70.82"/>
<polygon fill="#9a32cd" stroke="#9a32cd" points="250.53,-74.1 241.11,-78.95 251.5,-81.03 250.53,-74.1"/>
<text text-anchor="middle" x="318.5" y="-76" font-family="Helvetica,sans-Serif" font-size="10.00"> name_</text>
</g>
<!-- Node7 -->
<g id="node7" class="node">
<title>Node7</title>
<g id="a_node7"><a xlink:title=" ">
<polygon fill="none" stroke="#bfbfbf" points="361,-101 361,-153 513,-153 513,-101 361,-101"/>
<text text-anchor="start" x="369" y="-141" font-family="Helvetica,sans-Serif" font-size="10.00">std::unordered_map</text>
<text text-anchor="start" x="369" y="-130" font-family="Helvetica,sans-Serif" font-size="10.00">&lt; std::string, std::</text>
<text text-anchor="start" x="369" y="-119" font-family="Helvetica,sans-Serif" font-size="10.00">unique_ptr&lt; hdtree::Reader</text>
<text text-anchor="middle" x="437" y="-108" font-family="Helvetica,sans-Serif" font-size="10.00">::MirrorObject &gt; &gt;</text>
</a>
</g>
</g>
<!-- Node4&#45;&gt;Node7 -->
<g id="edge8" class="edge">
<title>Node4&#45;&gt;Node7</title>
<path fill="none" stroke="#9a32cd" stroke-dasharray="5,2" d="M251.37,-91.95C281.97,-97.76 324.3,-105.79 360.71,-112.71"/>
<polygon fill="#9a32cd" stroke="#9a32cd" points="251.95,-88.5 241.47,-90.07 250.64,-95.37 251.95,-88.5"/>
<text text-anchor="middle" x="318.5" y="-111" font-family="Helvetica,sans-Serif" font-size="10.00"> keys</text>
</g>
<!-- Node5 -->
<g id="node5" class="node">
<title>Node5</title>
<g id="a_node5"><a xlink:title=" ">
<polygon fill="none" stroke="#bfbfbf" points="0,-69 0,-99 104,-99 104,-69 0,-69"/>
<text text-anchor="start" x="8" y="-87" font-family="Helvetica,sans-Serif" font-size="10.00">std::basic_string&lt;</text>
<text text-anchor="middle" x="52" y="-76" font-family="Helvetica,sans-Serif" font-size="10.00"> Char &gt;</text>
</a>
</g>
</g>
<!-- Node5&#45;&gt;Node4 -->
<g id="edge4" class="edge">
<title>Node5&#45;&gt;Node4</title>
<path fill="none" stroke="midnightblue" d="M114.22,-84C135.34,-84 158.14,-84 175.9,-84"/>
<polygon fill="midnightblue" stroke="midnightblue" points="114.02,-80.5 104.02,-84 114.02,-87.5 114.02,-80.5"/>
</g>
<!-- Node6 -->
<g id="node6" class="node">
<title>Node6</title>
<g id="a_node6"><a xlink:href="classhdtree_1_1Reader.html" target="_top" xlink:title="Reading a file generated by fire.">
<polygon fill="none" stroke="black" points="671.5,-115.5 671.5,-134.5 760.5,-134.5 760.5,-115.5 671.5,-115.5"/>
<text text-anchor="middle" x="716" y="-122.5" font-family="Helvetica,sans-Serif" font-size="10.00">hdtree::Reader</text>
</a>
</g>
</g>
<!-- Node6&#45;&gt;Node1 -->
<g id="edge5" class="edge">
<title>Node6&#45;&gt;Node1</title>
<path fill="none" stroke="#9a32cd" stroke-dasharray="5,2" d="M770.6,-114.54C806.81,-107.47 855.08,-98.04 894.82,-90.29"/>
<polygon fill="#9a32cd" stroke="#9a32cd" points="769.86,-111.11 760.72,-116.46 771.21,-117.98 769.86,-111.11"/>
<text text-anchor="middle" x="849.5" y="-106" font-family="Helvetica,sans-Serif" font-size="10.00"> input_file_</text>
</g>
<!-- Node7&#45;&gt;Node6 -->
<g id="edge6" class="edge">
<title>Node7&#45;&gt;Node6</title>
<path fill="none" stroke="#9a32cd" stroke-dasharray="5,2" d="M523.59,-126.38C572.48,-126.03 631.72,-125.6 671.22,-125.32"/>
<polygon fill="#9a32cd" stroke="#9a32cd" points="523.3,-122.88 513.33,-126.46 523.35,-129.88 523.3,-122.88"/>
<text text-anchor="middle" x="570.5" y="-129" font-family="Helvetica,sans-Serif" font-size="10.00"> mirror_objects_</text>
</g>
<!-- Node8 -->
<g id="node8" class="node">
<title>Node8</title>
<g id="a_node8"><a xlink:title=" ">
<polygon fill="none" stroke="#bfbfbf" points="141,-125 141,-155 276,-155 276,-125 141,-125"/>
<text text-anchor="start" x="149" y="-143" font-family="Helvetica,sans-Serif" font-size="10.00">std::unique_ptr&lt; hdtree</text>
<text text-anchor="middle" x="208.5" y="-132" font-family="Helvetica,sans-Serif" font-size="10.00">::Reader::MirrorObject &gt;</text>
</a>
</g>
</g>
<!-- Node8&#45;&gt;Node7 -->
<g id="edge7" class="edge">
<title>Node8&#45;&gt;Node7</title>
<path fill="none" stroke="#9a32cd" stroke-dasharray="5,2" d="M286.34,-135.59C310.32,-134.21 336.73,-132.7 360.61,-131.33"/>
<polygon fill="#9a32cd" stroke="#9a32cd" points="286.02,-132.1 276.23,-136.17 286.42,-139.09 286.02,-132.1"/>
<text text-anchor="middle" x="318.5" y="-138" font-family="Helvetica,sans-Serif" font-size="10.00"> elements</text>
</g>
<!-- Node9 -->
<g id="node9" class="node">
<title>Node9</title>
<g id="a_node9"><a xlink:title=" ">
<polygon fill="none" stroke="#bfbfbf" points="628,-0.5 628,-41.5 804,-41.5 804,-0.5 628,-0.5"/>
<text text-anchor="start" x="636" y="-29.5" font-family="Helvetica,sans-Serif" font-size="10.00">std::vector&lt; std::tuple</text>
<text text-anchor="start" x="636" y="-18.5" font-family="Helvetica,sans-Serif" font-size="10.00">&lt; bool, bool, std::unique</text>
<text text-anchor="middle" x="716" y="-7.5" font-family="Helvetica,sans-Serif" font-size="10.00">_ptr&lt; hdtree::BaseBranch &gt; &gt; &gt;</text>
</a>
</g>
</g>
<!-- Node9&#45;&gt;Node1 -->
<g id="edge9" class="edge">
<title>Node9&#45;&gt;Node1</title>
<path fill="none" stroke="#9a32cd" stroke-dasharray="5,2" d="M814.05,-42.26C842.48,-48.5 872.98,-55.18 899.26,-60.94"/>
<polygon fill="#9a32cd" stroke="#9a32cd" points="814.6,-38.8 804.08,-40.08 813.1,-45.64 814.6,-38.8"/>
<text text-anchor="middle" x="849.5" y="-59" font-family="Helvetica,sans-Serif" font-size="10.00"> members_</text>
</g>
</g>
</svg>
