<?xml version="1.0" encoding="UTF-8" standalone="no"?>
<!DOCTYPE svg PUBLIC "-//W3C//DTD SVG 1.1//EN"
 "http://www.w3.org/Graphics/SVG/1.1/DTD/svg11.dtd">
<!-- Generated by graphviz version 2.43.0 (0)
 -->
<!-- Title: cpp/include/hdtree/Constants.h Pages: 1 -->
<svg width="314pt" height="363pt"
 viewBox="0.00 0.00 313.50 363.00" xmlns="http://www.w3.org/2000/svg" xmlns:xlink="http://www.w3.org/1999/xlink">
<g id="graph0" class="graph" transform="scale(1 1) rotate(0) translate(4 359)">
<title>cpp/include/hdtree/Constants.h</title>
<!-- Node1 -->
<g id="node1" class="node">
<title>Node1</title>
<g id="a_node1"><a xlink:title="Definitions for names of structures required by serialization methods.">
<polygon fill="#bfbfbf" stroke="black" points="96,-324.5 96,-354.5 203,-354.5 203,-324.5 96,-324.5"/>
<text text-anchor="start" x="104" y="-342.5" font-family="Helvetica,sans-Serif" font-size="10.00">cpp/include/hdtree</text>
<text text-anchor="middle" x="149.5" y="-331.5" font-family="Helvetica,sans-Serif" font-size="10.00">/Constants.h</text>
</a>
</g>
</g>
<!-- Node2 -->
<g id="node2" class="node">
<title>Node2</title>
<g id="a_node2"><a xlink:href="Branch_8h.html" target="_top" xlink:title="Common include for users interacting with Branches.">
<polygon fill="none" stroke="black" points="93,-123.5 93,-153.5 200,-153.5 200,-123.5 93,-123.5"/>
<text text-anchor="start" x="101" y="-141.5" font-family="Helvetica,sans-Serif" font-size="10.00">cpp/include/hdtree</text>
<text text-anchor="middle" x="146.5" y="-130.5" font-family="Helvetica,sans-Serif" font-size="10.00">/Branch.h</text>
</a>
</g>
</g>
<!-- Node1&#45;&gt;Node2 -->
<g id="edge1" class="edge">
<title>Node1&#45;&gt;Node2</title>
<path fill="none" stroke="midnightblue" d="M137.03,-315.32C133.17,-306.96 129.43,-297.29 127.5,-288 117.32,-239.15 133.1,-180.04 141.62,-153.54"/>
<polygon fill="midnightblue" stroke="midnightblue" points="133.95,-317 141.5,-324.44 140.24,-313.92 133.95,-317"/>
</g>
<!-- Node6 -->
<g id="node6" class="node">
<title>Node6</title>
<g id="a_node6"><a xlink:href="Writer_8h_source.html" target="_top" xlink:title=" ">
<polygon fill="none" stroke="black" points="137,-257.5 137,-287.5 244,-287.5 244,-257.5 137,-257.5"/>
<text text-anchor="start" x="145" y="-275.5" font-family="Helvetica,sans-Serif" font-size="10.00">cpp/include/hdtree</text>
<text text-anchor="middle" x="190.5" y="-264.5" font-family="Helvetica,sans-Serif" font-size="10.00">/Writer.h</text>
</a>
</g>
</g>
<!-- Node1&#45;&gt;Node6 -->
<g id="edge5" class="edge">
<title>Node1&#45;&gt;Node6</title>
<path fill="none" stroke="midnightblue" d="M163.78,-315.87C169.71,-306.46 176.41,-295.83 181.62,-287.58"/>
<polygon fill="midnightblue" stroke="midnightblue" points="160.77,-314.07 158.4,-324.4 166.69,-317.81 160.77,-314.07"/>
</g>
<!-- Node3 -->
<g id="node3" class="node">
<title>Node3</title>
<g id="a_node3"><a xlink:href="Tree_8h_source.html" target="_top" xlink:title=" ">
<polygon fill="none" stroke="black" points="93,-56.5 93,-86.5 200,-86.5 200,-56.5 93,-56.5"/>
<text text-anchor="start" x="101" y="-74.5" font-family="Helvetica,sans-Serif" font-size="10.00">cpp/include/hdtree</text>
<text text-anchor="middle" x="146.5" y="-63.5" font-family="Helvetica,sans-Serif" font-size="10.00">/Tree.h</text>
</a>
</g>
</g>
<!-- Node2&#45;&gt;Node3 -->
<g id="edge2" class="edge">
<title>Node2&#45;&gt;Node3</title>
<path fill="none" stroke="midnightblue" d="M146.5,-113.11C146.5,-104.15 146.5,-94.32 146.5,-86.58"/>
<polygon fill="midnightblue" stroke="midnightblue" points="143,-113.4 146.5,-123.4 150,-113.4 143,-113.4"/>
</g>
<!-- Node4 -->
<g id="node4" class="node">
<title>Node4</title>
<g id="a_node4"><a xlink:href="save_8cxx.html" target="_top" xlink:title="Example of saving a new HDTree into a file.">
<polygon fill="none" stroke="black" points="0,-0.5 0,-19.5 131,-19.5 131,-0.5 0,-0.5"/>
<text text-anchor="middle" x="65.5" y="-7.5" font-family="Helvetica,sans-Serif" font-size="10.00">cpp/examples/save.cxx</text>
</a>
</g>
</g>
<!-- Node3&#45;&gt;Node4 -->
<g id="edge3" class="edge">
<title>Node3&#45;&gt;Node4</title>
<path fill="none" stroke="midnightblue" d="M118.85,-50.19C104.67,-39.77 88.14,-27.63 77.29,-19.66"/>
<polygon fill="midnightblue" stroke="midnightblue" points="117.17,-53.3 127.3,-56.4 121.32,-47.66 117.17,-53.3"/>
</g>
<!-- Node5 -->
<g id="node5" class="node">
<title>Node5</title>
<g id="a_node5"><a xlink:href="transform_8cxx.html" target="_top" xlink:title="Example of transforming an HDTree by adding more branches.">
<polygon fill="none" stroke="black" points="149.5,-0.5 149.5,-19.5 305.5,-19.5 305.5,-0.5 149.5,-0.5"/>
<text text-anchor="middle" x="227.5" y="-7.5" font-family="Helvetica,sans-Serif" font-size="10.00">cpp/examples/transform.cxx</text>
</a>
</g>
</g>
<!-- Node3&#45;&gt;Node5 -->
<g id="edge4" class="edge">
<title>Node3&#45;&gt;Node5</title>
<path fill="none" stroke="midnightblue" d="M174.15,-50.19C188.33,-39.77 204.86,-27.63 215.71,-19.66"/>
<polygon fill="midnightblue" stroke="midnightblue" points="171.68,-47.66 165.7,-56.4 175.83,-53.3 171.68,-47.66"/>
</g>
<!-- Node6&#45;&gt;Node2 -->
<g id="edge6" class="edge">
<title>Node6&#45;&gt;Node2</title>
<path fill="none" stroke="midnightblue" d="M178.15,-248.08C174.06,-239.69 169.73,-230.07 166.5,-221 158.29,-197.94 152.24,-170.05 149.05,-153.6"/>
<polygon fill="midnightblue" stroke="midnightblue" points="175.15,-249.89 182.77,-257.25 181.4,-246.74 175.15,-249.89"/>
</g>
<!-- Node7 -->
<g id="node7" class="node">
<title>Node7</title>
<g id="a_node7"><a xlink:href="Reader_8h_source.html" target="_top" xlink:title=" ">
<polygon fill="none" stroke="black" points="175,-190.5 175,-220.5 282,-220.5 282,-190.5 175,-190.5"/>
<text text-anchor="start" x="183" y="-208.5" font-family="Helvetica,sans-Serif" font-size="10.00">cpp/include/hdtree</text>
<text text-anchor="middle" x="228.5" y="-197.5" font-family="Helvetica,sans-Serif" font-size="10.00">/Reader.h</text>
</a>
</g>
</g>
<!-- Node6&#45;&gt;Node7 -->
<g id="edge7" class="edge">
<title>Node6&#45;&gt;Node7</title>
<path fill="none" stroke="midnightblue" d="M203.9,-248.58C209.36,-239.24 215.49,-228.75 220.27,-220.58"/>
<polygon fill="midnightblue" stroke="midnightblue" points="200.77,-247 198.75,-257.4 206.81,-250.53 200.77,-247"/>
</g>
<!-- Node7&#45;&gt;Node2 -->
<g id="edge8" class="edge">
<title>Node7&#45;&gt;Node2</title>
<path fill="none" stroke="midnightblue" d="M202.85,-184.17C190.31,-174.23 175.53,-162.51 164.26,-153.58"/>
<polygon fill="midnightblue" stroke="midnightblue" points="200.7,-186.93 210.71,-190.4 205.04,-181.44 200.7,-186.93"/>
</g>
</g>
</svg>
