<?xml version="1.0" encoding="UTF-8" standalone="no"?>
<!DOCTYPE svg PUBLIC "-//W3C//DTD SVG 1.1//EN"
 "http://www.w3.org/Graphics/SVG/1.1/DTD/svg11.dtd">
<!-- Generated by graphviz version 2.43.0 (0)
 -->
<!-- Title: cpp/examples/examples.h Pages: 1 -->
<svg width="314pt" height="84pt"
 viewBox="0.00 0.00 313.50 84.00" xmlns="http://www.w3.org/2000/svg" xmlns:xlink="http://www.w3.org/1999/xlink">
<g id="graph0" class="graph" transform="scale(1 1) rotate(0) translate(4 80)">
<title>cpp/examples/examples.h</title>
<!-- Node1 -->
<g id="node1" class="node">
<title>Node1</title>
<g id="a_node1"><a xlink:title="Header file including helper utility functions unrelated to HDTree and just helpful for command line ...">
<polygon fill="#bfbfbf" stroke="black" points="74,-56.5 74,-75.5 219,-75.5 219,-56.5 74,-56.5"/>
<text text-anchor="middle" x="146.5" y="-63.5" font-family="Helvetica,sans-Serif" font-size="10.00">cpp/examples/examples.h</text>
</a>
</g>
</g>
<!-- Node2 -->
<g id="node2" class="node">
<title>Node2</title>
<g id="a_node2"><a xlink:href="save_8cxx.html" target="_top" xlink:title="Example of saving a new HDTree into a file.">
<polygon fill="none" stroke="black" points="0,-0.5 0,-19.5 131,-19.5 131,-0.5 0,-0.5"/>
<text text-anchor="middle" x="65.5" y="-7.5" font-family="Helvetica,sans-Serif" font-size="10.00">cpp/examples/save.cxx</text>
</a>
</g>
</g>
<!-- Node1&#45;&gt;Node2 -->
<g id="edge1" class="edge">
<title>Node1&#45;&gt;Node2</title>
<path fill="none" stroke="midnightblue" d="M124.93,-50.62C110.14,-40.76 90.99,-27.99 78.48,-19.65"/>
<polygon fill="midnightblue" stroke="midnightblue" points="123.22,-53.69 133.49,-56.32 127.11,-47.86 123.22,-53.69"/>
</g>
<!-- Node3 -->
<g id="node3" class="node">
<title>Node3</title>
<g id="a_node3"><a xlink:href="transform_8cxx.html" target="_top" xlink:title="Example of transforming an HDTree by adding more branches.">
<polygon fill="none" stroke="black" points="149.5,-0.5 149.5,-19.5 305.5,-19.5 305.5,-0.5 149.5,-0.5"/>
<text text-anchor="middle" x="227.5" y="-7.5" font-family="Helvetica,sans-Serif" font-size="10.00">cpp/examples/transform.cxx</text>
</a>
</g>
</g>
<!-- Node1&#45;&gt;Node3 -->
<g id="edge2" class="edge">
<title>Node1&#45;&gt;Node3</title>
<path fill="none" stroke="midnightblue" d="M168.07,-50.62C182.86,-40.76 202.01,-27.99 214.52,-19.65"/>
<polygon fill="midnightblue" stroke="midnightblue" points="165.89,-47.86 159.51,-56.32 169.78,-53.69 165.89,-47.86"/>
</g>
</g>
</svg>
