<?xml version="1.0" encoding="UTF-8" standalone="no"?>
<!DOCTYPE svg PUBLIC "-//W3C//DTD SVG 1.1//EN"
 "http://www.w3.org/Graphics/SVG/1.1/DTD/svg11.dtd">
<!-- Generated by graphviz version 2.43.0 (0)
 -->
<!-- Title: Graphical Class Hierarchy Pages: 1 -->
<svg width="551pt" height="363pt"
 viewBox="0.00 0.00 551.00 362.50" xmlns="http://www.w3.org/2000/svg" xmlns:xlink="http://www.w3.org/1999/xlink">
<g id="graph0" class="graph" transform="scale(1 1) rotate(0) translate(4 358.5)">
<title>Graphical Class Hierarchy</title>
<!-- Node0 -->
<g id="node1" class="node">
<title>Node0</title>
<g id="a_node1"><a xlink:href="classhdtree_1_1BaseBranch.html" target="_top" xlink:title="Empty data base allowing recursion.">
<polygon fill="none" stroke="black" points="0,-244 0,-263 112,-263 112,-244 0,-244"/>
<text text-anchor="middle" x="56" y="-251" font-family="Helvetica,sans-Serif" font-size="10.00">hdtree::BaseBranch</text>
</a>
</g>
</g>
<!-- Node1 -->
<g id="node2" class="node">
<title>Node1</title>
<g id="a_node2"><a xlink:href="classhdtree_1_1AbstractBranch.html" target="_top" xlink:title=" ">
<polygon fill="none" stroke="black" points="178,-315.5 178,-345.5 306,-345.5 306,-315.5 178,-315.5"/>
<text text-anchor="start" x="186" y="-333.5" font-family="Helvetica,sans-Serif" font-size="10.00">hdtree::AbstractBranch</text>
<text text-anchor="middle" x="242" y="-322.5" font-family="Helvetica,sans-Serif" font-size="10.00">&lt; AtomicType &gt;</text>
</a>
</g>
</g>
<!-- Node0&#45;&gt;Node1 -->
<g id="edge1" class="edge">
<title>Node0&#45;&gt;Node1</title>
<path fill="none" stroke="midnightblue" d="M80.59,-268.35C98.56,-279.18 124.17,-293.64 148,-303.5 158.72,-307.94 170.42,-311.94 181.78,-315.43"/>
<polygon fill="midnightblue" stroke="midnightblue" points="82.3,-265.29 71.95,-263.06 78.65,-271.26 82.3,-265.29"/>
</g>
<!-- Node3 -->
<g id="node4" class="node">
<title>Node3</title>
<g id="a_node4"><a xlink:href="classhdtree_1_1AbstractBranch.html" target="_top" xlink:title=" ">
<polygon fill="none" stroke="black" points="148,-263.5 148,-293.5 336,-293.5 336,-263.5 148,-263.5"/>
<text text-anchor="start" x="156" y="-281.5" font-family="Helvetica,sans-Serif" font-size="10.00">hdtree::AbstractBranch</text>
<text text-anchor="middle" x="242" y="-270.5" font-family="Helvetica,sans-Serif" font-size="10.00">&lt; std::map&lt; KeyType, ValType &gt; &gt;</text>
</a>
</g>
</g>
<!-- Node0&#45;&gt;Node3 -->
<g id="edge3" class="edge">
<title>Node0&#45;&gt;Node3</title>
<path fill="none" stroke="midnightblue" d="M122.23,-262.36C130.6,-263.5 139.29,-264.68 147.99,-265.86"/>
<polygon fill="midnightblue" stroke="midnightblue" points="122.59,-258.88 112.21,-261 121.64,-265.82 122.59,-258.88"/>
</g>
<!-- Node5 -->
<g id="node6" class="node">
<title>Node5</title>
<g id="a_node6"><a xlink:href="classhdtree_1_1AbstractBranch.html" target="_top" xlink:title=" ">
<polygon fill="none" stroke="black" points="155,-214.5 155,-244.5 329,-244.5 329,-214.5 155,-214.5"/>
<text text-anchor="start" x="163" y="-232.5" font-family="Helvetica,sans-Serif" font-size="10.00">hdtree::AbstractBranch</text>
<text text-anchor="middle" x="242" y="-221.5" font-family="Helvetica,sans-Serif" font-size="10.00">&lt; std::vector&lt; ContentType &gt; &gt;</text>
</a>
</g>
</g>
<!-- Node0&#45;&gt;Node5 -->
<g id="edge5" class="edge">
<title>Node0&#45;&gt;Node5</title>
<path fill="none" stroke="midnightblue" d="M122.17,-245C132.76,-243.62 143.86,-242.17 154.85,-240.74"/>
<polygon fill="midnightblue" stroke="midnightblue" points="121.67,-241.54 112.21,-246.3 122.57,-248.48 121.67,-241.54"/>
</g>
<!-- Node7 -->
<g id="node8" class="node">
<title>Node7</title>
<g id="a_node8"><a xlink:href="classhdtree_1_1AbstractBranch.html" target="_top" xlink:title="Type&#45;specific base class to hold common data methods.">
<polygon fill="none" stroke="black" points="178,-104.5 178,-134.5 306,-134.5 306,-104.5 178,-104.5"/>
<text text-anchor="start" x="186" y="-122.5" font-family="Helvetica,sans-Serif" font-size="10.00">hdtree::AbstractBranch</text>
<text text-anchor="middle" x="242" y="-111.5" font-family="Helvetica,sans-Serif" font-size="10.00">&lt; DataType &gt;</text>
</a>
</g>
</g>
<!-- Node0&#45;&gt;Node7 -->
<g id="edge7" class="edge">
<title>Node0&#45;&gt;Node7</title>
<path fill="none" stroke="midnightblue" d="M78.5,-237.85C114.15,-211.88 185.09,-160.22 220.25,-134.61"/>
<polygon fill="midnightblue" stroke="midnightblue" points="76.26,-235.15 70.23,-243.86 80.38,-240.81 76.26,-235.15"/>
</g>
<!-- Node2 -->
<g id="node3" class="node">
<title>Node2</title>
<g id="a_node3"><a xlink:href="classhdtree_1_1Branch_3_01AtomicType_00_01std_1_1enable__if__t_3_01is__atomic__v_3_01AtomicType_01_4_01_4_01_4.html" target="_top" xlink:title="Branch wrapper for atomic types.">
<polygon fill="none" stroke="black" points="378,-313 378,-354 537,-354 537,-313 378,-313"/>
<text text-anchor="start" x="386" y="-342" font-family="Helvetica,sans-Serif" font-size="10.00">hdtree::Branch&lt; AtomicType,</text>
<text text-anchor="start" x="386" y="-331" font-family="Helvetica,sans-Serif" font-size="10.00"> std::enable_if_t&lt; is_atomic</text>
<text text-anchor="middle" x="457.5" y="-320" font-family="Helvetica,sans-Serif" font-size="10.00">_v&lt; AtomicType &gt; &gt; &gt;</text>
</a>
</g>
</g>
<!-- Node1&#45;&gt;Node2 -->
<g id="edge2" class="edge">
<title>Node1&#45;&gt;Node2</title>
<path fill="none" stroke="midnightblue" d="M316.4,-331.53C336.25,-331.81 357.82,-332.11 377.94,-332.4"/>
<polygon fill="midnightblue" stroke="midnightblue" points="316.24,-328.03 306.19,-331.39 316.14,-335.03 316.24,-328.03"/>
</g>
<!-- Node4 -->
<g id="node5" class="node">
<title>Node4</title>
<g id="a_node5"><a xlink:href="classhdtree_1_1Branch_3_01std_1_1map_3_01KeyType_00_01ValType_01_4_01_4.html" target="_top" xlink:title="Our wrapper around std::map.">
<polygon fill="none" stroke="black" points="376.5,-263.5 376.5,-293.5 538.5,-293.5 538.5,-263.5 376.5,-263.5"/>
<text text-anchor="start" x="384.5" y="-281.5" font-family="Helvetica,sans-Serif" font-size="10.00">hdtree::Branch&lt; std</text>
<text text-anchor="middle" x="457.5" y="-270.5" font-family="Helvetica,sans-Serif" font-size="10.00">::map&lt; KeyType, ValType &gt; &gt;</text>
</a>
</g>
</g>
<!-- Node3&#45;&gt;Node4 -->
<g id="edge4" class="edge">
<title>Node3&#45;&gt;Node4</title>
<path fill="none" stroke="midnightblue" d="M346.18,-278.5C356.36,-278.5 366.59,-278.5 376.49,-278.5"/>
<polygon fill="midnightblue" stroke="midnightblue" points="346.02,-275 336.02,-278.5 346.02,-282 346.02,-275"/>
</g>
<!-- Node6 -->
<g id="node7" class="node">
<title>Node6</title>
<g id="a_node7"><a xlink:href="classhdtree_1_1Branch_3_01std_1_1vector_3_01ContentType_01_4_01_4.html" target="_top" xlink:title="Our wrapper around std::vector.">
<polygon fill="none" stroke="black" points="383.5,-214.5 383.5,-244.5 531.5,-244.5 531.5,-214.5 383.5,-214.5"/>
<text text-anchor="start" x="391.5" y="-232.5" font-family="Helvetica,sans-Serif" font-size="10.00">hdtree::Branch&lt; std</text>
<text text-anchor="middle" x="457.5" y="-221.5" font-family="Helvetica,sans-Serif" font-size="10.00">::vector&lt; ContentType &gt; &gt;</text>
</a>
</g>
</g>
<!-- Node5&#45;&gt;Node6 -->
<g id="edge6" class="edge">
<title>Node5&#45;&gt;Node6</title>
<path fill="none" stroke="midnightblue" d="M339.38,-229.5C354.14,-229.5 369.17,-229.5 383.32,-229.5"/>
<polygon fill="midnightblue" stroke="midnightblue" points="339.22,-226 329.22,-229.5 339.22,-233 339.22,-226"/>
</g>
<!-- Node8 -->
<g id="node9" class="node">
<title>Node8</title>
<g id="a_node9"><a xlink:href="classhdtree_1_1Branch.html" target="_top" xlink:title=" ">
<polygon fill="none" stroke="black" points="383.5,-176 383.5,-195 531.5,-195 531.5,-176 383.5,-176"/>
<text text-anchor="middle" x="457.5" y="-183" font-family="Helvetica,sans-Serif" font-size="10.00">hdtree::Branch&lt; ValType &gt;</text>
</a>
</g>
</g>
<!-- Node7&#45;&gt;Node8 -->
<g id="edge8" class="edge">
<title>Node7&#45;&gt;Node8</title>
<path fill="none" stroke="midnightblue" d="M289.73,-138.17C314.02,-147.45 344.34,-158.39 372,-166.5 383.83,-169.97 396.75,-173.17 408.85,-175.91"/>
<polygon fill="midnightblue" stroke="midnightblue" points="290.99,-134.9 280.4,-134.57 288.47,-141.43 290.99,-134.9"/>
</g>
<!-- Node9 -->
<g id="node10" class="node">
<title>Node9</title>
<g id="a_node10"><a xlink:href="classhdtree_1_1Branch.html" target="_top" xlink:title=" ">
<polygon fill="none" stroke="black" points="400.5,-126.5 400.5,-156.5 514.5,-156.5 514.5,-126.5 400.5,-126.5"/>
<text text-anchor="start" x="408.5" y="-144.5" font-family="Helvetica,sans-Serif" font-size="10.00">hdtree::Branch&lt; std</text>
<text text-anchor="middle" x="457.5" y="-133.5" font-family="Helvetica,sans-Serif" font-size="10.00">::size_t &gt;</text>
</a>
</g>
</g>
<!-- Node7&#45;&gt;Node9 -->
<g id="edge9" class="edge">
<title>Node7&#45;&gt;Node9</title>
<path fill="none" stroke="midnightblue" d="M316.18,-127.04C343.73,-129.88 374.61,-133.06 400.37,-135.72"/>
<polygon fill="midnightblue" stroke="midnightblue" points="316.5,-123.55 306.19,-126.01 315.78,-130.52 316.5,-123.55"/>
</g>
<!-- Node10 -->
<g id="node11" class="node">
<title>Node10</title>
<g id="a_node11"><a xlink:href="classhdtree_1_1Branch.html" target="_top" xlink:title=" ">
<polygon fill="none" stroke="black" points="382,-88 382,-107 533,-107 533,-88 382,-88"/>
<text text-anchor="middle" x="457.5" y="-95" font-family="Helvetica,sans-Serif" font-size="10.00">hdtree::Branch&lt; KeyType &gt;</text>
</a>
</g>
</g>
<!-- Node7&#45;&gt;Node10 -->
<g id="edge10" class="edge">
<title>Node7&#45;&gt;Node10</title>
<path fill="none" stroke="midnightblue" d="M316.39,-111.94C337.52,-109.76 360.59,-107.38 381.8,-105.2"/>
<polygon fill="midnightblue" stroke="midnightblue" points="315.78,-108.48 306.19,-112.99 316.5,-115.45 315.78,-108.48"/>
</g>
<!-- Node11 -->
<g id="node12" class="node">
<title>Node11</title>
<g id="a_node12"><a xlink:href="classhdtree_1_1Branch.html" target="_top" xlink:title=" ">
<polygon fill="none" stroke="black" points="372,-50 372,-69 543,-69 543,-50 372,-50"/>
<text text-anchor="middle" x="457.5" y="-57" font-family="Helvetica,sans-Serif" font-size="10.00">hdtree::Branch&lt; ContentType &gt;</text>
</a>
</g>
</g>
<!-- Node7&#45;&gt;Node11 -->
<g id="edge11" class="edge">
<title>Node7&#45;&gt;Node11</title>
<path fill="none" stroke="midnightblue" d="M296.79,-101.26C319.82,-93.75 347.09,-85.25 372,-78.5 384.48,-75.12 398.11,-71.87 410.71,-69.04"/>
<polygon fill="midnightblue" stroke="midnightblue" points="295.61,-97.96 287.2,-104.41 297.79,-104.61 295.61,-97.96"/>
</g>
<!-- Node12 -->
<g id="node13" class="node">
<title>Node12</title>
<g id="a_node13"><a xlink:href="classhdtree_1_1Branch.html" target="_top" xlink:title="General data set.">
<polygon fill="none" stroke="black" points="383.5,-0.5 383.5,-30.5 531.5,-30.5 531.5,-0.5 383.5,-0.5"/>
<text text-anchor="start" x="391.5" y="-18.5" font-family="Helvetica,sans-Serif" font-size="10.00">hdtree::Branch&lt; DataType,</text>
<text text-anchor="middle" x="457.5" y="-7.5" font-family="Helvetica,sans-Serif" font-size="10.00"> Enable &gt;</text>
</a>
</g>
</g>
<!-- Node7&#45;&gt;Node12 -->
<g id="edge12" class="edge">
<title>Node7&#45;&gt;Node12</title>
<path fill="none" stroke="midnightblue" d="M272.38,-98.42C297.76,-80.97 335.94,-56.54 372,-40.5 380.25,-36.83 389.18,-33.53 398.05,-30.61"/>
<polygon fill="midnightblue" stroke="midnightblue" points="270.17,-95.69 263.96,-104.27 274.17,-101.44 270.17,-95.69"/>
</g>
</g>
</svg>
