<?xml version="1.0" encoding="UTF-8" standalone="no"?>
<!DOCTYPE svg PUBLIC "-//W3C//DTD SVG 1.1//EN"
 "http://www.w3.org/Graphics/SVG/1.1/DTD/svg11.dtd">
<!-- Generated by graphviz version 2.43.0 (0)
 -->
<!-- Title: cpp/examples/save.cxx Pages: 1 -->
<svg width="1461pt" height="364pt"
 viewBox="0.00 0.00 1460.50 364.00" xmlns="http://www.w3.org/2000/svg" xmlns:xlink="http://www.w3.org/1999/xlink">
<g id="graph0" class="graph" transform="scale(1 1) rotate(0) translate(4 360)">
<title>cpp/examples/save.cxx</title>
<!-- Node1 -->
<g id="node1" class="node">
<title>Node1</title>
<g id="a_node1"><a xlink:title="Example of saving a new HDTree into a file.">
<polygon fill="#bfbfbf" stroke="black" points="691.5,-336.5 691.5,-355.5 822.5,-355.5 822.5,-336.5 691.5,-336.5"/>
<text text-anchor="middle" x="757" y="-343.5" font-family="Helvetica,sans-Serif" font-size="10.00">cpp/examples/save.cxx</text>
</a>
</g>
</g>
<!-- Node2 -->
<g id="node2" class="node">
<title>Node2</title>
<g id="a_node2"><a xlink:title=" ">
<polygon fill="none" stroke="#bfbfbf" points="645,-280.5 645,-299.5 699,-299.5 699,-280.5 645,-280.5"/>
<text text-anchor="middle" x="672" y="-287.5" font-family="Helvetica,sans-Serif" font-size="10.00">random</text>
</a>
</g>
</g>
<!-- Node1&#45;&gt;Node2 -->
<g id="edge1" class="edge">
<title>Node1&#45;&gt;Node2</title>
<path fill="none" stroke="midnightblue" d="M743.34,-336.32C730.08,-327.9 709.73,-314.97 694.15,-305.07"/>
<polygon fill="midnightblue" stroke="midnightblue" points="695.94,-302.06 685.62,-299.65 692.19,-307.97 695.94,-302.06"/>
</g>
<!-- Node3 -->
<g id="node3" class="node">
<title>Node3</title>
<g id="a_node3"><a xlink:href="Tree_8h_source.html" target="_top" xlink:title=" ">
<polygon fill="none" stroke="black" points="717,-280.5 717,-299.5 797,-299.5 797,-280.5 717,-280.5"/>
<text text-anchor="middle" x="757" y="-287.5" font-family="Helvetica,sans-Serif" font-size="10.00">hdtree/Tree.h</text>
</a>
</g>
</g>
<!-- Node1&#45;&gt;Node3 -->
<g id="edge2" class="edge">
<title>Node1&#45;&gt;Node3</title>
<path fill="none" stroke="midnightblue" d="M757,-336.08C757,-329.01 757,-318.86 757,-309.99"/>
<polygon fill="midnightblue" stroke="midnightblue" points="760.5,-309.75 757,-299.75 753.5,-309.75 760.5,-309.75"/>
</g>
<!-- Node31 -->
<g id="node31" class="node">
<title>Node31</title>
<g id="a_node31"><a xlink:href="examples_8h.html" target="_top" xlink:title="Header file including helper utility functions unrelated to HDTree and just helpful for command line ...">
<polygon fill="none" stroke="black" points="1077,-224.5 1077,-243.5 1151,-243.5 1151,-224.5 1077,-224.5"/>
<text text-anchor="middle" x="1114" y="-231.5" font-family="Helvetica,sans-Serif" font-size="10.00">examples.h</text>
</a>
</g>
</g>
<!-- Node1&#45;&gt;Node31 -->
<g id="edge44" class="edge">
<title>Node1&#45;&gt;Node31</title>
<path fill="none" stroke="midnightblue" d="M784.72,-336.46C848.24,-316.89 1004.41,-268.77 1076.47,-246.57"/>
<polygon fill="midnightblue" stroke="midnightblue" points="1077.53,-249.9 1086.06,-243.61 1075.47,-243.21 1077.53,-249.9"/>
</g>
<!-- Node4 -->
<g id="node4" class="node">
<title>Node4</title>
<g id="a_node4"><a xlink:href="Branch_8h.html" target="_top" xlink:title="Common include for users interacting with Branches.">
<polygon fill="none" stroke="black" points="614,-224.5 614,-243.5 708,-243.5 708,-224.5 614,-224.5"/>
<text text-anchor="middle" x="661" y="-231.5" font-family="Helvetica,sans-Serif" font-size="10.00">hdtree/Branch.h</text>
</a>
</g>
</g>
<!-- Node3&#45;&gt;Node4 -->
<g id="edge3" class="edge">
<title>Node3&#45;&gt;Node4</title>
<path fill="none" stroke="midnightblue" d="M741.58,-280.32C726.46,-271.82 703.18,-258.73 685.53,-248.8"/>
<polygon fill="midnightblue" stroke="midnightblue" points="686.82,-245.51 676.39,-243.65 683.39,-251.61 686.82,-245.51"/>
</g>
<!-- Node5 -->
<g id="node5" class="node">
<title>Node5</title>
<g id="a_node5"><a xlink:title=" ">
<polygon fill="none" stroke="#bfbfbf" points="692.5,-0.5 692.5,-19.5 757.5,-19.5 757.5,-0.5 692.5,-0.5"/>
<text text-anchor="middle" x="725" y="-7.5" font-family="Helvetica,sans-Serif" font-size="10.00">exception</text>
</a>
</g>
</g>
<!-- Node4&#45;&gt;Node5 -->
<g id="edge4" class="edge">
<title>Node4&#45;&gt;Node5</title>
<path fill="none" stroke="midnightblue" d="M613.7,-228.31C566.14,-221.46 502.79,-205.18 525,-168 551.92,-122.93 582.21,-135.81 629,-112 661.95,-95.23 679.68,-103.85 704,-76 715.33,-63.03 720.56,-43.87 722.97,-29.7"/>
<polygon fill="midnightblue" stroke="midnightblue" points="726.46,-30.02 724.36,-19.63 719.52,-29.06 726.46,-30.02"/>
</g>
<!-- Node6 -->
<g id="node6" class="node">
<title>Node6</title>
<g id="a_node6"><a xlink:title=" ">
<polygon fill="none" stroke="#bfbfbf" points="576,-168.5 576,-187.5 614,-187.5 614,-168.5 576,-168.5"/>
<text text-anchor="middle" x="595" y="-175.5" font-family="Helvetica,sans-Serif" font-size="10.00">map</text>
</a>
</g>
</g>
<!-- Node4&#45;&gt;Node6 -->
<g id="edge5" class="edge">
<title>Node4&#45;&gt;Node6</title>
<path fill="none" stroke="midnightblue" d="M650.4,-224.32C640.54,-216.26 625.65,-204.08 613.78,-194.37"/>
<polygon fill="midnightblue" stroke="midnightblue" points="615.75,-191.46 605.8,-187.83 611.32,-196.88 615.75,-191.46"/>
</g>
<!-- Node7 -->
<g id="node7" class="node">
<title>Node7</title>
<g id="a_node7"><a xlink:title=" ">
<polygon fill="none" stroke="#bfbfbf" points="632,-168.5 632,-187.5 690,-187.5 690,-168.5 632,-168.5"/>
<text text-anchor="middle" x="661" y="-175.5" font-family="Helvetica,sans-Serif" font-size="10.00">memory</text>
</a>
</g>
</g>
<!-- Node4&#45;&gt;Node7 -->
<g id="edge6" class="edge">
<title>Node4&#45;&gt;Node7</title>
<path fill="none" stroke="midnightblue" d="M661,-224.08C661,-217.01 661,-206.86 661,-197.99"/>
<polygon fill="midnightblue" stroke="midnightblue" points="664.5,-197.75 661,-187.75 657.5,-197.75 664.5,-197.75"/>
</g>
<!-- Node8 -->
<g id="node8" class="node">
<title>Node8</title>
<g id="a_node8"><a xlink:title=" ">
<polygon fill="none" stroke="#bfbfbf" points="1383.5,-0.5 1383.5,-19.5 1452.5,-19.5 1452.5,-0.5 1383.5,-0.5"/>
<text text-anchor="middle" x="1418" y="-7.5" font-family="Helvetica,sans-Serif" font-size="10.00">type_traits</text>
</a>
</g>
</g>
<!-- Node4&#45;&gt;Node8 -->
<g id="edge7" class="edge">
<title>Node4&#45;&gt;Node8</title>
<path fill="none" stroke="midnightblue" d="M708.2,-231.87C868.46,-227.8 1383.24,-212.85 1408,-188 1450.33,-145.52 1434.02,-65.17 1423.81,-29.2"/>
<polygon fill="midnightblue" stroke="midnightblue" points="1427.14,-28.13 1420.91,-19.56 1420.43,-30.14 1427.14,-28.13"/>
</g>
<!-- Node9 -->
<g id="node9" class="node">
<title>Node9</title>
<g id="a_node9"><a xlink:title=" ">
<polygon fill="none" stroke="#bfbfbf" points="708.5,-168.5 708.5,-187.5 755.5,-187.5 755.5,-168.5 708.5,-168.5"/>
<text text-anchor="middle" x="732" y="-175.5" font-family="Helvetica,sans-Serif" font-size="10.00">vector</text>
</a>
</g>
</g>
<!-- Node4&#45;&gt;Node9 -->
<g id="edge8" class="edge">
<title>Node4&#45;&gt;Node9</title>
<path fill="none" stroke="midnightblue" d="M672.41,-224.32C683.11,-216.18 699.34,-203.84 712.16,-194.09"/>
<polygon fill="midnightblue" stroke="midnightblue" points="714.54,-196.67 720.39,-187.83 710.31,-191.1 714.54,-196.67"/>
</g>
<!-- Node10 -->
<g id="node10" class="node">
<title>Node10</title>
<g id="a_node10"><a xlink:href="AbstractBranch_8h_source.html" target="_top" xlink:title=" ">
<polygon fill="none" stroke="black" points="186,-112.5 186,-131.5 320,-131.5 320,-112.5 186,-112.5"/>
<text text-anchor="middle" x="253" y="-119.5" font-family="Helvetica,sans-Serif" font-size="10.00">hdtree/AbstractBranch.h</text>
</a>
</g>
</g>
<!-- Node4&#45;&gt;Node10 -->
<g id="edge9" class="edge">
<title>Node4&#45;&gt;Node10</title>
<path fill="none" stroke="midnightblue" d="M613.75,-226.84C564.72,-219.83 486.1,-206.86 420,-188 369.84,-173.69 313.75,-150.25 281.02,-135.77"/>
<polygon fill="midnightblue" stroke="midnightblue" points="282.2,-132.46 271.64,-131.58 279.34,-138.85 282.2,-132.46"/>
</g>
<!-- Node17 -->
<g id="node17" class="node">
<title>Node17</title>
<g id="a_node17"><a xlink:href="Access_8h_source.html" target="_top" xlink:title=" ">
<polygon fill="none" stroke="black" points="43,-112.5 43,-131.5 137,-131.5 137,-112.5 43,-112.5"/>
<text text-anchor="middle" x="90" y="-119.5" font-family="Helvetica,sans-Serif" font-size="10.00">hdtree/Access.h</text>
</a>
</g>
</g>
<!-- Node4&#45;&gt;Node17 -->
<g id="edge17" class="edge">
<title>Node4&#45;&gt;Node17</title>
<path fill="none" stroke="midnightblue" d="M613.86,-227.26C554.42,-219.71 449.21,-205.37 360,-188 278.36,-172.1 184.15,-148.12 131.38,-134.16"/>
<polygon fill="midnightblue" stroke="midnightblue" points="131.96,-130.69 121.39,-131.51 130.16,-137.46 131.96,-130.69"/>
</g>
<!-- Node18 -->
<g id="node18" class="node">
<title>Node18</title>
<g id="a_node18"><a xlink:href="Constants_8h.html" target="_top" xlink:title="Definitions for names of structures required by serialization methods.">
<polygon fill="none" stroke="black" points="586.5,-56.5 586.5,-75.5 695.5,-75.5 695.5,-56.5 586.5,-56.5"/>
<text text-anchor="middle" x="641" y="-63.5" font-family="Helvetica,sans-Serif" font-size="10.00">hdtree/Constants.h</text>
</a>
</g>
</g>
<!-- Node4&#45;&gt;Node18 -->
<g id="edge19" class="edge">
<title>Node4&#45;&gt;Node18</title>
<path fill="none" stroke="midnightblue" d="M613.69,-229.23C559.93,-223.85 477.15,-211.86 458,-188 414.75,-134.11 524.72,-95.83 592.46,-78.1"/>
<polygon fill="midnightblue" stroke="midnightblue" points="593.71,-81.39 602.53,-75.53 591.98,-74.61 593.71,-81.39"/>
</g>
<!-- Node19 -->
<g id="node19" class="node">
<title>Node19</title>
<g id="a_node19"><a xlink:href="Reader_8h_source.html" target="_top" xlink:title=" ">
<polygon fill="none" stroke="black" points="1305,-168.5 1305,-187.5 1399,-187.5 1399,-168.5 1305,-168.5"/>
<text text-anchor="middle" x="1352" y="-175.5" font-family="Helvetica,sans-Serif" font-size="10.00">hdtree/Reader.h</text>
</a>
</g>
</g>
<!-- Node4&#45;&gt;Node19 -->
<g id="edge21" class="edge">
<title>Node4&#45;&gt;Node19</title>
<path fill="none" stroke="midnightblue" d="M708.13,-231.09C812.14,-226.57 1069.29,-213.7 1294.95,-188.02"/>
<polygon fill="midnightblue" stroke="midnightblue" points="1295.45,-191.48 1304.99,-186.87 1294.65,-184.53 1295.45,-191.48"/>
</g>
<!-- Node24 -->
<g id="node24" class="node">
<title>Node24</title>
<g id="a_node24"><a xlink:href="Writer_8h_source.html" target="_top" xlink:title=" ">
<polygon fill="none" stroke="black" points="845.5,-112.5 845.5,-131.5 934.5,-131.5 934.5,-112.5 845.5,-112.5"/>
<text text-anchor="middle" x="890" y="-119.5" font-family="Helvetica,sans-Serif" font-size="10.00">hdtree/Writer.h</text>
</a>
</g>
</g>
<!-- Node4&#45;&gt;Node24 -->
<g id="edge38" class="edge">
<title>Node4&#45;&gt;Node24</title>
<path fill="none" stroke="midnightblue" d="M628.49,-224.44C593.29,-213.64 544.92,-193.37 567,-168 571.37,-162.98 743.97,-141.01 835.02,-129.73"/>
<polygon fill="midnightblue" stroke="midnightblue" points="835.67,-133.18 845.17,-128.48 834.81,-126.23 835.67,-133.18"/>
</g>
<!-- Node27 -->
<g id="node27" class="node">
<title>Node27</title>
<g id="a_node27"><a xlink:href="GeneralBranch_8h_source.html" target="_top" xlink:title=" ">
<polygon fill="none" stroke="black" points="638,-112.5 638,-131.5 806,-131.5 806,-112.5 638,-112.5"/>
<text text-anchor="middle" x="722" y="-119.5" font-family="Helvetica,sans-Serif" font-size="10.00">hdtree/branch/GeneralBranch.h</text>
</a>
</g>
</g>
<!-- Node4&#45;&gt;Node27 -->
<g id="edge39" class="edge">
<title>Node4&#45;&gt;Node27</title>
<path fill="none" stroke="midnightblue" d="M613.83,-226.21C568.04,-217.6 508.84,-199.89 534,-168 547.16,-151.32 593.31,-140.13 636.58,-133.08"/>
<polygon fill="midnightblue" stroke="midnightblue" points="637.28,-136.51 646.62,-131.51 636.2,-129.6 637.28,-136.51"/>
</g>
<!-- Node28 -->
<g id="node28" class="node">
<title>Node28</title>
<g id="a_node28"><a xlink:href="AtomicBranch_8h_source.html" target="_top" xlink:title=" ">
<polygon fill="none" stroke="black" points="774,-168.5 774,-187.5 938,-187.5 938,-168.5 774,-168.5"/>
<text text-anchor="middle" x="856" y="-175.5" font-family="Helvetica,sans-Serif" font-size="10.00">hdtree/branch/AtomicBranch.h</text>
</a>
</g>
</g>
<!-- Node4&#45;&gt;Node28 -->
<g id="edge41" class="edge">
<title>Node4&#45;&gt;Node28</title>
<path fill="none" stroke="midnightblue" d="M691.9,-224.44C725.27,-215.2 778.59,-200.44 815.35,-190.26"/>
<polygon fill="midnightblue" stroke="midnightblue" points="816.54,-193.56 825.25,-187.52 814.67,-186.81 816.54,-193.56"/>
</g>
<!-- Node29 -->
<g id="node29" class="node">
<title>Node29</title>
<g id="a_node29"><a xlink:href="MapBranch_8h_source.html" target="_top" xlink:title=" ">
<polygon fill="none" stroke="black" points="956.5,-168.5 956.5,-187.5 1107.5,-187.5 1107.5,-168.5 956.5,-168.5"/>
<text text-anchor="middle" x="1032" y="-175.5" font-family="Helvetica,sans-Serif" font-size="10.00">hdtree/branch/MapBranch.h</text>
</a>
</g>
</g>
<!-- Node4&#45;&gt;Node29 -->
<g id="edge42" class="edge">
<title>Node4&#45;&gt;Node29</title>
<path fill="none" stroke="midnightblue" d="M708.36,-226.11C772.92,-216.71 888.96,-199.82 963.14,-189.02"/>
<polygon fill="midnightblue" stroke="midnightblue" points="963.92,-192.45 973.31,-187.54 962.91,-185.52 963.92,-192.45"/>
</g>
<!-- Node30 -->
<g id="node30" class="node">
<title>Node30</title>
<g id="a_node30"><a xlink:href="VectorBranch_8h_source.html" target="_top" xlink:title=" ">
<polygon fill="none" stroke="black" points="1125.5,-168.5 1125.5,-187.5 1286.5,-187.5 1286.5,-168.5 1125.5,-168.5"/>
<text text-anchor="middle" x="1206" y="-175.5" font-family="Helvetica,sans-Serif" font-size="10.00">hdtree/branch/VectorBranch.h</text>
</a>
</g>
</g>
<!-- Node4&#45;&gt;Node30 -->
<g id="edge43" class="edge">
<title>Node4&#45;&gt;Node30</title>
<path fill="none" stroke="midnightblue" d="M708.27,-228.37C789.3,-220.43 960.24,-203.65 1115.28,-188.17"/>
<polygon fill="midnightblue" stroke="midnightblue" points="1115.87,-191.63 1125.47,-187.15 1115.17,-184.66 1115.87,-191.63"/>
</g>
<!-- Node11 -->
<g id="node11" class="node">
<title>Node11</title>
<g id="a_node11"><a xlink:title=" ">
<polygon fill="none" stroke="#bfbfbf" points="428,-56.5 428,-75.5 568,-75.5 568,-56.5 428,-56.5"/>
<text text-anchor="middle" x="498" y="-63.5" font-family="Helvetica,sans-Serif" font-size="10.00">boost/core/demangle.hpp</text>
</a>
</g>
</g>
<!-- Node10&#45;&gt;Node11 -->
<g id="edge10" class="edge">
<title>Node10&#45;&gt;Node11</title>
<path fill="none" stroke="midnightblue" d="M291.82,-112.44C334.56,-103.02 403.33,-87.87 449.57,-77.68"/>
<polygon fill="midnightblue" stroke="midnightblue" points="450.35,-81.09 459.36,-75.52 448.84,-74.25 450.35,-81.09"/>
</g>
<!-- Node12 -->
<g id="node12" class="node">
<title>Node12</title>
<g id="a_node12"><a xlink:title=" ">
<polygon fill="none" stroke="#bfbfbf" points="152,-56.5 152,-75.5 196,-75.5 196,-56.5 152,-56.5"/>
<text text-anchor="middle" x="174" y="-63.5" font-family="Helvetica,sans-Serif" font-size="10.00">limits</text>
</a>
</g>
</g>
<!-- Node10&#45;&gt;Node12 -->
<g id="edge11" class="edge">
<title>Node10&#45;&gt;Node12</title>
<path fill="none" stroke="midnightblue" d="M240.31,-112.32C228.1,-103.98 209.42,-91.21 195,-81.35"/>
<polygon fill="midnightblue" stroke="midnightblue" points="196.89,-78.41 186.66,-75.65 192.94,-84.19 196.89,-78.41"/>
</g>
<!-- Node13 -->
<g id="node13" class="node">
<title>Node13</title>
<g id="a_node13"><a xlink:title=" ">
<polygon fill="none" stroke="#bfbfbf" points="214,-56.5 214,-75.5 270,-75.5 270,-56.5 214,-56.5"/>
<text text-anchor="middle" x="242" y="-63.5" font-family="Helvetica,sans-Serif" font-size="10.00">optional</text>
</a>
</g>
</g>
<!-- Node10&#45;&gt;Node13 -->
<g id="edge12" class="edge">
<title>Node10&#45;&gt;Node13</title>
<path fill="none" stroke="midnightblue" d="M251.18,-112.08C249.73,-104.93 247.63,-94.64 245.81,-85.69"/>
<polygon fill="midnightblue" stroke="midnightblue" points="249.21,-84.85 243.78,-75.75 242.35,-86.25 249.21,-84.85"/>
</g>
<!-- Node14 -->
<g id="node14" class="node">
<title>Node14</title>
<g id="a_node14"><a xlink:title=" ">
<polygon fill="none" stroke="#bfbfbf" points="361,-0.5 361,-19.5 405,-19.5 405,-0.5 361,-0.5"/>
<text text-anchor="middle" x="383" y="-7.5" font-family="Helvetica,sans-Serif" font-size="10.00">string</text>
</a>
</g>
</g>
<!-- Node10&#45;&gt;Node14 -->
<g id="edge13" class="edge">
<title>Node10&#45;&gt;Node14</title>
<path fill="none" stroke="midnightblue" d="M210.49,-112.42C170.51,-102.45 119.98,-83.74 143,-56 169,-24.68 291.05,-15.02 350.42,-12.16"/>
<polygon fill="midnightblue" stroke="midnightblue" points="350.9,-15.64 360.73,-11.7 350.59,-8.65 350.9,-15.64"/>
</g>
<!-- Node15 -->
<g id="node15" class="node">
<title>Node15</title>
<g id="a_node15"><a xlink:href="ClassVersion_8h.html" target="_top" xlink:title="Serialization class version deduction.">
<polygon fill="none" stroke="black" points="288,-56.5 288,-75.5 410,-75.5 410,-56.5 288,-56.5"/>
<text text-anchor="middle" x="349" y="-63.5" font-family="Helvetica,sans-Serif" font-size="10.00">hdtree/ClassVersion.h</text>
</a>
</g>
</g>
<!-- Node10&#45;&gt;Node15 -->
<g id="edge14" class="edge">
<title>Node10&#45;&gt;Node15</title>
<path fill="none" stroke="midnightblue" d="M268.42,-112.32C283.54,-103.82 306.82,-90.73 324.47,-80.8"/>
<polygon fill="midnightblue" stroke="midnightblue" points="326.61,-83.61 333.61,-75.65 323.18,-77.51 326.61,-83.61"/>
</g>
<!-- Node16 -->
<g id="node16" class="node">
<title>Node16</title>
<g id="a_node16"><a xlink:href="Version_8h.html" target="_top" xlink:title=" ">
<polygon fill="none" stroke="black" points="0,-56.5 0,-75.5 96,-75.5 96,-56.5 0,-56.5"/>
<text text-anchor="middle" x="48" y="-63.5" font-family="Helvetica,sans-Serif" font-size="10.00">hdtree/Version.h</text>
</a>
</g>
</g>
<!-- Node10&#45;&gt;Node16 -->
<g id="edge15" class="edge">
<title>Node10&#45;&gt;Node16</title>
<path fill="none" stroke="midnightblue" d="M220.52,-112.44C185.28,-103.16 128.9,-88.31 90.24,-78.13"/>
<polygon fill="midnightblue" stroke="midnightblue" points="90.89,-74.68 80.33,-75.52 89.11,-81.45 90.89,-74.68"/>
</g>
<!-- Node16&#45;&gt;Node14 -->
<g id="edge16" class="edge">
<title>Node16&#45;&gt;Node14</title>
<path fill="none" stroke="midnightblue" d="M96.35,-57.21C165.75,-46.02 291.73,-25.71 350.8,-16.19"/>
<polygon fill="midnightblue" stroke="midnightblue" points="351.37,-19.64 360.69,-14.6 350.26,-12.73 351.37,-19.64"/>
</g>
<!-- Node17&#45;&gt;Node16 -->
<g id="edge18" class="edge">
<title>Node17&#45;&gt;Node16</title>
<path fill="none" stroke="midnightblue" d="M83.06,-112.08C77.07,-104.38 68.25,-93.03 60.95,-83.65"/>
<polygon fill="midnightblue" stroke="midnightblue" points="63.71,-81.5 54.81,-75.75 58.18,-85.79 63.71,-81.5"/>
</g>
<!-- Node18&#45;&gt;Node14 -->
<g id="edge20" class="edge">
<title>Node18&#45;&gt;Node14</title>
<path fill="none" stroke="midnightblue" d="M600.12,-56.44C548.73,-45.69 461.61,-27.45 414.88,-17.67"/>
<polygon fill="midnightblue" stroke="midnightblue" points="415.51,-14.23 405,-15.6 414.07,-21.08 415.51,-14.23"/>
</g>
<!-- Node19&#45;&gt;Node10 -->
<g id="edge24" class="edge">
<title>Node19&#45;&gt;Node10</title>
<path fill="none" stroke="midnightblue" d="M1305,-169.04C1301.96,-168.65 1298.94,-168.3 1296,-168 1108.7,-148.97 538.55,-131.19 330.25,-125.17"/>
<polygon fill="midnightblue" stroke="midnightblue" points="330.11,-121.66 320.01,-124.87 329.91,-128.66 330.11,-121.66"/>
</g>
<!-- Node20 -->
<g id="node20" class="node">
<title>Node20</title>
<g id="a_node20"><a xlink:title=" ">
<polygon fill="none" stroke="#bfbfbf" points="1347.5,-56.5 1347.5,-75.5 1392.5,-75.5 1392.5,-56.5 1347.5,-56.5"/>
<text text-anchor="middle" x="1370" y="-63.5" font-family="Helvetica,sans-Serif" font-size="10.00">utility</text>
</a>
</g>
</g>
<!-- Node19&#45;&gt;Node20 -->
<g id="edge22" class="edge">
<title>Node19&#45;&gt;Node20</title>
<path fill="none" stroke="midnightblue" d="M1353.41,-168.37C1356.32,-150.62 1363.02,-109.67 1366.96,-85.6"/>
<polygon fill="midnightblue" stroke="midnightblue" points="1370.43,-86.03 1368.59,-75.59 1363.53,-84.89 1370.43,-86.03"/>
</g>
<!-- Node21 -->
<g id="node21" class="node">
<title>Node21</title>
<g id="a_node21"><a xlink:title=" ">
<polygon fill="none" stroke="#bfbfbf" points="1044,-56.5 1044,-75.5 1154,-75.5 1154,-56.5 1044,-56.5"/>
<text text-anchor="middle" x="1099" y="-63.5" font-family="Helvetica,sans-Serif" font-size="10.00">highfive/H5File.hpp</text>
</a>
</g>
</g>
<!-- Node19&#45;&gt;Node21 -->
<g id="edge23" class="edge">
<title>Node19&#45;&gt;Node21</title>
<path fill="none" stroke="midnightblue" d="M1332.15,-168.37C1287.72,-149.05 1180.1,-102.26 1128.09,-79.65"/>
<polygon fill="midnightblue" stroke="midnightblue" points="1129.33,-76.37 1118.76,-75.59 1126.54,-82.79 1129.33,-76.37"/>
</g>
<!-- Node22 -->
<g id="node22" class="node">
<title>Node22</title>
<g id="a_node22"><a xlink:href="Atomic_8h.html" target="_top" xlink:title=" ">
<polygon fill="none" stroke="black" points="1234.5,-56.5 1234.5,-75.5 1329.5,-75.5 1329.5,-56.5 1234.5,-56.5"/>
<text text-anchor="middle" x="1282" y="-63.5" font-family="Helvetica,sans-Serif" font-size="10.00">hdtree/Atomic.h</text>
</a>
</g>
</g>
<!-- Node19&#45;&gt;Node22 -->
<g id="edge25" class="edge">
<title>Node19&#45;&gt;Node22</title>
<path fill="none" stroke="midnightblue" d="M1346.51,-168.37C1335.01,-150.3 1308.2,-108.18 1293.01,-84.31"/>
<polygon fill="midnightblue" stroke="midnightblue" points="1295.79,-82.15 1287.47,-75.59 1289.88,-85.91 1295.79,-82.15"/>
</g>
<!-- Node19&#45;&gt;Node24 -->
<g id="edge28" class="edge">
<title>Node19&#45;&gt;Node24</title>
<path fill="none" stroke="midnightblue" d="M1304.97,-169.27C1301.94,-168.82 1298.93,-168.4 1296,-168 1170.57,-150.98 1022.68,-135.82 944.63,-128.2"/>
<polygon fill="midnightblue" stroke="midnightblue" points="944.84,-124.7 934.54,-127.22 944.16,-131.67 944.84,-124.7"/>
</g>
<!-- Node22&#45;&gt;Node8 -->
<g id="edge27" class="edge">
<title>Node22&#45;&gt;Node8</title>
<path fill="none" stroke="midnightblue" d="M1303.55,-56.44C1326.03,-47.52 1361.49,-33.44 1386.98,-23.32"/>
<polygon fill="midnightblue" stroke="midnightblue" points="1388.55,-26.46 1396.55,-19.52 1385.97,-19.95 1388.55,-26.46"/>
</g>
<!-- Node23 -->
<g id="node23" class="node">
<title>Node23</title>
<g id="a_node23"><a xlink:title=" ">
<polygon fill="none" stroke="#bfbfbf" points="1212.5,-0.5 1212.5,-19.5 1351.5,-19.5 1351.5,-0.5 1212.5,-0.5"/>
<text text-anchor="middle" x="1282" y="-7.5" font-family="Helvetica,sans-Serif" font-size="10.00">highfive/H5DataType.hpp</text>
</a>
</g>
</g>
<!-- Node22&#45;&gt;Node23 -->
<g id="edge26" class="edge">
<title>Node22&#45;&gt;Node23</title>
<path fill="none" stroke="midnightblue" d="M1282,-56.08C1282,-49.01 1282,-38.86 1282,-29.99"/>
<polygon fill="midnightblue" stroke="midnightblue" points="1285.5,-29.75 1282,-19.75 1278.5,-29.75 1285.5,-29.75"/>
</g>
<!-- Node24&#45;&gt;Node11 -->
<g id="edge29" class="edge">
<title>Node24&#45;&gt;Node11</title>
<path fill="none" stroke="midnightblue" d="M845.41,-114.86C778.25,-105.61 650.45,-88 569.98,-76.92"/>
<polygon fill="midnightblue" stroke="midnightblue" points="570.3,-73.43 559.92,-75.53 569.35,-80.36 570.3,-73.43"/>
</g>
<!-- Node24&#45;&gt;Node18 -->
<g id="edge33" class="edge">
<title>Node24&#45;&gt;Node18</title>
<path fill="none" stroke="midnightblue" d="M850.55,-112.44C807.11,-103.02 737.21,-87.87 690.22,-77.68"/>
<polygon fill="midnightblue" stroke="midnightblue" points="690.78,-74.22 680.27,-75.52 689.3,-81.06 690.78,-74.22"/>
</g>
<!-- Node24&#45;&gt;Node20 -->
<g id="edge30" class="edge">
<title>Node24&#45;&gt;Node20</title>
<path fill="none" stroke="midnightblue" d="M934.68,-119.23C1014.11,-115.49 1185.12,-104.8 1337.43,-75.99"/>
<polygon fill="midnightblue" stroke="midnightblue" points="1338.27,-79.4 1347.43,-74.07 1336.95,-72.52 1338.27,-79.4"/>
</g>
<!-- Node24&#45;&gt;Node21 -->
<g id="edge31" class="edge">
<title>Node24&#45;&gt;Node21</title>
<path fill="none" stroke="midnightblue" d="M923.12,-112.44C959.12,-103.14 1016.77,-88.25 1056.19,-78.06"/>
<polygon fill="midnightblue" stroke="midnightblue" points="1057.23,-81.41 1066.04,-75.52 1055.48,-74.63 1057.23,-81.41"/>
</g>
<!-- Node24&#45;&gt;Node22 -->
<g id="edge32" class="edge">
<title>Node24&#45;&gt;Node22</title>
<path fill="none" stroke="midnightblue" d="M934.59,-114.86C1005.84,-105.04 1145.34,-85.83 1224.17,-74.97"/>
<polygon fill="midnightblue" stroke="midnightblue" points="1224.98,-78.39 1234.41,-73.56 1224.02,-71.45 1224.98,-78.39"/>
</g>
<!-- Node25 -->
<g id="node25" class="node">
<title>Node25</title>
<g id="a_node25"><a xlink:href="Exception_8h_source.html" target="_top" xlink:title=" ">
<polygon fill="none" stroke="black" points="752,-56.5 752,-75.5 860,-75.5 860,-56.5 752,-56.5"/>
<text text-anchor="middle" x="806" y="-63.5" font-family="Helvetica,sans-Serif" font-size="10.00">hdtree/Exception.h</text>
</a>
</g>
</g>
<!-- Node24&#45;&gt;Node25 -->
<g id="edge34" class="edge">
<title>Node24&#45;&gt;Node25</title>
<path fill="none" stroke="midnightblue" d="M876.5,-112.32C863.4,-103.9 843.29,-90.97 827.89,-81.07"/>
<polygon fill="midnightblue" stroke="midnightblue" points="829.77,-78.12 819.46,-75.65 825.98,-84.01 829.77,-78.12"/>
</g>
<!-- Node25&#45;&gt;Node5 -->
<g id="edge36" class="edge">
<title>Node25&#45;&gt;Node5</title>
<path fill="none" stroke="midnightblue" d="M792.99,-56.32C780.47,-47.98 761.32,-35.21 746.53,-25.35"/>
<polygon fill="midnightblue" stroke="midnightblue" points="748.24,-22.29 737.98,-19.65 744.36,-28.11 748.24,-22.29"/>
</g>
<!-- Node25&#45;&gt;Node14 -->
<g id="edge35" class="edge">
<title>Node25&#45;&gt;Node14</title>
<path fill="none" stroke="midnightblue" d="M752,-58.11C663.02,-46.75 488.25,-24.44 415.73,-15.18"/>
<polygon fill="midnightblue" stroke="midnightblue" points="415.76,-11.65 405.4,-13.86 414.88,-18.6 415.76,-11.65"/>
</g>
<!-- Node26 -->
<g id="node26" class="node">
<title>Node26</title>
<g id="a_node26"><a xlink:title=" ">
<polygon fill="none" stroke="#bfbfbf" points="777.5,-0.5 777.5,-19.5 834.5,-19.5 834.5,-0.5 777.5,-0.5"/>
<text text-anchor="middle" x="806" y="-7.5" font-family="Helvetica,sans-Serif" font-size="10.00">ostream</text>
</a>
</g>
</g>
<!-- Node25&#45;&gt;Node26 -->
<g id="edge37" class="edge">
<title>Node25&#45;&gt;Node26</title>
<path fill="none" stroke="midnightblue" d="M806,-56.08C806,-49.01 806,-38.86 806,-29.99"/>
<polygon fill="midnightblue" stroke="midnightblue" points="809.5,-29.75 806,-19.75 802.5,-29.75 809.5,-29.75"/>
</g>
<!-- Node27&#45;&gt;Node25 -->
<g id="edge40" class="edge">
<title>Node27&#45;&gt;Node25</title>
<path fill="none" stroke="midnightblue" d="M735.5,-112.32C748.6,-103.9 768.71,-90.97 784.11,-81.07"/>
<polygon fill="midnightblue" stroke="midnightblue" points="786.02,-84.01 792.54,-75.65 782.23,-78.12 786.02,-84.01"/>
</g>
<!-- Node31&#45;&gt;Node20 -->
<g id="edge45" class="edge">
<title>Node31&#45;&gt;Node20</title>
<path fill="none" stroke="midnightblue" d="M1151.09,-233.05C1222.57,-232.28 1375.29,-226.1 1408,-188 1434.17,-157.51 1403.72,-109.01 1384.08,-83.66"/>
<polygon fill="midnightblue" stroke="midnightblue" points="1386.69,-81.32 1377.69,-75.73 1381.24,-85.71 1386.69,-81.32"/>
</g>
</g>
</svg>
