<?xml version="1.0" encoding="UTF-8" standalone="no"?>
<!DOCTYPE svg PUBLIC "-//W3C//DTD SVG 1.1//EN"
 "http://www.w3.org/Graphics/SVG/1.1/DTD/svg11.dtd">
<!-- Generated by graphviz version 2.43.0 (0)
 -->
<!-- Title: cpp/examples/transform.cxx Pages: 1 -->
<svg width="1267pt" height="364pt"
 viewBox="0.00 0.00 1266.67 364.00" xmlns="http://www.w3.org/2000/svg" xmlns:xlink="http://www.w3.org/1999/xlink">
<g id="graph0" class="graph" transform="scale(1 1) rotate(0) translate(4 360)">
<title>cpp/examples/transform.cxx</title>
<!-- Node1 -->
<g id="node1" class="node">
<title>Node1</title>
<g id="a_node1"><a xlink:title="Example of transforming an HDTree by adding more branches.">
<polygon fill="#bfbfbf" stroke="black" points="83.49,-336.5 83.49,-355.5 239.49,-355.5 239.49,-336.5 83.49,-336.5"/>
<text text-anchor="middle" x="161.49" y="-343.5" font-family="Helvetica,sans-Serif" font-size="10.00">cpp/examples/transform.cxx</text>
</a>
</g>
</g>
<!-- Node2 -->
<g id="node2" class="node">
<title>Node2</title>
<g id="a_node2"><a xlink:href="Tree_8h_source.html" target="_top" xlink:title=" ">
<polygon fill="none" stroke="black" points="163.49,-280.5 163.49,-299.5 243.49,-299.5 243.49,-280.5 163.49,-280.5"/>
<text text-anchor="middle" x="203.49" y="-287.5" font-family="Helvetica,sans-Serif" font-size="10.00">hdtree/Tree.h</text>
</a>
</g>
</g>
<!-- Node1&#45;&gt;Node2 -->
<g id="edge1" class="edge">
<title>Node1&#45;&gt;Node2</title>
<path fill="none" stroke="midnightblue" d="M168.43,-336.08C174.42,-328.38 183.25,-317.03 190.54,-307.65"/>
<polygon fill="midnightblue" stroke="midnightblue" points="193.31,-309.79 196.69,-299.75 187.79,-305.5 193.31,-309.79"/>
</g>
<!-- Node28 -->
<g id="node28" class="node">
<title>Node28</title>
<g id="a_node28"><a xlink:href="examples_8h.html" target="_top" xlink:title="Header file including helper utility functions unrelated to HDTree and just helpful for command line ...">
<polygon fill="none" stroke="black" points="73.49,-224.5 73.49,-243.5 147.49,-243.5 147.49,-224.5 73.49,-224.5"/>
<text text-anchor="middle" x="110.49" y="-231.5" font-family="Helvetica,sans-Serif" font-size="10.00">examples.h</text>
</a>
</g>
</g>
<!-- Node1&#45;&gt;Node28 -->
<g id="edge38" class="edge">
<title>Node1&#45;&gt;Node28</title>
<path fill="none" stroke="midnightblue" d="M157.49,-336.37C149.19,-318.46 129.93,-276.92 118.82,-252.95"/>
<polygon fill="midnightblue" stroke="midnightblue" points="121.86,-251.19 114.48,-243.59 115.51,-254.14 121.86,-251.19"/>
</g>
<!-- Node3 -->
<g id="node3" class="node">
<title>Node3</title>
<g id="a_node3"><a xlink:href="Branch_8h.html" target="_top" xlink:title="Common include for users interacting with Branches.">
<polygon fill="none" stroke="black" points="320.49,-224.5 320.49,-243.5 414.49,-243.5 414.49,-224.5 320.49,-224.5"/>
<text text-anchor="middle" x="367.49" y="-231.5" font-family="Helvetica,sans-Serif" font-size="10.00">hdtree/Branch.h</text>
</a>
</g>
</g>
<!-- Node2&#45;&gt;Node3 -->
<g id="edge2" class="edge">
<title>Node2&#45;&gt;Node3</title>
<path fill="none" stroke="midnightblue" d="M229.48,-280.44C257.19,-271.32 301.25,-256.81 332.11,-246.65"/>
<polygon fill="midnightblue" stroke="midnightblue" points="333.23,-249.97 341.63,-243.52 331.04,-243.32 333.23,-249.97"/>
</g>
<!-- Node4 -->
<g id="node4" class="node">
<title>Node4</title>
<g id="a_node4"><a xlink:title=" ">
<polygon fill="none" stroke="#bfbfbf" points="1176.99,-168.5 1176.99,-187.5 1241.99,-187.5 1241.99,-168.5 1176.99,-168.5"/>
<text text-anchor="middle" x="1209.49" y="-175.5" font-family="Helvetica,sans-Serif" font-size="10.00">exception</text>
</a>
</g>
</g>
<!-- Node3&#45;&gt;Node4 -->
<g id="edge3" class="edge">
<title>Node3&#45;&gt;Node4</title>
<path fill="none" stroke="midnightblue" d="M414.69,-232.98C537.33,-232.35 876.16,-227.06 1166.59,-188.05"/>
<polygon fill="midnightblue" stroke="midnightblue" points="1167.47,-191.46 1176.9,-186.65 1166.52,-184.53 1167.47,-191.46"/>
</g>
<!-- Node5 -->
<g id="node5" class="node">
<title>Node5</title>
<g id="a_node5"><a xlink:title=" ">
<polygon fill="none" stroke="#bfbfbf" points="37.49,-168.5 37.49,-187.5 75.49,-187.5 75.49,-168.5 37.49,-168.5"/>
<text text-anchor="middle" x="56.49" y="-175.5" font-family="Helvetica,sans-Serif" font-size="10.00">map</text>
</a>
</g>
</g>
<!-- Node3&#45;&gt;Node5 -->
<g id="edge4" class="edge">
<title>Node3&#45;&gt;Node5</title>
<path fill="none" stroke="midnightblue" d="M320.49,-227.77C266.03,-221.21 173.5,-208.54 85.54,-187.94"/>
<polygon fill="midnightblue" stroke="midnightblue" points="86.2,-184.5 75.66,-185.59 84.58,-191.31 86.2,-184.5"/>
</g>
<!-- Node6 -->
<g id="node6" class="node">
<title>Node6</title>
<g id="a_node6"><a xlink:title=" ">
<polygon fill="none" stroke="#bfbfbf" points="93.49,-168.5 93.49,-187.5 151.49,-187.5 151.49,-168.5 93.49,-168.5"/>
<text text-anchor="middle" x="122.49" y="-175.5" font-family="Helvetica,sans-Serif" font-size="10.00">memory</text>
</a>
</g>
</g>
<!-- Node3&#45;&gt;Node6 -->
<g id="edge5" class="edge">
<title>Node3&#45;&gt;Node6</title>
<path fill="none" stroke="midnightblue" d="M326.99,-224.43C287.26,-215.96 224.72,-202.51 161.3,-188.15"/>
<polygon fill="midnightblue" stroke="midnightblue" points="162.05,-184.73 151.53,-185.93 160.5,-191.56 162.05,-184.73"/>
</g>
<!-- Node7 -->
<g id="node7" class="node">
<title>Node7</title>
<g id="a_node7"><a xlink:title=" ">
<polygon fill="none" stroke="#bfbfbf" points="39.99,-0.5 39.99,-19.5 108.99,-19.5 108.99,-0.5 39.99,-0.5"/>
<text text-anchor="middle" x="74.49" y="-7.5" font-family="Helvetica,sans-Serif" font-size="10.00">type_traits</text>
</a>
</g>
</g>
<!-- Node3&#45;&gt;Node7 -->
<g id="edge6" class="edge">
<title>Node3&#45;&gt;Node7</title>
<path fill="none" stroke="midnightblue" d="M320.26,-230C231.78,-223.92 48.18,-208.91 28.49,-188 -11.79,-145.2 -4.44,-109.23 20.49,-56 26.54,-43.09 38.31,-32.6 49.32,-25"/>
<polygon fill="midnightblue" stroke="midnightblue" points="51.32,-27.87 57.86,-19.54 47.55,-21.97 51.32,-27.87"/>
</g>
<!-- Node8 -->
<g id="node8" class="node">
<title>Node8</title>
<g id="a_node8"><a xlink:title=" ">
<polygon fill="none" stroke="#bfbfbf" points="395.99,-168.5 395.99,-187.5 442.99,-187.5 442.99,-168.5 395.99,-168.5"/>
<text text-anchor="middle" x="419.49" y="-175.5" font-family="Helvetica,sans-Serif" font-size="10.00">vector</text>
</a>
</g>
</g>
<!-- Node3&#45;&gt;Node8 -->
<g id="edge7" class="edge">
<title>Node3&#45;&gt;Node8</title>
<path fill="none" stroke="midnightblue" d="M376.08,-224.08C383.65,-216.22 394.87,-204.57 404.01,-195.08"/>
<polygon fill="midnightblue" stroke="midnightblue" points="406.65,-197.38 411.07,-187.75 401.61,-192.53 406.65,-197.38"/>
</g>
<!-- Node9 -->
<g id="node9" class="node">
<title>Node9</title>
<g id="a_node9"><a xlink:href="AbstractBranch_8h_source.html" target="_top" xlink:title=" ">
<polygon fill="none" stroke="black" points="634.49,-112.5 634.49,-131.5 768.49,-131.5 768.49,-112.5 634.49,-112.5"/>
<text text-anchor="middle" x="701.49" y="-119.5" font-family="Helvetica,sans-Serif" font-size="10.00">hdtree/AbstractBranch.h</text>
</a>
</g>
</g>
<!-- Node3&#45;&gt;Node9 -->
<g id="edge8" class="edge">
<title>Node3&#45;&gt;Node9</title>
<path fill="none" stroke="midnightblue" d="M367.42,-224.28C367.81,-210.12 370.8,-182.27 387.49,-168 422.07,-138.44 542.76,-128.29 624.04,-124.81"/>
<polygon fill="midnightblue" stroke="midnightblue" points="624.39,-128.3 634.24,-124.4 624.11,-121.31 624.39,-128.3"/>
</g>
<!-- Node16 -->
<g id="node16" class="node">
<title>Node16</title>
<g id="a_node16"><a xlink:href="Access_8h_source.html" target="_top" xlink:title=" ">
<polygon fill="none" stroke="black" points="1083.49,-112.5 1083.49,-131.5 1177.49,-131.5 1177.49,-112.5 1083.49,-112.5"/>
<text text-anchor="middle" x="1130.49" y="-119.5" font-family="Helvetica,sans-Serif" font-size="10.00">hdtree/Access.h</text>
</a>
</g>
</g>
<!-- Node3&#45;&gt;Node16 -->
<g id="edge16" class="edge">
<title>Node3&#45;&gt;Node16</title>
<path fill="none" stroke="midnightblue" d="M414.51,-232.38C593.32,-229.8 1222.45,-218.56 1251.49,-188 1276.26,-161.94 1229.89,-144.03 1187.59,-133.71"/>
<polygon fill="midnightblue" stroke="midnightblue" points="1188.34,-130.29 1177.81,-131.44 1186.76,-137.11 1188.34,-130.29"/>
</g>
<!-- Node17 -->
<g id="node17" class="node">
<title>Node17</title>
<g id="a_node17"><a xlink:href="Constants_8h.html" target="_top" xlink:title="Definitions for names of structures required by serialization methods.">
<polygon fill="none" stroke="black" points="334.99,-56.5 334.99,-75.5 443.99,-75.5 443.99,-56.5 334.99,-56.5"/>
<text text-anchor="middle" x="389.49" y="-63.5" font-family="Helvetica,sans-Serif" font-size="10.00">hdtree/Constants.h</text>
</a>
</g>
</g>
<!-- Node3&#45;&gt;Node17 -->
<g id="edge18" class="edge">
<title>Node3&#45;&gt;Node17</title>
<path fill="none" stroke="midnightblue" d="M367.31,-224.14C367.14,-211.59 367.23,-187.97 369.49,-168 372.8,-138.91 380.06,-105.71 384.86,-85.56"/>
<polygon fill="midnightblue" stroke="midnightblue" points="388.33,-86.12 387.3,-75.57 381.53,-84.46 388.33,-86.12"/>
</g>
<!-- Node18 -->
<g id="node18" class="node">
<title>Node18</title>
<g id="a_node18"><a xlink:href="Reader_8h_source.html" target="_top" xlink:title=" ">
<polygon fill="none" stroke="black" points="169.49,-168.5 169.49,-187.5 263.49,-187.5 263.49,-168.5 169.49,-168.5"/>
<text text-anchor="middle" x="216.49" y="-175.5" font-family="Helvetica,sans-Serif" font-size="10.00">hdtree/Reader.h</text>
</a>
</g>
</g>
<!-- Node3&#45;&gt;Node18 -->
<g id="edge20" class="edge">
<title>Node3&#45;&gt;Node18</title>
<path fill="none" stroke="midnightblue" d="M343.57,-224.44C318.28,-215.4 278.19,-201.06 249.81,-190.92"/>
<polygon fill="midnightblue" stroke="midnightblue" points="250.9,-187.59 240.31,-187.52 248.55,-194.18 250.9,-187.59"/>
</g>
<!-- Node23 -->
<g id="node23" class="node">
<title>Node23</title>
<g id="a_node23"><a xlink:href="Writer_8h_source.html" target="_top" xlink:title=" ">
<polygon fill="none" stroke="black" points="219.99,-112.5 219.99,-131.5 308.99,-131.5 308.99,-112.5 219.99,-112.5"/>
<text text-anchor="middle" x="264.49" y="-119.5" font-family="Helvetica,sans-Serif" font-size="10.00">hdtree/Writer.h</text>
</a>
</g>
</g>
<!-- Node3&#45;&gt;Node23 -->
<g id="edge33" class="edge">
<title>Node3&#45;&gt;Node23</title>
<path fill="none" stroke="midnightblue" d="M356.19,-224.27C345.27,-215.6 328.51,-201.66 315.49,-188 301.02,-172.81 286.44,-153.77 276.6,-140.22"/>
<polygon fill="midnightblue" stroke="midnightblue" points="279.27,-137.94 270.6,-131.84 273.57,-142.01 279.27,-137.94"/>
</g>
<!-- Node24 -->
<g id="node24" class="node">
<title>Node24</title>
<g id="a_node24"><a xlink:href="GeneralBranch_8h_source.html" target="_top" xlink:title=" ">
<polygon fill="none" stroke="black" points="460.49,-168.5 460.49,-187.5 628.49,-187.5 628.49,-168.5 460.49,-168.5"/>
<text text-anchor="middle" x="544.49" y="-175.5" font-family="Helvetica,sans-Serif" font-size="10.00">hdtree/branch/GeneralBranch.h</text>
</a>
</g>
</g>
<!-- Node3&#45;&gt;Node24 -->
<g id="edge34" class="edge">
<title>Node3&#45;&gt;Node24</title>
<path fill="none" stroke="midnightblue" d="M395.54,-224.44C425.58,-215.28 473.41,-200.69 506.74,-190.52"/>
<polygon fill="midnightblue" stroke="midnightblue" points="508.04,-193.78 516.58,-187.52 505.99,-187.09 508.04,-193.78"/>
</g>
<!-- Node25 -->
<g id="node25" class="node">
<title>Node25</title>
<g id="a_node25"><a xlink:href="AtomicBranch_8h_source.html" target="_top" xlink:title=" ">
<polygon fill="none" stroke="black" points="646.49,-168.5 646.49,-187.5 810.49,-187.5 810.49,-168.5 646.49,-168.5"/>
<text text-anchor="middle" x="728.49" y="-175.5" font-family="Helvetica,sans-Serif" font-size="10.00">hdtree/branch/AtomicBranch.h</text>
</a>
</g>
</g>
<!-- Node3&#45;&gt;Node25 -->
<g id="edge35" class="edge">
<title>Node3&#45;&gt;Node25</title>
<path fill="none" stroke="midnightblue" d="M414.69,-225.94C477.63,-216.53 589.42,-199.8 661.18,-189.07"/>
<polygon fill="midnightblue" stroke="midnightblue" points="662.1,-192.47 671.47,-187.53 661.06,-185.55 662.1,-192.47"/>
</g>
<!-- Node26 -->
<g id="node26" class="node">
<title>Node26</title>
<g id="a_node26"><a xlink:href="MapBranch_8h_source.html" target="_top" xlink:title=" ">
<polygon fill="none" stroke="black" points="828.99,-168.5 828.99,-187.5 979.99,-187.5 979.99,-168.5 828.99,-168.5"/>
<text text-anchor="middle" x="904.49" y="-175.5" font-family="Helvetica,sans-Serif" font-size="10.00">hdtree/branch/MapBranch.h</text>
</a>
</g>
</g>
<!-- Node3&#45;&gt;Node26 -->
<g id="edge36" class="edge">
<title>Node3&#45;&gt;Node26</title>
<path fill="none" stroke="midnightblue" d="M414.68,-228.4C495.15,-220.54 664.34,-203.9 818.8,-188.07"/>
<polygon fill="midnightblue" stroke="midnightblue" points="819.36,-191.53 828.95,-187.02 818.65,-184.56 819.36,-191.53"/>
</g>
<!-- Node27 -->
<g id="node27" class="node">
<title>Node27</title>
<g id="a_node27"><a xlink:href="VectorBranch_8h_source.html" target="_top" xlink:title=" ">
<polygon fill="none" stroke="black" points="997.99,-168.5 997.99,-187.5 1158.99,-187.5 1158.99,-168.5 997.99,-168.5"/>
<text text-anchor="middle" x="1078.49" y="-175.5" font-family="Helvetica,sans-Serif" font-size="10.00">hdtree/branch/VectorBranch.h</text>
</a>
</g>
</g>
<!-- Node3&#45;&gt;Node27 -->
<g id="edge37" class="edge">
<title>Node3&#45;&gt;Node27</title>
<path fill="none" stroke="midnightblue" d="M414.74,-230.04C517.13,-223.54 767.39,-207.1 987.83,-188.12"/>
<polygon fill="midnightblue" stroke="midnightblue" points="988.31,-191.59 997.97,-187.25 987.71,-184.62 988.31,-191.59"/>
</g>
<!-- Node10 -->
<g id="node10" class="node">
<title>Node10</title>
<g id="a_node10"><a xlink:title=" ">
<polygon fill="none" stroke="#bfbfbf" points="462.49,-56.5 462.49,-75.5 602.49,-75.5 602.49,-56.5 462.49,-56.5"/>
<text text-anchor="middle" x="532.49" y="-63.5" font-family="Helvetica,sans-Serif" font-size="10.00">boost/core/demangle.hpp</text>
</a>
</g>
</g>
<!-- Node9&#45;&gt;Node10 -->
<g id="edge9" class="edge">
<title>Node9&#45;&gt;Node10</title>
<path fill="none" stroke="midnightblue" d="M674.72,-112.44C646.16,-103.32 600.76,-88.81 568.96,-78.65"/>
<polygon fill="midnightblue" stroke="midnightblue" points="569.74,-75.23 559.15,-75.52 567.61,-81.89 569.74,-75.23"/>
</g>
<!-- Node11 -->
<g id="node11" class="node">
<title>Node11</title>
<g id="a_node11"><a xlink:title=" ">
<polygon fill="none" stroke="#bfbfbf" points="834.49,-56.5 834.49,-75.5 878.49,-75.5 878.49,-56.5 834.49,-56.5"/>
<text text-anchor="middle" x="856.49" y="-63.5" font-family="Helvetica,sans-Serif" font-size="10.00">limits</text>
</a>
</g>
</g>
<!-- Node9&#45;&gt;Node11 -->
<g id="edge10" class="edge">
<title>Node9&#45;&gt;Node11</title>
<path fill="none" stroke="midnightblue" d="M726.05,-112.44C752.63,-103.19 795.11,-88.39 824.33,-78.21"/>
<polygon fill="midnightblue" stroke="midnightblue" points="825.77,-81.41 834.06,-74.82 823.47,-74.8 825.77,-81.41"/>
</g>
<!-- Node12 -->
<g id="node12" class="node">
<title>Node12</title>
<g id="a_node12"><a xlink:title=" ">
<polygon fill="none" stroke="#bfbfbf" points="620.49,-56.5 620.49,-75.5 676.49,-75.5 676.49,-56.5 620.49,-56.5"/>
<text text-anchor="middle" x="648.49" y="-63.5" font-family="Helvetica,sans-Serif" font-size="10.00">optional</text>
</a>
</g>
</g>
<!-- Node9&#45;&gt;Node12 -->
<g id="edge11" class="edge">
<title>Node9&#45;&gt;Node12</title>
<path fill="none" stroke="midnightblue" d="M692.74,-112.08C685.02,-104.22 673.59,-92.57 664.28,-83.08"/>
<polygon fill="midnightblue" stroke="midnightblue" points="666.59,-80.44 657.08,-75.75 661.59,-85.34 666.59,-80.44"/>
</g>
<!-- Node13 -->
<g id="node13" class="node">
<title>Node13</title>
<g id="a_node13"><a xlink:title=" ">
<polygon fill="none" stroke="#bfbfbf" points="884.49,-0.5 884.49,-19.5 928.49,-19.5 928.49,-0.5 884.49,-0.5"/>
<text text-anchor="middle" x="906.49" y="-7.5" font-family="Helvetica,sans-Serif" font-size="10.00">string</text>
</a>
</g>
</g>
<!-- Node9&#45;&gt;Node13 -->
<g id="edge12" class="edge">
<title>Node9&#45;&gt;Node13</title>
<path fill="none" stroke="midnightblue" d="M765.29,-112.49C811.92,-105.02 869.95,-92.74 887.49,-76 899.98,-64.09 904.39,-44.47 905.89,-29.9"/>
<polygon fill="midnightblue" stroke="midnightblue" points="909.4,-29.74 906.56,-19.54 902.42,-29.29 909.4,-29.74"/>
</g>
<!-- Node14 -->
<g id="node14" class="node">
<title>Node14</title>
<g id="a_node14"><a xlink:href="ClassVersion_8h.html" target="_top" xlink:title="Serialization class version deduction.">
<polygon fill="none" stroke="black" points="694.49,-56.5 694.49,-75.5 816.49,-75.5 816.49,-56.5 694.49,-56.5"/>
<text text-anchor="middle" x="755.49" y="-63.5" font-family="Helvetica,sans-Serif" font-size="10.00">hdtree/ClassVersion.h</text>
</a>
</g>
</g>
<!-- Node9&#45;&gt;Node14 -->
<g id="edge13" class="edge">
<title>Node9&#45;&gt;Node14</title>
<path fill="none" stroke="midnightblue" d="M710.41,-112.08C718.27,-104.22 729.93,-92.57 739.41,-83.08"/>
<polygon fill="midnightblue" stroke="midnightblue" points="742.15,-85.3 746.74,-75.75 737.2,-80.35 742.15,-85.3"/>
</g>
<!-- Node15 -->
<g id="node15" class="node">
<title>Node15</title>
<g id="a_node15"><a xlink:href="Version_8h.html" target="_top" xlink:title=" ">
<polygon fill="none" stroke="black" points="934.49,-56.5 934.49,-75.5 1030.49,-75.5 1030.49,-56.5 934.49,-56.5"/>
<text text-anchor="middle" x="982.49" y="-63.5" font-family="Helvetica,sans-Serif" font-size="10.00">hdtree/Version.h</text>
</a>
</g>
</g>
<!-- Node9&#45;&gt;Node15 -->
<g id="edge14" class="edge">
<title>Node9&#45;&gt;Node15</title>
<path fill="none" stroke="midnightblue" d="M746.02,-112.44C795.45,-102.94 875.24,-87.61 928.27,-77.42"/>
<polygon fill="midnightblue" stroke="midnightblue" points="929.02,-80.84 938.18,-75.52 927.7,-73.97 929.02,-80.84"/>
</g>
<!-- Node15&#45;&gt;Node13 -->
<g id="edge15" class="edge">
<title>Node15&#45;&gt;Node13</title>
<path fill="none" stroke="midnightblue" d="M970.28,-56.32C958.72,-48.11 941.12,-35.6 927.33,-25.81"/>
<polygon fill="midnightblue" stroke="midnightblue" points="929.11,-22.77 918.93,-19.83 925.05,-28.48 929.11,-22.77"/>
</g>
<!-- Node16&#45;&gt;Node15 -->
<g id="edge17" class="edge">
<title>Node16&#45;&gt;Node15</title>
<path fill="none" stroke="midnightblue" d="M1107.04,-112.44C1082.36,-103.44 1043.31,-89.19 1015.52,-79.05"/>
<polygon fill="midnightblue" stroke="midnightblue" points="1016.43,-75.66 1005.84,-75.52 1014.03,-82.23 1016.43,-75.66"/>
</g>
<!-- Node17&#45;&gt;Node13 -->
<g id="edge19" class="edge">
<title>Node17&#45;&gt;Node13</title>
<path fill="none" stroke="midnightblue" d="M444.29,-57.15C447.4,-56.75 450.49,-56.36 453.49,-56 610.93,-37.12 799.84,-20.19 874.18,-13.75"/>
<polygon fill="midnightblue" stroke="midnightblue" points="874.64,-17.23 884.3,-12.88 874.04,-10.25 874.64,-17.23"/>
</g>
<!-- Node18&#45;&gt;Node9 -->
<g id="edge23" class="edge">
<title>Node18&#45;&gt;Node9</title>
<path fill="none" stroke="midnightblue" d="M263.88,-171.72C347.65,-162.4 522.59,-142.92 624.08,-131.62"/>
<polygon fill="midnightblue" stroke="midnightblue" points="624.72,-135.07 634.28,-130.48 623.95,-128.11 624.72,-135.07"/>
</g>
<!-- Node19 -->
<g id="node19" class="node">
<title>Node19</title>
<g id="a_node19"><a xlink:title=" ">
<polygon fill="none" stroke="#bfbfbf" points="29.99,-56.5 29.99,-75.5 74.99,-75.5 74.99,-56.5 29.99,-56.5"/>
<text text-anchor="middle" x="52.49" y="-63.5" font-family="Helvetica,sans-Serif" font-size="10.00">utility</text>
</a>
</g>
</g>
<!-- Node18&#45;&gt;Node19 -->
<g id="edge21" class="edge">
<title>Node18&#45;&gt;Node19</title>
<path fill="none" stroke="midnightblue" d="M203.63,-168.37C175.48,-149.49 108.23,-104.38 73.72,-81.24"/>
<polygon fill="midnightblue" stroke="midnightblue" points="75.56,-78.26 65.3,-75.59 71.66,-84.07 75.56,-78.26"/>
</g>
<!-- Node20 -->
<g id="node20" class="node">
<title>Node20</title>
<g id="a_node20"><a xlink:title=" ">
<polygon fill="none" stroke="#bfbfbf" points="93.49,-56.5 93.49,-75.5 203.49,-75.5 203.49,-56.5 93.49,-56.5"/>
<text text-anchor="middle" x="148.49" y="-63.5" font-family="Helvetica,sans-Serif" font-size="10.00">highfive/H5File.hpp</text>
</a>
</g>
</g>
<!-- Node18&#45;&gt;Node20 -->
<g id="edge22" class="edge">
<title>Node18&#45;&gt;Node20</title>
<path fill="none" stroke="midnightblue" d="M211.16,-168.37C199.99,-150.3 173.95,-108.18 159.19,-84.31"/>
<polygon fill="midnightblue" stroke="midnightblue" points="162.04,-82.26 153.81,-75.59 156.09,-85.94 162.04,-82.26"/>
</g>
<!-- Node21 -->
<g id="node21" class="node">
<title>Node21</title>
<g id="a_node21"><a xlink:href="Atomic_8h.html" target="_top" xlink:title=" ">
<polygon fill="none" stroke="black" points="221.99,-56.5 221.99,-75.5 316.99,-75.5 316.99,-56.5 221.99,-56.5"/>
<text text-anchor="middle" x="269.49" y="-63.5" font-family="Helvetica,sans-Serif" font-size="10.00">hdtree/Atomic.h</text>
</a>
</g>
</g>
<!-- Node18&#45;&gt;Node21 -->
<g id="edge24" class="edge">
<title>Node18&#45;&gt;Node21</title>
<path fill="none" stroke="midnightblue" d="M213.21,-168.48C208.78,-155.55 202.43,-130.5 211.49,-112 218.02,-98.68 230.59,-88.18 242.37,-80.68"/>
<polygon fill="midnightblue" stroke="midnightblue" points="244.26,-83.62 251.1,-75.53 240.71,-77.59 244.26,-83.62"/>
</g>
<!-- Node18&#45;&gt;Node23 -->
<g id="edge27" class="edge">
<title>Node18&#45;&gt;Node23</title>
<path fill="none" stroke="midnightblue" d="M224.42,-168.08C231.34,-160.3 241.56,-148.8 249.95,-139.37"/>
<polygon fill="midnightblue" stroke="midnightblue" points="252.69,-141.55 256.72,-131.75 247.46,-136.9 252.69,-141.55"/>
</g>
<!-- Node21&#45;&gt;Node7 -->
<g id="edge26" class="edge">
<title>Node21&#45;&gt;Node7</title>
<path fill="none" stroke="midnightblue" d="M238.6,-56.44C205.22,-47.2 151.9,-32.44 115.15,-22.26"/>
<polygon fill="midnightblue" stroke="midnightblue" points="115.82,-18.81 105.25,-19.52 113.95,-25.56 115.82,-18.81"/>
</g>
<!-- Node22 -->
<g id="node22" class="node">
<title>Node22</title>
<g id="a_node22"><a xlink:title=" ">
<polygon fill="none" stroke="#bfbfbf" points="199.99,-0.5 199.99,-19.5 338.99,-19.5 338.99,-0.5 199.99,-0.5"/>
<text text-anchor="middle" x="269.49" y="-7.5" font-family="Helvetica,sans-Serif" font-size="10.00">highfive/H5DataType.hpp</text>
</a>
</g>
</g>
<!-- Node21&#45;&gt;Node22 -->
<g id="edge25" class="edge">
<title>Node21&#45;&gt;Node22</title>
<path fill="none" stroke="midnightblue" d="M269.49,-56.08C269.49,-49.01 269.49,-38.86 269.49,-29.99"/>
<polygon fill="midnightblue" stroke="midnightblue" points="272.99,-29.75 269.49,-19.75 265.99,-29.75 272.99,-29.75"/>
</g>
<!-- Node23&#45;&gt;Node10 -->
<g id="edge28" class="edge">
<title>Node23&#45;&gt;Node10</title>
<path fill="none" stroke="midnightblue" d="M306.96,-112.44C353.91,-102.98 429.57,-87.74 480.15,-77.55"/>
<polygon fill="midnightblue" stroke="midnightblue" points="481.12,-80.92 490.23,-75.52 479.73,-74.06 481.12,-80.92"/>
</g>
<!-- Node23&#45;&gt;Node17 -->
<g id="edge32" class="edge">
<title>Node23&#45;&gt;Node17</title>
<path fill="none" stroke="midnightblue" d="M284.3,-112.44C304.78,-103.6 336.98,-89.69 360.36,-79.59"/>
<polygon fill="midnightblue" stroke="midnightblue" points="361.99,-82.7 369.78,-75.52 359.21,-76.27 361.99,-82.7"/>
</g>
<!-- Node23&#45;&gt;Node19 -->
<g id="edge29" class="edge">
<title>Node23&#45;&gt;Node19</title>
<path fill="none" stroke="midnightblue" d="M228.9,-112.43C194.52,-104.07 140.75,-90.82 84.91,-76.05"/>
<polygon fill="midnightblue" stroke="midnightblue" points="85.76,-72.66 75.2,-73.47 83.96,-79.42 85.76,-72.66"/>
</g>
<!-- Node23&#45;&gt;Node20 -->
<g id="edge30" class="edge">
<title>Node23&#45;&gt;Node20</title>
<path fill="none" stroke="midnightblue" d="M246.11,-112.44C227.28,-103.68 197.76,-89.94 176.11,-79.86"/>
<polygon fill="midnightblue" stroke="midnightblue" points="177.33,-76.56 166.79,-75.52 174.38,-82.91 177.33,-76.56"/>
</g>
<!-- Node23&#45;&gt;Node21 -->
<g id="edge31" class="edge">
<title>Node23&#45;&gt;Node21</title>
<path fill="none" stroke="midnightblue" d="M265.32,-112.08C265.98,-105.01 266.91,-94.86 267.74,-85.99"/>
<polygon fill="midnightblue" stroke="midnightblue" points="271.25,-86.03 268.68,-75.75 264.28,-85.39 271.25,-86.03"/>
</g>
<!-- Node28&#45;&gt;Node19 -->
<g id="edge39" class="edge">
<title>Node28&#45;&gt;Node19</title>
<path fill="none" stroke="midnightblue" d="M78.69,-224.38C60.55,-217.66 39.33,-206.31 28.49,-188 9.03,-155.12 28.36,-109.3 41.85,-84.54"/>
<polygon fill="midnightblue" stroke="midnightblue" points="45.05,-86.02 46.99,-75.6 38.97,-82.53 45.05,-86.02"/>
</g>
</g>
</svg>
