<?xml version="1.0" encoding="UTF-8" standalone="no"?>
<!DOCTYPE svg PUBLIC "-//W3C//DTD SVG 1.1//EN"
 "http://www.w3.org/Graphics/SVG/1.1/DTD/svg11.dtd">
<!-- Generated by graphviz version 2.43.0 (0)
 -->
<!-- Title: cpp/include/hdtree/Version.h Pages: 1 -->
<svg width="333pt" height="363pt"
 viewBox="0.00 0.00 333.00 363.00" xmlns="http://www.w3.org/2000/svg" xmlns:xlink="http://www.w3.org/1999/xlink">
<g id="graph0" class="graph" transform="scale(1 1) rotate(0) translate(4 359)">
<title>cpp/include/hdtree/Version.h</title>
<!-- Node1 -->
<g id="node1" class="node">
<title>Node1</title>
<g id="a_node1"><a xlink:title=" ">
<polygon fill="#bfbfbf" stroke="black" points="134,-324.5 134,-354.5 241,-354.5 241,-324.5 134,-324.5"/>
<text text-anchor="start" x="142" y="-342.5" font-family="Helvetica,sans-Serif" font-size="10.00">cpp/include/hdtree</text>
<text text-anchor="middle" x="187.5" y="-331.5" font-family="Helvetica,sans-Serif" font-size="10.00">/Version.h</text>
</a>
</g>
</g>
<!-- Node2 -->
<g id="node2" class="node">
<title>Node2</title>
<g id="a_node2"><a xlink:href="AbstractBranch_8h_source.html" target="_top" xlink:title=" ">
<polygon fill="none" stroke="black" points="93,-257.5 93,-287.5 200,-287.5 200,-257.5 93,-257.5"/>
<text text-anchor="start" x="101" y="-275.5" font-family="Helvetica,sans-Serif" font-size="10.00">cpp/include/hdtree</text>
<text text-anchor="middle" x="146.5" y="-264.5" font-family="Helvetica,sans-Serif" font-size="10.00">/AbstractBranch.h</text>
</a>
</g>
</g>
<!-- Node1&#45;&gt;Node2 -->
<g id="edge1" class="edge">
<title>Node1&#45;&gt;Node2</title>
<path fill="none" stroke="midnightblue" d="M173.22,-315.87C167.29,-306.46 160.59,-295.83 155.38,-287.58"/>
<polygon fill="midnightblue" stroke="midnightblue" points="170.31,-317.81 178.6,-324.4 176.23,-314.07 170.31,-317.81"/>
</g>
<!-- Node8 -->
<g id="node8" class="node">
<title>Node8</title>
<g id="a_node8"><a xlink:href="Access_8h_source.html" target="_top" xlink:title=" ">
<polygon fill="none" stroke="black" points="218,-190.5 218,-220.5 325,-220.5 325,-190.5 218,-190.5"/>
<text text-anchor="start" x="226" y="-208.5" font-family="Helvetica,sans-Serif" font-size="10.00">cpp/include/hdtree</text>
<text text-anchor="middle" x="271.5" y="-197.5" font-family="Helvetica,sans-Serif" font-size="10.00">/Access.h</text>
</a>
</g>
</g>
<!-- Node1&#45;&gt;Node8 -->
<g id="edge8" class="edge">
<title>Node1&#45;&gt;Node8</title>
<path fill="none" stroke="midnightblue" d="M201.92,-315.83C219.34,-288.47 248.09,-243.28 262.58,-220.52"/>
<polygon fill="midnightblue" stroke="midnightblue" points="198.91,-314.06 196.49,-324.37 204.81,-317.82 198.91,-314.06"/>
</g>
<!-- Node3 -->
<g id="node3" class="node">
<title>Node3</title>
<g id="a_node3"><a xlink:href="Branch_8h.html" target="_top" xlink:title="Common include for users interacting with Branches.">
<polygon fill="none" stroke="black" points="93,-123.5 93,-153.5 200,-153.5 200,-123.5 93,-123.5"/>
<text text-anchor="start" x="101" y="-141.5" font-family="Helvetica,sans-Serif" font-size="10.00">cpp/include/hdtree</text>
<text text-anchor="middle" x="146.5" y="-130.5" font-family="Helvetica,sans-Serif" font-size="10.00">/Branch.h</text>
</a>
</g>
</g>
<!-- Node2&#45;&gt;Node3 -->
<g id="edge2" class="edge">
<title>Node2&#45;&gt;Node3</title>
<path fill="none" stroke="midnightblue" d="M110.93,-251.69C100.07,-243.69 89.45,-233.39 83.5,-221 77.54,-208.58 77.54,-202.42 83.5,-190 90.96,-174.46 105.8,-162.19 119.2,-153.64"/>
<polygon fill="midnightblue" stroke="midnightblue" points="108.97,-254.59 119.2,-257.36 112.93,-248.82 108.97,-254.59"/>
</g>
<!-- Node7 -->
<g id="node7" class="node">
<title>Node7</title>
<g id="a_node7"><a xlink:href="Reader_8h_source.html" target="_top" xlink:title=" ">
<polygon fill="none" stroke="black" points="93,-190.5 93,-220.5 200,-220.5 200,-190.5 93,-190.5"/>
<text text-anchor="start" x="101" y="-208.5" font-family="Helvetica,sans-Serif" font-size="10.00">cpp/include/hdtree</text>
<text text-anchor="middle" x="146.5" y="-197.5" font-family="Helvetica,sans-Serif" font-size="10.00">/Reader.h</text>
</a>
</g>
</g>
<!-- Node2&#45;&gt;Node7 -->
<g id="edge6" class="edge">
<title>Node2&#45;&gt;Node7</title>
<path fill="none" stroke="midnightblue" d="M146.5,-247.11C146.5,-238.15 146.5,-228.32 146.5,-220.58"/>
<polygon fill="midnightblue" stroke="midnightblue" points="143,-247.4 146.5,-257.4 150,-247.4 143,-247.4"/>
</g>
<!-- Node4 -->
<g id="node4" class="node">
<title>Node4</title>
<g id="a_node4"><a xlink:href="Tree_8h_source.html" target="_top" xlink:title=" ">
<polygon fill="none" stroke="black" points="93,-56.5 93,-86.5 200,-86.5 200,-56.5 93,-56.5"/>
<text text-anchor="start" x="101" y="-74.5" font-family="Helvetica,sans-Serif" font-size="10.00">cpp/include/hdtree</text>
<text text-anchor="middle" x="146.5" y="-63.5" font-family="Helvetica,sans-Serif" font-size="10.00">/Tree.h</text>
</a>
</g>
</g>
<!-- Node3&#45;&gt;Node4 -->
<g id="edge3" class="edge">
<title>Node3&#45;&gt;Node4</title>
<path fill="none" stroke="midnightblue" d="M146.5,-113.11C146.5,-104.15 146.5,-94.32 146.5,-86.58"/>
<polygon fill="midnightblue" stroke="midnightblue" points="143,-113.4 146.5,-123.4 150,-113.4 143,-113.4"/>
</g>
<!-- Node5 -->
<g id="node5" class="node">
<title>Node5</title>
<g id="a_node5"><a xlink:href="save_8cxx.html" target="_top" xlink:title="Example of saving a new HDTree into a file.">
<polygon fill="none" stroke="black" points="0,-0.5 0,-19.5 131,-19.5 131,-0.5 0,-0.5"/>
<text text-anchor="middle" x="65.5" y="-7.5" font-family="Helvetica,sans-Serif" font-size="10.00">cpp/examples/save.cxx</text>
</a>
</g>
</g>
<!-- Node4&#45;&gt;Node5 -->
<g id="edge4" class="edge">
<title>Node4&#45;&gt;Node5</title>
<path fill="none" stroke="midnightblue" d="M118.85,-50.19C104.67,-39.77 88.14,-27.63 77.29,-19.66"/>
<polygon fill="midnightblue" stroke="midnightblue" points="117.17,-53.3 127.3,-56.4 121.32,-47.66 117.17,-53.3"/>
</g>
<!-- Node6 -->
<g id="node6" class="node">
<title>Node6</title>
<g id="a_node6"><a xlink:href="transform_8cxx.html" target="_top" xlink:title="Example of transforming an HDTree by adding more branches.">
<polygon fill="none" stroke="black" points="149.5,-0.5 149.5,-19.5 305.5,-19.5 305.5,-0.5 149.5,-0.5"/>
<text text-anchor="middle" x="227.5" y="-7.5" font-family="Helvetica,sans-Serif" font-size="10.00">cpp/examples/transform.cxx</text>
</a>
</g>
</g>
<!-- Node4&#45;&gt;Node6 -->
<g id="edge5" class="edge">
<title>Node4&#45;&gt;Node6</title>
<path fill="none" stroke="midnightblue" d="M174.15,-50.19C188.33,-39.77 204.86,-27.63 215.71,-19.66"/>
<polygon fill="midnightblue" stroke="midnightblue" points="171.68,-47.66 165.7,-56.4 175.83,-53.3 171.68,-47.66"/>
</g>
<!-- Node7&#45;&gt;Node3 -->
<g id="edge7" class="edge">
<title>Node7&#45;&gt;Node3</title>
<path fill="none" stroke="midnightblue" d="M146.5,-180.11C146.5,-171.15 146.5,-161.32 146.5,-153.58"/>
<polygon fill="midnightblue" stroke="midnightblue" points="143,-180.4 146.5,-190.4 150,-180.4 143,-180.4"/>
</g>
<!-- Node8&#45;&gt;Node3 -->
<g id="edge9" class="edge">
<title>Node8&#45;&gt;Node3</title>
<path fill="none" stroke="midnightblue" d="M235.37,-185.71C215.66,-175.46 191.66,-162.98 173.57,-153.58"/>
<polygon fill="midnightblue" stroke="midnightblue" points="233.89,-188.89 244.38,-190.4 237.12,-182.68 233.89,-188.89"/>
</g>
</g>
</svg>
