<?xml version="1.0" encoding="UTF-8" standalone="no"?>
<!DOCTYPE svg PUBLIC "-//W3C//DTD SVG 1.1//EN"
 "http://www.w3.org/Graphics/SVG/1.1/DTD/svg11.dtd">
<!-- Generated by graphviz version 2.43.0 (0)
 -->
<!-- Title: cpp/include/hdtree/Version.h Pages: 1 -->
<svg width="231pt" height="307pt"
 viewBox="0.00 0.00 231.24 307.00" xmlns="http://www.w3.org/2000/svg" xmlns:xlink="http://www.w3.org/1999/xlink">
<g id="graph0" class="graph" transform="scale(1 1) rotate(0) translate(4 303)">
<title>cpp/include/hdtree/Version.h</title>
<!-- Node1 -->
<g id="node1" class="node">
<title>Node1</title>
<g id="a_node1"><a xlink:title=" ">
<polygon fill="#bfbfbf" stroke="black" points="60.24,-268.5 60.24,-298.5 156.24,-298.5 156.24,-268.5 60.24,-268.5"/>
<text text-anchor="start" x="68.24" y="-286.5" font-family="Helvetica,sans-Serif" font-size="10.00">cpp/include/hdtree</text>
<text text-anchor="middle" x="108.24" y="-275.5" font-family="Helvetica,sans-Serif" font-size="10.00">/Version.h</text>
</a>
</g>
</g>
<!-- Node2 -->
<g id="node2" class="node">
<title>Node2</title>
<g id="a_node2"><a xlink:href="AbstractBranch_8h_source.html" target="_top" xlink:title=" ">
<polygon fill="none" stroke="black" points="13.24,-201.5 13.24,-231.5 109.24,-231.5 109.24,-201.5 13.24,-201.5"/>
<text text-anchor="start" x="21.24" y="-219.5" font-family="Helvetica,sans-Serif" font-size="10.00">cpp/include/hdtree</text>
<text text-anchor="middle" x="61.24" y="-208.5" font-family="Helvetica,sans-Serif" font-size="10.00">/AbstractBranch.h</text>
</a>
</g>
</g>
<!-- Node1&#45;&gt;Node2 -->
<g id="edge1" class="edge">
<title>Node1&#45;&gt;Node2</title>
<path fill="none" stroke="midnightblue" d="M92.09,-260.16C85.23,-250.68 77.45,-239.92 71.42,-231.58"/>
<polygon fill="midnightblue" stroke="midnightblue" points="89.35,-262.34 98.04,-268.4 95.02,-258.24 89.35,-262.34"/>
</g>
<!-- Node6 -->
<g id="node6" class="node">
<title>Node6</title>
<g id="a_node6"><a xlink:href="Access_8h_source.html" target="_top" xlink:title=" ">
<polygon fill="none" stroke="black" points="127.24,-134.5 127.24,-164.5 223.24,-164.5 223.24,-134.5 127.24,-134.5"/>
<text text-anchor="start" x="135.24" y="-152.5" font-family="Helvetica,sans-Serif" font-size="10.00">cpp/include/hdtree</text>
<text text-anchor="middle" x="175.24" y="-141.5" font-family="Helvetica,sans-Serif" font-size="10.00">/Access.h</text>
</a>
</g>
</g>
<!-- Node1&#45;&gt;Node6 -->
<g id="edge6" class="edge">
<title>Node1&#45;&gt;Node6</title>
<path fill="none" stroke="midnightblue" d="M120.11,-259.12C134.03,-231.68 156.67,-187.09 168.12,-164.52"/>
<polygon fill="midnightblue" stroke="midnightblue" points="116.82,-257.87 115.41,-268.37 123.06,-261.04 116.82,-257.87"/>
</g>
<!-- Node3 -->
<g id="node3" class="node">
<title>Node3</title>
<g id="a_node3"><a xlink:href="Branch_8h.html" target="_top" xlink:title="Common include for users interacting with Branches.">
<polygon fill="none" stroke="black" points="13.24,-67.5 13.24,-97.5 109.24,-97.5 109.24,-67.5 13.24,-67.5"/>
<text text-anchor="start" x="21.24" y="-85.5" font-family="Helvetica,sans-Serif" font-size="10.00">cpp/include/hdtree</text>
<text text-anchor="middle" x="61.24" y="-74.5" font-family="Helvetica,sans-Serif" font-size="10.00">/Branch.h</text>
</a>
</g>
</g>
<!-- Node2&#45;&gt;Node3 -->
<g id="edge2" class="edge">
<title>Node2&#45;&gt;Node3</title>
<path fill="none" stroke="midnightblue" d="M29.11,-195.15C19.24,-187.08 9.58,-176.87 4.24,-165 -1.41,-152.44 -1.41,-146.56 4.24,-134 11.08,-118.81 24.99,-106.34 37.36,-97.59"/>
<polygon fill="midnightblue" stroke="midnightblue" points="27.28,-198.15 37.36,-201.41 31.52,-192.57 27.28,-198.15"/>
</g>
<!-- Node5 -->
<g id="node5" class="node">
<title>Node5</title>
<g id="a_node5"><a xlink:href="Reader_8h_source.html" target="_top" xlink:title=" ">
<polygon fill="none" stroke="black" points="13.24,-134.5 13.24,-164.5 109.24,-164.5 109.24,-134.5 13.24,-134.5"/>
<text text-anchor="start" x="21.24" y="-152.5" font-family="Helvetica,sans-Serif" font-size="10.00">cpp/include/hdtree</text>
<text text-anchor="middle" x="61.24" y="-141.5" font-family="Helvetica,sans-Serif" font-size="10.00">/Reader.h</text>
</a>
</g>
</g>
<!-- Node2&#45;&gt;Node5 -->
<g id="edge4" class="edge">
<title>Node2&#45;&gt;Node5</title>
<path fill="none" stroke="midnightblue" d="M61.24,-191.11C61.24,-182.15 61.24,-172.32 61.24,-164.58"/>
<polygon fill="midnightblue" stroke="midnightblue" points="57.74,-191.4 61.24,-201.4 64.74,-191.4 57.74,-191.4"/>
</g>
<!-- Node4 -->
<g id="node4" class="node">
<title>Node4</title>
<g id="a_node4"><a xlink:href="Tree_8h_source.html" target="_top" xlink:title=" ">
<polygon fill="none" stroke="black" points="13.24,-0.5 13.24,-30.5 109.24,-30.5 109.24,-0.5 13.24,-0.5"/>
<text text-anchor="start" x="21.24" y="-18.5" font-family="Helvetica,sans-Serif" font-size="10.00">cpp/include/hdtree</text>
<text text-anchor="middle" x="61.24" y="-7.5" font-family="Helvetica,sans-Serif" font-size="10.00">/Tree.h</text>
</a>
</g>
</g>
<!-- Node3&#45;&gt;Node4 -->
<g id="edge3" class="edge">
<title>Node3&#45;&gt;Node4</title>
<path fill="none" stroke="midnightblue" d="M61.24,-57.11C61.24,-48.15 61.24,-38.32 61.24,-30.58"/>
<polygon fill="midnightblue" stroke="midnightblue" points="57.74,-57.4 61.24,-67.4 64.74,-57.4 57.74,-57.4"/>
</g>
<!-- Node5&#45;&gt;Node3 -->
<g id="edge5" class="edge">
<title>Node5&#45;&gt;Node3</title>
<path fill="none" stroke="midnightblue" d="M61.24,-124.11C61.24,-115.15 61.24,-105.32 61.24,-97.58"/>
<polygon fill="midnightblue" stroke="midnightblue" points="57.74,-124.4 61.24,-134.4 64.74,-124.4 57.74,-124.4"/>
</g>
<!-- Node6&#45;&gt;Node3 -->
<g id="edge7" class="edge">
<title>Node6&#45;&gt;Node3</title>
<path fill="none" stroke="midnightblue" d="M141.56,-129.3C123.72,-119.12 102.2,-106.85 85.93,-97.58"/>
<polygon fill="midnightblue" stroke="midnightblue" points="140.08,-132.48 150.5,-134.4 143.55,-126.4 140.08,-132.48"/>
</g>
</g>
</svg>
