<?xml version="1.0" encoding="UTF-8" standalone="no"?>
<!DOCTYPE svg PUBLIC "-//W3C//DTD SVG 1.1//EN"
 "http://www.w3.org/Graphics/SVG/1.1/DTD/svg11.dtd">
<!-- Generated by graphviz version 2.43.0 (0)
 -->
<!-- Title: cpp/include/hdtree/Version.h Pages: 1 -->
<svg width="254pt" height="307pt"
 viewBox="0.00 0.00 253.97 307.00" xmlns="http://www.w3.org/2000/svg" xmlns:xlink="http://www.w3.org/1999/xlink">
<g id="graph0" class="graph" transform="scale(1 1) rotate(0) translate(4 303)">
<title>cpp/include/hdtree/Version.h</title>
<!-- Node1 -->
<g id="node1" class="node">
<title>Node1</title>
<g id="a_node1"><a xlink:title=" ">
<polygon fill="#bfbfbf" stroke="black" points="54.97,-268.5 54.97,-298.5 161.97,-298.5 161.97,-268.5 54.97,-268.5"/>
<text text-anchor="start" x="62.97" y="-286.5" font-family="Helvetica,sans-Serif" font-size="10.00">cpp/include/hdtree</text>
<text text-anchor="middle" x="108.47" y="-275.5" font-family="Helvetica,sans-Serif" font-size="10.00">/Version.h</text>
</a>
</g>
</g>
<!-- Node2 -->
<g id="node2" class="node">
<title>Node2</title>
<g id="a_node2"><a xlink:href="AbstractBranch_8h_source.html" target="_top" xlink:title=" ">
<polygon fill="none" stroke="black" points="13.97,-201.5 13.97,-231.5 120.97,-231.5 120.97,-201.5 13.97,-201.5"/>
<text text-anchor="start" x="21.97" y="-219.5" font-family="Helvetica,sans-Serif" font-size="10.00">cpp/include/hdtree</text>
<text text-anchor="middle" x="67.47" y="-208.5" font-family="Helvetica,sans-Serif" font-size="10.00">/AbstractBranch.h</text>
</a>
</g>
</g>
<!-- Node1&#45;&gt;Node2 -->
<g id="edge1" class="edge">
<title>Node1&#45;&gt;Node2</title>
<path fill="none" stroke="midnightblue" d="M94.2,-259.87C88.26,-250.46 81.56,-239.83 76.35,-231.58"/>
<polygon fill="midnightblue" stroke="midnightblue" points="91.28,-261.81 99.58,-268.4 97.2,-258.07 91.28,-261.81"/>
</g>
<!-- Node6 -->
<g id="node6" class="node">
<title>Node6</title>
<g id="a_node6"><a xlink:href="Access_8h_source.html" target="_top" xlink:title=" ">
<polygon fill="none" stroke="black" points="138.97,-134.5 138.97,-164.5 245.97,-164.5 245.97,-134.5 138.97,-134.5"/>
<text text-anchor="start" x="146.97" y="-152.5" font-family="Helvetica,sans-Serif" font-size="10.00">cpp/include/hdtree</text>
<text text-anchor="middle" x="192.47" y="-141.5" font-family="Helvetica,sans-Serif" font-size="10.00">/Access.h</text>
</a>
</g>
</g>
<!-- Node1&#45;&gt;Node6 -->
<g id="edge6" class="edge">
<title>Node1&#45;&gt;Node6</title>
<path fill="none" stroke="midnightblue" d="M122.9,-259.83C140.31,-232.47 169.06,-187.28 183.55,-164.52"/>
<polygon fill="midnightblue" stroke="midnightblue" points="119.88,-258.06 117.46,-268.37 125.78,-261.82 119.88,-258.06"/>
</g>
<!-- Node3 -->
<g id="node3" class="node">
<title>Node3</title>
<g id="a_node3"><a xlink:href="Branch_8h.html" target="_top" xlink:title="Common include for users interacting with Branches.">
<polygon fill="none" stroke="black" points="13.97,-67.5 13.97,-97.5 120.97,-97.5 120.97,-67.5 13.97,-67.5"/>
<text text-anchor="start" x="21.97" y="-85.5" font-family="Helvetica,sans-Serif" font-size="10.00">cpp/include/hdtree</text>
<text text-anchor="middle" x="67.47" y="-74.5" font-family="Helvetica,sans-Serif" font-size="10.00">/Branch.h</text>
</a>
</g>
</g>
<!-- Node2&#45;&gt;Node3 -->
<g id="edge2" class="edge">
<title>Node2&#45;&gt;Node3</title>
<path fill="none" stroke="midnightblue" d="M31.9,-195.69C21.05,-187.69 10.42,-177.39 4.47,-165 -1.49,-152.58 -1.49,-146.42 4.47,-134 11.93,-118.46 26.77,-106.19 40.17,-97.64"/>
<polygon fill="midnightblue" stroke="midnightblue" points="29.94,-198.59 40.17,-201.36 33.9,-192.82 29.94,-198.59"/>
</g>
<!-- Node5 -->
<g id="node5" class="node">
<title>Node5</title>
<g id="a_node5"><a xlink:href="Reader_8h_source.html" target="_top" xlink:title=" ">
<polygon fill="none" stroke="black" points="13.97,-134.5 13.97,-164.5 120.97,-164.5 120.97,-134.5 13.97,-134.5"/>
<text text-anchor="start" x="21.97" y="-152.5" font-family="Helvetica,sans-Serif" font-size="10.00">cpp/include/hdtree</text>
<text text-anchor="middle" x="67.47" y="-141.5" font-family="Helvetica,sans-Serif" font-size="10.00">/Reader.h</text>
</a>
</g>
</g>
<!-- Node2&#45;&gt;Node5 -->
<g id="edge4" class="edge">
<title>Node2&#45;&gt;Node5</title>
<path fill="none" stroke="midnightblue" d="M67.47,-191.11C67.47,-182.15 67.47,-172.32 67.47,-164.58"/>
<polygon fill="midnightblue" stroke="midnightblue" points="63.97,-191.4 67.47,-201.4 70.97,-191.4 63.97,-191.4"/>
</g>
<!-- Node4 -->
<g id="node4" class="node">
<title>Node4</title>
<g id="a_node4"><a xlink:href="Tree_8h_source.html" target="_top" xlink:title=" ">
<polygon fill="none" stroke="black" points="13.97,-0.5 13.97,-30.5 120.97,-30.5 120.97,-0.5 13.97,-0.5"/>
<text text-anchor="start" x="21.97" y="-18.5" font-family="Helvetica,sans-Serif" font-size="10.00">cpp/include/hdtree</text>
<text text-anchor="middle" x="67.47" y="-7.5" font-family="Helvetica,sans-Serif" font-size="10.00">/Tree.h</text>
</a>
</g>
</g>
<!-- Node3&#45;&gt;Node4 -->
<g id="edge3" class="edge">
<title>Node3&#45;&gt;Node4</title>
<path fill="none" stroke="midnightblue" d="M67.47,-57.11C67.47,-48.15 67.47,-38.32 67.47,-30.58"/>
<polygon fill="midnightblue" stroke="midnightblue" points="63.97,-57.4 67.47,-67.4 70.97,-57.4 63.97,-57.4"/>
</g>
<!-- Node5&#45;&gt;Node3 -->
<g id="edge5" class="edge">
<title>Node5&#45;&gt;Node3</title>
<path fill="none" stroke="midnightblue" d="M67.47,-124.11C67.47,-115.15 67.47,-105.32 67.47,-97.58"/>
<polygon fill="midnightblue" stroke="midnightblue" points="63.97,-124.4 67.47,-134.4 70.97,-124.4 63.97,-124.4"/>
</g>
<!-- Node6&#45;&gt;Node3 -->
<g id="edge7" class="edge">
<title>Node6&#45;&gt;Node3</title>
<path fill="none" stroke="midnightblue" d="M156.35,-129.71C136.63,-119.46 112.63,-106.98 94.54,-97.58"/>
<polygon fill="midnightblue" stroke="midnightblue" points="154.86,-132.89 165.35,-134.4 158.09,-126.68 154.86,-132.89"/>
</g>
</g>
</svg>
