<?xml version="1.0" encoding="UTF-8" standalone="no"?>
<!DOCTYPE svg PUBLIC "-//W3C//DTD SVG 1.1//EN"
 "http://www.w3.org/Graphics/SVG/1.1/DTD/svg11.dtd">
<!-- Generated by graphviz version 2.43.0 (0)
 -->
<!-- Title: hdtree::Branch&lt; std::vector&lt; ContentType &gt; &gt; Pages: 1 -->
<svg width="1124pt" height="122pt"
 viewBox="0.00 0.00 1124.00 121.50" xmlns="http://www.w3.org/2000/svg" xmlns:xlink="http://www.w3.org/1999/xlink">
<g id="graph0" class="graph" transform="scale(1 1) rotate(0) translate(4 117.5)">
<title>hdtree::Branch&lt; std::vector&lt; ContentType &gt; &gt;</title>
<!-- Node1 -->
<g id="node1" class="node">
<title>Node1</title>
<g id="a_node1"><a xlink:title="Our wrapper around std::vector.">
<polygon fill="#bfbfbf" stroke="black" points="984,-44.5 984,-74.5 1116,-74.5 1116,-44.5 984,-44.5"/>
<text text-anchor="start" x="992" y="-62.5" font-family="Helvetica,sans-Serif" font-size="10.00">hdtree::Branch&lt; std</text>
<text text-anchor="middle" x="1050" y="-51.5" font-family="Helvetica,sans-Serif" font-size="10.00">::vector&lt; ContentType &gt; &gt;</text>
</a>
</g>
</g>
<!-- Node2 -->
<g id="node2" class="node">
<title>Node2</title>
<g id="a_node2"><a xlink:href="classhdtree_1_1AbstractBranch.html" target="_top" xlink:title=" ">
<polygon fill="none" stroke="black" points="593,-0.5 593,-30.5 748,-30.5 748,-0.5 593,-0.5"/>
<text text-anchor="start" x="601" y="-18.5" font-family="Helvetica,sans-Serif" font-size="10.00">hdtree::AbstractBranch</text>
<text text-anchor="middle" x="670.5" y="-7.5" font-family="Helvetica,sans-Serif" font-size="10.00">&lt; std::vector&lt; ContentType &gt; &gt;</text>
</a>
</g>
</g>
<!-- Node2&#45;&gt;Node1 -->
<g id="edge1" class="edge">
<title>Node2&#45;&gt;Node1</title>
<path fill="none" stroke="midnightblue" d="M758.16,-19.67C806.02,-22.59 866.46,-27.29 920,-34.5 940.91,-37.32 963.55,-41.36 983.95,-45.38"/>
<polygon fill="midnightblue" stroke="midnightblue" points="758.34,-16.18 748.15,-19.08 757.92,-23.16 758.34,-16.18"/>
</g>
<!-- Node3 -->
<g id="node3" class="node">
<title>Node3</title>
<g id="a_node3"><a xlink:href="classhdtree_1_1BaseBranch.html" target="_top" xlink:title="Empty data base allowing recursion.">
<polygon fill="none" stroke="black" points="263,-13 263,-32 366,-32 366,-13 263,-13"/>
<text text-anchor="middle" x="314.5" y="-20" font-family="Helvetica,sans-Serif" font-size="10.00">hdtree::BaseBranch</text>
</a>
</g>
</g>
<!-- Node3&#45;&gt;Node2 -->
<g id="edge2" class="edge">
<title>Node3&#45;&gt;Node2</title>
<path fill="none" stroke="midnightblue" d="M376.29,-21.3C436.19,-20.11 527.92,-18.3 592.8,-17.02"/>
<polygon fill="midnightblue" stroke="midnightblue" points="376.15,-17.8 366.22,-21.5 376.29,-24.8 376.15,-17.8"/>
</g>
<!-- Node7 -->
<g id="node7" class="node">
<title>Node7</title>
<g id="a_node7"><a xlink:href="classhdtree_1_1AbstractBranch.html" target="_top" xlink:title="Type&#45;specific base class to hold common data methods.">
<polygon fill="none" stroke="black" points="458,-54.5 458,-84.5 575,-84.5 575,-54.5 458,-54.5"/>
<text text-anchor="start" x="466" y="-72.5" font-family="Helvetica,sans-Serif" font-size="10.00">hdtree::AbstractBranch</text>
<text text-anchor="middle" x="516.5" y="-61.5" font-family="Helvetica,sans-Serif" font-size="10.00">&lt; DataType &gt;</text>
</a>
</g>
</g>
<!-- Node3&#45;&gt;Node7 -->
<g id="edge7" class="edge">
<title>Node3&#45;&gt;Node7</title>
<path fill="none" stroke="midnightblue" d="M365.92,-34.35C393.83,-40.91 428.64,-49.09 457.65,-55.91"/>
<polygon fill="midnightblue" stroke="midnightblue" points="366.51,-30.89 355.97,-32.01 364.91,-37.71 366.51,-30.89"/>
</g>
<!-- Node4 -->
<g id="node4" class="node">
<title>Node4</title>
<g id="a_node4"><a target="_parent" xlink:href="http://en.cppreference.com/w/cpp/string/basic_string.html" xlink:title=" ">
<polygon fill="none" stroke="black" points="132,-13 132,-32 192,-32 192,-13 132,-13"/>
<text text-anchor="middle" x="162" y="-20" font-family="Helvetica,sans-Serif" font-size="10.00">std::string</text>
</a>
</g>
</g>
<!-- Node4&#45;&gt;Node3 -->
<g id="edge3" class="edge">
<title>Node4&#45;&gt;Node3</title>
<path fill="none" stroke="#9a32cd" stroke-dasharray="5,2" d="M202.17,-22.5C220.72,-22.5 243.11,-22.5 262.93,-22.5"/>
<polygon fill="#9a32cd" stroke="#9a32cd" points="202.02,-19 192.02,-22.5 202.02,-26 202.02,-19"/>
<text text-anchor="middle" x="226.5" y="-25.5" font-family="Helvetica,sans-Serif" font-size="10.00"> name_</text>
</g>
<!-- Node5 -->
<g id="node5" class="node">
<title>Node5</title>
<g id="a_node5"><a target="_parent" xlink:href="http://en.cppreference.com/w/cpp/string/basic_string.html" xlink:title=" ">
<polygon fill="none" stroke="black" points="0,-7.5 0,-37.5 95,-37.5 95,-7.5 0,-7.5"/>
<text text-anchor="start" x="8" y="-25.5" font-family="Helvetica,sans-Serif" font-size="10.00">std::basic_string&lt;</text>
<text text-anchor="middle" x="47.5" y="-14.5" font-family="Helvetica,sans-Serif" font-size="10.00"> char &gt;</text>
</a>
</g>
</g>
<!-- Node5&#45;&gt;Node4 -->
<g id="edge4" class="edge">
<title>Node5&#45;&gt;Node4</title>
<path fill="none" stroke="midnightblue" d="M105.53,-22.5C114.68,-22.5 123.8,-22.5 131.93,-22.5"/>
<polygon fill="midnightblue" stroke="midnightblue" points="105.23,-19 95.23,-22.5 105.23,-26 105.23,-19"/>
</g>
<!-- Node6 -->
<g id="node6" class="node">
<title>Node6</title>
<g id="a_node6"><a xlink:href="classhdtree_1_1Branch.html" target="_top" xlink:title=" ">
<polygon fill="none" stroke="black" points="766,-94 766,-113 920,-113 920,-94 766,-94"/>
<text text-anchor="middle" x="843" y="-101" font-family="Helvetica,sans-Serif" font-size="10.00">hdtree::Branch&lt; ContentType &gt;</text>
</a>
</g>
</g>
<!-- Node6&#45;&gt;Node1 -->
<g id="edge5" class="edge">
<title>Node6&#45;&gt;Node1</title>
<path fill="none" stroke="#9a32cd" stroke-dasharray="5,2" d="M898.28,-91.85C924.58,-86.2 956.38,-79.38 983.98,-73.46"/>
<polygon fill="#9a32cd" stroke="#9a32cd" points="897.52,-88.43 888.48,-93.95 898.99,-95.28 897.52,-88.43"/>
<text text-anchor="middle" x="952" y="-85.5" font-family="Helvetica,sans-Serif" font-size="10.00"> data_</text>
</g>
<!-- Node7&#45;&gt;Node6 -->
<g id="edge6" class="edge">
<title>Node7&#45;&gt;Node6</title>
<path fill="none" stroke="midnightblue" d="M585.3,-78.6C587.9,-78.91 590.47,-79.21 593,-79.5 650.93,-86.13 716.58,-92.4 765.92,-96.87"/>
<polygon fill="midnightblue" stroke="midnightblue" points="585.54,-75.1 575.18,-77.36 584.68,-82.05 585.54,-75.1"/>
</g>
<!-- Node9 -->
<g id="node9" class="node">
<title>Node9</title>
<g id="a_node9"><a xlink:href="classhdtree_1_1Branch.html" target="_top" xlink:title=" ">
<polygon fill="none" stroke="black" points="791.5,-44.5 791.5,-74.5 894.5,-74.5 894.5,-44.5 791.5,-44.5"/>
<text text-anchor="start" x="799.5" y="-62.5" font-family="Helvetica,sans-Serif" font-size="10.00">hdtree::Branch&lt; std</text>
<text text-anchor="middle" x="843" y="-51.5" font-family="Helvetica,sans-Serif" font-size="10.00">::size_t &gt;</text>
</a>
</g>
</g>
<!-- Node7&#45;&gt;Node9 -->
<g id="edge10" class="edge">
<title>Node7&#45;&gt;Node9</title>
<path fill="none" stroke="midnightblue" d="M585.51,-67.4C646.93,-65.51 735.91,-62.77 791.29,-61.06"/>
<polygon fill="midnightblue" stroke="midnightblue" points="585.03,-63.92 575.14,-67.72 585.24,-70.91 585.03,-63.92"/>
</g>
<!-- Node8 -->
<g id="node8" class="node">
<title>Node8</title>
<g id="a_node8"><a target="_parent" xlink:href="http://en.cppreference.com/w/cpp/utility/pair.html" xlink:title=" ">
<polygon fill="none" stroke="black" points="261,-58.5 261,-88.5 368,-88.5 368,-58.5 261,-58.5"/>
<text text-anchor="start" x="269" y="-76.5" font-family="Helvetica,sans-Serif" font-size="10.00">std::pair&lt; std::string,</text>
<text text-anchor="middle" x="314.5" y="-65.5" font-family="Helvetica,sans-Serif" font-size="10.00"> int &gt;</text>
</a>
</g>
</g>
<!-- Node8&#45;&gt;Node7 -->
<g id="edge8" class="edge">
<title>Node8&#45;&gt;Node7</title>
<path fill="none" stroke="#9a32cd" stroke-dasharray="5,2" d="M378.31,-72.24C403.7,-71.74 432.82,-71.15 457.68,-70.66"/>
<polygon fill="#9a32cd" stroke="#9a32cd" points="377.98,-68.75 368.05,-72.45 378.12,-75.75 377.98,-68.75"/>
<text text-anchor="middle" x="413" y="-74.5" font-family="Helvetica,sans-Serif" font-size="10.00"> save_type_</text>
</g>
<!-- Node9&#45;&gt;Node1 -->
<g id="edge9" class="edge">
<title>Node9&#45;&gt;Node1</title>
<path fill="none" stroke="#9a32cd" stroke-dasharray="5,2" d="M904.72,-59.5C929.61,-59.5 958.46,-59.5 983.8,-59.5"/>
<polygon fill="#9a32cd" stroke="#9a32cd" points="904.67,-56 894.67,-59.5 904.67,-63 904.67,-56"/>
<text text-anchor="middle" x="952" y="-62.5" font-family="Helvetica,sans-Serif" font-size="10.00"> size_</text>
</g>
</g>
</svg>
