<?xml version="1.0" encoding="UTF-8" standalone="no"?>
<!DOCTYPE svg PUBLIC "-//W3C//DTD SVG 1.1//EN"
 "http://www.w3.org/Graphics/SVG/1.1/DTD/svg11.dtd">
<!-- Generated by graphviz version 2.43.0 (0)
 -->
<!-- Title: hdtree::Branch&lt; std::map&lt; KeyType, ValType &gt; &gt; Pages: 1 -->
<svg width="1139pt" height="151pt"
 viewBox="0.00 0.00 1139.00 150.50" xmlns="http://www.w3.org/2000/svg" xmlns:xlink="http://www.w3.org/1999/xlink">
<g id="graph0" class="graph" transform="scale(1 1) rotate(0) translate(4 146.5)">
<title>hdtree::Branch&lt; std::map&lt; KeyType, ValType &gt; &gt;</title>
<!-- Node1 -->
<g id="node1" class="node">
<title>Node1</title>
<g id="a_node1"><a xlink:title="Our wrapper around std::map.">
<polygon fill="#bfbfbf" stroke="black" points="984,-54.5 984,-84.5 1131,-84.5 1131,-54.5 984,-54.5"/>
<text text-anchor="start" x="992" y="-72.5" font-family="Helvetica,sans-Serif" font-size="10.00">hdtree::Branch&lt; std</text>
<text text-anchor="middle" x="1057.5" y="-61.5" font-family="Helvetica,sans-Serif" font-size="10.00">::map&lt; KeyType, ValType &gt; &gt;</text>
</a>
</g>
</g>
<!-- Node2 -->
<g id="node2" class="node">
<title>Node2</title>
<g id="a_node2"><a xlink:href="classhdtree_1_1AbstractBranch.html" target="_top" xlink:title=" ">
<polygon fill="none" stroke="black" points="593,-0.5 593,-30.5 763,-30.5 763,-0.5 593,-0.5"/>
<text text-anchor="start" x="601" y="-18.5" font-family="Helvetica,sans-Serif" font-size="10.00">hdtree::AbstractBranch</text>
<text text-anchor="middle" x="678" y="-7.5" font-family="Helvetica,sans-Serif" font-size="10.00">&lt; std::map&lt; KeyType, ValType &gt; &gt;</text>
</a>
</g>
</g>
<!-- Node2&#45;&gt;Node1 -->
<g id="edge1" class="edge">
<title>Node2&#45;&gt;Node1</title>
<path fill="none" stroke="midnightblue" d="M773.26,-13.7C817.5,-14.31 870.76,-17.16 918,-25.5 952.91,-31.66 991.22,-44.31 1018.68,-54.48"/>
<polygon fill="midnightblue" stroke="midnightblue" points="773.13,-10.19 763.1,-13.59 773.06,-17.19 773.13,-10.19"/>
</g>
<!-- Node3 -->
<g id="node3" class="node">
<title>Node3</title>
<g id="a_node3"><a xlink:href="classhdtree_1_1BaseBranch.html" target="_top" xlink:title="Empty data base allowing recursion.">
<polygon fill="none" stroke="black" points="263,-20 263,-39 366,-39 366,-20 263,-20"/>
<text text-anchor="middle" x="314.5" y="-27" font-family="Helvetica,sans-Serif" font-size="10.00">hdtree::BaseBranch</text>
</a>
</g>
</g>
<!-- Node3&#45;&gt;Node2 -->
<g id="edge2" class="edge">
<title>Node3&#45;&gt;Node2</title>
<path fill="none" stroke="midnightblue" d="M376.5,-27.14C435.92,-24.84 526.74,-21.32 592.98,-18.75"/>
<polygon fill="midnightblue" stroke="midnightblue" points="376,-23.65 366.15,-27.54 376.27,-30.65 376,-23.65"/>
</g>
<!-- Node7 -->
<g id="node7" class="node">
<title>Node7</title>
<g id="a_node7"><a xlink:href="classhdtree_1_1AbstractBranch.html" target="_top" xlink:title="Type&#45;specific base class to hold common data methods.">
<polygon fill="none" stroke="black" points="458,-66.5 458,-96.5 575,-96.5 575,-66.5 458,-66.5"/>
<text text-anchor="start" x="466" y="-84.5" font-family="Helvetica,sans-Serif" font-size="10.00">hdtree::AbstractBranch</text>
<text text-anchor="middle" x="516.5" y="-73.5" font-family="Helvetica,sans-Serif" font-size="10.00">&lt; DataType &gt;</text>
</a>
</g>
</g>
<!-- Node3&#45;&gt;Node7 -->
<g id="edge7" class="edge">
<title>Node3&#45;&gt;Node7</title>
<path fill="none" stroke="midnightblue" d="M361.93,-41.57C390.51,-49 427.39,-58.59 457.84,-66.51"/>
<polygon fill="midnightblue" stroke="midnightblue" points="362.74,-38.17 352.18,-39.04 360.98,-44.94 362.74,-38.17"/>
</g>
<!-- Node4 -->
<g id="node4" class="node">
<title>Node4</title>
<g id="a_node4"><a target="_parent" xlink:href="http://en.cppreference.com/w/cpp/string/basic_string.html" xlink:title=" ">
<polygon fill="none" stroke="black" points="132,-20 132,-39 192,-39 192,-20 132,-20"/>
<text text-anchor="middle" x="162" y="-27" font-family="Helvetica,sans-Serif" font-size="10.00">std::string</text>
</a>
</g>
</g>
<!-- Node4&#45;&gt;Node3 -->
<g id="edge3" class="edge">
<title>Node4&#45;&gt;Node3</title>
<path fill="none" stroke="#9a32cd" stroke-dasharray="5,2" d="M202.17,-29.5C220.72,-29.5 243.11,-29.5 262.93,-29.5"/>
<polygon fill="#9a32cd" stroke="#9a32cd" points="202.02,-26 192.02,-29.5 202.02,-33 202.02,-26"/>
<text text-anchor="middle" x="226.5" y="-32.5" font-family="Helvetica,sans-Serif" font-size="10.00"> name_</text>
</g>
<!-- Node5 -->
<g id="node5" class="node">
<title>Node5</title>
<g id="a_node5"><a target="_parent" xlink:href="http://en.cppreference.com/w/cpp/string/basic_string.html" xlink:title=" ">
<polygon fill="none" stroke="black" points="0,-14.5 0,-44.5 95,-44.5 95,-14.5 0,-14.5"/>
<text text-anchor="start" x="8" y="-32.5" font-family="Helvetica,sans-Serif" font-size="10.00">std::basic_string&lt;</text>
<text text-anchor="middle" x="47.5" y="-21.5" font-family="Helvetica,sans-Serif" font-size="10.00"> char &gt;</text>
</a>
</g>
</g>
<!-- Node5&#45;&gt;Node4 -->
<g id="edge4" class="edge">
<title>Node5&#45;&gt;Node4</title>
<path fill="none" stroke="midnightblue" d="M105.53,-29.5C114.68,-29.5 123.8,-29.5 131.93,-29.5"/>
<polygon fill="midnightblue" stroke="midnightblue" points="105.23,-26 95.23,-29.5 105.23,-33 105.23,-26"/>
</g>
<!-- Node6 -->
<g id="node6" class="node">
<title>Node6</title>
<g id="a_node6"><a xlink:href="classhdtree_1_1Branch.html" target="_top" xlink:title=" ">
<polygon fill="none" stroke="black" points="783,-123 783,-142 916,-142 916,-123 783,-123"/>
<text text-anchor="middle" x="849.5" y="-130" font-family="Helvetica,sans-Serif" font-size="10.00">hdtree::Branch&lt; ValType &gt;</text>
</a>
</g>
</g>
<!-- Node6&#45;&gt;Node1 -->
<g id="edge5" class="edge">
<title>Node6&#45;&gt;Node1</title>
<path fill="none" stroke="#9a32cd" stroke-dasharray="5,2" d="M895.12,-120.17C902.77,-117.99 910.62,-115.71 918,-113.5 948.94,-104.23 983.56,-93.23 1010.45,-84.55"/>
<polygon fill="#9a32cd" stroke="#9a32cd" points="893.92,-116.87 885.25,-122.96 895.83,-123.6 893.92,-116.87"/>
<text text-anchor="middle" x="951" y="-110.5" font-family="Helvetica,sans-Serif" font-size="10.00"> vals_</text>
</g>
<!-- Node7&#45;&gt;Node6 -->
<g id="edge6" class="edge">
<title>Node7&#45;&gt;Node6</title>
<path fill="none" stroke="midnightblue" d="M580.41,-98.86C584.65,-99.82 588.88,-100.71 593,-101.5 656.96,-113.79 730.91,-122.13 782.74,-127.04"/>
<polygon fill="midnightblue" stroke="midnightblue" points="581.03,-95.41 570.5,-96.52 579.43,-102.22 581.03,-95.41"/>
</g>
<!-- Node9 -->
<g id="node9" class="node">
<title>Node9</title>
<g id="a_node9"><a xlink:href="classhdtree_1_1Branch.html" target="_top" xlink:title=" ">
<polygon fill="none" stroke="black" points="781,-85 781,-104 918,-104 918,-85 781,-85"/>
<text text-anchor="middle" x="849.5" y="-92" font-family="Helvetica,sans-Serif" font-size="10.00">hdtree::Branch&lt; KeyType &gt;</text>
</a>
</g>
</g>
<!-- Node7&#45;&gt;Node9 -->
<g id="edge10" class="edge">
<title>Node7&#45;&gt;Node9</title>
<path fill="none" stroke="midnightblue" d="M585.18,-84.16C642.35,-86.4 723.82,-89.6 780.95,-91.85"/>
<polygon fill="midnightblue" stroke="midnightblue" points="585.29,-80.66 575.16,-83.76 585.01,-87.65 585.29,-80.66"/>
</g>
<!-- Node10 -->
<g id="node10" class="node">
<title>Node10</title>
<g id="a_node10"><a xlink:href="classhdtree_1_1Branch.html" target="_top" xlink:title=" ">
<polygon fill="none" stroke="black" points="798,-35.5 798,-65.5 901,-65.5 901,-35.5 798,-35.5"/>
<text text-anchor="start" x="806" y="-53.5" font-family="Helvetica,sans-Serif" font-size="10.00">hdtree::Branch&lt; std</text>
<text text-anchor="middle" x="849.5" y="-42.5" font-family="Helvetica,sans-Serif" font-size="10.00">::size_t &gt;</text>
</a>
</g>
</g>
<!-- Node7&#45;&gt;Node10 -->
<g id="edge12" class="edge">
<title>Node7&#45;&gt;Node10</title>
<path fill="none" stroke="midnightblue" d="M585.4,-75.14C648.44,-69.24 740.88,-60.58 797.74,-55.25"/>
<polygon fill="midnightblue" stroke="midnightblue" points="584.79,-71.68 575.16,-76.1 585.44,-78.65 584.79,-71.68"/>
</g>
<!-- Node8 -->
<g id="node8" class="node">
<title>Node8</title>
<g id="a_node8"><a target="_parent" xlink:href="http://en.cppreference.com/w/cpp/utility/pair.html" xlink:title=" ">
<polygon fill="none" stroke="black" points="261,-66.5 261,-96.5 368,-96.5 368,-66.5 261,-66.5"/>
<text text-anchor="start" x="269" y="-84.5" font-family="Helvetica,sans-Serif" font-size="10.00">std::pair&lt; std::string,</text>
<text text-anchor="middle" x="314.5" y="-73.5" font-family="Helvetica,sans-Serif" font-size="10.00"> int &gt;</text>
</a>
</g>
</g>
<!-- Node8&#45;&gt;Node7 -->
<g id="edge8" class="edge">
<title>Node8&#45;&gt;Node7</title>
<path fill="none" stroke="#9a32cd" stroke-dasharray="5,2" d="M378.31,-81.5C403.7,-81.5 432.82,-81.5 457.68,-81.5"/>
<polygon fill="#9a32cd" stroke="#9a32cd" points="378.05,-78 368.05,-81.5 378.05,-85 378.05,-78"/>
<text text-anchor="middle" x="413" y="-84.5" font-family="Helvetica,sans-Serif" font-size="10.00"> save_type_</text>
</g>
<!-- Node9&#45;&gt;Node1 -->
<g id="edge9" class="edge">
<title>Node9&#45;&gt;Node1</title>
<path fill="none" stroke="#9a32cd" stroke-dasharray="5,2" d="M928.22,-85.07C946.44,-82.86 965.77,-80.51 983.76,-78.33"/>
<polygon fill="#9a32cd" stroke="#9a32cd" points="927.74,-81.6 918.24,-86.28 928.59,-88.55 927.74,-81.6"/>
<text text-anchor="middle" x="951" y="-85.5" font-family="Helvetica,sans-Serif" font-size="10.00"> keys_</text>
</g>
<!-- Node10&#45;&gt;Node1 -->
<g id="edge11" class="edge">
<title>Node10&#45;&gt;Node1</title>
<path fill="none" stroke="#9a32cd" stroke-dasharray="5,2" d="M911.32,-54.12C928.98,-55.33 948.27,-56.81 966,-58.5 971.83,-59.06 977.86,-59.68 983.92,-60.34"/>
<polygon fill="#9a32cd" stroke="#9a32cd" points="911.36,-50.61 901.15,-53.44 910.89,-57.6 911.36,-50.61"/>
<text text-anchor="middle" x="951" y="-61.5" font-family="Helvetica,sans-Serif" font-size="10.00"> size_</text>
</g>
</g>
</svg>
