<?xml version="1.0" encoding="UTF-8" standalone="no"?>
<!DOCTYPE svg PUBLIC "-//W3C//DTD SVG 1.1//EN"
 "http://www.w3.org/Graphics/SVG/1.1/DTD/svg11.dtd">
<!-- Generated by graphviz version 2.43.0 (0)
 -->
<!-- Title: hdtree::Branch&lt; AtomicType, std::enable_if_t&lt; is_atomic_v&lt; AtomicType &gt; &gt; &gt;::ReadBuffer Pages: 1 -->
<svg width="222pt" height="150pt"
 viewBox="0.00 0.00 222.00 150.00" xmlns="http://www.w3.org/2000/svg" xmlns:xlink="http://www.w3.org/1999/xlink">
<g id="graph0" class="graph" transform="scale(1 1) rotate(0) translate(4 146)">
<title>hdtree::Branch&lt; AtomicType, std::enable_if_t&lt; is_atomic_v&lt; AtomicType &gt; &gt; &gt;::ReadBuffer</title>
<!-- Node1 -->
<g id="node1" class="node">
<title>Node1</title>
<g id="a_node1"><a xlink:title=" ">
<polygon fill="#bfbfbf" stroke="black" points="38,-0.5 38,-41.5 208,-41.5 208,-0.5 38,-0.5"/>
<text text-anchor="start" x="46" y="-29.5" font-family="Helvetica,sans-Serif" font-size="10.00">hdtree::Branch&lt; AtomicType,</text>
<text text-anchor="start" x="46" y="-18.5" font-family="Helvetica,sans-Serif" font-size="10.00"> std::enable_if_t&lt; is_atomic</text>
<text text-anchor="middle" x="123" y="-7.5" font-family="Helvetica,sans-Serif" font-size="10.00">_v&lt; AtomicType &gt; &gt; &gt;::ReadBuffer</text>
</a>
</g>
</g>
<!-- Node2 -->
<g id="node2" class="node">
<title>Node2</title>
<g id="a_node2"><a target="_parent" xlink:href="http://en.cppreference.com/w/cpp/container/vector.html" xlink:title=" ">
<polygon fill="none" stroke="black" points="0,-122.5 0,-141.5 132,-141.5 132,-122.5 0,-122.5"/>
<text text-anchor="middle" x="66" y="-129.5" font-family="Helvetica,sans-Serif" font-size="10.00">std::vector&lt; AtomicType &gt;</text>
</a>
</g>
</g>
<!-- Node2&#45;&gt;Node1 -->
<g id="edge1" class="edge">
<title>Node2&#45;&gt;Node1</title>
<path fill="none" stroke="#9a32cd" stroke-dasharray="5,2" d="M75.19,-113.42C85.44,-93.82 101.97,-62.21 112.66,-41.77"/>
<polygon fill="#9a32cd" stroke="#9a32cd" points="72.01,-111.96 70.47,-122.45 78.21,-115.21 72.01,-111.96"/>
<text text-anchor="middle" x="120" y="-79.5" font-family="Helvetica,sans-Serif" font-size="10.00"> buffer_</text>
</g>
<!-- Node3 -->
<g id="node3" class="node">
<title>Node3</title>
<g id="a_node3"><a target="_parent" xlink:href="http://en.cppreference.com/w/cpp/types/size_t.html" xlink:title=" ">
<polygon fill="none" stroke="black" points="150,-122.5 150,-141.5 212,-141.5 212,-122.5 150,-122.5"/>
<text text-anchor="middle" x="181" y="-129.5" font-family="Helvetica,sans-Serif" font-size="10.00">std::size_t</text>
</a>
</g>
</g>
<!-- Node3&#45;&gt;Node1 -->
<g id="edge2" class="edge">
<title>Node3&#45;&gt;Node1</title>
<path fill="none" stroke="#9a32cd" stroke-dasharray="5,2" d="M171.64,-113.42C161.22,-93.82 144.4,-62.21 133.52,-41.77"/>
<polygon fill="#9a32cd" stroke="#9a32cd" points="168.66,-115.26 176.45,-122.45 174.84,-111.97 168.66,-115.26"/>
<text text-anchor="middle" x="189.5" y="-96" font-family="Helvetica,sans-Serif" font-size="10.00"> entries_</text>
<text text-anchor="middle" x="189.5" y="-85" font-family="Helvetica,sans-Serif" font-size="10.00">i_file_</text>
<text text-anchor="middle" x="189.5" y="-74" font-family="Helvetica,sans-Serif" font-size="10.00">i_memory_</text>
<text text-anchor="middle" x="189.5" y="-63" font-family="Helvetica,sans-Serif" font-size="10.00">max_len_</text>
</g>
</g>
</svg>
