<?xml version="1.0" encoding="UTF-8" standalone="no"?>
<!DOCTYPE svg PUBLIC "-//W3C//DTD SVG 1.1//EN"
 "http://www.w3.org/Graphics/SVG/1.1/DTD/svg11.dtd">
<!-- Generated by graphviz version 2.43.0 (0)
 -->
<!-- Title: hdtree::constants Pages: 1 -->
<svg width="150pt" height="185pt"
 viewBox="0.00 0.00 149.50 185.00" xmlns="http://www.w3.org/2000/svg" xmlns:xlink="http://www.w3.org/1999/xlink">
<g id="graph0" class="graph" transform="scale(1 1) rotate(0) translate(4 181)">
<title>hdtree::constants</title>
<!-- Node1 -->
<g id="node1" class="node">
<title>Node1</title>
<g id="a_node1"><a xlink:title="Structure constants vital to serialization method.">
<polygon fill="#bfbfbf" stroke="black" points="1.5,-0.5 1.5,-19.5 93.5,-19.5 93.5,-0.5 1.5,-0.5"/>
<text text-anchor="middle" x="47.5" y="-7.5" font-family="Helvetica,sans-Serif" font-size="10.00">hdtree::constants</text>
</a>
</g>
</g>
<!-- Node2 -->
<g id="node2" class="node">
<title>Node2</title>
<g id="a_node2"><a target="_parent" xlink:href="http://en.cppreference.com/w/cpp/string/basic_string.html" xlink:title=" ">
<polygon fill="none" stroke="black" points="17.5,-89.5 17.5,-108.5 77.5,-108.5 77.5,-89.5 17.5,-89.5"/>
<text text-anchor="middle" x="47.5" y="-96.5" font-family="Helvetica,sans-Serif" font-size="10.00">std::string</text>
</a>
</g>
</g>
<!-- Node2&#45;&gt;Node1 -->
<g id="edge1" class="edge">
<title>Node2&#45;&gt;Node1</title>
<path fill="none" stroke="#9a32cd" stroke-dasharray="5,2" d="M47.5,-79.19C47.5,-60.74 47.5,-33.41 47.5,-19.62"/>
<polygon fill="#9a32cd" stroke="#9a32cd" points="44,-79.34 47.5,-89.34 51,-79.34 44,-79.34"/>
<text text-anchor="middle" x="94.5" y="-63" font-family="Helvetica,sans-Serif" font-size="10.00"> SIZE_NAME</text>
<text text-anchor="middle" x="94.5" y="-52" font-family="Helvetica,sans-Serif" font-size="10.00">TYPE_ATTR_NAME</text>
<text text-anchor="middle" x="94.5" y="-41" font-family="Helvetica,sans-Serif" font-size="10.00">VERS_ATTR_NAME</text>
</g>
<!-- Node3 -->
<g id="node3" class="node">
<title>Node3</title>
<g id="a_node3"><a target="_parent" xlink:href="http://en.cppreference.com/w/cpp/string/basic_string.html" xlink:title=" ">
<polygon fill="none" stroke="black" points="0,-146.5 0,-176.5 95,-176.5 95,-146.5 0,-146.5"/>
<text text-anchor="start" x="8" y="-164.5" font-family="Helvetica,sans-Serif" font-size="10.00">std::basic_string&lt;</text>
<text text-anchor="middle" x="47.5" y="-153.5" font-family="Helvetica,sans-Serif" font-size="10.00"> char &gt;</text>
</a>
</g>
</g>
<!-- Node3&#45;&gt;Node2 -->
<g id="edge2" class="edge">
<title>Node3&#45;&gt;Node2</title>
<path fill="none" stroke="midnightblue" d="M47.5,-136.35C47.5,-126.51 47.5,-115.78 47.5,-108.54"/>
<polygon fill="midnightblue" stroke="midnightblue" points="44,-136.47 47.5,-146.47 51,-136.47 44,-136.47"/>
</g>
</g>
</svg>
