<?xml version="1.0" encoding="UTF-8" standalone="no"?>
<!DOCTYPE svg PUBLIC "-//W3C//DTD SVG 1.1//EN"
 "http://www.w3.org/Graphics/SVG/1.1/DTD/svg11.dtd">
<!-- Generated by graphviz version 2.43.0 (0)
 -->
<!-- Title: include/hdtree/Version.h Pages: 1 -->
<svg width="286pt" height="252pt"
 viewBox="0.00 0.00 286.00 252.00" xmlns="http://www.w3.org/2000/svg" xmlns:xlink="http://www.w3.org/1999/xlink">
<g id="graph0" class="graph" transform="scale(1 1) rotate(0) translate(4 248)">
<title>include/hdtree/Version.h</title>
<!-- Node1 -->
<g id="node1" class="node">
<title>Node1</title>
<g id="a_node1"><a xlink:title=" ">
<polygon fill="#bfbfbf" stroke="black" points="70,-224.5 70,-243.5 192,-243.5 192,-224.5 70,-224.5"/>
<text text-anchor="middle" x="131" y="-231.5" font-family="Helvetica,sans-Serif" font-size="10.00">include/hdtree/Version.h</text>
</a>
</g>
</g>
<!-- Node2 -->
<g id="node2" class="node">
<title>Node2</title>
<g id="a_node2"><a xlink:href="AbstractBranch_8h_source.html" target="_top" xlink:title=" ">
<polygon fill="none" stroke="black" points="0,-168.5 0,-187.5 156,-187.5 156,-168.5 0,-168.5"/>
<text text-anchor="middle" x="78" y="-175.5" font-family="Helvetica,sans-Serif" font-size="10.00">include/hdtree/AbstractBranch.h</text>
</a>
</g>
</g>
<!-- Node1&#45;&gt;Node2 -->
<g id="edge1" class="edge">
<title>Node1&#45;&gt;Node2</title>
<path fill="none" stroke="midnightblue" d="M115.02,-216.72C105.68,-207.2 94.25,-195.56 86.59,-187.75"/>
<polygon fill="midnightblue" stroke="midnightblue" points="112.75,-219.4 122.25,-224.08 117.74,-214.49 112.75,-219.4"/>
</g>
<!-- Node6 -->
<g id="node6" class="node">
<title>Node6</title>
<g id="a_node6"><a xlink:href="Access_8h_source.html" target="_top" xlink:title=" ">
<polygon fill="none" stroke="black" points="156,-112.5 156,-131.5 278,-131.5 278,-112.5 156,-112.5"/>
<text text-anchor="middle" x="217" y="-119.5" font-family="Helvetica,sans-Serif" font-size="10.00">include/hdtree/Access.h</text>
</a>
</g>
</g>
<!-- Node1&#45;&gt;Node6 -->
<g id="edge6" class="edge">
<title>Node1&#45;&gt;Node6</title>
<path fill="none" stroke="midnightblue" d="M144.08,-216.27C162.67,-192.49 196.06,-149.79 210.28,-131.59"/>
<polygon fill="midnightblue" stroke="midnightblue" points="141.15,-214.33 137.75,-224.37 146.66,-218.65 141.15,-214.33"/>
</g>
<!-- Node3 -->
<g id="node3" class="node">
<title>Node3</title>
<g id="a_node3"><a xlink:href="Branch_8h.html" target="_top" xlink:title="Common include for users interacting with Branches.">
<polygon fill="none" stroke="black" points="18.5,-56.5 18.5,-75.5 137.5,-75.5 137.5,-56.5 18.5,-56.5"/>
<text text-anchor="middle" x="78" y="-63.5" font-family="Helvetica,sans-Serif" font-size="10.00">include/hdtree/Branch.h</text>
</a>
</g>
</g>
<!-- Node2&#45;&gt;Node3 -->
<g id="edge2" class="edge">
<title>Node2&#45;&gt;Node3</title>
<path fill="none" stroke="midnightblue" d="M46.71,-164.18C23.28,-152.53 -2.83,-133.85 9,-112 18.54,-94.39 38.28,-82.59 54.21,-75.5"/>
<polygon fill="midnightblue" stroke="midnightblue" points="45.26,-167.37 55.8,-168.44 48.23,-161.03 45.26,-167.37"/>
</g>
<!-- Node5 -->
<g id="node5" class="node">
<title>Node5</title>
<g id="a_node5"><a xlink:href="Reader_8h_source.html" target="_top" xlink:title=" ">
<polygon fill="none" stroke="black" points="18.5,-112.5 18.5,-131.5 137.5,-131.5 137.5,-112.5 18.5,-112.5"/>
<text text-anchor="middle" x="78" y="-119.5" font-family="Helvetica,sans-Serif" font-size="10.00">include/hdtree/Reader.h</text>
</a>
</g>
</g>
<!-- Node2&#45;&gt;Node5 -->
<g id="edge4" class="edge">
<title>Node2&#45;&gt;Node5</title>
<path fill="none" stroke="midnightblue" d="M78,-157.8C78,-148.91 78,-138.78 78,-131.75"/>
<polygon fill="midnightblue" stroke="midnightblue" points="74.5,-158.08 78,-168.08 81.5,-158.08 74.5,-158.08"/>
</g>
<!-- Node4 -->
<g id="node4" class="node">
<title>Node4</title>
<g id="a_node4"><a xlink:href="Tree_8h_source.html" target="_top" xlink:title=" ">
<polygon fill="none" stroke="black" points="24,-0.5 24,-19.5 132,-19.5 132,-0.5 24,-0.5"/>
<text text-anchor="middle" x="78" y="-7.5" font-family="Helvetica,sans-Serif" font-size="10.00">include/hdtree/Tree.h</text>
</a>
</g>
</g>
<!-- Node3&#45;&gt;Node4 -->
<g id="edge3" class="edge">
<title>Node3&#45;&gt;Node4</title>
<path fill="none" stroke="midnightblue" d="M78,-45.8C78,-36.91 78,-26.78 78,-19.75"/>
<polygon fill="midnightblue" stroke="midnightblue" points="74.5,-46.08 78,-56.08 81.5,-46.08 74.5,-46.08"/>
</g>
<!-- Node5&#45;&gt;Node3 -->
<g id="edge5" class="edge">
<title>Node5&#45;&gt;Node3</title>
<path fill="none" stroke="midnightblue" d="M78,-101.8C78,-92.91 78,-82.78 78,-75.75"/>
<polygon fill="midnightblue" stroke="midnightblue" points="74.5,-102.08 78,-112.08 81.5,-102.08 74.5,-102.08"/>
</g>
<!-- Node6&#45;&gt;Node3 -->
<g id="edge7" class="edge">
<title>Node6&#45;&gt;Node3</title>
<path fill="none" stroke="midnightblue" d="M185.52,-108.77C159.41,-98.63 122.96,-84.47 99.92,-75.52"/>
<polygon fill="midnightblue" stroke="midnightblue" points="184.39,-112.08 194.98,-112.44 186.92,-105.56 184.39,-112.08"/>
</g>
</g>
</svg>
