<?xml version="1.0" encoding="UTF-8" standalone="no"?>
<!DOCTYPE svg PUBLIC "-//W3C//DTD SVG 1.1//EN"
 "http://www.w3.org/Graphics/SVG/1.1/DTD/svg11.dtd">
<!-- Generated by graphviz version 2.43.0 (0)
 -->
<!-- Title: cpp/include/hdtree/Atomic.h Pages: 1 -->
<svg width="180pt" height="307pt"
 viewBox="0.00 0.00 180.00 307.00" xmlns="http://www.w3.org/2000/svg" xmlns:xlink="http://www.w3.org/1999/xlink">
<g id="graph0" class="graph" transform="scale(1 1) rotate(0) translate(4 303)">
<title>cpp/include/hdtree/Atomic.h</title>
<!-- Node1 -->
<g id="node1" class="node">
<title>Node1</title>
<g id="a_node1"><a xlink:title=" ">
<polygon fill="#bfbfbf" stroke="black" points="38,-268.5 38,-298.5 134,-298.5 134,-268.5 38,-268.5"/>
<text text-anchor="start" x="46" y="-286.5" font-family="Helvetica,sans-Serif" font-size="10.00">cpp/include/hdtree</text>
<text text-anchor="middle" x="86" y="-275.5" font-family="Helvetica,sans-Serif" font-size="10.00">/Atomic.h</text>
</a>
</g>
</g>
<!-- Node2 -->
<g id="node2" class="node">
<title>Node2</title>
<g id="a_node2"><a xlink:href="Reader_8h_source.html" target="_top" xlink:title=" ">
<polygon fill="none" stroke="black" points="0,-134.5 0,-164.5 96,-164.5 96,-134.5 0,-134.5"/>
<text text-anchor="start" x="8" y="-152.5" font-family="Helvetica,sans-Serif" font-size="10.00">cpp/include/hdtree</text>
<text text-anchor="middle" x="48" y="-141.5" font-family="Helvetica,sans-Serif" font-size="10.00">/Reader.h</text>
</a>
</g>
</g>
<!-- Node1&#45;&gt;Node2 -->
<g id="edge1" class="edge">
<title>Node1&#45;&gt;Node2</title>
<path fill="none" stroke="midnightblue" d="M76.28,-258.6C73.08,-250.27 69.67,-240.79 67,-232 59.96,-208.78 54.02,-181.17 50.74,-164.78"/>
<polygon fill="midnightblue" stroke="midnightblue" points="73.09,-260.06 80,-268.09 79.6,-257.5 73.09,-260.06"/>
</g>
<!-- Node5 -->
<g id="node5" class="node">
<title>Node5</title>
<g id="a_node5"><a xlink:href="Writer_8h_source.html" target="_top" xlink:title=" ">
<polygon fill="none" stroke="black" points="76,-201.5 76,-231.5 172,-231.5 172,-201.5 76,-201.5"/>
<text text-anchor="start" x="84" y="-219.5" font-family="Helvetica,sans-Serif" font-size="10.00">cpp/include/hdtree</text>
<text text-anchor="middle" x="124" y="-208.5" font-family="Helvetica,sans-Serif" font-size="10.00">/Writer.h</text>
</a>
</g>
</g>
<!-- Node1&#45;&gt;Node5 -->
<g id="edge4" class="edge">
<title>Node1&#45;&gt;Node5</title>
<path fill="none" stroke="midnightblue" d="M99.4,-259.58C104.86,-250.24 110.99,-239.75 115.77,-231.58"/>
<polygon fill="midnightblue" stroke="midnightblue" points="96.27,-258 94.25,-268.4 102.31,-261.53 96.27,-258"/>
</g>
<!-- Node3 -->
<g id="node3" class="node">
<title>Node3</title>
<g id="a_node3"><a xlink:href="Branch_8h.html" target="_top" xlink:title="Common include for users interacting with Branches.">
<polygon fill="none" stroke="black" points="38,-67.5 38,-97.5 134,-97.5 134,-67.5 38,-67.5"/>
<text text-anchor="start" x="46" y="-85.5" font-family="Helvetica,sans-Serif" font-size="10.00">cpp/include/hdtree</text>
<text text-anchor="middle" x="86" y="-74.5" font-family="Helvetica,sans-Serif" font-size="10.00">/Branch.h</text>
</a>
</g>
</g>
<!-- Node2&#45;&gt;Node3 -->
<g id="edge2" class="edge">
<title>Node2&#45;&gt;Node3</title>
<path fill="none" stroke="midnightblue" d="M61.4,-125.58C66.86,-116.24 72.99,-105.75 77.77,-97.58"/>
<polygon fill="midnightblue" stroke="midnightblue" points="58.27,-124 56.25,-134.4 64.31,-127.53 58.27,-124"/>
</g>
<!-- Node4 -->
<g id="node4" class="node">
<title>Node4</title>
<g id="a_node4"><a xlink:href="Tree_8h_source.html" target="_top" xlink:title=" ">
<polygon fill="none" stroke="black" points="38,-0.5 38,-30.5 134,-30.5 134,-0.5 38,-0.5"/>
<text text-anchor="start" x="46" y="-18.5" font-family="Helvetica,sans-Serif" font-size="10.00">cpp/include/hdtree</text>
<text text-anchor="middle" x="86" y="-7.5" font-family="Helvetica,sans-Serif" font-size="10.00">/Tree.h</text>
</a>
</g>
</g>
<!-- Node3&#45;&gt;Node4 -->
<g id="edge3" class="edge">
<title>Node3&#45;&gt;Node4</title>
<path fill="none" stroke="midnightblue" d="M86,-57.11C86,-48.15 86,-38.32 86,-30.58"/>
<polygon fill="midnightblue" stroke="midnightblue" points="82.5,-57.4 86,-67.4 89.5,-57.4 82.5,-57.4"/>
</g>
<!-- Node5&#45;&gt;Node2 -->
<g id="edge6" class="edge">
<title>Node5&#45;&gt;Node2</title>
<path fill="none" stroke="midnightblue" d="M99.89,-194.88C88.34,-185.01 74.81,-173.43 64.46,-164.58"/>
<polygon fill="midnightblue" stroke="midnightblue" points="97.63,-197.56 107.51,-201.4 102.18,-192.24 97.63,-197.56"/>
</g>
<!-- Node5&#45;&gt;Node3 -->
<g id="edge5" class="edge">
<title>Node5&#45;&gt;Node3</title>
<path fill="none" stroke="midnightblue" d="M119.24,-191.39C115.81,-175.05 110.78,-153.05 105,-134 101.25,-121.63 96.02,-107.92 92,-97.91"/>
<polygon fill="midnightblue" stroke="midnightblue" points="115.82,-192.12 121.26,-201.22 122.68,-190.72 115.82,-192.12"/>
</g>
</g>
</svg>
