<?xml version="1.0" encoding="UTF-8" standalone="no"?>
<!DOCTYPE svg PUBLIC "-//W3C//DTD SVG 1.1//EN"
 "http://www.w3.org/Graphics/SVG/1.1/DTD/svg11.dtd">
<!-- Generated by graphviz version 2.43.0 (0)
 -->
<!-- Title: cpp/include/hdtree/ClassVersion.h Pages: 1 -->
<svg width="142pt" height="307pt"
 viewBox="0.00 0.00 142.00 307.00" xmlns="http://www.w3.org/2000/svg" xmlns:xlink="http://www.w3.org/1999/xlink">
<g id="graph0" class="graph" transform="scale(1 1) rotate(0) translate(4 303)">
<title>cpp/include/hdtree/ClassVersion.h</title>
<!-- Node1 -->
<g id="node1" class="node">
<title>Node1</title>
<g id="a_node1"><a xlink:title="Serialization class version deduction.">
<polygon fill="#bfbfbf" stroke="black" points="0,-268.5 0,-298.5 96,-298.5 96,-268.5 0,-268.5"/>
<text text-anchor="start" x="8" y="-286.5" font-family="Helvetica,sans-Serif" font-size="10.00">cpp/include/hdtree</text>
<text text-anchor="middle" x="48" y="-275.5" font-family="Helvetica,sans-Serif" font-size="10.00">/ClassVersion.h</text>
</a>
</g>
</g>
<!-- Node2 -->
<g id="node2" class="node">
<title>Node2</title>
<g id="a_node2"><a xlink:href="AbstractBranch_8h_source.html" target="_top" xlink:title=" ">
<polygon fill="none" stroke="black" points="0,-201.5 0,-231.5 96,-231.5 96,-201.5 0,-201.5"/>
<text text-anchor="start" x="8" y="-219.5" font-family="Helvetica,sans-Serif" font-size="10.00">cpp/include/hdtree</text>
<text text-anchor="middle" x="48" y="-208.5" font-family="Helvetica,sans-Serif" font-size="10.00">/AbstractBranch.h</text>
</a>
</g>
</g>
<!-- Node1&#45;&gt;Node2 -->
<g id="edge1" class="edge">
<title>Node1&#45;&gt;Node2</title>
<path fill="none" stroke="midnightblue" d="M48,-258.11C48,-249.15 48,-239.32 48,-231.58"/>
<polygon fill="midnightblue" stroke="midnightblue" points="44.5,-258.4 48,-268.4 51.5,-258.4 44.5,-258.4"/>
</g>
<!-- Node3 -->
<g id="node3" class="node">
<title>Node3</title>
<g id="a_node3"><a xlink:href="Branch_8h.html" target="_top" xlink:title="Common include for users interacting with Branches.">
<polygon fill="none" stroke="black" points="0,-67.5 0,-97.5 96,-97.5 96,-67.5 0,-67.5"/>
<text text-anchor="start" x="8" y="-85.5" font-family="Helvetica,sans-Serif" font-size="10.00">cpp/include/hdtree</text>
<text text-anchor="middle" x="48" y="-74.5" font-family="Helvetica,sans-Serif" font-size="10.00">/Branch.h</text>
</a>
</g>
</g>
<!-- Node2&#45;&gt;Node3 -->
<g id="edge2" class="edge">
<title>Node2&#45;&gt;Node3</title>
<path fill="none" stroke="midnightblue" d="M37.11,-191.88C33.82,-183.57 30.64,-174.04 29,-165 26.53,-151.44 26.53,-147.56 29,-134 31.31,-121.28 36.65,-107.6 41.09,-97.69"/>
<polygon fill="midnightblue" stroke="midnightblue" points="33.97,-193.46 41.09,-201.31 40.42,-190.74 33.97,-193.46"/>
</g>
<!-- Node5 -->
<g id="node5" class="node">
<title>Node5</title>
<g id="a_node5"><a xlink:href="Reader_8h_source.html" target="_top" xlink:title=" ">
<polygon fill="none" stroke="black" points="38,-134.5 38,-164.5 134,-164.5 134,-134.5 38,-134.5"/>
<text text-anchor="start" x="46" y="-152.5" font-family="Helvetica,sans-Serif" font-size="10.00">cpp/include/hdtree</text>
<text text-anchor="middle" x="86" y="-141.5" font-family="Helvetica,sans-Serif" font-size="10.00">/Reader.h</text>
</a>
</g>
</g>
<!-- Node2&#45;&gt;Node5 -->
<g id="edge4" class="edge">
<title>Node2&#45;&gt;Node5</title>
<path fill="none" stroke="midnightblue" d="M61.4,-192.58C66.86,-183.24 72.99,-172.75 77.77,-164.58"/>
<polygon fill="midnightblue" stroke="midnightblue" points="58.27,-191 56.25,-201.4 64.31,-194.53 58.27,-191"/>
</g>
<!-- Node4 -->
<g id="node4" class="node">
<title>Node4</title>
<g id="a_node4"><a xlink:href="Tree_8h_source.html" target="_top" xlink:title=" ">
<polygon fill="none" stroke="black" points="0,-0.5 0,-30.5 96,-30.5 96,-0.5 0,-0.5"/>
<text text-anchor="start" x="8" y="-18.5" font-family="Helvetica,sans-Serif" font-size="10.00">cpp/include/hdtree</text>
<text text-anchor="middle" x="48" y="-7.5" font-family="Helvetica,sans-Serif" font-size="10.00">/Tree.h</text>
</a>
</g>
</g>
<!-- Node3&#45;&gt;Node4 -->
<g id="edge3" class="edge">
<title>Node3&#45;&gt;Node4</title>
<path fill="none" stroke="midnightblue" d="M48,-57.11C48,-48.15 48,-38.32 48,-30.58"/>
<polygon fill="midnightblue" stroke="midnightblue" points="44.5,-57.4 48,-67.4 51.5,-57.4 44.5,-57.4"/>
</g>
<!-- Node5&#45;&gt;Node3 -->
<g id="edge5" class="edge">
<title>Node5&#45;&gt;Node3</title>
<path fill="none" stroke="midnightblue" d="M72.6,-125.58C67.14,-116.24 61.01,-105.75 56.23,-97.58"/>
<polygon fill="midnightblue" stroke="midnightblue" points="69.69,-127.53 77.75,-134.4 75.73,-124 69.69,-127.53"/>
</g>
</g>
</svg>
