<?xml version="1.0" encoding="UTF-8" standalone="no"?>
<!DOCTYPE svg PUBLIC "-//W3C//DTD SVG 1.1//EN"
 "http://www.w3.org/Graphics/SVG/1.1/DTD/svg11.dtd">
<!-- Generated by graphviz version 2.43.0 (0)
 -->
<!-- Title: hdtree::Branch&lt; AtomicType, std::enable_if_t&lt; is_atomic_v&lt; AtomicType &gt; &gt; &gt; Pages: 1 -->
<svg width="797pt" height="116pt"
 viewBox="0.00 0.00 797.00 115.50" xmlns="http://www.w3.org/2000/svg" xmlns:xlink="http://www.w3.org/1999/xlink">
<g id="graph0" class="graph" transform="scale(1 1) rotate(0) translate(4 111.5)">
<title>hdtree::Branch&lt; AtomicType, std::enable_if_t&lt; is_atomic_v&lt; AtomicType &gt; &gt; &gt;</title>
<!-- Node1 -->
<g id="node1" class="node">
<title>Node1</title>
<g id="a_node1"><a xlink:title="Branch wrapper for atomic types.">
<polygon fill="#bfbfbf" stroke="black" points="646,-27.5 646,-68.5 789,-68.5 789,-27.5 646,-27.5"/>
<text text-anchor="start" x="654" y="-56.5" font-family="Helvetica,sans-Serif" font-size="10.00">hdtree::Branch&lt; AtomicType,</text>
<text text-anchor="start" x="654" y="-45.5" font-family="Helvetica,sans-Serif" font-size="10.00"> std::enable_if_t&lt; is_atomic</text>
<text text-anchor="middle" x="717.5" y="-34.5" font-family="Helvetica,sans-Serif" font-size="10.00">_v&lt; AtomicType &gt; &gt; &gt;</text>
</a>
</g>
</g>
<!-- Node2 -->
<g id="node2" class="node">
<title>Node2</title>
<g id="a_node2"><a xlink:href="classhdtree_1_1AbstractBranch.html" target="_top" xlink:title=" ">
<polygon fill="none" stroke="black" points="417,-77 417,-107 534,-107 534,-77 417,-77"/>
<text text-anchor="start" x="425" y="-95" font-family="Helvetica,sans-Serif" font-size="10.00">hdtree::AbstractBranch</text>
<text text-anchor="middle" x="475.5" y="-84" font-family="Helvetica,sans-Serif" font-size="10.00">&lt; AtomicType &gt;</text>
</a>
</g>
</g>
<!-- Node2&#45;&gt;Node1 -->
<g id="edge1" class="edge">
<title>Node2&#45;&gt;Node1</title>
<path fill="none" stroke="midnightblue" d="M544.37,-79.56C576.1,-73.74 613.87,-66.82 645.93,-60.94"/>
<polygon fill="midnightblue" stroke="midnightblue" points="543.5,-76.16 534.29,-81.4 544.76,-83.04 543.5,-76.16"/>
</g>
<!-- Node3 -->
<g id="node3" class="node">
<title>Node3</title>
<g id="a_node3"><a xlink:href="classhdtree_1_1BaseBranch.html" target="_top" xlink:title="Empty data base allowing recursion.">
<polygon fill="none" stroke="black" points="261,-82.5 261,-101.5 364,-101.5 364,-82.5 261,-82.5"/>
<text text-anchor="middle" x="312.5" y="-89.5" font-family="Helvetica,sans-Serif" font-size="10.00">hdtree::BaseBranch</text>
</a>
</g>
</g>
<!-- Node3&#45;&gt;Node2 -->
<g id="edge2" class="edge">
<title>Node3&#45;&gt;Node2</title>
<path fill="none" stroke="midnightblue" d="M374.82,-92C388.63,-92 403.24,-92 416.89,-92"/>
<polygon fill="midnightblue" stroke="midnightblue" points="374.44,-88.5 364.44,-92 374.44,-95.5 374.44,-88.5"/>
</g>
<!-- Node4 -->
<g id="node4" class="node">
<title>Node4</title>
<g id="a_node4"><a xlink:title=" ">
<polygon fill="none" stroke="#bfbfbf" points="132,-82.5 132,-101.5 192,-101.5 192,-82.5 132,-82.5"/>
<text text-anchor="middle" x="162" y="-89.5" font-family="Helvetica,sans-Serif" font-size="10.00">std::string</text>
</a>
</g>
</g>
<!-- Node4&#45;&gt;Node3 -->
<g id="edge3" class="edge">
<title>Node4&#45;&gt;Node3</title>
<path fill="none" stroke="#9a32cd" stroke-dasharray="5,2" d="M202.44,-92C220.36,-92 241.77,-92 260.86,-92"/>
<polygon fill="#9a32cd" stroke="#9a32cd" points="202.34,-88.5 192.34,-92 202.34,-95.5 202.34,-88.5"/>
<text text-anchor="middle" x="226.5" y="-95" font-family="Helvetica,sans-Serif" font-size="10.00"> name_</text>
</g>
<!-- Node5 -->
<g id="node5" class="node">
<title>Node5</title>
<g id="a_node5"><a xlink:title=" ">
<polygon fill="none" stroke="#bfbfbf" points="0,-77 0,-107 95,-107 95,-77 0,-77"/>
<text text-anchor="start" x="8" y="-95" font-family="Helvetica,sans-Serif" font-size="10.00">std::basic_string&lt;</text>
<text text-anchor="middle" x="47.5" y="-84" font-family="Helvetica,sans-Serif" font-size="10.00"> Char &gt;</text>
</a>
</g>
</g>
<!-- Node5&#45;&gt;Node4 -->
<g id="edge4" class="edge">
<title>Node5&#45;&gt;Node4</title>
<path fill="none" stroke="midnightblue" d="M105.53,-92C114.68,-92 123.8,-92 131.93,-92"/>
<polygon fill="midnightblue" stroke="midnightblue" points="105.23,-88.5 95.23,-92 105.23,-95.5 105.23,-88.5"/>
</g>
<!-- Node6 -->
<g id="node6" class="node">
<title>Node6</title>
<g id="a_node6"><a xlink:title=" ">
<polygon fill="none" stroke="#bfbfbf" points="401.5,-38.5 401.5,-57.5 549.5,-57.5 549.5,-38.5 401.5,-38.5"/>
<text text-anchor="middle" x="475.5" y="-45.5" font-family="Helvetica,sans-Serif" font-size="10.00">std::unique_ptr&lt; WriteBuffer &gt;</text>
</a>
</g>
</g>
<!-- Node6&#45;&gt;Node1 -->
<g id="edge5" class="edge">
<title>Node6&#45;&gt;Node1</title>
<path fill="none" stroke="#9a32cd" stroke-dasharray="5,2" d="M559.97,-48C587.92,-48 618.8,-48 645.69,-48"/>
<polygon fill="#9a32cd" stroke="#9a32cd" points="559.81,-44.5 549.81,-48 559.81,-51.5 559.81,-44.5"/>
<text text-anchor="middle" x="598" y="-51" font-family="Helvetica,sans-Serif" font-size="10.00"> write_buffer_</text>
</g>
<!-- Node7 -->
<g id="node7" class="node">
<title>Node7</title>
<g id="a_node7"><a xlink:title=" ">
<polygon fill="none" stroke="#bfbfbf" points="401,-0.5 401,-19.5 550,-19.5 550,-0.5 401,-0.5"/>
<text text-anchor="middle" x="475.5" y="-7.5" font-family="Helvetica,sans-Serif" font-size="10.00">std::unique_ptr&lt; ReadBuffer &gt;</text>
</a>
</g>
</g>
<!-- Node7&#45;&gt;Node1 -->
<g id="edge6" class="edge">
<title>Node7&#45;&gt;Node1</title>
<path fill="none" stroke="#9a32cd" stroke-dasharray="5,2" d="M551.01,-21.05C575.54,-24.76 602.95,-28.98 628,-33 633.85,-33.94 639.91,-34.93 645.99,-35.94"/>
<polygon fill="#9a32cd" stroke="#9a32cd" points="551.45,-17.58 541.04,-19.55 550.41,-24.5 551.45,-17.58"/>
<text text-anchor="middle" x="598" y="-36" font-family="Helvetica,sans-Serif" font-size="10.00"> read_buffer_</text>
</g>
</g>
</svg>
