<?xml version="1.0" encoding="UTF-8" standalone="no"?>
<!DOCTYPE svg PUBLIC "-//W3C//DTD SVG 1.1//EN"
 "http://www.w3.org/Graphics/SVG/1.1/DTD/svg11.dtd">
<!-- Generated by graphviz version 2.43.0 (0)
 -->
<!-- Title: hdtree::BaseBranch Pages: 1 -->
<svg width="507pt" height="363pt"
 viewBox="0.00 0.00 507.00 362.50" xmlns="http://www.w3.org/2000/svg" xmlns:xlink="http://www.w3.org/1999/xlink">
<g id="graph0" class="graph" transform="scale(1 1) rotate(0) translate(4 358.5)">
<title>hdtree::BaseBranch</title>
<!-- Node1 -->
<g id="node1" class="node">
<title>Node1</title>
<g id="a_node1"><a xlink:title="Empty data base allowing recursion.">
<polygon fill="#bfbfbf" stroke="black" points="0,-244 0,-263 103,-263 103,-244 0,-244"/>
<text text-anchor="middle" x="51.5" y="-251" font-family="Helvetica,sans-Serif" font-size="10.00">hdtree::BaseBranch</text>
</a>
</g>
</g>
<!-- Node2 -->
<g id="node2" class="node">
<title>Node2</title>
<g id="a_node2"><a xlink:href="classhdtree_1_1AbstractBranch.html" target="_top" xlink:title=" ">
<polygon fill="none" stroke="black" points="165.5,-315.5 165.5,-345.5 282.5,-345.5 282.5,-315.5 165.5,-315.5"/>
<text text-anchor="start" x="173.5" y="-333.5" font-family="Helvetica,sans-Serif" font-size="10.00">hdtree::AbstractBranch</text>
<text text-anchor="middle" x="224" y="-322.5" font-family="Helvetica,sans-Serif" font-size="10.00">&lt; AtomicType &gt;</text>
</a>
</g>
</g>
<!-- Node1&#45;&gt;Node2 -->
<g id="edge1" class="edge">
<title>Node1&#45;&gt;Node2</title>
<path fill="none" stroke="midnightblue" d="M75.68,-268.72C92.71,-279.44 116.66,-293.59 139,-303.5 148.94,-307.91 159.83,-311.95 170.38,-315.49"/>
<polygon fill="midnightblue" stroke="midnightblue" points="77.31,-265.6 66.99,-263.17 73.54,-271.5 77.31,-265.6"/>
</g>
<!-- Node4 -->
<g id="node4" class="node">
<title>Node4</title>
<g id="a_node4"><a xlink:href="classhdtree_1_1AbstractBranch.html" target="_top" xlink:title=" ">
<polygon fill="none" stroke="black" points="139,-263.5 139,-293.5 309,-293.5 309,-263.5 139,-263.5"/>
<text text-anchor="start" x="147" y="-281.5" font-family="Helvetica,sans-Serif" font-size="10.00">hdtree::AbstractBranch</text>
<text text-anchor="middle" x="224" y="-270.5" font-family="Helvetica,sans-Serif" font-size="10.00">&lt; std::map&lt; KeyType, ValType &gt; &gt;</text>
</a>
</g>
</g>
<!-- Node1&#45;&gt;Node4 -->
<g id="edge3" class="edge">
<title>Node1&#45;&gt;Node4</title>
<path fill="none" stroke="midnightblue" d="M113.2,-262.4C121.57,-263.63 130.28,-264.9 138.97,-266.18"/>
<polygon fill="midnightblue" stroke="midnightblue" points="113.6,-258.92 103.19,-260.93 112.58,-265.85 113.6,-258.92"/>
</g>
<!-- Node6 -->
<g id="node6" class="node">
<title>Node6</title>
<g id="a_node6"><a xlink:href="classhdtree_1_1AbstractBranch.html" target="_top" xlink:title=" ">
<polygon fill="none" stroke="black" points="146.5,-214.5 146.5,-244.5 301.5,-244.5 301.5,-214.5 146.5,-214.5"/>
<text text-anchor="start" x="154.5" y="-232.5" font-family="Helvetica,sans-Serif" font-size="10.00">hdtree::AbstractBranch</text>
<text text-anchor="middle" x="224" y="-221.5" font-family="Helvetica,sans-Serif" font-size="10.00">&lt; std::vector&lt; ContentType &gt; &gt;</text>
</a>
</g>
</g>
<!-- Node1&#45;&gt;Node6 -->
<g id="edge5" class="edge">
<title>Node1&#45;&gt;Node6</title>
<path fill="none" stroke="midnightblue" d="M113.26,-244.95C123.96,-243.44 135.23,-241.86 146.3,-240.3"/>
<polygon fill="midnightblue" stroke="midnightblue" points="112.61,-241.5 103.19,-246.36 113.58,-248.44 112.61,-241.5"/>
</g>
<!-- Node8 -->
<g id="node8" class="node">
<title>Node8</title>
<g id="a_node8"><a xlink:href="classhdtree_1_1AbstractBranch.html" target="_top" xlink:title="Type&#45;specific base class to hold common data methods.">
<polygon fill="none" stroke="black" points="165.5,-104.5 165.5,-134.5 282.5,-134.5 282.5,-104.5 165.5,-104.5"/>
<text text-anchor="start" x="173.5" y="-122.5" font-family="Helvetica,sans-Serif" font-size="10.00">hdtree::AbstractBranch</text>
<text text-anchor="middle" x="224" y="-111.5" font-family="Helvetica,sans-Serif" font-size="10.00">&lt; DataType &gt;</text>
</a>
</g>
</g>
<!-- Node1&#45;&gt;Node8 -->
<g id="edge7" class="edge">
<title>Node1&#45;&gt;Node8</title>
<path fill="none" stroke="midnightblue" d="M72.84,-237.51C106.02,-211.44 171.33,-160.11 203.77,-134.61"/>
<polygon fill="midnightblue" stroke="midnightblue" points="70.46,-234.93 64.76,-243.86 74.79,-240.44 70.46,-234.93"/>
</g>
<!-- Node3 -->
<g id="node3" class="node">
<title>Node3</title>
<g id="a_node3"><a xlink:href="classhdtree_1_1Branch_3_01AtomicType_00_01std_1_1enable__if__t_3_01is__atomic__v_3_01AtomicType_01_4_01_4_01_4.html" target="_top" xlink:title="Branch wrapper for atomic types.">
<polygon fill="none" stroke="black" points="350.5,-313 350.5,-354 493.5,-354 493.5,-313 350.5,-313"/>
<text text-anchor="start" x="358.5" y="-342" font-family="Helvetica,sans-Serif" font-size="10.00">hdtree::Branch&lt; AtomicType,</text>
<text text-anchor="start" x="358.5" y="-331" font-family="Helvetica,sans-Serif" font-size="10.00"> std::enable_if_t&lt; is_atomic</text>
<text text-anchor="middle" x="422" y="-320" font-family="Helvetica,sans-Serif" font-size="10.00">_v&lt; AtomicType &gt; &gt; &gt;</text>
</a>
</g>
</g>
<!-- Node2&#45;&gt;Node3 -->
<g id="edge2" class="edge">
<title>Node2&#45;&gt;Node3</title>
<path fill="none" stroke="midnightblue" d="M292.9,-331.54C311.51,-331.82 331.73,-332.13 350.48,-332.42"/>
<polygon fill="midnightblue" stroke="midnightblue" points="292.8,-328.04 282.75,-331.38 292.69,-335.04 292.8,-328.04"/>
</g>
<!-- Node5 -->
<g id="node5" class="node">
<title>Node5</title>
<g id="a_node5"><a xlink:href="classhdtree_1_1Branch_3_01std_1_1map_3_01KeyType_00_01ValType_01_4_01_4.html" target="_top" xlink:title="Our wrapper around std::map.">
<polygon fill="none" stroke="black" points="348.5,-263.5 348.5,-293.5 495.5,-293.5 495.5,-263.5 348.5,-263.5"/>
<text text-anchor="start" x="356.5" y="-281.5" font-family="Helvetica,sans-Serif" font-size="10.00">hdtree::Branch&lt; std</text>
<text text-anchor="middle" x="422" y="-270.5" font-family="Helvetica,sans-Serif" font-size="10.00">::map&lt; KeyType, ValType &gt; &gt;</text>
</a>
</g>
</g>
<!-- Node4&#45;&gt;Node5 -->
<g id="edge4" class="edge">
<title>Node4&#45;&gt;Node5</title>
<path fill="none" stroke="midnightblue" d="M319.34,-278.5C329.04,-278.5 338.8,-278.5 348.22,-278.5"/>
<polygon fill="midnightblue" stroke="midnightblue" points="319.26,-275 309.26,-278.5 319.26,-282 319.26,-275"/>
</g>
<!-- Node7 -->
<g id="node7" class="node">
<title>Node7</title>
<g id="a_node7"><a xlink:href="classhdtree_1_1Branch_3_01std_1_1vector_3_01ContentType_01_4_01_4.html" target="_top" xlink:title="Our wrapper around std::vector.">
<polygon fill="none" stroke="black" points="356,-214.5 356,-244.5 488,-244.5 488,-214.5 356,-214.5"/>
<text text-anchor="start" x="364" y="-232.5" font-family="Helvetica,sans-Serif" font-size="10.00">hdtree::Branch&lt; std</text>
<text text-anchor="middle" x="422" y="-221.5" font-family="Helvetica,sans-Serif" font-size="10.00">::vector&lt; ContentType &gt; &gt;</text>
</a>
</g>
</g>
<!-- Node6&#45;&gt;Node7 -->
<g id="edge6" class="edge">
<title>Node6&#45;&gt;Node7</title>
<path fill="none" stroke="midnightblue" d="M311.8,-229.5C326.6,-229.5 341.74,-229.5 355.86,-229.5"/>
<polygon fill="midnightblue" stroke="midnightblue" points="311.62,-226 301.62,-229.5 311.62,-233 311.62,-226"/>
</g>
<!-- Node9 -->
<g id="node9" class="node">
<title>Node9</title>
<g id="a_node9"><a xlink:href="classhdtree_1_1Branch.html" target="_top" xlink:title=" ">
<polygon fill="none" stroke="black" points="355.5,-176 355.5,-195 488.5,-195 488.5,-176 355.5,-176"/>
<text text-anchor="middle" x="422" y="-183" font-family="Helvetica,sans-Serif" font-size="10.00">hdtree::Branch&lt; ValType &gt;</text>
</a>
</g>
</g>
<!-- Node8&#45;&gt;Node9 -->
<g id="edge8" class="edge">
<title>Node8&#45;&gt;Node9</title>
<path fill="none" stroke="midnightblue" d="M269.28,-138.41C291.72,-147.6 319.54,-158.37 345,-166.5 355.75,-169.93 367.52,-173.14 378.52,-175.9"/>
<polygon fill="midnightblue" stroke="midnightblue" points="270.59,-135.17 260.01,-134.59 267.92,-141.64 270.59,-135.17"/>
</g>
<!-- Node10 -->
<g id="node10" class="node">
<title>Node10</title>
<g id="a_node10"><a xlink:href="classhdtree_1_1Branch.html" target="_top" xlink:title=" ">
<polygon fill="none" stroke="black" points="370.5,-126.5 370.5,-156.5 473.5,-156.5 473.5,-126.5 370.5,-126.5"/>
<text text-anchor="start" x="378.5" y="-144.5" font-family="Helvetica,sans-Serif" font-size="10.00">hdtree::Branch&lt; std</text>
<text text-anchor="middle" x="422" y="-133.5" font-family="Helvetica,sans-Serif" font-size="10.00">::size_t &gt;</text>
</a>
</g>
</g>
<!-- Node8&#45;&gt;Node10 -->
<g id="edge9" class="edge">
<title>Node8&#45;&gt;Node10</title>
<path fill="none" stroke="midnightblue" d="M292.71,-127.1C318.17,-129.96 346.67,-133.16 370.32,-135.81"/>
<polygon fill="midnightblue" stroke="midnightblue" points="293.07,-123.62 282.75,-125.98 292.29,-130.58 293.07,-123.62"/>
</g>
<!-- Node11 -->
<g id="node11" class="node">
<title>Node11</title>
<g id="a_node11"><a xlink:href="classhdtree_1_1Branch.html" target="_top" xlink:title=" ">
<polygon fill="none" stroke="black" points="353.5,-88 353.5,-107 490.5,-107 490.5,-88 353.5,-88"/>
<text text-anchor="middle" x="422" y="-95" font-family="Helvetica,sans-Serif" font-size="10.00">hdtree::Branch&lt; KeyType &gt;</text>
</a>
</g>
</g>
<!-- Node8&#45;&gt;Node11 -->
<g id="edge10" class="edge">
<title>Node8&#45;&gt;Node11</title>
<path fill="none" stroke="midnightblue" d="M292.8,-111.89C312.38,-109.69 333.74,-107.29 353.31,-105.1"/>
<polygon fill="midnightblue" stroke="midnightblue" points="292.29,-108.42 282.75,-113.02 293.07,-115.38 292.29,-108.42"/>
</g>
<!-- Node12 -->
<g id="node12" class="node">
<title>Node12</title>
<g id="a_node12"><a xlink:href="classhdtree_1_1Branch.html" target="_top" xlink:title=" ">
<polygon fill="none" stroke="black" points="345,-50 345,-69 499,-69 499,-50 345,-50"/>
<text text-anchor="middle" x="422" y="-57" font-family="Helvetica,sans-Serif" font-size="10.00">hdtree::Branch&lt; ContentType &gt;</text>
</a>
</g>
</g>
<!-- Node8&#45;&gt;Node12 -->
<g id="edge11" class="edge">
<title>Node8&#45;&gt;Node12</title>
<path fill="none" stroke="midnightblue" d="M275.59,-101.16C296.89,-93.71 322.02,-85.28 345,-78.5 356.35,-75.15 368.76,-71.88 380.2,-69.03"/>
<polygon fill="midnightblue" stroke="midnightblue" points="274.37,-97.88 266.1,-104.5 276.69,-104.48 274.37,-97.88"/>
</g>
<!-- Node13 -->
<g id="node13" class="node">
<title>Node13</title>
<g id="a_node13"><a xlink:href="classhdtree_1_1Branch.html" target="_top" xlink:title="General data set.">
<polygon fill="none" stroke="black" points="355,-0.5 355,-30.5 489,-30.5 489,-0.5 355,-0.5"/>
<text text-anchor="start" x="363" y="-18.5" font-family="Helvetica,sans-Serif" font-size="10.00">hdtree::Branch&lt; DataType,</text>
<text text-anchor="middle" x="422" y="-7.5" font-family="Helvetica,sans-Serif" font-size="10.00"> Enable &gt;</text>
</a>
</g>
</g>
<!-- Node8&#45;&gt;Node13 -->
<g id="edge12" class="edge">
<title>Node8&#45;&gt;Node13</title>
<path fill="none" stroke="midnightblue" d="M252.53,-98.32C276.08,-80.98 311.39,-56.73 345,-40.5 352.63,-36.81 360.94,-33.47 369.17,-30.5"/>
<polygon fill="midnightblue" stroke="midnightblue" points="250.34,-95.59 244.41,-104.37 254.52,-101.2 250.34,-95.59"/>
</g>
</g>
</svg>
