<?xml version="1.0" encoding="UTF-8" standalone="no"?>
<!DOCTYPE svg PUBLIC "-//W3C//DTD SVG 1.1//EN"
 "http://www.w3.org/Graphics/SVG/1.1/DTD/svg11.dtd">
<!-- Generated by graphviz version 2.43.0 (0)
 -->
<!-- Title: hdtree::Tree Pages: 1 -->
<svg width="665pt" height="165pt"
 viewBox="0.00 0.00 665.00 165.00" xmlns="http://www.w3.org/2000/svg" xmlns:xlink="http://www.w3.org/1999/xlink">
<g id="graph0" class="graph" transform="scale(1 1) rotate(0) translate(4 161)">
<title>hdtree::Tree</title>
<!-- Node1 -->
<g id="node1" class="node">
<title>Node1</title>
<g id="a_node1"><a xlink:title="A container for many branches.">
<polygon fill="#bfbfbf" stroke="black" points="588,-83 588,-102 657,-102 657,-83 588,-83"/>
<text text-anchor="middle" x="622.5" y="-90" font-family="Helvetica,sans-Serif" font-size="10.00">hdtree::Tree</text>
</a>
</g>
</g>
<!-- Node2 -->
<g id="node2" class="node">
<title>Node2</title>
<g id="a_node2"><a xlink:title=" ">
<polygon fill="none" stroke="#bfbfbf" points="357,-126.5 357,-156.5 474,-156.5 474,-126.5 357,-126.5"/>
<text text-anchor="start" x="365" y="-144.5" font-family="Helvetica,sans-Serif" font-size="10.00">std::unique_ptr&lt; hdtree</text>
<text text-anchor="middle" x="415.5" y="-133.5" font-family="Helvetica,sans-Serif" font-size="10.00">::Writer &gt;</text>
</a>
</g>
</g>
<!-- Node2&#45;&gt;Node1 -->
<g id="edge1" class="edge">
<title>Node2&#45;&gt;Node1</title>
<path fill="none" stroke="#9a32cd" stroke-dasharray="5,2" d="M484.34,-127.47C511.12,-121.68 542.1,-114.65 570,-107.5 576.5,-105.84 583.41,-103.92 590,-102.03"/>
<polygon fill="#9a32cd" stroke="#9a32cd" points="483.34,-124.11 474.3,-129.63 484.81,-130.95 483.34,-124.11"/>
<text text-anchor="middle" x="545.5" y="-121.5" font-family="Helvetica,sans-Serif" font-size="10.00"> writer_</text>
</g>
<!-- Node3 -->
<g id="node3" class="node">
<title>Node3</title>
<g id="a_node3"><a xlink:title=" ">
<polygon fill="none" stroke="#bfbfbf" points="357,-77.5 357,-107.5 474,-107.5 474,-77.5 357,-77.5"/>
<text text-anchor="start" x="365" y="-95.5" font-family="Helvetica,sans-Serif" font-size="10.00">std::unique_ptr&lt; hdtree</text>
<text text-anchor="middle" x="415.5" y="-84.5" font-family="Helvetica,sans-Serif" font-size="10.00">::Reader &gt;</text>
</a>
</g>
</g>
<!-- Node3&#45;&gt;Node1 -->
<g id="edge2" class="edge">
<title>Node3&#45;&gt;Node1</title>
<path fill="none" stroke="#9a32cd" stroke-dasharray="5,2" d="M484.26,-92.5C519.05,-92.5 559.9,-92.5 587.93,-92.5"/>
<polygon fill="#9a32cd" stroke="#9a32cd" points="484.15,-89 474.15,-92.5 484.15,-96 484.15,-89"/>
<text text-anchor="middle" x="545.5" y="-95.5" font-family="Helvetica,sans-Serif" font-size="10.00"> reader_</text>
</g>
<!-- Node4 -->
<g id="node4" class="node">
<title>Node4</title>
<g id="a_node4"><a xlink:title=" ">
<polygon fill="none" stroke="#bfbfbf" points="328,-17 328,-58 503,-58 503,-17 328,-17"/>
<text text-anchor="start" x="336" y="-46" font-family="Helvetica,sans-Serif" font-size="10.00">std::unordered_map</text>
<text text-anchor="start" x="336" y="-35" font-family="Helvetica,sans-Serif" font-size="10.00">&lt; std::string, std::</text>
<text text-anchor="middle" x="415.5" y="-24" font-family="Helvetica,sans-Serif" font-size="10.00">unique_ptr&lt; hdtree::BaseBranch &gt; &gt;</text>
</a>
</g>
</g>
<!-- Node4&#45;&gt;Node1 -->
<g id="edge3" class="edge">
<title>Node4&#45;&gt;Node1</title>
<path fill="none" stroke="#9a32cd" stroke-dasharray="5,2" d="M506.85,-60.59C527.62,-66.02 549.6,-71.87 570,-77.5 576.28,-79.23 582.98,-81.14 589.4,-83"/>
<polygon fill="#9a32cd" stroke="#9a32cd" points="507.64,-57.17 497.08,-58.04 505.87,-63.95 507.64,-57.17"/>
<text text-anchor="middle" x="545.5" y="-80.5" font-family="Helvetica,sans-Serif" font-size="10.00"> branches_</text>
</g>
<!-- Node5 -->
<g id="node5" class="node">
<title>Node5</title>
<g id="a_node5"><a xlink:title=" ">
<polygon fill="none" stroke="#bfbfbf" points="132,-44.5 132,-74.5 249,-74.5 249,-44.5 132,-44.5"/>
<text text-anchor="start" x="140" y="-62.5" font-family="Helvetica,sans-Serif" font-size="10.00">std::unique_ptr&lt; hdtree</text>
<text text-anchor="middle" x="190.5" y="-51.5" font-family="Helvetica,sans-Serif" font-size="10.00">::BaseBranch &gt;</text>
</a>
</g>
</g>
<!-- Node5&#45;&gt;Node4 -->
<g id="edge4" class="edge">
<title>Node5&#45;&gt;Node4</title>
<path fill="none" stroke="#9a32cd" stroke-dasharray="5,2" d="M259.24,-52.82C280.77,-50.69 304.89,-48.31 327.58,-46.08"/>
<polygon fill="#9a32cd" stroke="#9a32cd" points="258.83,-49.34 249.22,-53.81 259.51,-56.31 258.83,-49.34"/>
<text text-anchor="middle" x="288.5" y="-54.5" font-family="Helvetica,sans-Serif" font-size="10.00"> elements</text>
</g>
<!-- Node6 -->
<g id="node6" class="node">
<title>Node6</title>
<g id="a_node6"><a xlink:title=" ">
<polygon fill="none" stroke="#bfbfbf" points="160.5,-6 160.5,-25 220.5,-25 220.5,-6 160.5,-6"/>
<text text-anchor="middle" x="190.5" y="-13" font-family="Helvetica,sans-Serif" font-size="10.00">std::string</text>
</a>
</g>
</g>
<!-- Node6&#45;&gt;Node4 -->
<g id="edge5" class="edge">
<title>Node6&#45;&gt;Node4</title>
<path fill="none" stroke="#9a32cd" stroke-dasharray="5,2" d="M230.78,-19.37C257.57,-22.02 294.12,-25.62 327.57,-28.92"/>
<polygon fill="#9a32cd" stroke="#9a32cd" points="230.95,-15.87 220.65,-18.38 230.26,-22.84 230.95,-15.87"/>
<text text-anchor="middle" x="288.5" y="-30.5" font-family="Helvetica,sans-Serif" font-size="10.00"> keys</text>
</g>
<!-- Node7 -->
<g id="node7" class="node">
<title>Node7</title>
<g id="a_node7"><a xlink:title=" ">
<polygon fill="none" stroke="#bfbfbf" points="0,-0.5 0,-30.5 95,-30.5 95,-0.5 0,-0.5"/>
<text text-anchor="start" x="8" y="-18.5" font-family="Helvetica,sans-Serif" font-size="10.00">std::basic_string&lt;</text>
<text text-anchor="middle" x="47.5" y="-7.5" font-family="Helvetica,sans-Serif" font-size="10.00"> Char &gt;</text>
</a>
</g>
</g>
<!-- Node7&#45;&gt;Node6 -->
<g id="edge6" class="edge">
<title>Node7&#45;&gt;Node6</title>
<path fill="none" stroke="midnightblue" d="M105.09,-15.5C123.99,-15.5 144.29,-15.5 160.24,-15.5"/>
<polygon fill="midnightblue" stroke="midnightblue" points="105.06,-12 95.06,-15.5 105.06,-19 105.06,-12"/>
</g>
</g>
</svg>
