<?xml version="1.0" encoding="UTF-8" standalone="no"?>
<!DOCTYPE svg PUBLIC "-//W3C//DTD SVG 1.1//EN"
 "http://www.w3.org/Graphics/SVG/1.1/DTD/svg11.dtd">
<!-- Generated by graphviz version 2.43.0 (0)
 -->
<!-- Title: hdtree::Branch&lt; std::map&lt; KeyType, ValType &gt; &gt; Pages: 1 -->
<svg width="1082pt" height="155pt"
 viewBox="0.00 0.00 1082.00 155.00" xmlns="http://www.w3.org/2000/svg" xmlns:xlink="http://www.w3.org/1999/xlink">
<g id="graph0" class="graph" transform="scale(1 1) rotate(0) translate(4 151)">
<title>hdtree::Branch&lt; std::map&lt; KeyType, ValType &gt; &gt;</title>
<!-- Node1 -->
<g id="node1" class="node">
<title>Node1</title>
<g id="a_node1"><a xlink:title="Our wrapper around std::map.">
<polygon fill="#bfbfbf" stroke="black" points="927,-64.5 927,-94.5 1074,-94.5 1074,-64.5 927,-64.5"/>
<text text-anchor="start" x="935" y="-82.5" font-family="Helvetica,sans-Serif" font-size="10.00">hdtree::Branch&lt; std</text>
<text text-anchor="middle" x="1000.5" y="-71.5" font-family="Helvetica,sans-Serif" font-size="10.00">::map&lt; KeyType, ValType &gt; &gt;</text>
</a>
</g>
</g>
<!-- Node2 -->
<g id="node2" class="node">
<title>Node2</title>
<g id="a_node2"><a xlink:href="classhdtree_1_1AbstractBranch.html" target="_top" xlink:title=" ">
<polygon fill="none" stroke="black" points="536,-116.5 536,-146.5 706,-146.5 706,-116.5 536,-116.5"/>
<text text-anchor="start" x="544" y="-134.5" font-family="Helvetica,sans-Serif" font-size="10.00">hdtree::AbstractBranch</text>
<text text-anchor="middle" x="621" y="-123.5" font-family="Helvetica,sans-Serif" font-size="10.00">&lt; std::map&lt; KeyType, ValType &gt; &gt;</text>
</a>
</g>
</g>
<!-- Node2&#45;&gt;Node1 -->
<g id="edge1" class="edge">
<title>Node2&#45;&gt;Node1</title>
<path fill="none" stroke="midnightblue" d="M716.27,-129.12C760.4,-127.1 813.57,-123.38 861,-116.5 882.66,-113.36 887.81,-110.97 909,-105.5 921.98,-102.15 935.93,-98.28 948.9,-94.56"/>
<polygon fill="midnightblue" stroke="midnightblue" points="715.97,-125.63 706.13,-129.56 716.27,-132.62 715.97,-125.63"/>
</g>
<!-- Node3 -->
<g id="node3" class="node">
<title>Node3</title>
<g id="a_node3"><a xlink:href="classhdtree_1_1BaseBranch.html" target="_top" xlink:title="Empty data base allowing recursion.">
<polygon fill="none" stroke="black" points="261,-85 261,-104 364,-104 364,-85 261,-85"/>
<text text-anchor="middle" x="312.5" y="-92" font-family="Helvetica,sans-Serif" font-size="10.00">hdtree::BaseBranch</text>
</a>
</g>
</g>
<!-- Node3&#45;&gt;Node2 -->
<g id="edge2" class="edge">
<title>Node3&#45;&gt;Node2</title>
<path fill="none" stroke="midnightblue" d="M374.27,-101.84C420.47,-107.41 484.58,-115.15 535.73,-121.33"/>
<polygon fill="midnightblue" stroke="midnightblue" points="374.46,-98.33 364.11,-100.61 373.62,-105.28 374.46,-98.33"/>
</g>
<!-- Node7 -->
<g id="node7" class="node">
<title>Node7</title>
<g id="a_node7"><a xlink:href="classhdtree_1_1AbstractBranch.html" target="_top" xlink:title="Type&#45;specific base class to hold common data methods.">
<polygon fill="none" stroke="black" points="401,-53.5 401,-83.5 518,-83.5 518,-53.5 401,-53.5"/>
<text text-anchor="start" x="409" y="-71.5" font-family="Helvetica,sans-Serif" font-size="10.00">hdtree::AbstractBranch</text>
<text text-anchor="middle" x="459.5" y="-60.5" font-family="Helvetica,sans-Serif" font-size="10.00">&lt; DataType &gt;</text>
</a>
</g>
</g>
<!-- Node3&#45;&gt;Node7 -->
<g id="edge7" class="edge">
<title>Node3&#45;&gt;Node7</title>
<path fill="none" stroke="midnightblue" d="M374.09,-83.64C382.96,-82.05 392.07,-80.41 400.87,-78.83"/>
<polygon fill="midnightblue" stroke="midnightblue" points="373.44,-80.2 364.21,-85.41 374.67,-87.09 373.44,-80.2"/>
</g>
<!-- Node4 -->
<g id="node4" class="node">
<title>Node4</title>
<g id="a_node4"><a xlink:title=" ">
<polygon fill="none" stroke="#bfbfbf" points="132,-85 132,-104 192,-104 192,-85 132,-85"/>
<text text-anchor="middle" x="162" y="-92" font-family="Helvetica,sans-Serif" font-size="10.00">std::string</text>
</a>
</g>
</g>
<!-- Node4&#45;&gt;Node3 -->
<g id="edge3" class="edge">
<title>Node4&#45;&gt;Node3</title>
<path fill="none" stroke="#9a32cd" stroke-dasharray="5,2" d="M202.44,-94.5C220.36,-94.5 241.77,-94.5 260.86,-94.5"/>
<polygon fill="#9a32cd" stroke="#9a32cd" points="202.34,-91 192.34,-94.5 202.34,-98 202.34,-91"/>
<text text-anchor="middle" x="226.5" y="-97.5" font-family="Helvetica,sans-Serif" font-size="10.00"> name_</text>
</g>
<!-- Node5 -->
<g id="node5" class="node">
<title>Node5</title>
<g id="a_node5"><a xlink:title=" ">
<polygon fill="none" stroke="#bfbfbf" points="0,-79.5 0,-109.5 95,-109.5 95,-79.5 0,-79.5"/>
<text text-anchor="start" x="8" y="-97.5" font-family="Helvetica,sans-Serif" font-size="10.00">std::basic_string&lt;</text>
<text text-anchor="middle" x="47.5" y="-86.5" font-family="Helvetica,sans-Serif" font-size="10.00"> Char &gt;</text>
</a>
</g>
</g>
<!-- Node5&#45;&gt;Node4 -->
<g id="edge4" class="edge">
<title>Node5&#45;&gt;Node4</title>
<path fill="none" stroke="midnightblue" d="M105.53,-94.5C114.68,-94.5 123.8,-94.5 131.93,-94.5"/>
<polygon fill="midnightblue" stroke="midnightblue" points="105.23,-91 95.23,-94.5 105.23,-98 105.23,-91"/>
</g>
<!-- Node6 -->
<g id="node6" class="node">
<title>Node6</title>
<g id="a_node6"><a xlink:href="classhdtree_1_1Branch.html" target="_top" xlink:title=" ">
<polygon fill="none" stroke="black" points="726,-88 726,-107 859,-107 859,-88 726,-88"/>
<text text-anchor="middle" x="792.5" y="-95" font-family="Helvetica,sans-Serif" font-size="10.00">hdtree::Branch&lt; ValType &gt;</text>
</a>
</g>
</g>
<!-- Node6&#45;&gt;Node1 -->
<g id="edge5" class="edge">
<title>Node6&#45;&gt;Node1</title>
<path fill="none" stroke="#9a32cd" stroke-dasharray="5,2" d="M869.25,-90.88C888.08,-89.24 908.21,-87.48 926.88,-85.85"/>
<polygon fill="#9a32cd" stroke="#9a32cd" points="868.9,-87.4 859.25,-91.76 869.51,-94.37 868.9,-87.4"/>
<text text-anchor="middle" x="894" y="-93.5" font-family="Helvetica,sans-Serif" font-size="10.00"> vals_</text>
</g>
<!-- Node7&#45;&gt;Node6 -->
<g id="edge6" class="edge">
<title>Node7&#45;&gt;Node6</title>
<path fill="none" stroke="midnightblue" d="M528.29,-77.67C530.89,-77.96 533.47,-78.24 536,-78.5 600.38,-85.15 674.11,-90.38 725.77,-93.65"/>
<polygon fill="midnightblue" stroke="midnightblue" points="528.51,-74.17 518.17,-76.49 527.7,-81.12 528.51,-74.17"/>
</g>
<!-- Node8 -->
<g id="node8" class="node">
<title>Node8</title>
<g id="a_node8"><a xlink:href="classhdtree_1_1Branch.html" target="_top" xlink:title=" ">
<polygon fill="none" stroke="black" points="724,-50 724,-69 861,-69 861,-50 724,-50"/>
<text text-anchor="middle" x="792.5" y="-57" font-family="Helvetica,sans-Serif" font-size="10.00">hdtree::Branch&lt; KeyType &gt;</text>
</a>
</g>
</g>
<!-- Node7&#45;&gt;Node8 -->
<g id="edge9" class="edge">
<title>Node7&#45;&gt;Node8</title>
<path fill="none" stroke="midnightblue" d="M528.18,-66.66C585.35,-65.11 666.82,-62.89 723.95,-61.34"/>
<polygon fill="midnightblue" stroke="midnightblue" points="528.06,-63.16 518.16,-66.93 528.25,-70.16 528.06,-63.16"/>
</g>
<!-- Node9 -->
<g id="node9" class="node">
<title>Node9</title>
<g id="a_node9"><a xlink:href="classhdtree_1_1Branch.html" target="_top" xlink:title=" ">
<polygon fill="none" stroke="black" points="741,-0.5 741,-30.5 844,-30.5 844,-0.5 741,-0.5"/>
<text text-anchor="start" x="749" y="-18.5" font-family="Helvetica,sans-Serif" font-size="10.00">hdtree::Branch&lt; std</text>
<text text-anchor="middle" x="792.5" y="-7.5" font-family="Helvetica,sans-Serif" font-size="10.00">::size_t &gt;</text>
</a>
</g>
</g>
<!-- Node7&#45;&gt;Node9 -->
<g id="edge11" class="edge">
<title>Node7&#45;&gt;Node9</title>
<path fill="none" stroke="midnightblue" d="M528.4,-57.63C591.44,-47.53 683.88,-32.73 740.74,-23.63"/>
<polygon fill="midnightblue" stroke="midnightblue" points="527.48,-54.23 518.16,-59.27 528.58,-61.14 527.48,-54.23"/>
</g>
<!-- Node8&#45;&gt;Node1 -->
<g id="edge8" class="edge">
<title>Node8&#45;&gt;Node1</title>
<path fill="none" stroke="#9a32cd" stroke-dasharray="5,2" d="M871.22,-67.05C889.44,-68.81 908.77,-70.69 926.76,-72.44"/>
<polygon fill="#9a32cd" stroke="#9a32cd" points="871.53,-63.56 861.24,-66.08 870.85,-70.53 871.53,-63.56"/>
<text text-anchor="middle" x="894" y="-74.5" font-family="Helvetica,sans-Serif" font-size="10.00"> keys_</text>
</g>
<!-- Node9&#45;&gt;Node1 -->
<g id="edge10" class="edge">
<title>Node9&#45;&gt;Node1</title>
<path fill="none" stroke="#9a32cd" stroke-dasharray="5,2" d="M851.73,-33.59C883.13,-43.35 921.41,-55.24 951.15,-64.48"/>
<polygon fill="#9a32cd" stroke="#9a32cd" points="852.39,-30.13 841.8,-30.51 850.31,-36.81 852.39,-30.13"/>
<text text-anchor="middle" x="894" y="-54.5" font-family="Helvetica,sans-Serif" font-size="10.00"> size_</text>
</g>
</g>
</svg>
