<?xml version="1.0" encoding="UTF-8" standalone="no"?>
<!DOCTYPE svg PUBLIC "-//W3C//DTD SVG 1.1//EN"
 "http://www.w3.org/Graphics/SVG/1.1/DTD/svg11.dtd">
<!-- Generated by graphviz version 2.43.0 (0)
 -->
<!-- Title: cpp/include/hdtree/Constants.h Pages: 1 -->
<svg width="180pt" height="307pt"
 viewBox="0.00 0.00 180.00 307.00" xmlns="http://www.w3.org/2000/svg" xmlns:xlink="http://www.w3.org/1999/xlink">
<g id="graph0" class="graph" transform="scale(1 1) rotate(0) translate(4 303)">
<title>cpp/include/hdtree/Constants.h</title>
<!-- Node1 -->
<g id="node1" class="node">
<title>Node1</title>
<g id="a_node1"><a xlink:title="Definitions for names of structures required by serialization methods.">
<polygon fill="#bfbfbf" stroke="black" points="0,-268.5 0,-298.5 96,-298.5 96,-268.5 0,-268.5"/>
<text text-anchor="start" x="8" y="-286.5" font-family="Helvetica,sans-Serif" font-size="10.00">cpp/include/hdtree</text>
<text text-anchor="middle" x="48" y="-275.5" font-family="Helvetica,sans-Serif" font-size="10.00">/Constants.h</text>
</a>
</g>
</g>
<!-- Node2 -->
<g id="node2" class="node">
<title>Node2</title>
<g id="a_node2"><a xlink:href="Branch_8h.html" target="_top" xlink:title="Common include for users interacting with Branches.">
<polygon fill="none" stroke="black" points="0,-67.5 0,-97.5 96,-97.5 96,-67.5 0,-67.5"/>
<text text-anchor="start" x="8" y="-85.5" font-family="Helvetica,sans-Serif" font-size="10.00">cpp/include/hdtree</text>
<text text-anchor="middle" x="48" y="-74.5" font-family="Helvetica,sans-Serif" font-size="10.00">/Branch.h</text>
</a>
</g>
</g>
<!-- Node1&#45;&gt;Node2 -->
<g id="edge1" class="edge">
<title>Node1&#45;&gt;Node2</title>
<path fill="none" stroke="midnightblue" d="M37.11,-258.88C33.82,-250.57 30.64,-241.04 29,-232 20.12,-183.16 35.06,-124.53 43.23,-97.91"/>
<polygon fill="midnightblue" stroke="midnightblue" points="33.97,-260.46 41.09,-268.31 40.42,-257.74 33.97,-260.46"/>
</g>
<!-- Node4 -->
<g id="node4" class="node">
<title>Node4</title>
<g id="a_node4"><a xlink:href="Writer_8h_source.html" target="_top" xlink:title=" ">
<polygon fill="none" stroke="black" points="38,-201.5 38,-231.5 134,-231.5 134,-201.5 38,-201.5"/>
<text text-anchor="start" x="46" y="-219.5" font-family="Helvetica,sans-Serif" font-size="10.00">cpp/include/hdtree</text>
<text text-anchor="middle" x="86" y="-208.5" font-family="Helvetica,sans-Serif" font-size="10.00">/Writer.h</text>
</a>
</g>
</g>
<!-- Node1&#45;&gt;Node4 -->
<g id="edge3" class="edge">
<title>Node1&#45;&gt;Node4</title>
<path fill="none" stroke="midnightblue" d="M61.4,-259.58C66.86,-250.24 72.99,-239.75 77.77,-231.58"/>
<polygon fill="midnightblue" stroke="midnightblue" points="58.27,-258 56.25,-268.4 64.31,-261.53 58.27,-258"/>
</g>
<!-- Node3 -->
<g id="node3" class="node">
<title>Node3</title>
<g id="a_node3"><a xlink:href="Tree_8h_source.html" target="_top" xlink:title=" ">
<polygon fill="none" stroke="black" points="0,-0.5 0,-30.5 96,-30.5 96,-0.5 0,-0.5"/>
<text text-anchor="start" x="8" y="-18.5" font-family="Helvetica,sans-Serif" font-size="10.00">cpp/include/hdtree</text>
<text text-anchor="middle" x="48" y="-7.5" font-family="Helvetica,sans-Serif" font-size="10.00">/Tree.h</text>
</a>
</g>
</g>
<!-- Node2&#45;&gt;Node3 -->
<g id="edge2" class="edge">
<title>Node2&#45;&gt;Node3</title>
<path fill="none" stroke="midnightblue" d="M48,-57.11C48,-48.15 48,-38.32 48,-30.58"/>
<polygon fill="midnightblue" stroke="midnightblue" points="44.5,-57.4 48,-67.4 51.5,-57.4 44.5,-57.4"/>
</g>
<!-- Node4&#45;&gt;Node2 -->
<g id="edge4" class="edge">
<title>Node4&#45;&gt;Node2</title>
<path fill="none" stroke="midnightblue" d="M76.28,-191.6C73.08,-183.27 69.67,-173.79 67,-165 59.96,-141.78 54.02,-114.17 50.74,-97.78"/>
<polygon fill="midnightblue" stroke="midnightblue" points="73.09,-193.06 80,-201.09 79.6,-190.5 73.09,-193.06"/>
</g>
<!-- Node5 -->
<g id="node5" class="node">
<title>Node5</title>
<g id="a_node5"><a xlink:href="Reader_8h_source.html" target="_top" xlink:title=" ">
<polygon fill="none" stroke="black" points="76,-134.5 76,-164.5 172,-164.5 172,-134.5 76,-134.5"/>
<text text-anchor="start" x="84" y="-152.5" font-family="Helvetica,sans-Serif" font-size="10.00">cpp/include/hdtree</text>
<text text-anchor="middle" x="124" y="-141.5" font-family="Helvetica,sans-Serif" font-size="10.00">/Reader.h</text>
</a>
</g>
</g>
<!-- Node4&#45;&gt;Node5 -->
<g id="edge5" class="edge">
<title>Node4&#45;&gt;Node5</title>
<path fill="none" stroke="midnightblue" d="M99.4,-192.58C104.86,-183.24 110.99,-172.75 115.77,-164.58"/>
<polygon fill="midnightblue" stroke="midnightblue" points="96.27,-191 94.25,-201.4 102.31,-194.53 96.27,-191"/>
</g>
<!-- Node5&#45;&gt;Node2 -->
<g id="edge6" class="edge">
<title>Node5&#45;&gt;Node2</title>
<path fill="none" stroke="midnightblue" d="M99.89,-127.88C88.34,-118.01 74.81,-106.43 64.46,-97.58"/>
<polygon fill="midnightblue" stroke="midnightblue" points="97.63,-130.56 107.51,-134.4 102.18,-125.24 97.63,-130.56"/>
</g>
</g>
</svg>
