<?xml version="1.0" encoding="UTF-8" standalone="no"?>
<!DOCTYPE svg PUBLIC "-//W3C//DTD SVG 1.1//EN"
 "http://www.w3.org/Graphics/SVG/1.1/DTD/svg11.dtd">
<!-- Generated by graphviz version 2.43.0 (0)
 -->
<!-- Title: hdtree::Branch&lt; std::vector&lt; ContentType &gt; &gt; Pages: 1 -->
<svg width="1160pt" height="121pt"
 viewBox="0.00 0.00 1160.00 121.00" xmlns="http://www.w3.org/2000/svg" xmlns:xlink="http://www.w3.org/1999/xlink">
<g id="graph0" class="graph" transform="scale(1 1) rotate(0) translate(4 117)">
<title>hdtree::Branch&lt; std::vector&lt; ContentType &gt; &gt;</title>
<!-- Node1 -->
<g id="node1" class="node">
<title>Node1</title>
<g id="a_node1"><a xlink:title="Our wrapper around std::vector.">
<polygon fill="#bfbfbf" stroke="black" points="1004,-44.5 1004,-74.5 1152,-74.5 1152,-44.5 1004,-44.5"/>
<text text-anchor="start" x="1012" y="-62.5" font-family="Helvetica,sans-Serif" font-size="10.00">hdtree::Branch&lt; std</text>
<text text-anchor="middle" x="1078" y="-51.5" font-family="Helvetica,sans-Serif" font-size="10.00">::vector&lt; ContentType &gt; &gt;</text>
</a>
</g>
</g>
<!-- Node2 -->
<g id="node2" class="node">
<title>Node2</title>
<g id="a_node2"><a xlink:href="classhdtree_1_1AbstractBranch.html" target="_top" xlink:title=" ">
<polygon fill="none" stroke="black" points="574,-82.5 574,-112.5 748,-112.5 748,-82.5 574,-82.5"/>
<text text-anchor="start" x="582" y="-100.5" font-family="Helvetica,sans-Serif" font-size="10.00">hdtree::AbstractBranch</text>
<text text-anchor="middle" x="661" y="-89.5" font-family="Helvetica,sans-Serif" font-size="10.00">&lt; std::vector&lt; ContentType &gt; &gt;</text>
</a>
</g>
</g>
<!-- Node2&#45;&gt;Node1 -->
<g id="edge1" class="edge">
<title>Node2&#45;&gt;Node1</title>
<path fill="none" stroke="midnightblue" d="M758.35,-93.27C822.93,-89.79 909.76,-83.88 986,-74.5 991.72,-73.8 997.63,-72.99 1003.57,-72.13"/>
<polygon fill="midnightblue" stroke="midnightblue" points="757.99,-89.78 748.19,-93.8 758.36,-96.77 757.99,-89.78"/>
</g>
<!-- Node3 -->
<g id="node3" class="node">
<title>Node3</title>
<g id="a_node3"><a xlink:href="classhdtree_1_1BaseBranch.html" target="_top" xlink:title="Empty data base allowing recursion.">
<polygon fill="none" stroke="black" points="279,-66 279,-85 391,-85 391,-66 279,-66"/>
<text text-anchor="middle" x="335" y="-73" font-family="Helvetica,sans-Serif" font-size="10.00">hdtree::BaseBranch</text>
</a>
</g>
</g>
<!-- Node3&#45;&gt;Node2 -->
<g id="edge2" class="edge">
<title>Node3&#45;&gt;Node2</title>
<path fill="none" stroke="midnightblue" d="M401.61,-79.96C451.22,-83.32 519.77,-87.98 573.8,-91.65"/>
<polygon fill="midnightblue" stroke="midnightblue" points="401.54,-76.44 391.33,-79.26 401.07,-83.43 401.54,-76.44"/>
</g>
<!-- Node7 -->
<g id="node7" class="node">
<title>Node7</title>
<g id="a_node7"><a xlink:href="classhdtree_1_1AbstractBranch.html" target="_top" xlink:title="Type&#45;specific base class to hold common data methods.">
<polygon fill="none" stroke="black" points="428,-38.5 428,-68.5 556,-68.5 556,-38.5 428,-38.5"/>
<text text-anchor="start" x="436" y="-56.5" font-family="Helvetica,sans-Serif" font-size="10.00">hdtree::AbstractBranch</text>
<text text-anchor="middle" x="492" y="-45.5" font-family="Helvetica,sans-Serif" font-size="10.00">&lt; DataType &gt;</text>
</a>
</g>
</g>
<!-- Node3&#45;&gt;Node7 -->
<g id="edge7" class="edge">
<title>Node3&#45;&gt;Node7</title>
<path fill="none" stroke="midnightblue" d="M401.01,-66.27C409.91,-65.01 419.04,-63.71 427.9,-62.46"/>
<polygon fill="midnightblue" stroke="midnightblue" points="400.49,-62.81 391.08,-67.68 401.48,-69.74 400.49,-62.81"/>
</g>
<!-- Node4 -->
<g id="node4" class="node">
<title>Node4</title>
<g id="a_node4"><a xlink:title=" ">
<polygon fill="none" stroke="#bfbfbf" points="141,-66 141,-85 206,-85 206,-66 141,-66"/>
<text text-anchor="middle" x="173.5" y="-73" font-family="Helvetica,sans-Serif" font-size="10.00">std::string</text>
</a>
</g>
</g>
<!-- Node4&#45;&gt;Node3 -->
<g id="edge3" class="edge">
<title>Node4&#45;&gt;Node3</title>
<path fill="none" stroke="#9a32cd" stroke-dasharray="5,2" d="M216.23,-75.5C235.41,-75.5 258.41,-75.5 278.97,-75.5"/>
<polygon fill="#9a32cd" stroke="#9a32cd" points="216.01,-72 206.01,-75.5 216.01,-79 216.01,-72"/>
<text text-anchor="middle" x="242.5" y="-78.5" font-family="Helvetica,sans-Serif" font-size="10.00"> name_</text>
</g>
<!-- Node5 -->
<g id="node5" class="node">
<title>Node5</title>
<g id="a_node5"><a xlink:title=" ">
<polygon fill="none" stroke="#bfbfbf" points="0,-60.5 0,-90.5 104,-90.5 104,-60.5 0,-60.5"/>
<text text-anchor="start" x="8" y="-78.5" font-family="Helvetica,sans-Serif" font-size="10.00">std::basic_string&lt;</text>
<text text-anchor="middle" x="52" y="-67.5" font-family="Helvetica,sans-Serif" font-size="10.00"> Char &gt;</text>
</a>
</g>
</g>
<!-- Node5&#45;&gt;Node4 -->
<g id="edge4" class="edge">
<title>Node5&#45;&gt;Node4</title>
<path fill="none" stroke="midnightblue" d="M114.1,-75.5C123.41,-75.5 132.68,-75.5 141,-75.5"/>
<polygon fill="midnightblue" stroke="midnightblue" points="114.03,-72 104.03,-75.5 114.03,-79 114.03,-72"/>
</g>
<!-- Node6 -->
<g id="node6" class="node">
<title>Node6</title>
<g id="a_node6"><a xlink:href="classhdtree_1_1Branch.html" target="_top" xlink:title=" ">
<polygon fill="none" stroke="black" points="766,-50 766,-69 937,-69 937,-50 766,-50"/>
<text text-anchor="middle" x="851.5" y="-57" font-family="Helvetica,sans-Serif" font-size="10.00">hdtree::Branch&lt; ContentType &gt;</text>
</a>
</g>
</g>
<!-- Node6&#45;&gt;Node1 -->
<g id="edge5" class="edge">
<title>Node6&#45;&gt;Node1</title>
<path fill="none" stroke="#9a32cd" stroke-dasharray="5,2" d="M947.2,-59.5C966.17,-59.5 985.82,-59.5 1003.92,-59.5"/>
<polygon fill="#9a32cd" stroke="#9a32cd" points="947.05,-56 937.05,-59.5 947.05,-63 947.05,-56"/>
<text text-anchor="middle" x="970.5" y="-62.5" font-family="Helvetica,sans-Serif" font-size="10.00"> data_</text>
</g>
<!-- Node7&#45;&gt;Node6 -->
<g id="edge6" class="edge">
<title>Node7&#45;&gt;Node6</title>
<path fill="none" stroke="midnightblue" d="M566.27,-54.73C624.22,-55.7 705.2,-57.06 765.9,-58.08"/>
<polygon fill="midnightblue" stroke="midnightblue" points="566.15,-51.23 556.09,-54.56 566.03,-58.23 566.15,-51.23"/>
</g>
<!-- Node8 -->
<g id="node8" class="node">
<title>Node8</title>
<g id="a_node8"><a xlink:href="classhdtree_1_1Branch.html" target="_top" xlink:title=" ">
<polygon fill="none" stroke="black" points="794.5,-0.5 794.5,-30.5 908.5,-30.5 908.5,-0.5 794.5,-0.5"/>
<text text-anchor="start" x="802.5" y="-18.5" font-family="Helvetica,sans-Serif" font-size="10.00">hdtree::Branch&lt; std</text>
<text text-anchor="middle" x="851.5" y="-7.5" font-family="Helvetica,sans-Serif" font-size="10.00">::size_t &gt;</text>
</a>
</g>
</g>
<!-- Node7&#45;&gt;Node8 -->
<g id="edge9" class="edge">
<title>Node7&#45;&gt;Node8</title>
<path fill="none" stroke="midnightblue" d="M566.24,-45.72C633.79,-38.53 732.66,-28.03 794.22,-21.48"/>
<polygon fill="midnightblue" stroke="midnightblue" points="565.66,-42.26 556.09,-46.79 566.4,-49.22 565.66,-42.26"/>
</g>
<!-- Node8&#45;&gt;Node1 -->
<g id="edge8" class="edge">
<title>Node8&#45;&gt;Node1</title>
<path fill="none" stroke="#9a32cd" stroke-dasharray="5,2" d="M918.61,-28.46C945.39,-33.71 976.41,-39.78 1003.86,-45.16"/>
<polygon fill="#9a32cd" stroke="#9a32cd" points="919.06,-24.98 908.57,-26.49 917.71,-31.85 919.06,-24.98"/>
<text text-anchor="middle" x="970.5" y="-44.5" font-family="Helvetica,sans-Serif" font-size="10.00"> size_</text>
</g>
</g>
</svg>
