<?xml version="1.0" encoding="UTF-8" standalone="no"?>
<!DOCTYPE svg PUBLIC "-//W3C//DTD SVG 1.1//EN"
 "http://www.w3.org/Graphics/SVG/1.1/DTD/svg11.dtd">
<!-- Generated by graphviz version 2.43.0 (0)
 -->
<!-- Title: hdtree::AbstractBranch&lt; DataType &gt; Pages: 1 -->
<svg width="491pt" height="204pt"
 viewBox="0.00 0.00 491.00 203.50" xmlns="http://www.w3.org/2000/svg" xmlns:xlink="http://www.w3.org/1999/xlink">
<g id="graph0" class="graph" transform="scale(1 1) rotate(0) translate(4 199.5)">
<title>hdtree::AbstractBranch&lt; DataType &gt;</title>
<!-- Node1 -->
<g id="node1" class="node">
<title>Node1</title>
<g id="a_node1"><a xlink:title="Type&#45;specific base class to hold common data methods.">
<polygon fill="#bfbfbf" stroke="black" points="148,-82.5 148,-112.5 276,-112.5 276,-82.5 148,-82.5"/>
<text text-anchor="start" x="156" y="-100.5" font-family="Helvetica,sans-Serif" font-size="10.00">hdtree::AbstractBranch</text>
<text text-anchor="middle" x="212" y="-89.5" font-family="Helvetica,sans-Serif" font-size="10.00">&lt; DataType &gt;</text>
</a>
</g>
</g>
<!-- Node3 -->
<g id="node3" class="node">
<title>Node3</title>
<g id="a_node3"><a xlink:href="classhdtree_1_1Branch.html" target="_top" xlink:title=" ">
<polygon fill="none" stroke="black" points="323.5,-176 323.5,-195 471.5,-195 471.5,-176 323.5,-176"/>
<text text-anchor="middle" x="397.5" y="-183" font-family="Helvetica,sans-Serif" font-size="10.00">hdtree::Branch&lt; ValType &gt;</text>
</a>
</g>
</g>
<!-- Node1&#45;&gt;Node3 -->
<g id="edge2" class="edge">
<title>Node1&#45;&gt;Node3</title>
<path fill="none" stroke="midnightblue" d="M238.22,-119.23C257.3,-134.59 284.78,-154.51 312,-166.5 320.67,-170.32 330.19,-173.41 339.62,-175.9"/>
<polygon fill="midnightblue" stroke="midnightblue" points="240.28,-116.39 230.33,-112.75 235.84,-121.8 240.28,-116.39"/>
</g>
<!-- Node4 -->
<g id="node4" class="node">
<title>Node4</title>
<g id="a_node4"><a xlink:href="classhdtree_1_1Branch.html" target="_top" xlink:title=" ">
<polygon fill="none" stroke="black" points="340.5,-126.5 340.5,-156.5 454.5,-156.5 454.5,-126.5 340.5,-126.5"/>
<text text-anchor="start" x="348.5" y="-144.5" font-family="Helvetica,sans-Serif" font-size="10.00">hdtree::Branch&lt; std</text>
<text text-anchor="middle" x="397.5" y="-133.5" font-family="Helvetica,sans-Serif" font-size="10.00">::size_t &gt;</text>
</a>
</g>
</g>
<!-- Node1&#45;&gt;Node4 -->
<g id="edge3" class="edge">
<title>Node1&#45;&gt;Node4</title>
<path fill="none" stroke="midnightblue" d="M285.36,-114.85C303.63,-119.23 322.96,-123.87 340.3,-128.02"/>
<polygon fill="midnightblue" stroke="midnightblue" points="286.18,-111.45 275.64,-112.52 284.55,-118.25 286.18,-111.45"/>
</g>
<!-- Node5 -->
<g id="node5" class="node">
<title>Node5</title>
<g id="a_node5"><a xlink:href="classhdtree_1_1Branch.html" target="_top" xlink:title=" ">
<polygon fill="none" stroke="black" points="322,-88 322,-107 473,-107 473,-88 322,-88"/>
<text text-anchor="middle" x="397.5" y="-95" font-family="Helvetica,sans-Serif" font-size="10.00">hdtree::Branch&lt; KeyType &gt;</text>
</a>
</g>
</g>
<!-- Node1&#45;&gt;Node5 -->
<g id="edge4" class="edge">
<title>Node1&#45;&gt;Node5</title>
<path fill="none" stroke="midnightblue" d="M286.3,-97.5C298,-97.5 310.12,-97.5 321.85,-97.5"/>
<polygon fill="midnightblue" stroke="midnightblue" points="286.15,-94 276.15,-97.5 286.15,-101 286.15,-94"/>
</g>
<!-- Node6 -->
<g id="node6" class="node">
<title>Node6</title>
<g id="a_node6"><a xlink:href="classhdtree_1_1Branch.html" target="_top" xlink:title=" ">
<polygon fill="none" stroke="black" points="312,-50 312,-69 483,-69 483,-50 312,-50"/>
<text text-anchor="middle" x="397.5" y="-57" font-family="Helvetica,sans-Serif" font-size="10.00">hdtree::Branch&lt; ContentType &gt;</text>
</a>
</g>
</g>
<!-- Node1&#45;&gt;Node6 -->
<g id="edge5" class="edge">
<title>Node1&#45;&gt;Node6</title>
<path fill="none" stroke="midnightblue" d="M286.04,-82.37C307.83,-77.86 331.09,-73.05 350.62,-69"/>
<polygon fill="midnightblue" stroke="midnightblue" points="285.23,-78.97 276.15,-84.42 286.65,-85.82 285.23,-78.97"/>
</g>
<!-- Node7 -->
<g id="node7" class="node">
<title>Node7</title>
<g id="a_node7"><a xlink:href="classhdtree_1_1Branch.html" target="_top" xlink:title="General data set.">
<polygon fill="none" stroke="black" points="323.5,-0.5 323.5,-30.5 471.5,-30.5 471.5,-0.5 323.5,-0.5"/>
<text text-anchor="start" x="331.5" y="-18.5" font-family="Helvetica,sans-Serif" font-size="10.00">hdtree::Branch&lt; DataType,</text>
<text text-anchor="middle" x="397.5" y="-7.5" font-family="Helvetica,sans-Serif" font-size="10.00"> Enable &gt;</text>
</a>
</g>
</g>
<!-- Node1&#45;&gt;Node7 -->
<g id="edge6" class="edge">
<title>Node1&#45;&gt;Node7</title>
<path fill="none" stroke="midnightblue" d="M244.34,-76.91C263.34,-65.09 288.4,-50.62 312,-40.5 320.58,-36.82 329.86,-33.48 339.04,-30.52"/>
<polygon fill="midnightblue" stroke="midnightblue" points="242.39,-74.01 235.8,-82.3 246.12,-79.93 242.39,-74.01"/>
</g>
<!-- Node2 -->
<g id="node2" class="node">
<title>Node2</title>
<g id="a_node2"><a xlink:href="classhdtree_1_1BaseBranch.html" target="_top" xlink:title="Empty data base allowing recursion.">
<polygon fill="none" stroke="black" points="0,-88 0,-107 112,-107 112,-88 0,-88"/>
<text text-anchor="middle" x="56" y="-95" font-family="Helvetica,sans-Serif" font-size="10.00">hdtree::BaseBranch</text>
</a>
</g>
</g>
<!-- Node2&#45;&gt;Node1 -->
<g id="edge1" class="edge">
<title>Node2&#45;&gt;Node1</title>
<path fill="none" stroke="midnightblue" d="M122.34,-97.5C130.79,-97.5 139.43,-97.5 147.84,-97.5"/>
<polygon fill="midnightblue" stroke="midnightblue" points="122.16,-94 112.16,-97.5 122.16,-101 122.16,-94"/>
</g>
</g>
</svg>
