<?xml version="1.0" encoding="UTF-8" standalone="no"?>
<!DOCTYPE svg PUBLIC "-//W3C//DTD SVG 1.1//EN"
 "http://www.w3.org/Graphics/SVG/1.1/DTD/svg11.dtd">
<!-- Generated by graphviz version 2.43.0 (0)
 -->
<!-- Title: hdtree::Tree Pages: 1 -->
<svg width="726pt" height="165pt"
 viewBox="0.00 0.00 726.00 165.00" xmlns="http://www.w3.org/2000/svg" xmlns:xlink="http://www.w3.org/1999/xlink">
<g id="graph0" class="graph" transform="scale(1 1) rotate(0) translate(4 161)">
<title>hdtree::Tree</title>
<!-- Node1 -->
<g id="node1" class="node">
<title>Node1</title>
<g id="a_node1"><a xlink:title="A container for many branches.">
<polygon fill="#bfbfbf" stroke="black" points="644,-83 644,-102 718,-102 718,-83 644,-83"/>
<text text-anchor="middle" x="681" y="-90" font-family="Helvetica,sans-Serif" font-size="10.00">hdtree::Tree</text>
</a>
</g>
</g>
<!-- Node2 -->
<g id="node2" class="node">
<title>Node2</title>
<g id="a_node2"><a xlink:title=" ">
<polygon fill="none" stroke="#bfbfbf" points="390.5,-126.5 390.5,-156.5 522.5,-156.5 522.5,-126.5 390.5,-126.5"/>
<text text-anchor="start" x="398.5" y="-144.5" font-family="Helvetica,sans-Serif" font-size="10.00">std::unique_ptr&lt; hdtree</text>
<text text-anchor="middle" x="456.5" y="-133.5" font-family="Helvetica,sans-Serif" font-size="10.00">::Writer &gt;</text>
</a>
</g>
</g>
<!-- Node2&#45;&gt;Node1 -->
<g id="edge1" class="edge">
<title>Node2&#45;&gt;Node1</title>
<path fill="none" stroke="#9a32cd" stroke-dasharray="5,2" d="M532.69,-127.53C561.92,-121.78 595.62,-114.77 626,-107.5 632.91,-105.85 640.27,-103.92 647.26,-102"/>
<polygon fill="#9a32cd" stroke="#9a32cd" points="531.7,-124.16 522.55,-129.51 533.04,-131.03 531.7,-124.16"/>
<text text-anchor="middle" x="599.5" y="-121.5" font-family="Helvetica,sans-Serif" font-size="10.00"> writer_</text>
</g>
<!-- Node3 -->
<g id="node3" class="node">
<title>Node3</title>
<g id="a_node3"><a xlink:title=" ">
<polygon fill="none" stroke="#bfbfbf" points="390.5,-77.5 390.5,-107.5 522.5,-107.5 522.5,-77.5 390.5,-77.5"/>
<text text-anchor="start" x="398.5" y="-95.5" font-family="Helvetica,sans-Serif" font-size="10.00">std::unique_ptr&lt; hdtree</text>
<text text-anchor="middle" x="456.5" y="-84.5" font-family="Helvetica,sans-Serif" font-size="10.00">::Reader &gt;</text>
</a>
</g>
</g>
<!-- Node3&#45;&gt;Node1 -->
<g id="edge2" class="edge">
<title>Node3&#45;&gt;Node1</title>
<path fill="none" stroke="#9a32cd" stroke-dasharray="5,2" d="M533.13,-92.5C570.53,-92.5 613.94,-92.5 643.81,-92.5"/>
<polygon fill="#9a32cd" stroke="#9a32cd" points="532.75,-89 522.75,-92.5 532.75,-96 532.75,-89"/>
<text text-anchor="middle" x="599.5" y="-95.5" font-family="Helvetica,sans-Serif" font-size="10.00"> reader_</text>
</g>
<!-- Node4 -->
<g id="node4" class="node">
<title>Node4</title>
<g id="a_node4"><a xlink:title=" ">
<polygon fill="none" stroke="#bfbfbf" points="358,-17 358,-58 555,-58 555,-17 358,-17"/>
<text text-anchor="start" x="366" y="-46" font-family="Helvetica,sans-Serif" font-size="10.00">std::unordered_map</text>
<text text-anchor="start" x="366" y="-35" font-family="Helvetica,sans-Serif" font-size="10.00">&lt; std::string, std::</text>
<text text-anchor="middle" x="456.5" y="-24" font-family="Helvetica,sans-Serif" font-size="10.00">unique_ptr&lt; hdtree::BaseBranch &gt; &gt;</text>
</a>
</g>
</g>
<!-- Node4&#45;&gt;Node1 -->
<g id="edge3" class="edge">
<title>Node4&#45;&gt;Node1</title>
<path fill="none" stroke="#9a32cd" stroke-dasharray="5,2" d="M556.86,-60.43C579.62,-65.86 603.68,-71.75 626,-77.5 632.6,-79.2 639.62,-81.09 646.35,-82.94"/>
<polygon fill="#9a32cd" stroke="#9a32cd" points="557.39,-56.96 546.85,-58.05 555.77,-63.77 557.39,-56.96"/>
<text text-anchor="middle" x="599.5" y="-80.5" font-family="Helvetica,sans-Serif" font-size="10.00"> branches_</text>
</g>
<!-- Node5 -->
<g id="node5" class="node">
<title>Node5</title>
<g id="a_node5"><a xlink:title=" ">
<polygon fill="none" stroke="#bfbfbf" points="141,-44.5 141,-74.5 273,-74.5 273,-44.5 141,-44.5"/>
<text text-anchor="start" x="149" y="-62.5" font-family="Helvetica,sans-Serif" font-size="10.00">std::unique_ptr&lt; hdtree</text>
<text text-anchor="middle" x="207" y="-51.5" font-family="Helvetica,sans-Serif" font-size="10.00">::BaseBranch &gt;</text>
</a>
</g>
</g>
<!-- Node5&#45;&gt;Node4 -->
<g id="edge4" class="edge">
<title>Node5&#45;&gt;Node4</title>
<path fill="none" stroke="#9a32cd" stroke-dasharray="5,2" d="M283.26,-52.81C306.76,-50.72 333.02,-48.39 357.82,-46.18"/>
<polygon fill="#9a32cd" stroke="#9a32cd" points="282.68,-49.35 273.03,-53.72 283.3,-56.32 282.68,-49.35"/>
<text text-anchor="middle" x="315.5" y="-54.5" font-family="Helvetica,sans-Serif" font-size="10.00"> elements</text>
</g>
<!-- Node6 -->
<g id="node6" class="node">
<title>Node6</title>
<g id="a_node6"><a xlink:title=" ">
<polygon fill="none" stroke="#bfbfbf" points="174.5,-6 174.5,-25 239.5,-25 239.5,-6 174.5,-6"/>
<text text-anchor="middle" x="207" y="-13" font-family="Helvetica,sans-Serif" font-size="10.00">std::string</text>
</a>
</g>
</g>
<!-- Node6&#45;&gt;Node4 -->
<g id="edge5" class="edge">
<title>Node6&#45;&gt;Node4</title>
<path fill="none" stroke="#9a32cd" stroke-dasharray="5,2" d="M249.57,-19.19C279.17,-21.83 320.22,-25.48 357.89,-28.82"/>
<polygon fill="#9a32cd" stroke="#9a32cd" points="249.87,-15.71 239.6,-18.31 249.25,-22.68 249.87,-15.71"/>
<text text-anchor="middle" x="315.5" y="-30.5" font-family="Helvetica,sans-Serif" font-size="10.00"> keys</text>
</g>
<!-- Node7 -->
<g id="node7" class="node">
<title>Node7</title>
<g id="a_node7"><a xlink:title=" ">
<polygon fill="none" stroke="#bfbfbf" points="0,-0.5 0,-30.5 104,-30.5 104,-0.5 0,-0.5"/>
<text text-anchor="start" x="8" y="-18.5" font-family="Helvetica,sans-Serif" font-size="10.00">std::basic_string&lt;</text>
<text text-anchor="middle" x="52" y="-7.5" font-family="Helvetica,sans-Serif" font-size="10.00"> Char &gt;</text>
</a>
</g>
</g>
<!-- Node7&#45;&gt;Node6 -->
<g id="edge6" class="edge">
<title>Node7&#45;&gt;Node6</title>
<path fill="none" stroke="midnightblue" d="M114.57,-15.5C135,-15.5 156.91,-15.5 174.15,-15.5"/>
<polygon fill="midnightblue" stroke="midnightblue" points="114.37,-12 104.37,-15.5 114.37,-19 114.37,-12"/>
</g>
</g>
</svg>
