<?xml version="1.0" encoding="UTF-8" standalone="no"?>
<!DOCTYPE svg PUBLIC "-//W3C//DTD SVG 1.1//EN"
 "http://www.w3.org/Graphics/SVG/1.1/DTD/svg11.dtd">
<!-- Generated by graphviz version 2.43.0 (0)
 -->
<!-- Title: include/hdtree/Atomic.h Pages: 1 -->
<svg width="209pt" height="252pt"
 viewBox="0.00 0.00 209.00 252.00" xmlns="http://www.w3.org/2000/svg" xmlns:xlink="http://www.w3.org/1999/xlink">
<g id="graph0" class="graph" transform="scale(1 1) rotate(0) translate(4 248)">
<title>include/hdtree/Atomic.h</title>
<!-- Node1 -->
<g id="node1" class="node">
<title>Node1</title>
<g id="a_node1"><a xlink:title=" ">
<polygon fill="#bfbfbf" stroke="black" points="42,-224.5 42,-243.5 161,-243.5 161,-224.5 42,-224.5"/>
<text text-anchor="middle" x="101.5" y="-231.5" font-family="Helvetica,sans-Serif" font-size="10.00">include/hdtree/Atomic.h</text>
</a>
</g>
</g>
<!-- Node2 -->
<g id="node2" class="node">
<title>Node2</title>
<g id="a_node2"><a xlink:href="Reader_8h_source.html" target="_top" xlink:title=" ">
<polygon fill="none" stroke="black" points="0,-112.5 0,-131.5 119,-131.5 119,-112.5 0,-112.5"/>
<text text-anchor="middle" x="59.5" y="-119.5" font-family="Helvetica,sans-Serif" font-size="10.00">include/hdtree/Reader.h</text>
</a>
</g>
</g>
<!-- Node1&#45;&gt;Node2 -->
<g id="edge1" class="edge">
<title>Node1&#45;&gt;Node2</title>
<path fill="none" stroke="midnightblue" d="M92.04,-215.28C87.89,-207.11 83.14,-197.2 79.5,-188 71.68,-168.24 64.97,-144.13 61.67,-131.56"/>
<polygon fill="midnightblue" stroke="midnightblue" points="88.97,-216.97 96.7,-224.22 95.18,-213.73 88.97,-216.97"/>
</g>
<!-- Node5 -->
<g id="node5" class="node">
<title>Node5</title>
<g id="a_node5"><a xlink:href="Writer_8h_source.html" target="_top" xlink:title=" ">
<polygon fill="none" stroke="black" points="88,-168.5 88,-187.5 201,-187.5 201,-168.5 88,-168.5"/>
<text text-anchor="middle" x="144.5" y="-175.5" font-family="Helvetica,sans-Serif" font-size="10.00">include/hdtree/Writer.h</text>
</a>
</g>
</g>
<!-- Node1&#45;&gt;Node5 -->
<g id="edge4" class="edge">
<title>Node1&#45;&gt;Node5</title>
<path fill="none" stroke="midnightblue" d="M114.92,-216.14C122.41,-206.74 131.44,-195.4 137.53,-187.75"/>
<polygon fill="midnightblue" stroke="midnightblue" points="112.09,-214.08 108.6,-224.08 117.57,-218.44 112.09,-214.08"/>
</g>
<!-- Node3 -->
<g id="node3" class="node">
<title>Node3</title>
<g id="a_node3"><a xlink:href="Branch_8h.html" target="_top" xlink:title="Common include for users interacting with Branches.">
<polygon fill="none" stroke="black" points="44,-56.5 44,-75.5 163,-75.5 163,-56.5 44,-56.5"/>
<text text-anchor="middle" x="103.5" y="-63.5" font-family="Helvetica,sans-Serif" font-size="10.00">include/hdtree/Branch.h</text>
</a>
</g>
</g>
<!-- Node2&#45;&gt;Node3 -->
<g id="edge2" class="edge">
<title>Node2&#45;&gt;Node3</title>
<path fill="none" stroke="midnightblue" d="M73.23,-104.14C80.9,-94.74 90.13,-83.4 96.37,-75.75"/>
<polygon fill="midnightblue" stroke="midnightblue" points="70.37,-102.12 66.77,-112.08 75.8,-106.54 70.37,-102.12"/>
</g>
<!-- Node4 -->
<g id="node4" class="node">
<title>Node4</title>
<g id="a_node4"><a xlink:href="Tree_8h_source.html" target="_top" xlink:title=" ">
<polygon fill="none" stroke="black" points="49.5,-0.5 49.5,-19.5 157.5,-19.5 157.5,-0.5 49.5,-0.5"/>
<text text-anchor="middle" x="103.5" y="-7.5" font-family="Helvetica,sans-Serif" font-size="10.00">include/hdtree/Tree.h</text>
</a>
</g>
</g>
<!-- Node3&#45;&gt;Node4 -->
<g id="edge3" class="edge">
<title>Node3&#45;&gt;Node4</title>
<path fill="none" stroke="midnightblue" d="M103.5,-45.8C103.5,-36.91 103.5,-26.78 103.5,-19.75"/>
<polygon fill="midnightblue" stroke="midnightblue" points="100,-46.08 103.5,-56.08 107,-46.08 100,-46.08"/>
</g>
<!-- Node5&#45;&gt;Node2 -->
<g id="edge6" class="edge">
<title>Node5&#45;&gt;Node2</title>
<path fill="none" stroke="midnightblue" d="M122.31,-162.9C106.72,-153 86.37,-140.07 73.12,-131.65"/>
<polygon fill="midnightblue" stroke="midnightblue" points="120.53,-165.92 130.84,-168.32 124.28,-160.01 120.53,-165.92"/>
</g>
<!-- Node5&#45;&gt;Node3 -->
<g id="edge5" class="edge">
<title>Node5&#45;&gt;Node3</title>
<path fill="none" stroke="midnightblue" d="M141.24,-158.16C138.63,-144.96 134.41,-127.06 128.5,-112 123.27,-98.69 114.81,-84.44 109.2,-75.62"/>
<polygon fill="midnightblue" stroke="midnightblue" points="137.87,-159.17 143.13,-168.36 144.75,-157.89 137.87,-159.17"/>
</g>
</g>
</svg>
