<?xml version="1.0" encoding="UTF-8" standalone="no"?>
<!DOCTYPE svg PUBLIC "-//W3C//DTD SVG 1.1//EN"
 "http://www.w3.org/Graphics/SVG/1.1/DTD/svg11.dtd">
<!-- Generated by graphviz version 2.43.0 (0)
 -->
<!-- Title: include/hdtree/Branch.h Pages: 1 -->
<svg width="1288pt" height="252pt"
 viewBox="0.00 0.00 1287.50 252.00" xmlns="http://www.w3.org/2000/svg" xmlns:xlink="http://www.w3.org/1999/xlink">
<g id="graph0" class="graph" transform="scale(1 1) rotate(0) translate(4 248)">
<title>include/hdtree/Branch.h</title>
<!-- Node1 -->
<g id="node1" class="node">
<title>Node1</title>
<g id="a_node1"><a xlink:title="Common include for users interacting with Branches.">
<polygon fill="#bfbfbf" stroke="black" points="434,-224.5 434,-243.5 553,-243.5 553,-224.5 434,-224.5"/>
<text text-anchor="middle" x="493.5" y="-231.5" font-family="Helvetica,sans-Serif" font-size="10.00">include/hdtree/Branch.h</text>
</a>
</g>
</g>
<!-- Node2 -->
<g id="node2" class="node">
<title>Node2</title>
<g id="a_node2"><a xlink:title=" ">
<polygon fill="none" stroke="#bfbfbf" points="0,-168.5 0,-187.5 59,-187.5 59,-168.5 0,-168.5"/>
<text text-anchor="middle" x="29.5" y="-175.5" font-family="Helvetica,sans-Serif" font-size="10.00">exception</text>
</a>
</g>
</g>
<!-- Node1&#45;&gt;Node2 -->
<g id="edge1" class="edge">
<title>Node1&#45;&gt;Node2</title>
<path fill="none" stroke="midnightblue" d="M433.91,-229.11C353.25,-223.31 204.74,-210.76 69.43,-188.15"/>
<polygon fill="midnightblue" stroke="midnightblue" points="69.74,-184.66 59.3,-186.44 68.57,-191.56 69.74,-184.66"/>
</g>
<!-- Node3 -->
<g id="node3" class="node">
<title>Node3</title>
<g id="a_node3"><a xlink:title=" ">
<polygon fill="none" stroke="#bfbfbf" points="77,-168.5 77,-187.5 112,-187.5 112,-168.5 77,-168.5"/>
<text text-anchor="middle" x="94.5" y="-175.5" font-family="Helvetica,sans-Serif" font-size="10.00">map</text>
</a>
</g>
</g>
<!-- Node1&#45;&gt;Node3 -->
<g id="edge2" class="edge">
<title>Node1&#45;&gt;Node3</title>
<path fill="none" stroke="midnightblue" d="M433.92,-229.5C362.03,-224.46 237.5,-213.1 122.14,-187.68"/>
<polygon fill="midnightblue" stroke="midnightblue" points="122.6,-184.2 112.07,-185.42 121.07,-191.03 122.6,-184.2"/>
</g>
<!-- Node4 -->
<g id="node4" class="node">
<title>Node4</title>
<g id="a_node4"><a xlink:title=" ">
<polygon fill="none" stroke="#bfbfbf" points="130.5,-168.5 130.5,-187.5 182.5,-187.5 182.5,-168.5 130.5,-168.5"/>
<text text-anchor="middle" x="156.5" y="-175.5" font-family="Helvetica,sans-Serif" font-size="10.00">memory</text>
</a>
</g>
</g>
<!-- Node1&#45;&gt;Node4 -->
<g id="edge3" class="edge">
<title>Node1&#45;&gt;Node4</title>
<path fill="none" stroke="midnightblue" d="M433.84,-225.23C373.72,-217.1 278.38,-203.39 196.5,-188 195.24,-187.76 193.96,-187.52 192.67,-187.26"/>
<polygon fill="midnightblue" stroke="midnightblue" points="193.2,-183.79 182.69,-185.17 191.77,-190.65 193.2,-183.79"/>
</g>
<!-- Node5 -->
<g id="node5" class="node">
<title>Node5</title>
<g id="a_node5"><a xlink:title=" ">
<polygon fill="none" stroke="#bfbfbf" points="200.5,-0.5 200.5,-19.5 262.5,-19.5 262.5,-0.5 200.5,-0.5"/>
<text text-anchor="middle" x="231.5" y="-7.5" font-family="Helvetica,sans-Serif" font-size="10.00">type_traits</text>
</a>
</g>
</g>
<!-- Node1&#45;&gt;Node5 -->
<g id="edge4" class="edge">
<title>Node1&#45;&gt;Node5</title>
<path fill="none" stroke="midnightblue" d="M433.93,-228.46C392.42,-223.25 336.94,-212.05 293.5,-188 232.19,-154.06 209.17,-140.81 182.5,-76 174.48,-56.53 192.41,-37.7 208.78,-25.36"/>
<polygon fill="midnightblue" stroke="midnightblue" points="210.9,-28.15 217.06,-19.54 206.87,-22.43 210.9,-28.15"/>
</g>
<!-- Node6 -->
<g id="node6" class="node">
<title>Node6</title>
<g id="a_node6"><a xlink:title=" ">
<polygon fill="none" stroke="#bfbfbf" points="578.5,-168.5 578.5,-187.5 622.5,-187.5 622.5,-168.5 578.5,-168.5"/>
<text text-anchor="middle" x="600.5" y="-175.5" font-family="Helvetica,sans-Serif" font-size="10.00">vector</text>
</a>
</g>
</g>
<!-- Node1&#45;&gt;Node6 -->
<g id="edge5" class="edge">
<title>Node1&#45;&gt;Node6</title>
<path fill="none" stroke="midnightblue" d="M510.69,-224.32C527.85,-215.66 554.45,-202.24 574.25,-192.25"/>
<polygon fill="midnightblue" stroke="midnightblue" points="576,-195.28 583.35,-187.65 572.85,-189.04 576,-195.28"/>
</g>
<!-- Node7 -->
<g id="node7" class="node">
<title>Node7</title>
<g id="a_node7"><a xlink:href="AbstractBranch_8h_source.html" target="_top" xlink:title=" ">
<polygon fill="none" stroke="black" points="747.5,-112.5 747.5,-131.5 869.5,-131.5 869.5,-112.5 747.5,-112.5"/>
<text text-anchor="middle" x="808.5" y="-119.5" font-family="Helvetica,sans-Serif" font-size="10.00">hdtree/AbstractBranch.h</text>
</a>
</g>
</g>
<!-- Node1&#45;&gt;Node7 -->
<g id="edge6" class="edge">
<title>Node1&#45;&gt;Node7</title>
<path fill="none" stroke="midnightblue" d="M496.65,-224.15C502.25,-209.8 515.38,-181.69 536.5,-168 568.85,-147.03 668.17,-134.63 737.39,-128.32"/>
<polygon fill="midnightblue" stroke="midnightblue" points="737.72,-131.81 747.37,-127.44 737.1,-124.84 737.72,-131.81"/>
</g>
<!-- Node14 -->
<g id="node14" class="node">
<title>Node14</title>
<g id="a_node14"><a xlink:href="Access_8h_source.html" target="_top" xlink:title=" ">
<polygon fill="none" stroke="black" points="983.5,-112.5 983.5,-131.5 1071.5,-131.5 1071.5,-112.5 983.5,-112.5"/>
<text text-anchor="middle" x="1027.5" y="-119.5" font-family="Helvetica,sans-Serif" font-size="10.00">hdtree/Access.h</text>
</a>
</g>
</g>
<!-- Node1&#45;&gt;Node14 -->
<g id="edge14" class="edge">
<title>Node1&#45;&gt;Node14</title>
<path fill="none" stroke="midnightblue" d="M500.38,-224.39C512.56,-209.85 539.47,-180.79 569.5,-168 605.85,-152.51 859.51,-134.09 972.93,-126.52"/>
<polygon fill="midnightblue" stroke="midnightblue" points="973.38,-129.99 983.13,-125.84 972.92,-123.01 973.38,-129.99"/>
</g>
<!-- Node15 -->
<g id="node15" class="node">
<title>Node15</title>
<g id="a_node15"><a xlink:href="Constants_8h.html" target="_top" xlink:title="Definitions for names of structures required by serialization methods.">
<polygon fill="none" stroke="black" points="473.5,-56.5 473.5,-75.5 573.5,-75.5 573.5,-56.5 473.5,-56.5"/>
<text text-anchor="middle" x="523.5" y="-63.5" font-family="Helvetica,sans-Serif" font-size="10.00">hdtree/Constants.h</text>
</a>
</g>
</g>
<!-- Node1&#45;&gt;Node15 -->
<g id="edge16" class="edge">
<title>Node1&#45;&gt;Node15</title>
<path fill="none" stroke="midnightblue" d="M495.11,-224.08C499.84,-197.95 513.7,-121.21 520.14,-85.58"/>
<polygon fill="midnightblue" stroke="midnightblue" points="523.62,-86.03 521.95,-75.57 516.73,-84.79 523.62,-86.03"/>
</g>
<!-- Node16 -->
<g id="node16" class="node">
<title>Node16</title>
<g id="a_node16"><a xlink:href="Reader_8h_source.html" target="_top" xlink:title=" ">
<polygon fill="none" stroke="black" points="302.5,-168.5 302.5,-187.5 388.5,-187.5 388.5,-168.5 302.5,-168.5"/>
<text text-anchor="middle" x="345.5" y="-175.5" font-family="Helvetica,sans-Serif" font-size="10.00">hdtree/Reader.h</text>
</a>
</g>
</g>
<!-- Node1&#45;&gt;Node16 -->
<g id="edge18" class="edge">
<title>Node1&#45;&gt;Node16</title>
<path fill="none" stroke="midnightblue" d="M470.05,-224.44C445.37,-215.44 406.31,-201.19 378.52,-191.05"/>
<polygon fill="midnightblue" stroke="midnightblue" points="379.44,-187.66 368.84,-187.52 377.04,-194.23 379.44,-187.66"/>
</g>
<!-- Node21 -->
<g id="node21" class="node">
<title>Node21</title>
<g id="a_node21"><a xlink:href="Writer_8h_source.html" target="_top" xlink:title=" ">
<polygon fill="none" stroke="black" points="369.5,-112.5 369.5,-131.5 449.5,-131.5 449.5,-112.5 369.5,-112.5"/>
<text text-anchor="middle" x="409.5" y="-119.5" font-family="Helvetica,sans-Serif" font-size="10.00">hdtree/Writer.h</text>
</a>
</g>
</g>
<!-- Node1&#45;&gt;Node21 -->
<g id="edge31" class="edge">
<title>Node1&#45;&gt;Node21</title>
<path fill="none" stroke="midnightblue" d="M486.91,-224.37C472.98,-206.14 440.37,-163.43 422.23,-139.68"/>
<polygon fill="midnightblue" stroke="midnightblue" points="424.91,-137.41 416.06,-131.59 419.35,-141.66 424.91,-137.41"/>
</g>
<!-- Node22 -->
<g id="node22" class="node">
<title>Node22</title>
<g id="a_node22"><a xlink:href="GeneralBranch_8h_source.html" target="_top" xlink:title=" ">
<polygon fill="none" stroke="black" points="640.5,-168.5 640.5,-187.5 792.5,-187.5 792.5,-168.5 640.5,-168.5"/>
<text text-anchor="middle" x="716.5" y="-175.5" font-family="Helvetica,sans-Serif" font-size="10.00">hdtree/branch/GeneralBranch.h</text>
</a>
</g>
</g>
<!-- Node1&#45;&gt;Node22 -->
<g id="edge32" class="edge">
<title>Node1&#45;&gt;Node22</title>
<path fill="none" stroke="midnightblue" d="M528.84,-224.44C567.41,-215.1 629.28,-200.12 671.35,-189.93"/>
<polygon fill="midnightblue" stroke="midnightblue" points="672.43,-193.27 681.33,-187.52 670.79,-186.47 672.43,-193.27"/>
</g>
<!-- Node23 -->
<g id="node23" class="node">
<title>Node23</title>
<g id="a_node23"><a xlink:href="AtomicBranch_8h_source.html" target="_top" xlink:title=" ">
<polygon fill="none" stroke="black" points="811,-168.5 811,-187.5 960,-187.5 960,-168.5 811,-168.5"/>
<text text-anchor="middle" x="885.5" y="-175.5" font-family="Helvetica,sans-Serif" font-size="10.00">hdtree/branch/AtomicBranch.h</text>
</a>
</g>
</g>
<!-- Node1&#45;&gt;Node23 -->
<g id="edge33" class="edge">
<title>Node1&#45;&gt;Node23</title>
<path fill="none" stroke="midnightblue" d="M553.04,-224.8C622.89,-215.18 738.66,-199.23 813.5,-188.92"/>
<polygon fill="midnightblue" stroke="midnightblue" points="814.35,-192.33 823.78,-187.5 813.4,-185.4 814.35,-192.33"/>
</g>
<!-- Node24 -->
<g id="node24" class="node">
<title>Node24</title>
<g id="a_node24"><a xlink:href="MapBranch_8h_source.html" target="_top" xlink:title=" ">
<polygon fill="none" stroke="black" points="978,-168.5 978,-187.5 1115,-187.5 1115,-168.5 978,-168.5"/>
<text text-anchor="middle" x="1046.5" y="-175.5" font-family="Helvetica,sans-Serif" font-size="10.00">hdtree/branch/MapBranch.h</text>
</a>
</g>
</g>
<!-- Node1&#45;&gt;Node24 -->
<g id="edge34" class="edge">
<title>Node1&#45;&gt;Node24</title>
<path fill="none" stroke="midnightblue" d="M553.28,-227.78C641.58,-219.96 812.34,-204.5 967.47,-188.2"/>
<polygon fill="midnightblue" stroke="midnightblue" points="968.08,-191.65 977.66,-187.12 967.35,-184.69 968.08,-191.65"/>
</g>
<!-- Node25 -->
<g id="node25" class="node">
<title>Node25</title>
<g id="a_node25"><a xlink:href="VectorBranch_8h_source.html" target="_top" xlink:title=" ">
<polygon fill="none" stroke="black" points="1133.5,-168.5 1133.5,-187.5 1279.5,-187.5 1279.5,-168.5 1133.5,-168.5"/>
<text text-anchor="middle" x="1206.5" y="-175.5" font-family="Helvetica,sans-Serif" font-size="10.00">hdtree/branch/VectorBranch.h</text>
</a>
</g>
</g>
<!-- Node1&#45;&gt;Node25 -->
<g id="edge35" class="edge">
<title>Node1&#45;&gt;Node25</title>
<path fill="none" stroke="midnightblue" d="M553.15,-229.51C663.46,-222.88 907,-207.47 1122.94,-188.11"/>
<polygon fill="midnightblue" stroke="midnightblue" points="1123.55,-191.57 1133.2,-187.19 1122.92,-184.6 1123.55,-191.57"/>
</g>
<!-- Node8 -->
<g id="node8" class="node">
<title>Node8</title>
<g id="a_node8"><a xlink:title=" ">
<polygon fill="none" stroke="#bfbfbf" points="591.5,-56.5 591.5,-75.5 717.5,-75.5 717.5,-56.5 591.5,-56.5"/>
<text text-anchor="middle" x="654.5" y="-63.5" font-family="Helvetica,sans-Serif" font-size="10.00">boost/core/demangle.hpp</text>
</a>
</g>
</g>
<!-- Node7&#45;&gt;Node8 -->
<g id="edge7" class="edge">
<title>Node7&#45;&gt;Node8</title>
<path fill="none" stroke="midnightblue" d="M784.1,-112.44C758.3,-103.4 717.42,-89.06 688.48,-78.92"/>
<polygon fill="midnightblue" stroke="midnightblue" points="689.38,-75.52 678.79,-75.52 687.07,-82.13 689.38,-75.52"/>
</g>
<!-- Node9 -->
<g id="node9" class="node">
<title>Node9</title>
<g id="a_node9"><a xlink:title=" ">
<polygon fill="none" stroke="#bfbfbf" points="935.5,-56.5 935.5,-75.5 975.5,-75.5 975.5,-56.5 935.5,-56.5"/>
<text text-anchor="middle" x="955.5" y="-63.5" font-family="Helvetica,sans-Serif" font-size="10.00">limits</text>
</a>
</g>
</g>
<!-- Node7&#45;&gt;Node9 -->
<g id="edge8" class="edge">
<title>Node7&#45;&gt;Node9</title>
<path fill="none" stroke="midnightblue" d="M831.79,-112.44C857.17,-103.12 897.85,-88.18 925.58,-77.99"/>
<polygon fill="midnightblue" stroke="midnightblue" points="926.98,-81.21 935.16,-74.47 924.56,-74.64 926.98,-81.21"/>
</g>
<!-- Node10 -->
<g id="node10" class="node">
<title>Node10</title>
<g id="a_node10"><a xlink:title=" ">
<polygon fill="none" stroke="#bfbfbf" points="735.5,-56.5 735.5,-75.5 785.5,-75.5 785.5,-56.5 735.5,-56.5"/>
<text text-anchor="middle" x="760.5" y="-63.5" font-family="Helvetica,sans-Serif" font-size="10.00">optional</text>
</a>
</g>
</g>
<!-- Node7&#45;&gt;Node10 -->
<g id="edge9" class="edge">
<title>Node7&#45;&gt;Node10</title>
<path fill="none" stroke="midnightblue" d="M800.57,-112.08C793.65,-104.3 783.43,-92.8 775.05,-83.37"/>
<polygon fill="midnightblue" stroke="midnightblue" points="777.54,-80.9 768.28,-75.75 772.31,-85.55 777.54,-80.9"/>
</g>
<!-- Node11 -->
<g id="node11" class="node">
<title>Node11</title>
<g id="a_node11"><a xlink:title=" ">
<polygon fill="none" stroke="#bfbfbf" points="983,-0.5 983,-19.5 1024,-19.5 1024,-0.5 983,-0.5"/>
<text text-anchor="middle" x="1003.5" y="-7.5" font-family="Helvetica,sans-Serif" font-size="10.00">string</text>
</a>
</g>
</g>
<!-- Node7&#45;&gt;Node11 -->
<g id="edge10" class="edge">
<title>Node7&#45;&gt;Node11</title>
<path fill="none" stroke="midnightblue" d="M869.61,-120.09C907.31,-116.32 954.11,-105.37 984.5,-76 996.91,-64.01 1001.33,-44.4 1002.85,-29.85"/>
<polygon fill="midnightblue" stroke="midnightblue" points="1006.37,-29.72 1003.54,-19.51 999.38,-29.26 1006.37,-29.72"/>
</g>
<!-- Node12 -->
<g id="node12" class="node">
<title>Node12</title>
<g id="a_node12"><a xlink:href="ClassVersion_8h.html" target="_top" xlink:title="Serialization class version deduction.">
<polygon fill="none" stroke="black" points="804,-56.5 804,-75.5 917,-75.5 917,-56.5 804,-56.5"/>
<text text-anchor="middle" x="860.5" y="-63.5" font-family="Helvetica,sans-Serif" font-size="10.00">hdtree/ClassVersion.h</text>
</a>
</g>
</g>
<!-- Node7&#45;&gt;Node12 -->
<g id="edge11" class="edge">
<title>Node7&#45;&gt;Node12</title>
<path fill="none" stroke="midnightblue" d="M817.09,-112.08C824.66,-104.22 835.88,-92.57 845.01,-83.08"/>
<polygon fill="midnightblue" stroke="midnightblue" points="847.66,-85.38 852.07,-75.75 842.62,-80.53 847.66,-85.38"/>
</g>
<!-- Node13 -->
<g id="node13" class="node">
<title>Node13</title>
<g id="a_node13"><a xlink:href="Version_8h.html" target="_top" xlink:title=" ">
<polygon fill="none" stroke="black" points="1031.5,-56.5 1031.5,-75.5 1119.5,-75.5 1119.5,-56.5 1031.5,-56.5"/>
<text text-anchor="middle" x="1075.5" y="-63.5" font-family="Helvetica,sans-Serif" font-size="10.00">hdtree/Version.h</text>
</a>
</g>
</g>
<!-- Node7&#45;&gt;Node13 -->
<g id="edge12" class="edge">
<title>Node7&#45;&gt;Node13</title>
<path fill="none" stroke="midnightblue" d="M850.81,-112.44C897.58,-102.98 972.96,-87.74 1023.35,-77.55"/>
<polygon fill="midnightblue" stroke="midnightblue" points="1024.28,-80.93 1033.39,-75.52 1022.9,-74.07 1024.28,-80.93"/>
</g>
<!-- Node13&#45;&gt;Node11 -->
<g id="edge13" class="edge">
<title>Node13&#45;&gt;Node11</title>
<path fill="none" stroke="midnightblue" d="M1063.93,-56.32C1053.08,-48.18 1036.62,-35.84 1023.62,-26.09"/>
<polygon fill="midnightblue" stroke="midnightblue" points="1025.38,-23.03 1015.28,-19.83 1021.18,-28.63 1025.38,-23.03"/>
</g>
<!-- Node14&#45;&gt;Node13 -->
<g id="edge15" class="edge">
<title>Node14&#45;&gt;Node13</title>
<path fill="none" stroke="midnightblue" d="M1035.43,-112.08C1042.35,-104.3 1052.57,-92.8 1060.95,-83.37"/>
<polygon fill="midnightblue" stroke="midnightblue" points="1063.69,-85.55 1067.72,-75.75 1058.46,-80.9 1063.69,-85.55"/>
</g>
<!-- Node15&#45;&gt;Node11 -->
<g id="edge17" class="edge">
<title>Node15&#45;&gt;Node11</title>
<path fill="none" stroke="midnightblue" d="M573.69,-57.19C576.67,-56.77 579.62,-56.37 582.5,-56 728.15,-37.12 902.91,-20.3 972.61,-13.82"/>
<polygon fill="midnightblue" stroke="midnightblue" points="973.24,-17.28 982.87,-12.87 972.59,-10.31 973.24,-17.28"/>
</g>
<!-- Node16&#45;&gt;Node7 -->
<g id="edge21" class="edge">
<title>Node16&#45;&gt;Node7</title>
<path fill="none" stroke="midnightblue" d="M388.64,-171.97C468.43,-162.66 639.77,-142.68 737.1,-131.33"/>
<polygon fill="midnightblue" stroke="midnightblue" points="737.62,-134.79 747.15,-130.16 736.81,-127.84 737.62,-134.79"/>
</g>
<!-- Node17 -->
<g id="node17" class="node">
<title>Node17</title>
<g id="a_node17"><a xlink:title=" ">
<polygon fill="none" stroke="#bfbfbf" points="191.5,-56.5 191.5,-75.5 231.5,-75.5 231.5,-56.5 191.5,-56.5"/>
<text text-anchor="middle" x="211.5" y="-63.5" font-family="Helvetica,sans-Serif" font-size="10.00">utility</text>
</a>
</g>
</g>
<!-- Node16&#45;&gt;Node17 -->
<g id="edge19" class="edge">
<title>Node16&#45;&gt;Node17</title>
<path fill="none" stroke="midnightblue" d="M334.99,-168.37C312.28,-149.73 258.44,-105.53 229.94,-82.13"/>
<polygon fill="midnightblue" stroke="midnightblue" points="231.92,-79.23 221.97,-75.59 227.47,-84.64 231.92,-79.23"/>
</g>
<!-- Node18 -->
<g id="node18" class="node">
<title>Node18</title>
<g id="a_node18"><a xlink:title=" ">
<polygon fill="none" stroke="#bfbfbf" points="250,-56.5 250,-75.5 351,-75.5 351,-56.5 250,-56.5"/>
<text text-anchor="middle" x="300.5" y="-63.5" font-family="Helvetica,sans-Serif" font-size="10.00">highfive/H5File.hpp</text>
</a>
</g>
</g>
<!-- Node16&#45;&gt;Node18 -->
<g id="edge20" class="edge">
<title>Node16&#45;&gt;Node18</title>
<path fill="none" stroke="midnightblue" d="M341.97,-168.37C334.64,-150.46 317.65,-108.92 307.84,-84.95"/>
<polygon fill="midnightblue" stroke="midnightblue" points="311.04,-83.52 304.01,-75.59 304.56,-86.17 311.04,-83.52"/>
</g>
<!-- Node19 -->
<g id="node19" class="node">
<title>Node19</title>
<g id="a_node19"><a xlink:href="Atomic_8h.html" target="_top" xlink:title=" ">
<polygon fill="none" stroke="black" points="369.5,-56.5 369.5,-75.5 455.5,-75.5 455.5,-56.5 369.5,-56.5"/>
<text text-anchor="middle" x="412.5" y="-63.5" font-family="Helvetica,sans-Serif" font-size="10.00">hdtree/Atomic.h</text>
</a>
</g>
</g>
<!-- Node16&#45;&gt;Node19 -->
<g id="edge22" class="edge">
<title>Node16&#45;&gt;Node19</title>
<path fill="none" stroke="midnightblue" d="M345.81,-168.37C346.63,-155.29 349.62,-130.06 360.5,-112 367.81,-99.86 379.53,-89.3 389.99,-81.46"/>
<polygon fill="midnightblue" stroke="midnightblue" points="392.22,-84.18 398.36,-75.55 388.18,-78.46 392.22,-84.18"/>
</g>
<!-- Node16&#45;&gt;Node21 -->
<g id="edge25" class="edge">
<title>Node16&#45;&gt;Node21</title>
<path fill="none" stroke="midnightblue" d="M355.78,-168.32C365.34,-160.26 379.78,-148.08 391.28,-138.37"/>
<polygon fill="midnightblue" stroke="midnightblue" points="393.64,-140.96 399.03,-131.83 389.13,-135.61 393.64,-140.96"/>
</g>
<!-- Node19&#45;&gt;Node5 -->
<g id="edge24" class="edge">
<title>Node19&#45;&gt;Node5</title>
<path fill="none" stroke="midnightblue" d="M383.82,-56.44C352.97,-47.24 303.77,-32.56 269.67,-22.39"/>
<polygon fill="midnightblue" stroke="midnightblue" points="270.63,-19.02 260.05,-19.52 268.63,-25.73 270.63,-19.02"/>
</g>
<!-- Node20 -->
<g id="node20" class="node">
<title>Node20</title>
<g id="a_node20"><a xlink:title=" ">
<polygon fill="none" stroke="#bfbfbf" points="349,-0.5 349,-19.5 476,-19.5 476,-0.5 349,-0.5"/>
<text text-anchor="middle" x="412.5" y="-7.5" font-family="Helvetica,sans-Serif" font-size="10.00">highfive/H5DataType.hpp</text>
</a>
</g>
</g>
<!-- Node19&#45;&gt;Node20 -->
<g id="edge23" class="edge">
<title>Node19&#45;&gt;Node20</title>
<path fill="none" stroke="midnightblue" d="M412.5,-56.08C412.5,-49.01 412.5,-38.86 412.5,-29.99"/>
<polygon fill="midnightblue" stroke="midnightblue" points="416,-29.75 412.5,-19.75 409,-29.75 416,-29.75"/>
</g>
<!-- Node21&#45;&gt;Node8 -->
<g id="edge26" class="edge">
<title>Node21&#45;&gt;Node8</title>
<path fill="none" stroke="midnightblue" d="M448.32,-112.44C491.06,-103.02 559.83,-87.87 606.07,-77.68"/>
<polygon fill="midnightblue" stroke="midnightblue" points="606.85,-81.09 615.86,-75.52 605.34,-74.25 606.85,-81.09"/>
</g>
<!-- Node21&#45;&gt;Node15 -->
<g id="edge30" class="edge">
<title>Node21&#45;&gt;Node15</title>
<path fill="none" stroke="midnightblue" d="M427.56,-112.44C446.07,-103.68 475.08,-89.94 496.36,-79.86"/>
<polygon fill="midnightblue" stroke="midnightblue" points="497.98,-82.96 505.52,-75.52 494.99,-76.63 497.98,-82.96"/>
</g>
<!-- Node21&#45;&gt;Node17 -->
<g id="edge27" class="edge">
<title>Node21&#45;&gt;Node17</title>
<path fill="none" stroke="midnightblue" d="M375.72,-112.44C343.53,-104.18 293.48,-91.1 241.48,-76.2"/>
<polygon fill="midnightblue" stroke="midnightblue" points="242.33,-72.8 231.75,-73.4 240.39,-79.53 242.33,-72.8"/>
</g>
<!-- Node21&#45;&gt;Node18 -->
<g id="edge28" class="edge">
<title>Node21&#45;&gt;Node18</title>
<path fill="none" stroke="midnightblue" d="M391.99,-112.32C374.43,-103.62 347.17,-90.12 326.97,-80.11"/>
<polygon fill="midnightblue" stroke="midnightblue" points="328.48,-76.96 317.97,-75.65 325.38,-83.23 328.48,-76.96"/>
</g>
<!-- Node21&#45;&gt;Node19 -->
<g id="edge29" class="edge">
<title>Node21&#45;&gt;Node19</title>
<path fill="none" stroke="midnightblue" d="M410,-112.08C410.39,-105.01 410.95,-94.86 411.45,-85.99"/>
<polygon fill="midnightblue" stroke="midnightblue" points="414.95,-85.93 412.01,-75.75 407.96,-85.54 414.95,-85.93"/>
</g>
</g>
</svg>
