<?xml version="1.0" encoding="UTF-8" standalone="no"?>
<!DOCTYPE svg PUBLIC "-//W3C//DTD SVG 1.1//EN"
 "http://www.w3.org/Graphics/SVG/1.1/DTD/svg11.dtd">
<!-- Generated by graphviz version 2.43.0 (0)
 -->
<!-- Title: hdtree::Branch&lt; DataType, Enable &gt; Pages: 1 -->
<svg width="956pt" height="248pt"
 viewBox="0.00 0.00 956.00 248.00" xmlns="http://www.w3.org/2000/svg" xmlns:xlink="http://www.w3.org/1999/xlink">
<g id="graph0" class="graph" transform="scale(1 1) rotate(0) translate(4 244)">
<title>hdtree::Branch&lt; DataType, Enable &gt;</title>
<!-- Node1 -->
<g id="node1" class="node">
<title>Node1</title>
<g id="a_node1"><a xlink:title="General data set.">
<polygon fill="#bfbfbf" stroke="black" points="814,-90 814,-120 948,-120 948,-90 814,-90"/>
<text text-anchor="start" x="822" y="-108" font-family="Helvetica,sans-Serif" font-size="10.00">hdtree::Branch&lt; DataType,</text>
<text text-anchor="middle" x="881" y="-97" font-family="Helvetica,sans-Serif" font-size="10.00"> Enable &gt;</text>
</a>
</g>
</g>
<!-- Node2 -->
<g id="node2" class="node">
<title>Node2</title>
<g id="a_node2"><a xlink:href="classhdtree_1_1AbstractBranch.html" target="_top" xlink:title="Type&#45;specific base class to hold common data methods.">
<polygon fill="none" stroke="black" points="593,-90 593,-120 710,-120 710,-90 593,-90"/>
<text text-anchor="start" x="601" y="-108" font-family="Helvetica,sans-Serif" font-size="10.00">hdtree::AbstractBranch</text>
<text text-anchor="middle" x="651.5" y="-97" font-family="Helvetica,sans-Serif" font-size="10.00">&lt; DataType &gt;</text>
</a>
</g>
</g>
<!-- Node2&#45;&gt;Node1 -->
<g id="edge1" class="edge">
<title>Node2&#45;&gt;Node1</title>
<path fill="none" stroke="midnightblue" d="M720.44,-105C750.01,-105 784.54,-105 813.9,-105"/>
<polygon fill="midnightblue" stroke="midnightblue" points="720.2,-101.5 710.2,-105 720.2,-108.5 720.2,-101.5"/>
</g>
<!-- Node3 -->
<g id="node3" class="node">
<title>Node3</title>
<g id="a_node3"><a xlink:href="classhdtree_1_1BaseBranch.html" target="_top" xlink:title="Empty data base allowing recursion.">
<polygon fill="none" stroke="black" points="349,-110.5 349,-129.5 452,-129.5 452,-110.5 349,-110.5"/>
<text text-anchor="middle" x="400.5" y="-117.5" font-family="Helvetica,sans-Serif" font-size="10.00">hdtree::BaseBranch</text>
</a>
</g>
</g>
<!-- Node3&#45;&gt;Node2 -->
<g id="edge2" class="edge">
<title>Node3&#45;&gt;Node2</title>
<path fill="none" stroke="midnightblue" d="M462.3,-116.34C502.09,-113.94 553.78,-110.83 592.91,-108.47"/>
<polygon fill="midnightblue" stroke="midnightblue" points="461.96,-112.85 452.19,-116.95 462.38,-119.84 461.96,-112.85"/>
</g>
<!-- Node4 -->
<g id="node4" class="node">
<title>Node4</title>
<g id="a_node4"><a target="_parent" xlink:href="http://en.cppreference.com/w/cpp/string/basic_string.html" xlink:title=" ">
<polygon fill="none" stroke="black" points="163,-122.5 163,-141.5 223,-141.5 223,-122.5 163,-122.5"/>
<text text-anchor="middle" x="193" y="-129.5" font-family="Helvetica,sans-Serif" font-size="10.00">std::string</text>
</a>
</g>
</g>
<!-- Node4&#45;&gt;Node3 -->
<g id="edge3" class="edge">
<title>Node4&#45;&gt;Node3</title>
<path fill="none" stroke="#9a32cd" stroke-dasharray="5,2" d="M233.18,-125.44C245.56,-123.65 259.32,-121.94 272,-121 297.28,-119.13 325.45,-118.73 348.87,-118.86"/>
<polygon fill="#9a32cd" stroke="#9a32cd" points="232.53,-122 223.16,-126.95 233.57,-128.92 232.53,-122"/>
<text text-anchor="middle" x="293.5" y="-124" font-family="Helvetica,sans-Serif" font-size="10.00"> name_</text>
</g>
<!-- Node8 -->
<g id="node8" class="node">
<title>Node8</title>
<g id="a_node8"><a target="_parent" xlink:href="http://en.cppreference.com/w/cpp/container/unordered_map.html" xlink:title=" ">
<polygon fill="none" stroke="black" points="333,-149 333,-201 468,-201 468,-149 333,-149"/>
<text text-anchor="start" x="341" y="-189" font-family="Helvetica,sans-Serif" font-size="10.00">std::unordered_map</text>
<text text-anchor="start" x="341" y="-178" font-family="Helvetica,sans-Serif" font-size="10.00">&lt; std::string, std::</text>
<text text-anchor="start" x="341" y="-167" font-family="Helvetica,sans-Serif" font-size="10.00">unique_ptr&lt; hdtree::Reader</text>
<text text-anchor="middle" x="400.5" y="-156" font-family="Helvetica,sans-Serif" font-size="10.00">::MirrorObject &gt; &gt;</text>
</a>
</g>
</g>
<!-- Node4&#45;&gt;Node8 -->
<g id="edge9" class="edge">
<title>Node4&#45;&gt;Node8</title>
<path fill="none" stroke="#9a32cd" stroke-dasharray="5,2" d="M232.88,-140.14C261.06,-146.03 299.86,-154.15 332.93,-161.07"/>
<polygon fill="#9a32cd" stroke="#9a32cd" points="233.51,-136.69 223.01,-138.07 232.08,-143.54 233.51,-136.69"/>
<text text-anchor="middle" x="293.5" y="-159" font-family="Helvetica,sans-Serif" font-size="10.00"> keys</text>
</g>
<!-- Node5 -->
<g id="node5" class="node">
<title>Node5</title>
<g id="a_node5"><a target="_parent" xlink:href="http://en.cppreference.com/w/cpp/string/basic_string.html" xlink:title=" ">
<polygon fill="none" stroke="black" points="0,-117 0,-147 95,-147 95,-117 0,-117"/>
<text text-anchor="start" x="8" y="-135" font-family="Helvetica,sans-Serif" font-size="10.00">std::basic_string&lt;</text>
<text text-anchor="middle" x="47.5" y="-124" font-family="Helvetica,sans-Serif" font-size="10.00"> char &gt;</text>
</a>
</g>
</g>
<!-- Node5&#45;&gt;Node4 -->
<g id="edge4" class="edge">
<title>Node5&#45;&gt;Node4</title>
<path fill="none" stroke="midnightblue" d="M105.21,-132C124.91,-132 146.2,-132 162.76,-132"/>
<polygon fill="midnightblue" stroke="midnightblue" points="105.09,-128.5 95.09,-132 105.09,-135.5 105.09,-128.5"/>
</g>
<!-- Node6 -->
<g id="node6" class="node">
<title>Node6</title>
<g id="a_node6"><a target="_parent" xlink:href="http://en.cppreference.com/w/cpp/utility/pair.html" xlink:title=" ">
<polygon fill="none" stroke="black" points="347,-61 347,-91 454,-91 454,-61 347,-61"/>
<text text-anchor="start" x="355" y="-79" font-family="Helvetica,sans-Serif" font-size="10.00">std::pair&lt; std::string,</text>
<text text-anchor="middle" x="400.5" y="-68" font-family="Helvetica,sans-Serif" font-size="10.00"> int &gt;</text>
</a>
</g>
</g>
<!-- Node6&#45;&gt;Node2 -->
<g id="edge5" class="edge">
<title>Node6&#45;&gt;Node2</title>
<path fill="none" stroke="#9a32cd" stroke-dasharray="5,2" d="M464.06,-83.29C503.59,-87.89 554.3,-93.8 592.85,-98.29"/>
<polygon fill="#9a32cd" stroke="#9a32cd" points="464.34,-79.8 454,-82.11 463.53,-86.75 464.34,-79.8"/>
<text text-anchor="middle" x="521" y="-96" font-family="Helvetica,sans-Serif" font-size="10.00"> save_type_</text>
</g>
<!-- Node7 -->
<g id="node7" class="node">
<title>Node7</title>
<g id="a_node7"><a xlink:href="classhdtree_1_1Reader.html" target="_top" xlink:title="Reading a file generated by fire.">
<polygon fill="none" stroke="black" points="611,-165.5 611,-184.5 692,-184.5 692,-165.5 611,-165.5"/>
<text text-anchor="middle" x="651.5" y="-172.5" font-family="Helvetica,sans-Serif" font-size="10.00">hdtree::Reader</text>
</a>
</g>
</g>
<!-- Node7&#45;&gt;Node1 -->
<g id="edge6" class="edge">
<title>Node7&#45;&gt;Node1</title>
<path fill="none" stroke="#9a32cd" stroke-dasharray="5,2" d="M693.51,-162.38C732.09,-150.51 789.89,-132.73 830.91,-120.11"/>
<polygon fill="#9a32cd" stroke="#9a32cd" points="692.18,-159.13 683.66,-165.41 694.24,-165.82 692.18,-159.13"/>
<text text-anchor="middle" x="771.5" y="-147" font-family="Helvetica,sans-Serif" font-size="10.00"> input_file_</text>
</g>
<!-- Node8&#45;&gt;Node7 -->
<g id="edge7" class="edge">
<title>Node8&#45;&gt;Node7</title>
<path fill="none" stroke="#9a32cd" stroke-dasharray="5,2" d="M478.29,-175C522.14,-175 575.28,-175 610.83,-175"/>
<polygon fill="#9a32cd" stroke="#9a32cd" points="478.23,-171.5 468.23,-175 478.23,-178.5 478.23,-171.5"/>
<text text-anchor="middle" x="521" y="-178" font-family="Helvetica,sans-Serif" font-size="10.00"> mirror_objects_</text>
</g>
<!-- Node9 -->
<g id="node9" class="node">
<title>Node9</title>
<g id="a_node9"><a target="_parent" xlink:href="http://en.cppreference.com/w/cpp/memory/unique_ptr.html" xlink:title=" ">
<polygon fill="none" stroke="black" points="132,-173 132,-203 254,-203 254,-173 132,-173"/>
<text text-anchor="start" x="140" y="-191" font-family="Helvetica,sans-Serif" font-size="10.00">std::unique_ptr&lt; hdtree</text>
<text text-anchor="middle" x="193" y="-180" font-family="Helvetica,sans-Serif" font-size="10.00">::Reader::MirrorObject &gt;</text>
</a>
</g>
</g>
<!-- Node9&#45;&gt;Node8 -->
<g id="edge8" class="edge">
<title>Node9&#45;&gt;Node8</title>
<path fill="none" stroke="#9a32cd" stroke-dasharray="5,2" d="M264.28,-183.55C286.44,-182.15 310.85,-180.61 332.75,-179.22"/>
<polygon fill="#9a32cd" stroke="#9a32cd" points="264.03,-180.06 254.27,-184.19 264.47,-187.05 264.03,-180.06"/>
<text text-anchor="middle" x="293.5" y="-186" font-family="Helvetica,sans-Serif" font-size="10.00"> elements</text>
</g>
<!-- Node10 -->
<g id="node10" class="node">
<title>Node10</title>
<g id="a_node10"><a target="_parent" xlink:href="http://en.cppreference.com/w/cpp/types/size_t.html" xlink:title=" ">
<polygon fill="none" stroke="black" points="369.5,-220.5 369.5,-239.5 431.5,-239.5 431.5,-220.5 369.5,-220.5"/>
<text text-anchor="middle" x="400.5" y="-227.5" font-family="Helvetica,sans-Serif" font-size="10.00">std::size_t</text>
</a>
</g>
</g>
<!-- Node10&#45;&gt;Node7 -->
<g id="edge10" class="edge">
<title>Node10&#45;&gt;Node7</title>
<path fill="none" stroke="#9a32cd" stroke-dasharray="5,2" d="M441.57,-221.15C488.15,-210.86 564.55,-193.99 610.92,-183.74"/>
<polygon fill="#9a32cd" stroke="#9a32cd" points="440.54,-217.79 431.54,-223.37 442.05,-224.63 440.54,-217.79"/>
<text text-anchor="middle" x="521" y="-213" font-family="Helvetica,sans-Serif" font-size="10.00"> entries_</text>
</g>
<!-- Node11 -->
<g id="node11" class="node">
<title>Node11</title>
<g id="a_node11"><a target="_parent" xlink:href="http://en.cppreference.com/w/cpp/container/vector.html" xlink:title=" ">
<polygon fill="none" stroke="black" points="574,-7.5 574,-48.5 729,-48.5 729,-7.5 574,-7.5"/>
<text text-anchor="start" x="582" y="-36.5" font-family="Helvetica,sans-Serif" font-size="10.00">std::vector&lt; std::tuple</text>
<text text-anchor="start" x="582" y="-25.5" font-family="Helvetica,sans-Serif" font-size="10.00">&lt; bool, bool, std::unique</text>
<text text-anchor="middle" x="651.5" y="-14.5" font-family="Helvetica,sans-Serif" font-size="10.00">_ptr&lt; hdtree::BaseBranch &gt; &gt; &gt;</text>
</a>
</g>
</g>
<!-- Node11&#45;&gt;Node1 -->
<g id="edge11" class="edge">
<title>Node11&#45;&gt;Node1</title>
<path fill="none" stroke="#9a32cd" stroke-dasharray="5,2" d="M722.82,-51.8C759.52,-64.22 803.32,-79.05 835.35,-89.89"/>
<polygon fill="#9a32cd" stroke="#9a32cd" points="723.76,-48.42 713.17,-48.53 721.52,-55.05 723.76,-48.42"/>
<text text-anchor="middle" x="771.5" y="-78" font-family="Helvetica,sans-Serif" font-size="10.00"> members_</text>
</g>
<!-- Node12 -->
<g id="node12" class="node">
<title>Node12</title>
<g id="a_node12"><a target="_parent" xlink:href="http://en.cppreference.com/w/cpp/utility/tuple.html" xlink:title=" ">
<polygon fill="none" stroke="black" points="340.5,-0.5 340.5,-41.5 460.5,-41.5 460.5,-0.5 340.5,-0.5"/>
<text text-anchor="start" x="348.5" y="-29.5" font-family="Helvetica,sans-Serif" font-size="10.00">std::tuple&lt; bool, bool,</text>
<text text-anchor="start" x="348.5" y="-18.5" font-family="Helvetica,sans-Serif" font-size="10.00"> std::unique_ptr&lt; hdtree</text>
<text text-anchor="middle" x="400.5" y="-7.5" font-family="Helvetica,sans-Serif" font-size="10.00">::BaseBranch &gt; &gt;</text>
</a>
</g>
</g>
<!-- Node12&#45;&gt;Node11 -->
<g id="edge12" class="edge">
<title>Node12&#45;&gt;Node11</title>
<path fill="none" stroke="#9a32cd" stroke-dasharray="5,2" d="M470.7,-22.95C502.79,-23.85 541.03,-24.92 573.98,-25.85"/>
<polygon fill="#9a32cd" stroke="#9a32cd" points="470.6,-19.44 460.51,-22.66 470.41,-26.44 470.6,-19.44"/>
<text text-anchor="middle" x="521" y="-29" font-family="Helvetica,sans-Serif" font-size="10.00"> elements</text>
</g>
</g>
</svg>
