<?xml version="1.0" encoding="UTF-8" standalone="no"?>
<!DOCTYPE svg PUBLIC "-//W3C//DTD SVG 1.1//EN"
 "http://www.w3.org/Graphics/SVG/1.1/DTD/svg11.dtd">
<!-- Generated by graphviz version 2.43.0 (0)
 -->
<!-- Title: hdtree::Branch&lt; DataType, Enable &gt; Pages: 1 -->
<svg width="956pt" height="164pt"
 viewBox="0.00 0.00 956.00 163.50" xmlns="http://www.w3.org/2000/svg" xmlns:xlink="http://www.w3.org/1999/xlink">
<g id="graph0" class="graph" transform="scale(1 1) rotate(0) translate(4 159.5)">
<title>hdtree::Branch&lt; DataType, Enable &gt;</title>
<!-- Node1 -->
<g id="node1" class="node">
<title>Node1</title>
<g id="a_node1"><a xlink:title="General data set.">
<polygon fill="#bfbfbf" stroke="black" points="814,-61 814,-91 948,-91 948,-61 814,-61"/>
<text text-anchor="start" x="822" y="-79" font-family="Helvetica,sans-Serif" font-size="10.00">hdtree::Branch&lt; DataType,</text>
<text text-anchor="middle" x="881" y="-68" font-family="Helvetica,sans-Serif" font-size="10.00"> Enable &gt;</text>
</a>
</g>
</g>
<!-- Node2 -->
<g id="node2" class="node">
<title>Node2</title>
<g id="a_node2"><a xlink:href="classhdtree_1_1AbstractBranch.html" target="_top" xlink:title="Type&#45;specific base class to hold common data methods.">
<polygon fill="none" stroke="black" points="593,-61 593,-91 710,-91 710,-61 593,-61"/>
<text text-anchor="start" x="601" y="-79" font-family="Helvetica,sans-Serif" font-size="10.00">hdtree::AbstractBranch</text>
<text text-anchor="middle" x="651.5" y="-68" font-family="Helvetica,sans-Serif" font-size="10.00">&lt; DataType &gt;</text>
</a>
</g>
</g>
<!-- Node2&#45;&gt;Node1 -->
<g id="edge1" class="edge">
<title>Node2&#45;&gt;Node1</title>
<path fill="none" stroke="midnightblue" d="M720.44,-76C750.01,-76 784.54,-76 813.9,-76"/>
<polygon fill="midnightblue" stroke="midnightblue" points="720.2,-72.5 710.2,-76 720.2,-79.5 720.2,-72.5"/>
</g>
<!-- Node3 -->
<g id="node3" class="node">
<title>Node3</title>
<g id="a_node3"><a xlink:href="classhdtree_1_1BaseBranch.html" target="_top" xlink:title="Empty data base allowing recursion.">
<polygon fill="none" stroke="black" points="349,-62.5 349,-81.5 452,-81.5 452,-62.5 349,-62.5"/>
<text text-anchor="middle" x="400.5" y="-69.5" font-family="Helvetica,sans-Serif" font-size="10.00">hdtree::BaseBranch</text>
</a>
</g>
</g>
<!-- Node3&#45;&gt;Node2 -->
<g id="edge2" class="edge">
<title>Node3&#45;&gt;Node2</title>
<path fill="none" stroke="midnightblue" d="M462.3,-72.98C502.09,-73.62 553.78,-74.45 592.91,-75.07"/>
<polygon fill="midnightblue" stroke="midnightblue" points="462.24,-69.48 452.19,-72.81 462.13,-76.47 462.24,-69.48"/>
</g>
<!-- Node4 -->
<g id="node4" class="node">
<title>Node4</title>
<g id="a_node4"><a xlink:title=" ">
<polygon fill="none" stroke="#bfbfbf" points="163,-74.5 163,-93.5 223,-93.5 223,-74.5 163,-74.5"/>
<text text-anchor="middle" x="193" y="-81.5" font-family="Helvetica,sans-Serif" font-size="10.00">std::string</text>
</a>
</g>
</g>
<!-- Node4&#45;&gt;Node3 -->
<g id="edge3" class="edge">
<title>Node4&#45;&gt;Node3</title>
<path fill="none" stroke="#9a32cd" stroke-dasharray="5,2" d="M233.18,-77.44C245.56,-75.65 259.32,-73.94 272,-73 297.28,-71.13 325.45,-70.73 348.87,-70.86"/>
<polygon fill="#9a32cd" stroke="#9a32cd" points="232.53,-74 223.16,-78.95 233.57,-80.92 232.53,-74"/>
<text text-anchor="middle" x="293.5" y="-76" font-family="Helvetica,sans-Serif" font-size="10.00"> name_</text>
</g>
<!-- Node7 -->
<g id="node7" class="node">
<title>Node7</title>
<g id="a_node7"><a xlink:title=" ">
<polygon fill="none" stroke="#bfbfbf" points="333,-101 333,-153 468,-153 468,-101 333,-101"/>
<text text-anchor="start" x="341" y="-141" font-family="Helvetica,sans-Serif" font-size="10.00">std::unordered_map</text>
<text text-anchor="start" x="341" y="-130" font-family="Helvetica,sans-Serif" font-size="10.00">&lt; std::string, std::</text>
<text text-anchor="start" x="341" y="-119" font-family="Helvetica,sans-Serif" font-size="10.00">unique_ptr&lt; hdtree::Reader</text>
<text text-anchor="middle" x="400.5" y="-108" font-family="Helvetica,sans-Serif" font-size="10.00">::MirrorObject &gt; &gt;</text>
</a>
</g>
</g>
<!-- Node4&#45;&gt;Node7 -->
<g id="edge8" class="edge">
<title>Node4&#45;&gt;Node7</title>
<path fill="none" stroke="#9a32cd" stroke-dasharray="5,2" d="M232.88,-92.14C261.06,-98.03 299.86,-106.15 332.93,-113.07"/>
<polygon fill="#9a32cd" stroke="#9a32cd" points="233.51,-88.69 223.01,-90.07 232.08,-95.54 233.51,-88.69"/>
<text text-anchor="middle" x="293.5" y="-111" font-family="Helvetica,sans-Serif" font-size="10.00"> keys</text>
</g>
<!-- Node5 -->
<g id="node5" class="node">
<title>Node5</title>
<g id="a_node5"><a xlink:title=" ">
<polygon fill="none" stroke="#bfbfbf" points="0,-69 0,-99 95,-99 95,-69 0,-69"/>
<text text-anchor="start" x="8" y="-87" font-family="Helvetica,sans-Serif" font-size="10.00">std::basic_string&lt;</text>
<text text-anchor="middle" x="47.5" y="-76" font-family="Helvetica,sans-Serif" font-size="10.00"> Char &gt;</text>
</a>
</g>
</g>
<!-- Node5&#45;&gt;Node4 -->
<g id="edge4" class="edge">
<title>Node5&#45;&gt;Node4</title>
<path fill="none" stroke="midnightblue" d="M105.21,-84C124.91,-84 146.2,-84 162.76,-84"/>
<polygon fill="midnightblue" stroke="midnightblue" points="105.09,-80.5 95.09,-84 105.09,-87.5 105.09,-80.5"/>
</g>
<!-- Node6 -->
<g id="node6" class="node">
<title>Node6</title>
<g id="a_node6"><a xlink:href="classhdtree_1_1Reader.html" target="_top" xlink:title="Reading a file generated by fire.">
<polygon fill="none" stroke="black" points="611,-115.5 611,-134.5 692,-134.5 692,-115.5 611,-115.5"/>
<text text-anchor="middle" x="651.5" y="-122.5" font-family="Helvetica,sans-Serif" font-size="10.00">hdtree::Reader</text>
</a>
</g>
</g>
<!-- Node6&#45;&gt;Node1 -->
<g id="edge5" class="edge">
<title>Node6&#45;&gt;Node1</title>
<path fill="none" stroke="#9a32cd" stroke-dasharray="5,2" d="M701.92,-114.35C734.65,-107.31 777.96,-97.98 813.67,-90.29"/>
<polygon fill="#9a32cd" stroke="#9a32cd" points="701.17,-110.94 692.13,-116.46 702.64,-117.78 701.17,-110.94"/>
<text text-anchor="middle" x="771.5" y="-106" font-family="Helvetica,sans-Serif" font-size="10.00"> input_file_</text>
</g>
<!-- Node7&#45;&gt;Node6 -->
<g id="edge6" class="edge">
<title>Node7&#45;&gt;Node6</title>
<path fill="none" stroke="#9a32cd" stroke-dasharray="5,2" d="M478.29,-126.38C522.14,-126.03 575.28,-125.6 610.83,-125.32"/>
<polygon fill="#9a32cd" stroke="#9a32cd" points="478.2,-122.88 468.23,-126.46 478.26,-129.88 478.2,-122.88"/>
<text text-anchor="middle" x="521" y="-129" font-family="Helvetica,sans-Serif" font-size="10.00"> mirror_objects_</text>
</g>
<!-- Node8 -->
<g id="node8" class="node">
<title>Node8</title>
<g id="a_node8"><a xlink:title=" ">
<polygon fill="none" stroke="#bfbfbf" points="132,-125 132,-155 254,-155 254,-125 132,-125"/>
<text text-anchor="start" x="140" y="-143" font-family="Helvetica,sans-Serif" font-size="10.00">std::unique_ptr&lt; hdtree</text>
<text text-anchor="middle" x="193" y="-132" font-family="Helvetica,sans-Serif" font-size="10.00">::Reader::MirrorObject &gt;</text>
</a>
</g>
</g>
<!-- Node8&#45;&gt;Node7 -->
<g id="edge7" class="edge">
<title>Node8&#45;&gt;Node7</title>
<path fill="none" stroke="#9a32cd" stroke-dasharray="5,2" d="M264.28,-135.55C286.44,-134.15 310.85,-132.61 332.75,-131.22"/>
<polygon fill="#9a32cd" stroke="#9a32cd" points="264.03,-132.06 254.27,-136.19 264.47,-139.05 264.03,-132.06"/>
<text text-anchor="middle" x="293.5" y="-138" font-family="Helvetica,sans-Serif" font-size="10.00"> elements</text>
</g>
<!-- Node9 -->
<g id="node9" class="node">
<title>Node9</title>
<g id="a_node9"><a xlink:title=" ">
<polygon fill="none" stroke="#bfbfbf" points="574,-0.5 574,-41.5 729,-41.5 729,-0.5 574,-0.5"/>
<text text-anchor="start" x="582" y="-29.5" font-family="Helvetica,sans-Serif" font-size="10.00">std::vector&lt; std::tuple</text>
<text text-anchor="start" x="582" y="-18.5" font-family="Helvetica,sans-Serif" font-size="10.00">&lt; bool, bool, std::unique</text>
<text text-anchor="middle" x="651.5" y="-7.5" font-family="Helvetica,sans-Serif" font-size="10.00">_ptr&lt; hdtree::BaseBranch &gt; &gt; &gt;</text>
</a>
</g>
</g>
<!-- Node9&#45;&gt;Node1 -->
<g id="edge9" class="edge">
<title>Node9&#45;&gt;Node1</title>
<path fill="none" stroke="#9a32cd" stroke-dasharray="5,2" d="M739.1,-41.94C765.23,-48.25 793.38,-55.06 817.6,-60.91"/>
<polygon fill="#9a32cd" stroke="#9a32cd" points="739.75,-38.49 729.2,-39.54 738.1,-45.3 739.75,-38.49"/>
<text text-anchor="middle" x="771.5" y="-59" font-family="Helvetica,sans-Serif" font-size="10.00"> members_</text>
</g>
</g>
</svg>
