<?xml version="1.0" encoding="UTF-8" standalone="no"?>
<!DOCTYPE svg PUBLIC "-//W3C//DTD SVG 1.1//EN"
 "http://www.w3.org/Graphics/SVG/1.1/DTD/svg11.dtd">
<!-- Generated by graphviz version 2.43.0 (0)
 -->
<!-- Title: hdtree::Reader Pages: 1 -->
<svg width="663pt" height="83pt"
 viewBox="0.00 0.00 663.00 83.00" xmlns="http://www.w3.org/2000/svg" xmlns:xlink="http://www.w3.org/1999/xlink">
<g id="graph0" class="graph" transform="scale(1 1) rotate(0) translate(4 79)">
<title>hdtree::Reader</title>
<!-- Node1 -->
<g id="node1" class="node">
<title>Node1</title>
<g id="a_node1"><a xlink:title="Reading a file generated by fire.">
<polygon fill="#bfbfbf" stroke="black" points="574,-28 574,-47 655,-47 655,-28 574,-28"/>
<text text-anchor="middle" x="614.5" y="-35" font-family="Helvetica,sans-Serif" font-size="10.00">hdtree::Reader</text>
</a>
</g>
</g>
<!-- Node2 -->
<g id="node2" class="node">
<title>Node2</title>
<g id="a_node2"><a xlink:title=" ">
<polygon fill="none" stroke="#bfbfbf" points="333,-11.5 333,-63.5 468,-63.5 468,-11.5 333,-11.5"/>
<text text-anchor="start" x="341" y="-51.5" font-family="Helvetica,sans-Serif" font-size="10.00">std::unordered_map</text>
<text text-anchor="start" x="341" y="-40.5" font-family="Helvetica,sans-Serif" font-size="10.00">&lt; std::string, std::</text>
<text text-anchor="start" x="341" y="-29.5" font-family="Helvetica,sans-Serif" font-size="10.00">unique_ptr&lt; hdtree::Reader</text>
<text text-anchor="middle" x="400.5" y="-18.5" font-family="Helvetica,sans-Serif" font-size="10.00">::MirrorObject &gt; &gt;</text>
</a>
</g>
</g>
<!-- Node2&#45;&gt;Node1 -->
<g id="edge1" class="edge">
<title>Node2&#45;&gt;Node1</title>
<path fill="none" stroke="#9a32cd" stroke-dasharray="5,2" d="M478.63,-37.5C510.94,-37.5 547.14,-37.5 573.89,-37.5"/>
<polygon fill="#9a32cd" stroke="#9a32cd" points="478.29,-34 468.29,-37.5 478.29,-41 478.29,-34"/>
<text text-anchor="middle" x="521" y="-40.5" font-family="Helvetica,sans-Serif" font-size="10.00"> mirror_objects_</text>
</g>
<!-- Node3 -->
<g id="node3" class="node">
<title>Node3</title>
<g id="a_node3"><a xlink:title=" ">
<polygon fill="none" stroke="#bfbfbf" points="132,-44.5 132,-74.5 254,-74.5 254,-44.5 132,-44.5"/>
<text text-anchor="start" x="140" y="-62.5" font-family="Helvetica,sans-Serif" font-size="10.00">std::unique_ptr&lt; hdtree</text>
<text text-anchor="middle" x="193" y="-51.5" font-family="Helvetica,sans-Serif" font-size="10.00">::Reader::MirrorObject &gt;</text>
</a>
</g>
</g>
<!-- Node3&#45;&gt;Node2 -->
<g id="edge2" class="edge">
<title>Node3&#45;&gt;Node2</title>
<path fill="none" stroke="#9a32cd" stroke-dasharray="5,2" d="M264.28,-51.98C286.44,-49.6 310.85,-46.99 332.75,-44.65"/>
<polygon fill="#9a32cd" stroke="#9a32cd" points="263.84,-48.5 254.27,-53.05 264.58,-55.46 263.84,-48.5"/>
<text text-anchor="middle" x="293.5" y="-53.5" font-family="Helvetica,sans-Serif" font-size="10.00"> elements</text>
</g>
<!-- Node4 -->
<g id="node4" class="node">
<title>Node4</title>
<g id="a_node4"><a xlink:title=" ">
<polygon fill="none" stroke="#bfbfbf" points="163,-6 163,-25 223,-25 223,-6 163,-6"/>
<text text-anchor="middle" x="193" y="-13" font-family="Helvetica,sans-Serif" font-size="10.00">std::string</text>
</a>
</g>
</g>
<!-- Node4&#45;&gt;Node2 -->
<g id="edge3" class="edge">
<title>Node4&#45;&gt;Node2</title>
<path fill="none" stroke="#9a32cd" stroke-dasharray="5,2" d="M233.25,-19.7C261.4,-22.72 300,-26.85 332.93,-30.37"/>
<polygon fill="#9a32cd" stroke="#9a32cd" points="233.32,-16.19 223.01,-18.61 232.58,-23.15 233.32,-16.19"/>
<text text-anchor="middle" x="293.5" y="-31.5" font-family="Helvetica,sans-Serif" font-size="10.00"> keys</text>
</g>
<!-- Node5 -->
<g id="node5" class="node">
<title>Node5</title>
<g id="a_node5"><a xlink:title=" ">
<polygon fill="none" stroke="#bfbfbf" points="0,-0.5 0,-30.5 95,-30.5 95,-0.5 0,-0.5"/>
<text text-anchor="start" x="8" y="-18.5" font-family="Helvetica,sans-Serif" font-size="10.00">std::basic_string&lt;</text>
<text text-anchor="middle" x="47.5" y="-7.5" font-family="Helvetica,sans-Serif" font-size="10.00"> Char &gt;</text>
</a>
</g>
</g>
<!-- Node5&#45;&gt;Node4 -->
<g id="edge4" class="edge">
<title>Node5&#45;&gt;Node4</title>
<path fill="none" stroke="midnightblue" d="M105.21,-15.5C124.91,-15.5 146.2,-15.5 162.76,-15.5"/>
<polygon fill="midnightblue" stroke="midnightblue" points="105.09,-12 95.09,-15.5 105.09,-19 105.09,-12"/>
</g>
</g>
</svg>
