<?xml version="1.0" encoding="UTF-8" standalone="no"?>
<!DOCTYPE svg PUBLIC "-//W3C//DTD SVG 1.1//EN"
 "http://www.w3.org/Graphics/SVG/1.1/DTD/svg11.dtd">
<!-- Generated by graphviz version 2.43.0 (0)
 -->
<!-- Title: hdtree::AbstractBranch&lt; DataType &gt; Pages: 1 -->
<svg width="125pt" height="231pt"
 viewBox="0.00 0.00 125.00 231.00" xmlns="http://www.w3.org/2000/svg" xmlns:xlink="http://www.w3.org/1999/xlink">
<g id="graph0" class="graph" transform="scale(1 1) rotate(0) translate(4 227)">
<title>hdtree::AbstractBranch&lt; DataType &gt;</title>
<!-- Node1 -->
<g id="node1" class="node">
<title>Node1</title>
<g id="a_node1"><a xlink:title="Type&#45;specific base class to hold common data methods.">
<polygon fill="#bfbfbf" stroke="black" points="0,-0.5 0,-30.5 117,-30.5 117,-0.5 0,-0.5"/>
<text text-anchor="start" x="8" y="-18.5" font-family="Helvetica,sans-Serif" font-size="10.00">hdtree::AbstractBranch</text>
<text text-anchor="middle" x="58.5" y="-7.5" font-family="Helvetica,sans-Serif" font-size="10.00">&lt; DataType &gt;</text>
</a>
</g>
</g>
<!-- Node2 -->
<g id="node2" class="node">
<title>Node2</title>
<g id="a_node2"><a xlink:href="classhdtree_1_1BaseBranch.html" target="_top" xlink:title="Empty data base allowing recursion.">
<polygon fill="none" stroke="black" points="7,-68.5 7,-87.5 110,-87.5 110,-68.5 7,-68.5"/>
<text text-anchor="middle" x="58.5" y="-75.5" font-family="Helvetica,sans-Serif" font-size="10.00">hdtree::BaseBranch</text>
</a>
</g>
</g>
<!-- Node2&#45;&gt;Node1 -->
<g id="edge1" class="edge">
<title>Node2&#45;&gt;Node1</title>
<path fill="none" stroke="midnightblue" d="M58.5,-58.22C58.5,-49.36 58.5,-38.96 58.5,-30.76"/>
<polygon fill="midnightblue" stroke="midnightblue" points="55,-58.33 58.5,-68.33 62,-58.33 55,-58.33"/>
</g>
<!-- Node3 -->
<g id="node3" class="node">
<title>Node3</title>
<g id="a_node3"><a xlink:title=" ">
<polygon fill="none" stroke="#bfbfbf" points="28.5,-135.5 28.5,-154.5 88.5,-154.5 88.5,-135.5 28.5,-135.5"/>
<text text-anchor="middle" x="58.5" y="-142.5" font-family="Helvetica,sans-Serif" font-size="10.00">std::string</text>
</a>
</g>
</g>
<!-- Node3&#45;&gt;Node2 -->
<g id="edge2" class="edge">
<title>Node3&#45;&gt;Node2</title>
<path fill="none" stroke="#9a32cd" stroke-dasharray="5,2" d="M58.5,-125.04C58.5,-112.67 58.5,-97.12 58.5,-87.63"/>
<polygon fill="#9a32cd" stroke="#9a32cd" points="55,-125.23 58.5,-135.23 62,-125.23 55,-125.23"/>
<text text-anchor="middle" x="75" y="-109" font-family="Helvetica,sans-Serif" font-size="10.00"> name_</text>
</g>
<!-- Node4 -->
<g id="node4" class="node">
<title>Node4</title>
<g id="a_node4"><a xlink:title=" ">
<polygon fill="none" stroke="#bfbfbf" points="11,-192.5 11,-222.5 106,-222.5 106,-192.5 11,-192.5"/>
<text text-anchor="start" x="19" y="-210.5" font-family="Helvetica,sans-Serif" font-size="10.00">std::basic_string&lt;</text>
<text text-anchor="middle" x="58.5" y="-199.5" font-family="Helvetica,sans-Serif" font-size="10.00"> Char &gt;</text>
</a>
</g>
</g>
<!-- Node4&#45;&gt;Node3 -->
<g id="edge3" class="edge">
<title>Node4&#45;&gt;Node3</title>
<path fill="none" stroke="midnightblue" d="M58.5,-182.35C58.5,-172.51 58.5,-161.78 58.5,-154.54"/>
<polygon fill="midnightblue" stroke="midnightblue" points="55,-182.47 58.5,-192.47 62,-182.47 55,-182.47"/>
</g>
</g>
</svg>
