<?xml version="1.0" encoding="UTF-8" standalone="no"?>
<!DOCTYPE svg PUBLIC "-//W3C//DTD SVG 1.1//EN"
 "http://www.w3.org/Graphics/SVG/1.1/DTD/svg11.dtd">
<!-- Generated by graphviz version 2.43.0 (0)
 -->
<!-- Title: hdtree::AbstractBranch&lt; DataType &gt; Pages: 1 -->
<svg width="454pt" height="204pt"
 viewBox="0.00 0.00 454.00 203.50" xmlns="http://www.w3.org/2000/svg" xmlns:xlink="http://www.w3.org/1999/xlink">
<g id="graph0" class="graph" transform="scale(1 1) rotate(0) translate(4 199.5)">
<title>hdtree::AbstractBranch&lt; DataType &gt;</title>
<!-- Node1 -->
<g id="node1" class="node">
<title>Node1</title>
<g id="a_node1"><a xlink:title="Type&#45;specific base class to hold common data methods.">
<polygon fill="#bfbfbf" stroke="black" points="139,-82.5 139,-112.5 256,-112.5 256,-82.5 139,-82.5"/>
<text text-anchor="start" x="147" y="-100.5" font-family="Helvetica,sans-Serif" font-size="10.00">hdtree::AbstractBranch</text>
<text text-anchor="middle" x="197.5" y="-89.5" font-family="Helvetica,sans-Serif" font-size="10.00">&lt; DataType &gt;</text>
</a>
</g>
</g>
<!-- Node3 -->
<g id="node3" class="node">
<title>Node3</title>
<g id="a_node3"><a xlink:href="classhdtree_1_1Branch.html" target="_top" xlink:title=" ">
<polygon fill="none" stroke="black" points="302.5,-176 302.5,-195 435.5,-195 435.5,-176 302.5,-176"/>
<text text-anchor="middle" x="369" y="-183" font-family="Helvetica,sans-Serif" font-size="10.00">hdtree::Branch&lt; ValType &gt;</text>
</a>
</g>
</g>
<!-- Node1&#45;&gt;Node3 -->
<g id="edge2" class="edge">
<title>Node1&#45;&gt;Node3</title>
<path fill="none" stroke="midnightblue" d="M222.44,-119.31C240.39,-134.58 266.2,-154.34 292,-166.5 300.12,-170.33 309.1,-173.44 317.97,-175.96"/>
<polygon fill="midnightblue" stroke="midnightblue" points="224.62,-116.57 214.78,-112.65 220.03,-121.85 224.62,-116.57"/>
</g>
<!-- Node4 -->
<g id="node4" class="node">
<title>Node4</title>
<g id="a_node4"><a xlink:href="classhdtree_1_1Branch.html" target="_top" xlink:title=" ">
<polygon fill="none" stroke="black" points="317.5,-126.5 317.5,-156.5 420.5,-156.5 420.5,-126.5 317.5,-126.5"/>
<text text-anchor="start" x="325.5" y="-144.5" font-family="Helvetica,sans-Serif" font-size="10.00">hdtree::Branch&lt; std</text>
<text text-anchor="middle" x="369" y="-133.5" font-family="Helvetica,sans-Serif" font-size="10.00">::size_t &gt;</text>
</a>
</g>
</g>
<!-- Node1&#45;&gt;Node4 -->
<g id="edge3" class="edge">
<title>Node1&#45;&gt;Node4</title>
<path fill="none" stroke="midnightblue" d="M266.28,-115.1C283.37,-119.53 301.41,-124.21 317.48,-128.39"/>
<polygon fill="midnightblue" stroke="midnightblue" points="266.92,-111.64 256.36,-112.52 265.16,-118.42 266.92,-111.64"/>
</g>
<!-- Node5 -->
<g id="node5" class="node">
<title>Node5</title>
<g id="a_node5"><a xlink:href="classhdtree_1_1Branch.html" target="_top" xlink:title=" ">
<polygon fill="none" stroke="black" points="300.5,-88 300.5,-107 437.5,-107 437.5,-88 300.5,-88"/>
<text text-anchor="middle" x="369" y="-95" font-family="Helvetica,sans-Serif" font-size="10.00">hdtree::Branch&lt; KeyType &gt;</text>
</a>
</g>
</g>
<!-- Node1&#45;&gt;Node5 -->
<g id="edge4" class="edge">
<title>Node1&#45;&gt;Node5</title>
<path fill="none" stroke="midnightblue" d="M266.5,-97.5C277.69,-97.5 289.29,-97.5 300.47,-97.5"/>
<polygon fill="midnightblue" stroke="midnightblue" points="266.36,-94 256.36,-97.5 266.36,-101 266.36,-94"/>
</g>
<!-- Node6 -->
<g id="node6" class="node">
<title>Node6</title>
<g id="a_node6"><a xlink:href="classhdtree_1_1Branch.html" target="_top" xlink:title=" ">
<polygon fill="none" stroke="black" points="292,-50 292,-69 446,-69 446,-50 292,-50"/>
<text text-anchor="middle" x="369" y="-57" font-family="Helvetica,sans-Serif" font-size="10.00">hdtree::Branch&lt; ContentType &gt;</text>
</a>
</g>
</g>
<!-- Node1&#45;&gt;Node6 -->
<g id="edge5" class="edge">
<title>Node1&#45;&gt;Node6</title>
<path fill="none" stroke="midnightblue" d="M266.33,-82.29C286.26,-77.82 307.5,-73.06 325.38,-69.05"/>
<polygon fill="midnightblue" stroke="midnightblue" points="265.35,-78.93 256.36,-84.53 266.88,-85.76 265.35,-78.93"/>
</g>
<!-- Node7 -->
<g id="node7" class="node">
<title>Node7</title>
<g id="a_node7"><a xlink:href="classhdtree_1_1Branch.html" target="_top" xlink:title="General data set.">
<polygon fill="none" stroke="black" points="302,-0.5 302,-30.5 436,-30.5 436,-0.5 302,-0.5"/>
<text text-anchor="start" x="310" y="-18.5" font-family="Helvetica,sans-Serif" font-size="10.00">hdtree::Branch&lt; DataType,</text>
<text text-anchor="middle" x="369" y="-7.5" font-family="Helvetica,sans-Serif" font-size="10.00"> Enable &gt;</text>
</a>
</g>
</g>
<!-- Node1&#45;&gt;Node7 -->
<g id="edge6" class="edge">
<title>Node1&#45;&gt;Node7</title>
<path fill="none" stroke="midnightblue" d="M228.79,-76.58C246.63,-64.89 269.95,-50.68 292,-40.5 299.82,-36.89 308.31,-33.56 316.68,-30.59"/>
<polygon fill="midnightblue" stroke="midnightblue" points="226.39,-73.97 220,-82.42 230.27,-79.8 226.39,-73.97"/>
</g>
<!-- Node2 -->
<g id="node2" class="node">
<title>Node2</title>
<g id="a_node2"><a xlink:href="classhdtree_1_1BaseBranch.html" target="_top" xlink:title="Empty data base allowing recursion.">
<polygon fill="none" stroke="black" points="0,-88 0,-107 103,-107 103,-88 0,-88"/>
<text text-anchor="middle" x="51.5" y="-95" font-family="Helvetica,sans-Serif" font-size="10.00">hdtree::BaseBranch</text>
</a>
</g>
</g>
<!-- Node2&#45;&gt;Node1 -->
<g id="edge1" class="edge">
<title>Node2&#45;&gt;Node1</title>
<path fill="none" stroke="midnightblue" d="M113.41,-97.5C121.83,-97.5 130.46,-97.5 138.82,-97.5"/>
<polygon fill="midnightblue" stroke="midnightblue" points="113.27,-94 103.27,-97.5 113.27,-101 113.27,-94"/>
</g>
</g>
</svg>
