<?xml version="1.0" encoding="UTF-8" standalone="no"?>
<!DOCTYPE svg PUBLIC "-//W3C//DTD SVG 1.1//EN"
 "http://www.w3.org/Graphics/SVG/1.1/DTD/svg11.dtd">
<!-- Generated by graphviz version 2.43.0 (0)
 -->
<!-- Title: hdtree::Branch&lt; AtomicType, std::enable_if_t&lt; is_atomic_v&lt; AtomicType &gt; &gt; &gt;::WriteBuffer Pages: 1 -->
<svg width="220pt" height="128pt"
 viewBox="0.00 0.00 220.00 128.00" xmlns="http://www.w3.org/2000/svg" xmlns:xlink="http://www.w3.org/1999/xlink">
<g id="graph0" class="graph" transform="scale(1 1) rotate(0) translate(4 124)">
<title>hdtree::Branch&lt; AtomicType, std::enable_if_t&lt; is_atomic_v&lt; AtomicType &gt; &gt; &gt;::WriteBuffer</title>
<!-- Node1 -->
<g id="node1" class="node">
<title>Node1</title>
<g id="a_node1"><a xlink:title=" ">
<polygon fill="#bfbfbf" stroke="black" points="38.5,-0.5 38.5,-41.5 207.5,-41.5 207.5,-0.5 38.5,-0.5"/>
<text text-anchor="start" x="46.5" y="-29.5" font-family="Helvetica,sans-Serif" font-size="10.00">hdtree::Branch&lt; AtomicType,</text>
<text text-anchor="start" x="46.5" y="-18.5" font-family="Helvetica,sans-Serif" font-size="10.00"> std::enable_if_t&lt; is_atomic</text>
<text text-anchor="middle" x="123" y="-7.5" font-family="Helvetica,sans-Serif" font-size="10.00">_v&lt; AtomicType &gt; &gt; &gt;::WriteBuffer</text>
</a>
</g>
</g>
<!-- Node2 -->
<g id="node2" class="node">
<title>Node2</title>
<g id="a_node2"><a target="_parent" xlink:href="http://en.cppreference.com/w/cpp/container/vector.html" xlink:title=" ">
<polygon fill="none" stroke="black" points="0,-100.5 0,-119.5 132,-119.5 132,-100.5 0,-100.5"/>
<text text-anchor="middle" x="66" y="-107.5" font-family="Helvetica,sans-Serif" font-size="10.00">std::vector&lt; AtomicType &gt;</text>
</a>
</g>
</g>
<!-- Node2&#45;&gt;Node1 -->
<g id="edge1" class="edge">
<title>Node2&#45;&gt;Node1</title>
<path fill="none" stroke="#9a32cd" stroke-dasharray="5,2" d="M77.22,-91.88C86.67,-77.44 100.21,-56.79 110.11,-41.68"/>
<polygon fill="#9a32cd" stroke="#9a32cd" points="74.23,-90.06 71.67,-100.34 80.08,-93.89 74.23,-90.06"/>
<text text-anchor="middle" x="115" y="-68.5" font-family="Helvetica,sans-Serif" font-size="10.00"> buffer_</text>
</g>
<!-- Node3 -->
<g id="node3" class="node">
<title>Node3</title>
<g id="a_node3"><a target="_parent" xlink:href="http://en.cppreference.com/w/cpp/types/size_t.html" xlink:title=" ">
<polygon fill="none" stroke="black" points="150,-100.5 150,-119.5 212,-119.5 212,-100.5 150,-100.5"/>
<text text-anchor="middle" x="181" y="-107.5" font-family="Helvetica,sans-Serif" font-size="10.00">std::size_t</text>
</a>
</g>
</g>
<!-- Node3&#45;&gt;Node1 -->
<g id="edge2" class="edge">
<title>Node3&#45;&gt;Node1</title>
<path fill="none" stroke="#9a32cd" stroke-dasharray="5,2" d="M169.58,-91.88C159.96,-77.44 146.19,-56.79 136.12,-41.68"/>
<polygon fill="#9a32cd" stroke="#9a32cd" points="166.77,-93.96 175.23,-100.34 172.59,-90.08 166.77,-93.96"/>
<text text-anchor="middle" x="183.5" y="-74" font-family="Helvetica,sans-Serif" font-size="10.00"> i_file_</text>
<text text-anchor="middle" x="183.5" y="-63" font-family="Helvetica,sans-Serif" font-size="10.00">max_len_</text>
</g>
</g>
</svg>
