<?xml version="1.0" encoding="UTF-8" standalone="no"?>
<!DOCTYPE svg PUBLIC "-//W3C//DTD SVG 1.1//EN"
 "http://www.w3.org/Graphics/SVG/1.1/DTD/svg11.dtd">
<!-- Generated by graphviz version 2.43.0 (0)
 -->
<!-- Title: include/hdtree/ClassVersion.h Pages: 1 -->
<svg width="190pt" height="252pt"
 viewBox="0.00 0.00 189.50 252.00" xmlns="http://www.w3.org/2000/svg" xmlns:xlink="http://www.w3.org/1999/xlink">
<g id="graph0" class="graph" transform="scale(1 1) rotate(0) translate(4 248)">
<title>include/hdtree/ClassVersion.h</title>
<!-- Node1 -->
<g id="node1" class="node">
<title>Node1</title>
<g id="a_node1"><a xlink:title="Serialization class version deduction.">
<polygon fill="#bfbfbf" stroke="black" points="4.5,-224.5 4.5,-243.5 151.5,-243.5 151.5,-224.5 4.5,-224.5"/>
<text text-anchor="middle" x="78" y="-231.5" font-family="Helvetica,sans-Serif" font-size="10.00">include/hdtree/ClassVersion.h</text>
</a>
</g>
</g>
<!-- Node2 -->
<g id="node2" class="node">
<title>Node2</title>
<g id="a_node2"><a xlink:href="AbstractBranch_8h_source.html" target="_top" xlink:title=" ">
<polygon fill="none" stroke="black" points="0,-168.5 0,-187.5 156,-187.5 156,-168.5 0,-168.5"/>
<text text-anchor="middle" x="78" y="-175.5" font-family="Helvetica,sans-Serif" font-size="10.00">include/hdtree/AbstractBranch.h</text>
</a>
</g>
</g>
<!-- Node1&#45;&gt;Node2 -->
<g id="edge1" class="edge">
<title>Node1&#45;&gt;Node2</title>
<path fill="none" stroke="midnightblue" d="M78,-213.8C78,-204.91 78,-194.78 78,-187.75"/>
<polygon fill="midnightblue" stroke="midnightblue" points="74.5,-214.08 78,-224.08 81.5,-214.08 74.5,-214.08"/>
</g>
<!-- Node3 -->
<g id="node3" class="node">
<title>Node3</title>
<g id="a_node3"><a xlink:href="Branch_8h.html" target="_top" xlink:title="Common include for users interacting with Branches.">
<polygon fill="none" stroke="black" points="18.5,-56.5 18.5,-75.5 137.5,-75.5 137.5,-56.5 18.5,-56.5"/>
<text text-anchor="middle" x="78" y="-63.5" font-family="Helvetica,sans-Serif" font-size="10.00">include/hdtree/Branch.h</text>
</a>
</g>
</g>
<!-- Node2&#45;&gt;Node3 -->
<g id="edge2" class="edge">
<title>Node2&#45;&gt;Node3</title>
<path fill="none" stroke="midnightblue" d="M65.76,-159.83C60.75,-151.79 55.55,-141.82 53,-132 47.6,-111.17 61.8,-87.88 70.95,-75.62"/>
<polygon fill="midnightblue" stroke="midnightblue" points="62.92,-161.89 71.37,-168.27 68.75,-158.01 62.92,-161.89"/>
</g>
<!-- Node5 -->
<g id="node5" class="node">
<title>Node5</title>
<g id="a_node5"><a xlink:href="Reader_8h_source.html" target="_top" xlink:title=" ">
<polygon fill="none" stroke="black" points="62.5,-112.5 62.5,-131.5 181.5,-131.5 181.5,-112.5 62.5,-112.5"/>
<text text-anchor="middle" x="122" y="-119.5" font-family="Helvetica,sans-Serif" font-size="10.00">include/hdtree/Reader.h</text>
</a>
</g>
</g>
<!-- Node2&#45;&gt;Node5 -->
<g id="edge4" class="edge">
<title>Node2&#45;&gt;Node5</title>
<path fill="none" stroke="midnightblue" d="M91.73,-160.14C99.4,-150.74 108.63,-139.4 114.87,-131.75"/>
<polygon fill="midnightblue" stroke="midnightblue" points="88.87,-158.12 85.27,-168.08 94.3,-162.54 88.87,-158.12"/>
</g>
<!-- Node4 -->
<g id="node4" class="node">
<title>Node4</title>
<g id="a_node4"><a xlink:href="Tree_8h_source.html" target="_top" xlink:title=" ">
<polygon fill="none" stroke="black" points="24,-0.5 24,-19.5 132,-19.5 132,-0.5 24,-0.5"/>
<text text-anchor="middle" x="78" y="-7.5" font-family="Helvetica,sans-Serif" font-size="10.00">include/hdtree/Tree.h</text>
</a>
</g>
</g>
<!-- Node3&#45;&gt;Node4 -->
<g id="edge3" class="edge">
<title>Node3&#45;&gt;Node4</title>
<path fill="none" stroke="midnightblue" d="M78,-45.8C78,-36.91 78,-26.78 78,-19.75"/>
<polygon fill="midnightblue" stroke="midnightblue" points="74.5,-46.08 78,-56.08 81.5,-46.08 74.5,-46.08"/>
</g>
<!-- Node5&#45;&gt;Node3 -->
<g id="edge5" class="edge">
<title>Node5&#45;&gt;Node3</title>
<path fill="none" stroke="midnightblue" d="M108.27,-104.14C100.6,-94.74 91.37,-83.4 85.13,-75.75"/>
<polygon fill="midnightblue" stroke="midnightblue" points="105.7,-106.54 114.73,-112.08 111.13,-102.12 105.7,-106.54"/>
</g>
</g>
</svg>
