<?xml version="1.0" encoding="UTF-8" standalone="no"?>
<!DOCTYPE svg PUBLIC "-//W3C//DTD SVG 1.1//EN"
 "http://www.w3.org/Graphics/SVG/1.1/DTD/svg11.dtd">
<!-- Generated by graphviz version 2.43.0 (0)
 -->
<!-- Title: hdtree::Reader Pages: 1 -->
<svg width="663pt" height="108pt"
 viewBox="0.00 0.00 663.00 107.50" xmlns="http://www.w3.org/2000/svg" xmlns:xlink="http://www.w3.org/1999/xlink">
<g id="graph0" class="graph" transform="scale(1 1) rotate(0) translate(4 103.5)">
<title>hdtree::Reader</title>
<!-- Node1 -->
<g id="node1" class="node">
<title>Node1</title>
<g id="a_node1"><a xlink:title="Reading a file generated by fire.">
<polygon fill="#bfbfbf" stroke="black" points="574,-17.5 574,-36.5 655,-36.5 655,-17.5 574,-17.5"/>
<text text-anchor="middle" x="614.5" y="-24.5" font-family="Helvetica,sans-Serif" font-size="10.00">hdtree::Reader</text>
</a>
</g>
</g>
<!-- Node2 -->
<g id="node2" class="node">
<title>Node2</title>
<g id="a_node2"><a target="_parent" xlink:href="http://en.cppreference.com/w/cpp/container/unordered_map.html" xlink:title=" ">
<polygon fill="none" stroke="black" points="333,-39 333,-91 468,-91 468,-39 333,-39"/>
<text text-anchor="start" x="341" y="-79" font-family="Helvetica,sans-Serif" font-size="10.00">std::unordered_map</text>
<text text-anchor="start" x="341" y="-68" font-family="Helvetica,sans-Serif" font-size="10.00">&lt; std::string, std::</text>
<text text-anchor="start" x="341" y="-57" font-family="Helvetica,sans-Serif" font-size="10.00">unique_ptr&lt; hdtree::Reader</text>
<text text-anchor="middle" x="400.5" y="-46" font-family="Helvetica,sans-Serif" font-size="10.00">::MirrorObject &gt; &gt;</text>
</a>
</g>
</g>
<!-- Node2&#45;&gt;Node1 -->
<g id="edge1" class="edge">
<title>Node2&#45;&gt;Node1</title>
<path fill="none" stroke="#9a32cd" stroke-dasharray="5,2" d="M478.21,-51.25C510.63,-45.44 547.02,-38.92 573.89,-34.1"/>
<polygon fill="#9a32cd" stroke="#9a32cd" points="477.51,-47.82 468.29,-53.03 478.75,-54.71 477.51,-47.82"/>
<text text-anchor="middle" x="521" y="-52" font-family="Helvetica,sans-Serif" font-size="10.00"> mirror_objects_</text>
</g>
<!-- Node3 -->
<g id="node3" class="node">
<title>Node3</title>
<g id="a_node3"><a target="_parent" xlink:href="http://en.cppreference.com/w/cpp/memory/unique_ptr.html" xlink:title=" ">
<polygon fill="none" stroke="black" points="132,-69 132,-99 254,-99 254,-69 132,-69"/>
<text text-anchor="start" x="140" y="-87" font-family="Helvetica,sans-Serif" font-size="10.00">std::unique_ptr&lt; hdtree</text>
<text text-anchor="middle" x="193" y="-76" font-family="Helvetica,sans-Serif" font-size="10.00">::Reader::MirrorObject &gt;</text>
</a>
</g>
</g>
<!-- Node3&#45;&gt;Node2 -->
<g id="edge2" class="edge">
<title>Node3&#45;&gt;Node2</title>
<path fill="none" stroke="#9a32cd" stroke-dasharray="5,2" d="M264.28,-77.5C286.44,-75.45 310.85,-73.2 332.75,-71.17"/>
<polygon fill="#9a32cd" stroke="#9a32cd" points="263.9,-74.02 254.27,-78.43 264.55,-80.99 263.9,-74.02"/>
<text text-anchor="middle" x="293.5" y="-79" font-family="Helvetica,sans-Serif" font-size="10.00"> elements</text>
</g>
<!-- Node4 -->
<g id="node4" class="node">
<title>Node4</title>
<g id="a_node4"><a target="_parent" xlink:href="http://en.cppreference.com/w/cpp/string/basic_string.html" xlink:title=" ">
<polygon fill="none" stroke="black" points="163,-30.5 163,-49.5 223,-49.5 223,-30.5 163,-30.5"/>
<text text-anchor="middle" x="193" y="-37.5" font-family="Helvetica,sans-Serif" font-size="10.00">std::string</text>
</a>
</g>
</g>
<!-- Node4&#45;&gt;Node2 -->
<g id="edge3" class="edge">
<title>Node4&#45;&gt;Node2</title>
<path fill="none" stroke="#9a32cd" stroke-dasharray="5,2" d="M233.25,-44.77C261.4,-48.2 300,-52.9 332.93,-56.9"/>
<polygon fill="#9a32cd" stroke="#9a32cd" points="233.36,-41.26 223.01,-43.53 232.51,-48.21 233.36,-41.26"/>
<text text-anchor="middle" x="293.5" y="-56" font-family="Helvetica,sans-Serif" font-size="10.00"> keys</text>
</g>
<!-- Node5 -->
<g id="node5" class="node">
<title>Node5</title>
<g id="a_node5"><a target="_parent" xlink:href="http://en.cppreference.com/w/cpp/string/basic_string.html" xlink:title=" ">
<polygon fill="none" stroke="black" points="0,-25 0,-55 95,-55 95,-25 0,-25"/>
<text text-anchor="start" x="8" y="-43" font-family="Helvetica,sans-Serif" font-size="10.00">std::basic_string&lt;</text>
<text text-anchor="middle" x="47.5" y="-32" font-family="Helvetica,sans-Serif" font-size="10.00"> char &gt;</text>
</a>
</g>
</g>
<!-- Node5&#45;&gt;Node4 -->
<g id="edge4" class="edge">
<title>Node5&#45;&gt;Node4</title>
<path fill="none" stroke="midnightblue" d="M105.21,-40C124.91,-40 146.2,-40 162.76,-40"/>
<polygon fill="midnightblue" stroke="midnightblue" points="105.09,-36.5 95.09,-40 105.09,-43.5 105.09,-36.5"/>
</g>
<!-- Node6 -->
<g id="node6" class="node">
<title>Node6</title>
<g id="a_node6"><a target="_parent" xlink:href="http://en.cppreference.com/w/cpp/types/size_t.html" xlink:title=" ">
<polygon fill="none" stroke="black" points="369.5,-0.5 369.5,-19.5 431.5,-19.5 431.5,-0.5 369.5,-0.5"/>
<text text-anchor="middle" x="400.5" y="-7.5" font-family="Helvetica,sans-Serif" font-size="10.00">std::size_t</text>
</a>
</g>
</g>
<!-- Node6&#45;&gt;Node1 -->
<g id="edge5" class="edge">
<title>Node6&#45;&gt;Node1</title>
<path fill="none" stroke="#9a32cd" stroke-dasharray="5,2" d="M441.77,-12.5C472.97,-14.53 517.25,-17.6 556,-21 561.8,-21.51 567.92,-22.1 573.92,-22.7"/>
<polygon fill="#9a32cd" stroke="#9a32cd" points="441.92,-9.01 431.72,-11.86 441.47,-15.99 441.92,-9.01"/>
<text text-anchor="middle" x="521" y="-24" font-family="Helvetica,sans-Serif" font-size="10.00"> entries_</text>
</g>
</g>
</svg>
