<?xml version="1.0" encoding="UTF-8" standalone="no"?>
<!DOCTYPE svg PUBLIC "-//W3C//DTD SVG 1.1//EN"
 "http://www.w3.org/Graphics/SVG/1.1/DTD/svg11.dtd">
<!-- Generated by graphviz version 2.43.0 (0)
 -->
<!-- Title: hdtree::Reader::MirrorObject Pages: 1 -->
<svg width="636pt" height="88pt"
 viewBox="0.00 0.00 636.00 88.00" xmlns="http://www.w3.org/2000/svg" xmlns:xlink="http://www.w3.org/1999/xlink">
<g id="graph0" class="graph" transform="scale(1 1) rotate(0) translate(4 84)">
<title>hdtree::Reader::MirrorObject</title>
<!-- Node1 -->
<g id="node1" class="node">
<title>Node1</title>
<g id="a_node1"><a xlink:title="A mirror event object.">
<polygon fill="#bfbfbf" stroke="black" points="488,-31 488,-50 628,-50 628,-31 488,-31"/>
<text text-anchor="middle" x="558" y="-38" font-family="Helvetica,sans-Serif" font-size="10.00">hdtree::Reader::MirrorObject</text>
</a>
</g>
</g>
<!-- Node2 -->
<g id="node2" class="node">
<title>Node2</title>
<g id="a_node2"><a target="_parent" xlink:href="http://en.cppreference.com/w/cpp/memory/unique_ptr.html" xlink:title=" ">
<polygon fill="none" stroke="black" points="234.5,-49.5 234.5,-79.5 351.5,-79.5 351.5,-49.5 234.5,-49.5"/>
<text text-anchor="start" x="242.5" y="-67.5" font-family="Helvetica,sans-Serif" font-size="10.00">std::unique_ptr&lt; hdtree</text>
<text text-anchor="middle" x="293" y="-56.5" font-family="Helvetica,sans-Serif" font-size="10.00">::BaseBranch &gt;</text>
</a>
</g>
</g>
<!-- Node2&#45;&gt;Node1 -->
<g id="edge1" class="edge">
<title>Node2&#45;&gt;Node1</title>
<path fill="none" stroke="#9a32cd" stroke-dasharray="5,2" d="M361.84,-58.31C400.5,-54.78 448.85,-50.37 487.75,-46.82"/>
<polygon fill="#9a32cd" stroke="#9a32cd" points="361.36,-54.84 351.72,-59.23 361.99,-61.81 361.36,-54.84"/>
<text text-anchor="middle" x="436.5" y="-67.5" font-family="Helvetica,sans-Serif" font-size="10.00"> data_</text>
<text text-anchor="middle" x="436.5" y="-56.5" font-family="Helvetica,sans-Serif" font-size="10.00">size_member_</text>
</g>
<!-- Node3 -->
<g id="node3" class="node">
<title>Node3</title>
<g id="a_node3"><a target="_parent" xlink:href="http://en.cppreference.com/w/cpp/container/vector.html" xlink:title=" ">
<polygon fill="none" stroke="black" points="201,-0.5 201,-30.5 385,-30.5 385,-0.5 201,-0.5"/>
<text text-anchor="start" x="209" y="-18.5" font-family="Helvetica,sans-Serif" font-size="10.00">std::vector&lt; std::unique</text>
<text text-anchor="middle" x="293" y="-7.5" font-family="Helvetica,sans-Serif" font-size="10.00">_ptr&lt; hdtree::Reader::MirrorObject &gt; &gt;</text>
</a>
</g>
</g>
<!-- Node3&#45;&gt;Node1 -->
<g id="edge2" class="edge">
<title>Node3&#45;&gt;Node1</title>
<path fill="none" stroke="#9a32cd" stroke-dasharray="5,2" d="M395.22,-25.12C426.2,-28.07 459.57,-31.24 487.9,-33.93"/>
<polygon fill="#9a32cd" stroke="#9a32cd" points="395.53,-21.64 385.25,-24.17 394.87,-28.6 395.53,-21.64"/>
<text text-anchor="middle" x="436.5" y="-34.5" font-family="Helvetica,sans-Serif" font-size="10.00"> obj_members_</text>
</g>
<!-- Node4 -->
<g id="node4" class="node">
<title>Node4</title>
<g id="a_node4"><a target="_parent" xlink:href="http://en.cppreference.com/w/cpp/memory/unique_ptr.html" xlink:title=" ">
<polygon fill="none" stroke="black" points="0,-0.5 0,-30.5 122,-30.5 122,-0.5 0,-0.5"/>
<text text-anchor="start" x="8" y="-18.5" font-family="Helvetica,sans-Serif" font-size="10.00">std::unique_ptr&lt; hdtree</text>
<text text-anchor="middle" x="61" y="-7.5" font-family="Helvetica,sans-Serif" font-size="10.00">::Reader::MirrorObject &gt;</text>
</a>
</g>
</g>
<!-- Node4&#45;&gt;Node3 -->
<g id="edge3" class="edge">
<title>Node4&#45;&gt;Node3</title>
<path fill="none" stroke="#9a32cd" stroke-dasharray="5,2" d="M132.17,-15.5C153.74,-15.5 177.8,-15.5 200.57,-15.5"/>
<polygon fill="#9a32cd" stroke="#9a32cd" points="132.13,-12 122.13,-15.5 132.13,-19 132.13,-12"/>
<text text-anchor="middle" x="161.5" y="-18.5" font-family="Helvetica,sans-Serif" font-size="10.00"> elements</text>
</g>
</g>
</svg>
